<svg class="v-m-root" viewBox="0 0 600 500" width="600" height="500" xmlns="http://www.w3.org/2000/svg" style="left: 0px; top: 0px; direction: ltr; height: 100%; width: 100%; display: block; cursor: default;"><defs></defs><g class="v-m-action-layer-group"></g><g class="v-m-background"><rect class="v-background-body viz-plot-background v-morphable-background" x="0" y="0" width="600" height="500" style="fill:transparent"></rect></g><g class="v-m-title" transform="translate(79.4, 25)"><rect class="v-bound" width="394.6" height="23" fill="transparent"></rect><text class="v-title viz-title-label" fill="#000000" font-family="'Open Sans', Arial, Helvetica, sans-serif" font-size="21px" font-weight="normal" font-style="normal" text-anchor="start" x="0" y="11.5" dominant-baseline="central">Title of Chart</text></g><g class="v-m-legendGroup" transform="translate(496, 84)"><g class="v-m-legend" transform="translate(0,0)"><rect class="v-bound" width="79" height="105" fill="transparent"></rect><g class="v-content" transform="translate(0, 0)" font-size="10px" font-family="'Open Sans', Arial, Helvetica, sans-serif" font-weight="normal" fill="#737373" font-style="normal"><rect class="v-legend-body-bound" x="-5" fill="transparent" width="84" height="105"></rect><g class="v-groups v-label viz-legend-valueLabel" transform="translate(0, 0)"><g class="v-legend-element v-legend-item" transform="translate (-5,0)" legendlabel-id="0"><rect width="84" height="17.5" fill="transparent"></rect><path class="v-legend-marker" fill="#73d2e0" stroke-width="0" stroke="transparent" opacity="1" stroke-opacity="undefined" d="M-7,0 A7,7 0 1,0 7,0 A7,7 0 1,0 -7,0z" transform="translate(12,8.25)"></path><text x="24" y="3.25" dy="0.85em">2012 / Car</text></g><g class="v-legend-element v-legend-item" transform="translate (-5,17.5)" legendlabel-id="1"><rect width="84" height="17.5" fill="transparent"></rect><path class="v-legend-marker" fill="#bbd03b" stroke-width="0" stroke="transparent" opacity="1" stroke-opacity="undefined" d="M-7,0 A7,7 0 1,0 7,0 A7,7 0 1,0 -7,0z" transform="translate(12,8.25)"></path><text x="24" y="3.25" dy="0.85em">2013 / Car</text></g><g class="v-legend-element v-legend-item" transform="translate (-5,35)" legendlabel-id="2"><rect width="84" height="17.5" fill="transparent"></rect><path class="v-legend-marker" fill="#999d20" stroke-width="0" stroke="transparent" opacity="1" stroke-opacity="undefined" d="M-7,0 A7,7 0 1,0 7,0 A7,7 0 1,0 -7,0z" transform="translate(12,8.25)"></path><text x="24" y="3.25" dy="0.85em">2014 / Car</text></g><g class="v-legend-element v-legend-item" transform="translate (-5,52.5)" legendlabel-id="3"><rect width="84" height="17.5" fill="transparent"></rect><path class="v-legend-marker" fill="#f2910f" stroke-width="0" stroke="transparent" opacity="1" stroke-opacity="undefined" d="M-7,0 A7,7 0 1,0 7,0 A7,7 0 1,0 -7,0z" transform="translate(12,8.25)"></path><text x="24" y="3.25" dy="0.85em">2012 / Truck</text></g><g class="v-legend-element v-legend-item" transform="translate (-5,70)" legendlabel-id="4"><rect width="84" height="17.5" fill="transparent"></rect><path class="v-legend-marker" fill="#fccd8c" stroke-width="0" stroke="transparent" opacity="1" stroke-opacity="undefined" d="M-7,0 A7,7 0 1,0 7,0 A7,7 0 1,0 -7,0z" transform="translate(12,8.25)"></path><text x="24" y="3.25" dy="0.85em">2013 / Truck</text></g><g class="v-legend-element v-legend-item" transform="translate (-5,87.5)" legendlabel-id="5"><rect width="84" height="17.5" fill="transparent"></rect><path class="v-legend-marker" fill="#a5d5cb" stroke-width="0" stroke="transparent" opacity="1" stroke-opacity="undefined" d="M-7,0 A7,7 0 1,0 7,0 A7,7 0 1,0 -7,0z" transform="translate(12,8.25)"></path><text x="24" y="3.25" dy="0.85em">2014 / Truck</text></g></g></g></g></g><g class="v-m-main" transform="translate(25, 84)"><g class="v-m-plot" transform="translate(54.4, 0)"><rect class="v-background-body viz-plot-background v-morphable-background" x="0" y="0" width="394.6" height="331.4" style="fill:transparent"></rect><clipPath id="plot_main_clipPath_941896df-ed1b-43b9-8a60-00a133b79ca6"><rect y="-1" width="395.6" height="332.4"></rect></clipPath><rect class="v-plot-bound v-bound v-zoom-plot" width="394.6" height="331.4" fill="transparent"></rect><g clip-path="url(#plot_main_clipPath_941896df-ed1b-43b9-8a60-00a133b79ca6)"><g class="v-plot-main" transform="translate(0, 0)"><g class="v-gridline-group"><g class="v-gridline" stroke="#ececec" stroke-width="1" shape-rendering="crispEdges"><line class="v-gridline-mainline" x1="0" y1="331.4" x2="394.6" y2="331.4"></line></g><g class="v-gridline" stroke="#ececec" stroke-width="1" shape-rendering="crispEdges"><line class="v-gridline-mainline" x1="0" y1="265.12" x2="394.6" y2="265.12"></line></g><g class="v-gridline" stroke="#ececec" stroke-width="1" shape-rendering="crispEdges"><line class="v-gridline-mainline" x1="0" y1="198.83999999999997" x2="394.6" y2="198.83999999999997"></line></g><g class="v-gridline" stroke="#ececec" stroke-width="1" shape-rendering="crispEdges"><line class="v-gridline-mainline" x1="0" y1="132.56" x2="394.6" y2="132.56"></line></g><g class="v-gridline" stroke="#ececec" stroke-width="1" shape-rendering="crispEdges"><line class="v-gridline-mainline" x1="0" y1="66.27999999999997" x2="394.6" y2="66.27999999999997"></line></g><g class="v-gridline" stroke="#ececec" stroke-width="1" shape-rendering="crispEdges"><line class="v-gridline-mainline" x1="0" y1="0" x2="394.6" y2="0"></line></g></g><g class="v-datapoint-group"><g><path d="M65.76666666666667,172.328L197.29999999999998,119.30399999999999L328.83333333333337,145.81599999999997" fill="none" stroke-width="2" stroke="#73d2e0" stroke-linejoin="round" stroke-dasharray="undefined" class="v-lines v-morphable-line"></path><g data-id="0" data-datapoint-id="1" class="v-datapoint v-morphable-datapoint v-datapoint-default" transform="translate(65.76666666666667, 172.328)"><path d="M-4,0 A4,4 0 1,0 4,0 A4,4 0 1,0 -4,0z" fill="#73d2e0"></path></g><g data-id="1" data-datapoint-id="2" class="v-datapoint v-morphable-datapoint v-datapoint-default" transform="translate(197.29999999999998, 119.30399999999999)"><path d="M-4,0 A4,4 0 1,0 4,0 A4,4 0 1,0 -4,0z" fill="#73d2e0"></path></g><g data-id="2" data-datapoint-id="3" class="v-datapoint v-morphable-datapoint v-datapoint-default" transform="translate(328.83333333333337, 145.81599999999997)"><path d="M-4,0 A4,4 0 1,0 4,0 A4,4 0 1,0 -4,0z" fill="#73d2e0"></path></g></g><g><path d="M65.76666666666667,92.792L197.29999999999998,159.07199999999997L328.83333333333337,132.56" fill="none" stroke-width="2" stroke="#bbd03b" stroke-linejoin="round" stroke-dasharray="undefined" class="v-lines v-morphable-line"></path><g data-id="3" data-datapoint-id="4" class="v-datapoint v-morphable-datapoint v-datapoint-default" transform="translate(65.76666666666667, 92.792)"><path d="M-4,0 A4,4 0 1,0 4,0 A4,4 0 1,0 -4,0z" fill="#bbd03b"></path></g><g data-id="4" data-datapoint-id="5" class="v-datapoint v-morphable-datapoint v-datapoint-default" transform="translate(197.29999999999998, 159.07199999999997)"><path d="M-4,0 A4,4 0 1,0 4,0 A4,4 0 1,0 -4,0z" fill="#bbd03b"></path></g><g data-id="5" data-datapoint-id="6" class="v-datapoint v-morphable-datapoint v-datapoint-default" transform="translate(328.83333333333337, 132.56)"><path d="M-4,0 A4,4 0 1,0 4,0 A4,4 0 1,0 -4,0z" fill="#bbd03b"></path></g></g><g><path d="M65.76666666666667,66.27999999999999L197.29999999999998,106.04799999999997L328.83333333333337,119.30399999999999" fill="none" stroke-width="2" stroke="#999d20" stroke-linejoin="round" stroke-dasharray="undefined" class="v-lines v-morphable-line"></path><g data-id="6" data-datapoint-id="7" class="v-datapoint v-morphable-datapoint v-datapoint-default" transform="translate(65.76666666666667, 66.27999999999999)"><path d="M-4,0 A4,4 0 1,0 4,0 A4,4 0 1,0 -4,0z" fill="#999d20"></path></g><g data-id="7" data-datapoint-id="8" class="v-datapoint v-morphable-datapoint v-datapoint-default" transform="translate(197.29999999999998, 106.04799999999997)"><path d="M-4,0 A4,4 0 1,0 4,0 A4,4 0 1,0 -4,0z" fill="#999d20"></path></g><g data-id="8" data-datapoint-id="9" class="v-datapoint v-morphable-datapoint v-datapoint-default" transform="translate(328.83333333333337, 119.30399999999999)"><path d="M-4,0 A4,4 0 1,0 4,0 A4,4 0 1,0 -4,0z" fill="#999d20"></path></g></g><g><path d="M65.76666666666667,265.12L197.29999999999998,225.35199999999998L328.83333333333337,265.12" fill="none" stroke-width="2" stroke="#f2910f" stroke-linejoin="round" stroke-dasharray="undefined" class="v-lines v-morphable-line"></path><g data-id="9" data-datapoint-id="10" class="v-datapoint v-morphable-datapoint v-datapoint-default" transform="translate(65.76666666666667, 265.12)"><path d="M-4,0 A4,4 0 1,0 4,0 A4,4 0 1,0 -4,0z" fill="#f2910f"></path></g><g data-id="10" data-datapoint-id="11" class="v-datapoint v-morphable-datapoint v-datapoint-default" transform="translate(197.29999999999998, 225.35199999999998)"><path d="M-4,0 A4,4 0 1,0 4,0 A4,4 0 1,0 -4,0z" fill="#f2910f"></path></g><g data-id="11" data-datapoint-id="12" class="v-datapoint v-morphable-datapoint v-datapoint-default" transform="translate(328.83333333333337, 265.12)"><path d="M-4,0 A4,4 0 1,0 4,0 A4,4 0 1,0 -4,0z" fill="#f2910f"></path></g></g><g><path d="M65.76666666666667,251.86399999999998L197.29999999999998,251.86399999999998L328.83333333333337,238.60799999999998" fill="none" stroke-width="2" stroke="#fccd8c" stroke-linejoin="round" stroke-dasharray="undefined" class="v-lines v-morphable-line"></path><g data-id="12" data-datapoint-id="13" class="v-datapoint v-morphable-datapoint v-datapoint-default" transform="translate(65.76666666666667, 251.86399999999998)"><path d="M-4,0 A4,4 0 1,0 4,0 A4,4 0 1,0 -4,0z" fill="#fccd8c"></path></g><g data-id="13" data-datapoint-id="14" class="v-datapoint v-morphable-datapoint v-datapoint-default" transform="translate(197.29999999999998, 251.86399999999998)"><path d="M-4,0 A4,4 0 1,0 4,0 A4,4 0 1,0 -4,0z" fill="#fccd8c"></path></g><g data-id="14" data-datapoint-id="15" class="v-datapoint v-morphable-datapoint v-datapoint-default" transform="translate(328.83333333333337, 238.60799999999998)"><path d="M-4,0 A4,4 0 1,0 4,0 A4,4 0 1,0 -4,0z" fill="#fccd8c"></path></g></g><g><path d="M65.76666666666667,198.83999999999997L197.29999999999998,198.83999999999997L328.83333333333337,212.096" fill="none" stroke-width="2" stroke="#a5d5cb" stroke-linejoin="round" stroke-dasharray="undefined" class="v-lines v-morphable-line"></path><g data-id="15" data-datapoint-id="16" class="v-datapoint v-morphable-datapoint v-datapoint-default" transform="translate(65.76666666666667, 198.83999999999997)"><path d="M-4,0 A4,4 0 1,0 4,0 A4,4 0 1,0 -4,0z" fill="#a5d5cb"></path></g><g data-id="16" data-datapoint-id="17" class="v-datapoint v-morphable-datapoint v-datapoint-default" transform="translate(197.29999999999998, 198.83999999999997)"><path d="M-4,0 A4,4 0 1,0 4,0 A4,4 0 1,0 -4,0z" fill="#a5d5cb"></path></g><g data-id="17" data-datapoint-id="18" class="v-datapoint v-morphable-datapoint v-datapoint-default" transform="translate(328.83333333333337, 212.096)"><path d="M-4,0 A4,4 0 1,0 4,0 A4,4 0 1,0 -4,0z" fill="#a5d5cb"></path></g></g></g></g></g><g class="v-referenceline-group" clip-path="url(#plot_main_clipPath_941896df-ed1b-43b9-8a60-00a133b79ca6)"></g></g><g class="v-m-categoryAxis v-m-xAxis" transform="translate(54.4, 331.4)"><rect class="v-bound" width="394.6" height="59.6" fill="transparent"></rect><g class="v-axis"><g class="v-m-axisScrollbar" transform="translate(0,24.2)"><g><rect class="v-m-scrollbarTrack" visibility="hidden" fill="#f7f7f7" stroke-width="0" stroke="white" width="394.6" height="12"></rect><rect class="v-m-scrollbarThumb" visibility="hidden" fill="#e5e5e5" width="394.59999999999997" height="12" transform="translate(0, 0)"></rect></g></g><g class="v-m-axisTitle" transform="translate(0,45.2)"><g class="v-title viz-axis-title" fill="#000000" font-size="12px" font-weight="normal" font-family="'Open Sans', Arial, Helvetica, sans-serif" font-style="normal"><text text-anchor="middle" dominant-baseline="auto" x="197.3" y="11.4"><tspan class="v-title viz-axis-title" dominant-baseline="auto">Country</tspan></text></g></g><g class="v-m-axisBody" transform="translate(0,0)" clip-path="url(#clip-path-549580d2-b397-4b2e-a7b4-87166c4f51a2)"><clipPath class="v-clippath" id="clip-path-549580d2-b397-4b2e-a7b4-87166c4f51a2"><rect x="-1" y="-1" width="396.6" height="26.2"></rect></clipPath><g class="v-line-group"><line class="v-valueaxisline v-line" stroke="#babab9" stroke-width="1" shape-rendering="crispEdges" x1="-0.5" y1="0" x2="395.1" y2="0"></line></g><g class="v-label-group"><g class="v-label v-morphable-label viz-axis-label v-axis-item index_0" fill="#737373" font-size="11px" font-weight="normal" font-family="'Open Sans', Arial, Helvetica, sans-serif" font-style="normal" categorylabel-id="0" transform="translate(0,0)"><rect class="viz-axis-label-rect" fill="transparent" x="1" y="1" width="129.53333333" height="22.2"></rect><g class="v-axis-label-wrapper"><text x="65.766666665" y="17.2" text-anchor="middle">China</text></g></g><g class="v-label v-morphable-label viz-axis-label v-axis-item index_0" fill="#737373" font-size="11px" font-weight="normal" font-family="'Open Sans', Arial, Helvetica, sans-serif" font-style="normal" categorylabel-id="1" transform="translate(131.53333333,0)"><rect class="viz-axis-label-rect" fill="transparent" x="1" y="1" width="129.53333334" height="22.2"></rect><g class="v-axis-label-wrapper"><text x="65.76666667" y="17.2" text-anchor="middle">USA</text></g></g><g class="v-label v-morphable-label viz-axis-label v-axis-item index_0" fill="#737373" font-size="11px" font-weight="normal" font-family="'Open Sans', Arial, Helvetica, sans-serif" font-style="normal" categorylabel-id="2" transform="translate(263.06666667,0)"><rect class="viz-axis-label-rect" fill="transparent" x="1" y="1" width="129.53333333" height="22.2"></rect><g class="v-axis-label-wrapper"><text x="65.766666665" y="17.2" text-anchor="middle">Germany</text></g></g></g></g></g></g><g class="v-m-valueAxis v-m-yAxis" transform="translate(0, 0)"><rect class="v-bound" width="54.4" height="331.4" fill="transparent"></rect><g class="v-axis"><g class="v-m-axisTitle" transform="translate(-1.7763568394002505e-15,0)"><g class="v-title viz-axis-title" fill="#000000" font-size="12px" font-weight="normal" font-family="'Open Sans', Arial, Helvetica, sans-serif" font-style="normal"><text text-anchor="middle" dominant-baseline="auto" x="11.4" y="165.7" transform="rotate(-90,11.4,165.7)"><tspan class="v-title viz-axis-title" dominant-baseline="auto">Profit</tspan></text></g></g><g class="v-m-axisBody" transform="translate(25.4,0)"><clipPath class="v-clippath-labels" id="clip-path-32eb13c5-cc6e-4a6b-a383-06bc168e420d"><rect x="-1" y="-10" width="31" height="351.4"></rect></clipPath><clipPath class="v-clippath-ticks" id="clip-path-84d79aa9-e837-45d6-8194-231315306692"><rect x="-1" y="-1" width="31" height="333.4"></rect></clipPath><rect class="v-bound" width="29" height="331.4" fill="transparent"></rect><g clip-path="url(#clip-path-84d79aa9-e837-45d6-8194-231315306692)"><g class="v-tick-group"><line class="v-valueaxisline v-tick" stroke="#878786" stroke-width="1" shape-rendering="crispEdges" x1="29" y1="331.4" x2="24" y2="331.4"></line><line class="v-valueaxisline v-tick" stroke="#878786" stroke-width="1" shape-rendering="crispEdges" x1="29" y1="265.12" x2="24" y2="265.12"></line><line class="v-valueaxisline v-tick" stroke="#878786" stroke-width="1" shape-rendering="crispEdges" x1="29" y1="198.83999999999997" x2="24" y2="198.83999999999997"></line><line class="v-valueaxisline v-tick" stroke="#878786" stroke-width="1" shape-rendering="crispEdges" x1="29" y1="132.56" x2="24" y2="132.56"></line><line class="v-valueaxisline v-tick" stroke="#878786" stroke-width="1" shape-rendering="crispEdges" x1="29" y1="66.27999999999997" x2="24" y2="66.27999999999997"></line><line class="v-valueaxisline v-tick" stroke="#878786" stroke-width="1" shape-rendering="crispEdges" x1="29" y1="0" x2="24" y2="0"></line></g></g><g clip-path="url(#clip-path-32eb13c5-cc6e-4a6b-a383-06bc168e420d)"><g class="v-label-group"><g class="v-label v-morphable-label viz-axis-label" fill="#737373" font-size="10px" font-weight="normal" font-family="'Open Sans', Arial, Helvetica, sans-serif" font-style="normal"><text text-anchor="end" x="18" y="335.4">0</text></g><g class="v-label v-morphable-label viz-axis-label" fill="#737373" font-size="10px" font-weight="normal" font-family="'Open Sans', Arial, Helvetica, sans-serif" font-style="normal"><text text-anchor="end" x="18" y="269.12">50</text></g><g class="v-label v-morphable-label viz-axis-label" fill="#737373" font-size="10px" font-weight="normal" font-family="'Open Sans', Arial, Helvetica, sans-serif" font-style="normal"><text text-anchor="end" x="18" y="202.83999999999997">100</text></g><g class="v-label v-morphable-label viz-axis-label" fill="#737373" font-size="10px" font-weight="normal" font-family="'Open Sans', Arial, Helvetica, sans-serif" font-style="normal"><text text-anchor="end" x="18" y="136.56">150</text></g><g class="v-label v-morphable-label viz-axis-label" fill="#737373" font-size="10px" font-weight="normal" font-family="'Open Sans', Arial, Helvetica, sans-serif" font-style="normal"><text text-anchor="end" x="18" y="70.27999999999997">200</text></g><g class="v-label v-morphable-label viz-axis-label" fill="#737373" font-size="10px" font-weight="normal" font-family="'Open Sans', Arial, Helvetica, sans-serif" font-style="normal"><text text-anchor="end" x="18" y="4">250</text></g></g></g></g></g></g><g class="v-m-scrollbar" transform="translate(449, 0)"></g></g></svg>