<svg class="v-m-root" viewBox="0 0 600 500" width="600" height="500" xmlns="http://www.w3.org/2000/svg" style="left: 0px; top: 0px; direction: ltr; height: 100%; width: 100%; display: block; cursor: default;"><defs></defs><g class="v-m-action-layer-group"></g><g class="v-m-background"><rect class="v-background-body viz-plot-background v-morphable-background" x="0" y="0" width="600" height="500" style="fill:transparent"></rect></g><g class="v-m-title" transform="translate(79.4, 25)"></g><g class="v-m-legendGroup" transform="translate(575, 25)"><g class="v-m-legend" transform="translate(0,0)"><rect class="v-bound" width="0" height="0" visibility="hidden"></rect></g></g><g class="v-m-main" transform="translate(25, 25)"><g class="v-m-plot" transform="translate(54.4, 0)"><rect class="v-background-body viz-plot-background v-morphable-background" x="0" y="0" width="495.6" height="366.2" style="fill:transparent"></rect><clipPath id="plot_main_clipPath_7b685f59-42dd-4c89-93f1-1d58ec395b6f"><rect y="-1" width="496.6" height="367.2"></rect></clipPath><rect class="v-plot-bound v-bound v-zoom-plot" width="495.6" height="366.2" fill="transparent"></rect><g clip-path="url(#plot_main_clipPath_7b685f59-42dd-4c89-93f1-1d58ec395b6f)"><g class="v-plot-main" transform="translate(0, 0)"><g class="v-gridline-group"><g class="v-gridline" stroke="#ececec" stroke-width="1" shape-rendering="crispEdges"><line class="v-gridline-mainline" x1="0" y1="366.2" x2="495.6" y2="366.2"></line></g><g class="v-gridline" stroke="#ececec" stroke-width="1" shape-rendering="crispEdges"><line class="v-gridline-mainline" x1="0" y1="292.96" x2="495.6" y2="292.96"></line></g><g class="v-gridline" stroke="#ececec" stroke-width="1" shape-rendering="crispEdges"><line class="v-gridline-mainline" x1="0" y1="219.72" x2="495.6" y2="219.72"></line></g><g class="v-gridline" stroke="#ececec" stroke-width="1" shape-rendering="crispEdges"><line class="v-gridline-mainline" x1="0" y1="146.48" x2="495.6" y2="146.48"></line></g><g class="v-gridline" stroke="#ececec" stroke-width="1" shape-rendering="crispEdges"><line class="v-gridline-mainline" x1="0" y1="73.24000000000001" x2="495.6" y2="73.24000000000001"></line></g><g class="v-gridline" stroke="#ececec" stroke-width="1" shape-rendering="crispEdges"><line class="v-gridline-mainline" x1="0" y1="0" x2="495.6" y2="0"></line></g></g><g class="v-datapoint-group"><g><path d="M13.766666666666666,190.424L41.300000000000004,102.536L68.83333333333334,73.23999999999998L96.36666666666667,292.96L123.9,278.312L151.43333333333334,219.72L178.96666666666667,131.832L206.49999999999997,175.77599999999998L234.03333333333333,117.18399999999998L261.56666666666666,249.01599999999996L289.09999999999997,278.312L316.6333333333333,219.72L344.1666666666667,161.128L371.70000000000005,146.48L399.2333333333333,131.832L426.7666666666666,292.96L454.29999999999995,263.664L481.8333333333333,234.368" fill="none" stroke-width="2" stroke="#73d2e0" stroke-linejoin="round" stroke-dasharray="undefined" class="v-lines v-morphable-line"></path><g data-id="0" data-datapoint-id="19" class="v-datapoint v-morphable-datapoint v-datapoint-default" transform="translate(13.766666666666666, 190.424)"><path d="M-4,0 A4,4 0 1,0 4,0 A4,4 0 1,0 -4,0z" fill="#73d2e0"></path></g><g data-id="1" data-datapoint-id="20" class="v-datapoint v-morphable-datapoint v-datapoint-default" transform="translate(41.300000000000004, 102.536)"><path d="M-4,0 A4,4 0 1,0 4,0 A4,4 0 1,0 -4,0z" fill="#73d2e0"></path></g><g data-id="2" data-datapoint-id="21" class="v-datapoint v-morphable-datapoint v-datapoint-default" transform="translate(68.83333333333334, 73.23999999999998)"><path d="M-4,0 A4,4 0 1,0 4,0 A4,4 0 1,0 -4,0z" fill="#73d2e0"></path></g><g data-id="3" data-datapoint-id="22" class="v-datapoint v-morphable-datapoint v-datapoint-default" transform="translate(96.36666666666667, 292.96)"><path d="M-4,0 A4,4 0 1,0 4,0 A4,4 0 1,0 -4,0z" fill="#73d2e0"></path></g><g data-id="4" data-datapoint-id="23" class="v-datapoint v-morphable-datapoint v-datapoint-default" transform="translate(123.9, 278.312)"><path d="M-4,0 A4,4 0 1,0 4,0 A4,4 0 1,0 -4,0z" fill="#73d2e0"></path></g><g data-id="5" data-datapoint-id="24" class="v-datapoint v-morphable-datapoint v-datapoint-default" transform="translate(151.43333333333334, 219.72)"><path d="M-4,0 A4,4 0 1,0 4,0 A4,4 0 1,0 -4,0z" fill="#73d2e0"></path></g><g data-id="6" data-datapoint-id="25" class="v-datapoint v-morphable-datapoint v-datapoint-default" transform="translate(178.96666666666667, 131.832)"><path d="M-4,0 A4,4 0 1,0 4,0 A4,4 0 1,0 -4,0z" fill="#73d2e0"></path></g><g data-id="7" data-datapoint-id="26" class="v-datapoint v-morphable-datapoint v-datapoint-default" transform="translate(206.49999999999997, 175.77599999999998)"><path d="M-4,0 A4,4 0 1,0 4,0 A4,4 0 1,0 -4,0z" fill="#73d2e0"></path></g><g data-id="8" data-datapoint-id="27" class="v-datapoint v-morphable-datapoint v-datapoint-default" transform="translate(234.03333333333333, 117.18399999999998)"><path d="M-4,0 A4,4 0 1,0 4,0 A4,4 0 1,0 -4,0z" fill="#73d2e0"></path></g><g data-id="9" data-datapoint-id="28" class="v-datapoint v-morphable-datapoint v-datapoint-default" transform="translate(261.56666666666666, 249.01599999999996)"><path d="M-4,0 A4,4 0 1,0 4,0 A4,4 0 1,0 -4,0z" fill="#73d2e0"></path></g><g data-id="10" data-datapoint-id="29" class="v-datapoint v-morphable-datapoint v-datapoint-default" transform="translate(289.09999999999997, 278.312)"><path d="M-4,0 A4,4 0 1,0 4,0 A4,4 0 1,0 -4,0z" fill="#73d2e0"></path></g><g data-id="11" data-datapoint-id="30" class="v-datapoint v-morphable-datapoint v-datapoint-default" transform="translate(316.6333333333333, 219.72)"><path d="M-4,0 A4,4 0 1,0 4,0 A4,4 0 1,0 -4,0z" fill="#73d2e0"></path></g><g data-id="12" data-datapoint-id="31" class="v-datapoint v-morphable-datapoint v-datapoint-default" transform="translate(344.1666666666667, 161.128)"><path d="M-4,0 A4,4 0 1,0 4,0 A4,4 0 1,0 -4,0z" fill="#73d2e0"></path></g><g data-id="13" data-datapoint-id="32" class="v-datapoint v-morphable-datapoint v-datapoint-default" transform="translate(371.70000000000005, 146.48)"><path d="M-4,0 A4,4 0 1,0 4,0 A4,4 0 1,0 -4,0z" fill="#73d2e0"></path></g><g data-id="14" data-datapoint-id="33" class="v-datapoint v-morphable-datapoint v-datapoint-default" transform="translate(399.2333333333333, 131.832)"><path d="M-4,0 A4,4 0 1,0 4,0 A4,4 0 1,0 -4,0z" fill="#73d2e0"></path></g><g data-id="15" data-datapoint-id="34" class="v-datapoint v-morphable-datapoint v-datapoint-default" transform="translate(426.7666666666666, 292.96)"><path d="M-4,0 A4,4 0 1,0 4,0 A4,4 0 1,0 -4,0z" fill="#73d2e0"></path></g><g data-id="16" data-datapoint-id="35" class="v-datapoint v-morphable-datapoint v-datapoint-default" transform="translate(454.29999999999995, 263.664)"><path d="M-4,0 A4,4 0 1,0 4,0 A4,4 0 1,0 -4,0z" fill="#73d2e0"></path></g><g data-id="17" data-datapoint-id="36" class="v-datapoint v-morphable-datapoint v-datapoint-default" transform="translate(481.8333333333333, 234.368)"><path d="M-4,0 A4,4 0 1,0 4,0 A4,4 0 1,0 -4,0z" fill="#73d2e0"></path></g></g></g></g></g><g class="v-referenceline-group" clip-path="url(#plot_main_clipPath_7b685f59-42dd-4c89-93f1-1d58ec395b6f)"></g></g><g class="v-m-categoryAxis v-m-xAxis" transform="translate(54.4, 366.2)"><rect class="v-bound" width="495.6" height="83.8" fill="transparent"></rect><g class="v-axis"><g class="v-m-axisScrollbar" transform="translate(0,48.400000000000006)"><g><rect class="v-m-scrollbarTrack" visibility="hidden" fill="#f7f7f7" stroke-width="0" stroke="white" width="495.6" height="12"></rect><rect class="v-m-scrollbarThumb" visibility="hidden" fill="#e5e5e5" width="495.6" height="12" transform="translate(0, 0)"></rect></g></g><g class="v-m-axisTitle" transform="translate(0,69.4)"><g class="v-title viz-axis-title" fill="#000000" font-size="12px" font-weight="normal" font-family="'Open Sans', Arial, Helvetica, sans-serif" font-style="normal"><text text-anchor="middle" dominant-baseline="auto" x="247.8" y="11.4"><tspan class="v-title viz-axis-title" dominant-baseline="auto">Country</tspan><tspan class="v-title viz-axis-title" dominant-baseline="auto"> / Year</tspan><tspan class="v-title viz-axis-title" dominant-baseline="auto"> / Product</tspan></text></g></g><g class="v-m-axisBody" transform="translate(0,0)" clip-path="url(#clip-path-54cfe450-82d5-4911-84af-a0fae103090b)"><clipPath class="v-clippath" id="clip-path-54cfe450-82d5-4911-84af-a0fae103090b"><rect x="-1" y="-1" width="497.6" height="50.400000000000006"></rect></clipPath><g class="v-line-group"><line class="v-valueaxisline v-line" stroke="#babab9" stroke-width="1" shape-rendering="crispEdges" x1="-0.5" y1="0" x2="496.1" y2="0"></line></g><g class="v-label-group"><g class="v-label v-morphable-label viz-axis-label v-axis-item index_0" fill="#737373" font-size="11px" font-weight="normal" font-family="'Open Sans', Arial, Helvetica, sans-serif" font-style="normal" categorylabel-id="3" transform="translate(0,0)"><rect class="viz-axis-label-rect" fill="transparent" x="1" y="1" width="25.53333333" height="22.2"></rect><g class="v-axis-label-wrapper"><text x="13.766666665" y="17.2" text-anchor="middle">2012</text></g></g><g class="v-label v-morphable-label viz-axis-label v-axis-item index_0" fill="#737373" font-size="11px" font-weight="normal" font-family="'Open Sans', Arial, Helvetica, sans-serif" font-style="normal" categorylabel-id="4" transform="translate(27.53333333,0)"><rect class="viz-axis-label-rect" fill="transparent" x="1" y="1" width="25.53333333" height="22.2"></rect><g class="v-axis-label-wrapper"><text x="13.766666665" y="17.2" text-anchor="middle">2013</text></g></g><g class="v-label v-morphable-label viz-axis-label v-axis-item index_0" fill="#737373" font-size="11px" font-weight="normal" font-family="'Open Sans', Arial, Helvetica, sans-serif" font-style="normal" categorylabel-id="5" transform="translate(55.06666667,0)"><rect class="viz-axis-label-rect" fill="transparent" x="1" y="1" width="25.53333333" height="22.2"></rect><g class="v-axis-label-wrapper"><text x="13.766666665" y="17.2" text-anchor="middle">2014</text></g></g><g class="v-label v-morphable-label viz-axis-label v-axis-item index_0" fill="#737373" font-size="11px" font-weight="normal" font-family="'Open Sans', Arial, Helvetica, sans-serif" font-style="normal" categorylabel-id="6" transform="translate(82.6,0)"><rect class="viz-axis-label-rect" fill="transparent" x="1" y="1" width="25.53333333" height="22.2"></rect><g class="v-axis-label-wrapper"><text x="13.766666665" y="17.2" text-anchor="middle">2012</text></g></g><g class="v-label v-morphable-label viz-axis-label v-axis-item index_0" fill="#737373" font-size="11px" font-weight="normal" font-family="'Open Sans', Arial, Helvetica, sans-serif" font-style="normal" categorylabel-id="7" transform="translate(110.13333333,0)"><rect class="viz-axis-label-rect" fill="transparent" x="1" y="1" width="25.53333333" height="22.2"></rect><g class="v-axis-label-wrapper"><text x="13.766666665" y="17.2" text-anchor="middle">2013</text></g></g><g class="v-label v-morphable-label viz-axis-label v-axis-item index_0" fill="#737373" font-size="11px" font-weight="normal" font-family="'Open Sans', Arial, Helvetica, sans-serif" font-style="normal" categorylabel-id="8" transform="translate(137.66666667,0)"><rect class="viz-axis-label-rect" fill="transparent" x="1" y="1" width="25.53333333" height="22.2"></rect><g class="v-axis-label-wrapper"><text x="13.766666665" y="17.2" text-anchor="middle">2014</text></g></g><g class="v-label v-morphable-label viz-axis-label v-axis-item index_0" fill="#737373" font-size="11px" font-weight="normal" font-family="'Open Sans', Arial, Helvetica, sans-serif" font-style="normal" categorylabel-id="9" transform="translate(165.2,0)"><rect class="viz-axis-label-rect" fill="transparent" x="1" y="1" width="25.53333333" height="22.2"></rect><g class="v-axis-label-wrapper"><text x="13.766666665" y="17.2" text-anchor="middle">2012</text></g></g><g class="v-label v-morphable-label viz-axis-label v-axis-item index_0" fill="#737373" font-size="11px" font-weight="normal" font-family="'Open Sans', Arial, Helvetica, sans-serif" font-style="normal" categorylabel-id="10" transform="translate(192.73333333,0)"><rect class="viz-axis-label-rect" fill="transparent" x="1" y="1" width="25.53333333" height="22.2"></rect><g class="v-axis-label-wrapper"><text x="13.766666665" y="17.2" text-anchor="middle">2013</text></g></g><g class="v-label v-morphable-label viz-axis-label v-axis-item index_0" fill="#737373" font-size="11px" font-weight="normal" font-family="'Open Sans', Arial, Helvetica, sans-serif" font-style="normal" categorylabel-id="11" transform="translate(220.26666667,0)"><rect class="viz-axis-label-rect" fill="transparent" x="1" y="1" width="25.53333333" height="22.2"></rect><g class="v-axis-label-wrapper"><text x="13.766666665" y="17.2" text-anchor="middle">2014</text></g></g><g class="v-label v-morphable-label viz-axis-label v-axis-item index_0" fill="#737373" font-size="11px" font-weight="normal" font-family="'Open Sans', Arial, Helvetica, sans-serif" font-style="normal" categorylabel-id="12" transform="translate(247.8,0)"><rect class="viz-axis-label-rect" fill="transparent" x="1" y="1" width="25.53333333" height="22.2"></rect><g class="v-axis-label-wrapper"><text x="13.766666665" y="17.2" text-anchor="middle">2012</text></g></g><g class="v-label v-morphable-label viz-axis-label v-axis-item index_0" fill="#737373" font-size="11px" font-weight="normal" font-family="'Open Sans', Arial, Helvetica, sans-serif" font-style="normal" categorylabel-id="13" transform="translate(275.33333333,0)"><rect class="viz-axis-label-rect" fill="transparent" x="1" y="1" width="25.53333333" height="22.2"></rect><g class="v-axis-label-wrapper"><text x="13.766666665" y="17.2" text-anchor="middle">2013</text></g></g><g class="v-label v-morphable-label viz-axis-label v-axis-item index_0" fill="#737373" font-size="11px" font-weight="normal" font-family="'Open Sans', Arial, Helvetica, sans-serif" font-style="normal" categorylabel-id="14" transform="translate(302.86666667,0)"><rect class="viz-axis-label-rect" fill="transparent" x="1" y="1" width="25.53333333" height="22.2"></rect><g class="v-axis-label-wrapper"><text x="13.766666665" y="17.2" text-anchor="middle">2014</text></g></g><g class="v-label v-morphable-label viz-axis-label v-axis-item index_0" fill="#737373" font-size="11px" font-weight="normal" font-family="'Open Sans', Arial, Helvetica, sans-serif" font-style="normal" categorylabel-id="15" transform="translate(330.4,0)"><rect class="viz-axis-label-rect" fill="transparent" x="1" y="1" width="25.53333333" height="22.2"></rect><g class="v-axis-label-wrapper"><text x="13.766666665" y="17.2" text-anchor="middle">2012</text></g></g><g class="v-label v-morphable-label viz-axis-label v-axis-item index_0" fill="#737373" font-size="11px" font-weight="normal" font-family="'Open Sans', Arial, Helvetica, sans-serif" font-style="normal" categorylabel-id="16" transform="translate(357.93333333,0)"><rect class="viz-axis-label-rect" fill="transparent" x="1" y="1" width="25.53333333" height="22.2"></rect><g class="v-axis-label-wrapper"><text x="13.766666665" y="17.2" text-anchor="middle">2013</text></g></g><g class="v-label v-morphable-label viz-axis-label v-axis-item index_0" fill="#737373" font-size="11px" font-weight="normal" font-family="'Open Sans', Arial, Helvetica, sans-serif" font-style="normal" categorylabel-id="17" transform="translate(385.46666667,0)"><rect class="viz-axis-label-rect" fill="transparent" x="1" y="1" width="25.53333333" height="22.2"></rect><g class="v-axis-label-wrapper"><text x="13.766666665" y="17.2" text-anchor="middle">2014</text></g></g><g class="v-label v-morphable-label viz-axis-label v-axis-item index_0" fill="#737373" font-size="11px" font-weight="normal" font-family="'Open Sans', Arial, Helvetica, sans-serif" font-style="normal" categorylabel-id="18" transform="translate(413,0)"><rect class="viz-axis-label-rect" fill="transparent" x="1" y="1" width="25.53333333" height="22.2"></rect><g class="v-axis-label-wrapper"><text x="13.766666665" y="17.2" text-anchor="middle">2012</text></g></g><g class="v-label v-morphable-label viz-axis-label v-axis-item index_0" fill="#737373" font-size="11px" font-weight="normal" font-family="'Open Sans', Arial, Helvetica, sans-serif" font-style="normal" categorylabel-id="19" transform="translate(440.53333333,0)"><rect class="viz-axis-label-rect" fill="transparent" x="1" y="1" width="25.53333333" height="22.2"></rect><g class="v-axis-label-wrapper"><text x="13.766666665" y="17.2" text-anchor="middle">2013</text></g></g><g class="v-label v-morphable-label viz-axis-label v-axis-item index_0" fill="#737373" font-size="11px" font-weight="normal" font-family="'Open Sans', Arial, Helvetica, sans-serif" font-style="normal" categorylabel-id="20" transform="translate(468.06666667,0)"><rect class="viz-axis-label-rect" fill="transparent" x="1" y="1" width="25.53333333" height="22.2"></rect><g class="v-axis-label-wrapper"><text x="13.766666665" y="17.2" text-anchor="middle">2014</text></g></g><g class="v-label v-morphable-label viz-axis-label v-axis-item index_1" fill="#737373" font-size="11px" font-weight="normal" font-family="'Open Sans', Arial, Helvetica, sans-serif" font-style="normal" categorylabel-id="0" transform="translate(0,24.2)"><rect class="viz-axis-label-rect" fill="transparent" x="1" y="1" width="163.2" height="22.2"></rect><g class="v-axis-label-wrapper"><text x="82.6" y="17.2" text-anchor="middle">China</text></g></g><g class="v-label v-morphable-label viz-axis-label v-axis-item index_1" fill="#737373" font-size="11px" font-weight="normal" font-family="'Open Sans', Arial, Helvetica, sans-serif" font-style="normal" categorylabel-id="1" transform="translate(165.2,24.2)"><rect class="viz-axis-label-rect" fill="transparent" x="1" y="1" width="163.2" height="22.2"></rect><g class="v-axis-label-wrapper"><text x="82.6" y="17.2" text-anchor="middle">USA</text></g></g><g class="v-label v-morphable-label viz-axis-label v-axis-item index_1" fill="#737373" font-size="11px" font-weight="normal" font-family="'Open Sans', Arial, Helvetica, sans-serif" font-style="normal" categorylabel-id="2" transform="translate(330.4,24.2)"><rect class="viz-axis-label-rect" fill="transparent" x="1" y="1" width="163.2" height="22.2"></rect><g class="v-axis-label-wrapper"><text x="82.6" y="17.2" text-anchor="middle">Germany</text></g></g></g></g></g></g><g class="v-m-valueAxis v-m-yAxis" transform="translate(0, 0)"><rect class="v-bound" width="54.4" height="366.2" fill="transparent"></rect><g class="v-axis"><g class="v-m-axisTitle" transform="translate(-1.7763568394002505e-15,0)"><g class="v-title viz-axis-title" fill="#000000" font-size="12px" font-weight="normal" font-family="'Open Sans', Arial, Helvetica, sans-serif" font-style="normal"><text text-anchor="middle" dominant-baseline="auto" x="11.4" y="183.1" transform="rotate(-90,11.4,183.1)"><tspan class="v-title viz-axis-title" dominant-baseline="auto">Profit</tspan></text></g></g><g class="v-m-axisBody" transform="translate(25.4,0)"><clipPath class="v-clippath-labels" id="clip-path-ed58e6da-2e29-43bf-a0c8-195b825a6bd1"><rect x="-1" y="-10" width="31" height="386.2"></rect></clipPath><clipPath class="v-clippath-ticks" id="clip-path-eb053738-90e6-47b7-9f52-7e8ace1c9b3b"><rect x="-1" y="-1" width="31" height="368.2"></rect></clipPath><rect class="v-bound" width="29" height="366.2" fill="transparent"></rect><g clip-path="url(#clip-path-eb053738-90e6-47b7-9f52-7e8ace1c9b3b)"><g class="v-tick-group"><line class="v-valueaxisline v-tick" stroke="#878786" stroke-width="1" shape-rendering="crispEdges" x1="29" y1="366.2" x2="24" y2="366.2"></line><line class="v-valueaxisline v-tick" stroke="#878786" stroke-width="1" shape-rendering="crispEdges" x1="29" y1="292.96" x2="24" y2="292.96"></line><line class="v-valueaxisline v-tick" stroke="#878786" stroke-width="1" shape-rendering="crispEdges" x1="29" y1="219.72" x2="24" y2="219.72"></line><line class="v-valueaxisline v-tick" stroke="#878786" stroke-width="1" shape-rendering="crispEdges" x1="29" y1="146.48" x2="24" y2="146.48"></line><line class="v-valueaxisline v-tick" stroke="#878786" stroke-width="1" shape-rendering="crispEdges" x1="29" y1="73.24" x2="24" y2="73.24"></line><line class="v-valueaxisline v-tick" stroke="#878786" stroke-width="1" shape-rendering="crispEdges" x1="29" y1="0" x2="24" y2="0"></line></g></g><g clip-path="url(#clip-path-ed58e6da-2e29-43bf-a0c8-195b825a6bd1)"><g class="v-label-group"><g class="v-label v-morphable-label viz-axis-label" fill="#737373" font-size="10px" font-weight="normal" font-family="'Open Sans', Arial, Helvetica, sans-serif" font-style="normal"><text text-anchor="end" x="18" y="370.2">0</text></g><g class="v-label v-morphable-label viz-axis-label" fill="#737373" font-size="10px" font-weight="normal" font-family="'Open Sans', Arial, Helvetica, sans-serif" font-style="normal"><text text-anchor="end" x="18" y="296.96">50</text></g><g class="v-label v-morphable-label viz-axis-label" fill="#737373" font-size="10px" font-weight="normal" font-family="'Open Sans', Arial, Helvetica, sans-serif" font-style="normal"><text text-anchor="end" x="18" y="223.72">100</text></g><g class="v-label v-morphable-label viz-axis-label" fill="#737373" font-size="10px" font-weight="normal" font-family="'Open Sans', Arial, Helvetica, sans-serif" font-style="normal"><text text-anchor="end" x="18" y="150.48">150</text></g><g class="v-label v-morphable-label viz-axis-label" fill="#737373" font-size="10px" font-weight="normal" font-family="'Open Sans', Arial, Helvetica, sans-serif" font-style="normal"><text text-anchor="end" x="18" y="77.24000000000001">200</text></g><g class="v-label v-morphable-label viz-axis-label" fill="#737373" font-size="10px" font-weight="normal" font-family="'Open Sans', Arial, Helvetica, sans-serif" font-style="normal"><text text-anchor="end" x="18" y="4">250</text></g></g></g></g></g></g><g class="v-m-scrollbar" transform="translate(550, 0)"></g></g></svg>