<svg class="v-m-root" viewBox="0 0 600 500" width="600" height="500" xmlns="http://www.w3.org/2000/svg" style="left: 0px; top: 0px; direction: ltr; height: 100%; width: 100%; display: block; cursor: default;"><defs></defs><g class="v-m-action-layer-group"></g><g class="v-m-background"><rect class="v-background-body viz-plot-background v-morphable-background" x="0" y="0" width="600" height="500" style="fill:transparent"></rect></g><g class="v-m-title" transform="translate(97.4, 25)"></g><g class="v-m-legendGroup" transform="translate(532, 25)"><g class="v-m-legend" transform="translate(0,0)"><rect class="v-bound" width="43" height="52.5" fill="transparent"></rect><g class="v-content" transform="translate(0, 0)" font-size="10px" font-family="'Open Sans', Arial, Helvetica, sans-serif" font-weight="normal" fill="#737373" font-style="normal"><rect class="v-legend-body-bound" x="-5" fill="transparent" width="48" height="52.5"></rect><g class="v-groups v-label viz-legend-valueLabel" transform="translate(0, 0)"><g class="v-legend-element v-legend-item" transform="translate (-5,0)" legendlabel-id="0"><rect height="17.5" fill="transparent" width="48"></rect><path transform="translate(12,8.25)" class="v-legend-marker" fill="#73d2e0" stroke-width="0" stroke="transparent" opacity="1" stroke-opacity="undefined" d="M-7,0 A7,7 0 1,0 7,0 A7,7 0 1,0 -7,0z"></path><text x="24" y="3.25" dy="0.85em">2009</text></g><g class="v-legend-element v-legend-item" transform="translate (-5,17.5)" legendlabel-id="1"><rect height="17.5" fill="transparent" width="48"></rect><path transform="translate(12,8.25)" class="v-legend-marker" fill="#bbd03b" stroke-width="0" stroke="transparent" opacity="1" stroke-opacity="undefined" d="M-7,0 A7,7 0 1,0 7,0 A7,7 0 1,0 -7,0z"></path><text x="24" y="3.25" dy="0.85em">2010</text></g><g class="v-legend-element v-legend-item" transform="translate (-5,35)" legendlabel-id="2"><rect height="17.5" fill="transparent" width="48"></rect><path transform="translate(12,8.25)" class="v-legend-marker" fill="#999d20" stroke-width="0" stroke="transparent" opacity="1" stroke-opacity="undefined" d="M-7,0 A7,7 0 1,0 7,0 A7,7 0 1,0 -7,0z"></path><text x="24" y="3.25" dy="0.85em">2011</text></g></g></g></g></g><g class="v-m-main" transform="translate(25, 25)"><g class="v-m-plot" transform="translate(72.4, 0)"><rect class="v-background-body viz-plot-background v-morphable-background" x="0" y="0" width="412.6" height="390.4" style="fill:transparent"></rect><clipPath id="plot_main_clipPath_c2d40a2d-c27e-419a-8ed7-f32901b01a60"><rect y="-1" width="413.6" height="391.4"></rect></clipPath><rect class="v-plot-bound v-bound v-zoom-plot" width="412.6" height="390.4" fill="transparent"></rect><g clip-path="url(#plot_main_clipPath_c2d40a2d-c27e-419a-8ed7-f32901b01a60)"><g class="v-plot-main" transform="translate(0, 0)"><g class="v-gridline-group"><g class="v-gridline" stroke="#ececec" stroke-width="1" shape-rendering="crispEdges"><line class="v-gridline-mainline" x1="0" y1="390.4" x2="412.6" y2="390.4"></line></g><g class="v-gridline" stroke="#ececec" stroke-width="1" shape-rendering="crispEdges"><line class="v-gridline-mainline" x1="0" y1="325.3333333333333" x2="412.6" y2="325.3333333333333"></line></g><g class="v-gridline" stroke="#ececec" stroke-width="1" shape-rendering="crispEdges"><line class="v-gridline-mainline" x1="0" y1="260.26666666666665" x2="412.6" y2="260.26666666666665"></line></g><g class="v-gridline" stroke="#ececec" stroke-width="1" shape-rendering="crispEdges"><line class="v-gridline-mainline" x1="0" y1="195.2" x2="412.6" y2="195.2"></line></g><g class="v-gridline" stroke="#ececec" stroke-width="1" shape-rendering="crispEdges"><line class="v-gridline-mainline" x1="0" y1="130.13333333333327" x2="412.6" y2="130.13333333333327"></line></g><g class="v-gridline" stroke="#ececec" stroke-width="1" shape-rendering="crispEdges"><line class="v-gridline-mainline" x1="0" y1="65.06666666666666" x2="412.6" y2="65.06666666666666"></line></g><g class="v-gridline" stroke="#ececec" stroke-width="1" shape-rendering="crispEdges"><line class="v-gridline-mainline" x1="0" y1="0" x2="412.6" y2="0"></line></g></g><g class="v-datapoint-group"><g class="v-area-group"><g class="v-area"><path class="v-area-path v-morphable-areabg" fill="#999d20" opacity="0.8" d="M51.575,320.2288533333333L154.725,281.33850666666666L257.875,235.31262399999997L361.02500000000003,362.52511466666664L361.02500000000003,390.4L257.875,390.4L154.725,390.4L51.575,390.4"></path><path stroke="#999d20" stroke-width="1px" opacity="0.8" class="v-area-line-path v-morphable-areabg"></path><path class="v-area-detection-path" opacity="0" d="M41.575,320.2288533333333L51.575,320.2288533333333L51.575,390.4L41.575,390.4M361.02500000000003,362.52511466666664L371.02500000000003,362.52511466666664L371.02500000000003,390.4L361.02500000000003,390.4"></path></g><g class="v-area"><path class="v-area-path v-morphable-areabg" fill="#bbd03b" opacity="0.8" d="M51.575,230.60732799999997L154.725,154.6797333333333L257.875,126.53091733333332L361.02500000000003,280.875232L361.02500000000003,362.52511466666664L257.875,235.31262399999997L154.725,281.33850666666666L51.575,320.2288533333333"></path><path stroke="#bbd03b" stroke-width="1px" opacity="0.8" class="v-area-line-path v-morphable-areabg"></path><path class="v-area-detection-path" opacity="0" d="M41.575,230.60732799999997L51.575,230.60732799999997L51.575,320.2288533333333L41.575,320.2288533333333M361.02500000000003,280.875232L371.02500000000003,280.875232L371.02500000000003,362.52511466666664L361.02500000000003,362.52511466666664"></path></g><g class="v-area"><path class="v-area-path v-morphable-areabg" fill="#73d2e0" opacity="0.8" d="M51.575,143.13918399999994L154.725,86.90271466666663L257.875,20.206778666666676L361.02500000000003,224.22786666666667L361.02500000000003,280.875232L257.875,126.53091733333332L154.725,154.6797333333333L51.575,230.60732799999997"></path><path stroke="#73d2e0" stroke-width="1px" opacity="0.8" class="v-area-line-path v-morphable-areabg"></path><path class="v-area-detection-path" opacity="0" d="M41.575,143.13918399999994L51.575,143.13918399999994L51.575,230.60732799999997L41.575,230.60732799999997M361.02500000000003,224.22786666666667L371.02500000000003,224.22786666666667L371.02500000000003,280.875232L361.02500000000003,280.875232"></path></g></g><g class="v-area-point-group"><g class="v-area-point"><g data-id="0" data-datapoint-id="63" class="v-datapoint v-morphable-datapoint v-datapoint-default" transform="translate(51.575, 320.2288533333333)" opacity="0"><path d="M-4,0 A4,4 0 1,0 4,0 A4,4 0 1,0 -4,0z" fill="#999d20"></path></g><g data-id="1" data-datapoint-id="64" class="v-datapoint v-morphable-datapoint v-datapoint-default" transform="translate(154.725, 281.33850666666666)" opacity="0"><path d="M-4,0 A4,4 0 1,0 4,0 A4,4 0 1,0 -4,0z" fill="#999d20"></path></g><g data-id="2" data-datapoint-id="65" class="v-datapoint v-morphable-datapoint v-datapoint-default" transform="translate(257.875, 235.31262399999997)" opacity="0" fill-opacity="1"><path d="M-4,0 A4,4 0 1,0 4,0 A4,4 0 1,0 -4,0z" fill="#46480f" stroke-opacity="1"></path></g><g data-id="3" data-datapoint-id="66" class="v-datapoint v-morphable-datapoint v-datapoint-default" transform="translate(361.02500000000003, 362.52511466666664)" opacity="0" fill-opacity="1"><path d="M-4,0 A4,4 0 1,0 4,0 A4,4 0 1,0 -4,0z" fill="#46480f" stroke-opacity="1"></path></g></g><g class="v-area-point"><g data-id="4" data-datapoint-id="59" class="v-datapoint v-morphable-datapoint v-datapoint-default" transform="translate(51.575, 230.60732799999997)" opacity="0"><path d="M-4,0 A4,4 0 1,0 4,0 A4,4 0 1,0 -4,0z" fill="#bbd03b"></path></g><g data-id="5" data-datapoint-id="60" class="v-datapoint v-morphable-datapoint v-datapoint-default" transform="translate(154.725, 154.6797333333333)" opacity="0"><path d="M-4,0 A4,4 0 1,0 4,0 A4,4 0 1,0 -4,0z" fill="#bbd03b"></path></g><g data-id="6" data-datapoint-id="61" class="v-datapoint v-morphable-datapoint v-datapoint-default" transform="translate(257.875, 126.53091733333332)" opacity="0" fill-opacity="1"><path d="M-4,0 A4,4 0 1,0 4,0 A4,4 0 1,0 -4,0z" fill="#778520" stroke-opacity="1"></path></g><g data-id="7" data-datapoint-id="62" class="v-datapoint v-morphable-datapoint v-datapoint-default" transform="translate(361.02500000000003, 280.875232)" opacity="0"><path d="M-4,0 A4,4 0 1,0 4,0 A4,4 0 1,0 -4,0z" fill="#bbd03b"></path></g></g><g class="v-area-point"><g data-id="8" data-datapoint-id="55" class="v-datapoint v-morphable-datapoint v-datapoint-default" transform="translate(51.575, 143.13918399999994)" opacity="0"><path d="M-4,0 A4,4 0 1,0 4,0 A4,4 0 1,0 -4,0z" fill="#73d2e0"></path></g><g data-id="9" data-datapoint-id="56" class="v-datapoint v-morphable-datapoint v-datapoint-default" transform="translate(154.725, 86.90271466666663)" opacity="0"><path d="M-4,0 A4,4 0 1,0 4,0 A4,4 0 1,0 -4,0z" fill="#73d2e0"></path></g><g data-id="10" data-datapoint-id="57" class="v-datapoint v-morphable-datapoint v-datapoint-default" transform="translate(257.875, 20.206778666666676)" opacity="0" fill-opacity="1"><path d="M-4,0 A4,4 0 1,0 4,0 A4,4 0 1,0 -4,0z" fill="#2bafc2" stroke-opacity="1"></path></g><g data-id="11" data-datapoint-id="58" class="v-datapoint v-morphable-datapoint v-datapoint-default" transform="translate(361.02500000000003, 224.22786666666667)" opacity="0" fill-opacity="1"><path d="M-4,0 A4,4 0 1,0 4,0 A4,4 0 1,0 -4,0z" fill="#2bafc2" stroke-opacity="1"></path></g></g></g></g><g class="v-datalabel-group"><g data-datapoint-id="63" class="v-datalabel v-morphable-label" fill="#333333" font-family="'Open Sans', Arial, Helvetica, sans-serif" font-size="12px" font-weight="normal" font-style="normal" cssString="fill:#333333;font-family:'Open Sans', Arial, Helvetica, sans-serif;font-size:12px;font-weight:normal;font-style:normal;" transform="translate(51.57500076293945,360.3144246516927)"><text>21569</text></g><g data-datapoint-id="64" class="v-datalabel v-morphable-label" fill="#333333" font-family="'Open Sans', Arial, Helvetica, sans-serif" font-size="12px" font-weight="normal" font-style="normal" cssString="fill:#333333;font-family:'Open Sans', Arial, Helvetica, sans-serif;font-size:12px;font-weight:normal;font-style:normal;" transform="translate(137.22500610351562,340.8692476432292)"><text>33523</text></g><g data-datapoint-id="65" class="v-datalabel v-morphable-label" fill="#333333" font-family="'Open Sans', Arial, Helvetica, sans-serif" font-size="12px" font-weight="normal" font-style="normal" cssString="fill:#333333;font-family:'Open Sans', Arial, Helvetica, sans-serif;font-size:12px;font-weight:normal;font-style:normal;" transform="translate(235.375,317.8563100703125)"><text>47670.3</text></g><g data-datapoint-id="66" class="v-datalabel v-morphable-label" fill="#333333" font-family="'Open Sans', Arial, Helvetica, sans-serif" font-size="12px" font-weight="normal" font-style="normal" cssString="fill:#333333;font-family:'Open Sans', Arial, Helvetica, sans-serif;font-size:12px;font-weight:normal;font-style:normal;" transform="translate(323.0249938964844,381.4625586334635)"><text>8568.1</text></g><g data-datapoint-id="59" class="v-datalabel v-morphable-label" fill="#333333" font-family="'Open Sans', Arial, Helvetica, sans-serif" font-size="12px" font-weight="normal" font-style="normal" cssString="fill:#333333;font-family:'Open Sans', Arial, Helvetica, sans-serif;font-size:12px;font-weight:normal;font-style:normal;" transform="translate(51.57500076293945,280.4180929889323)"><text>27547.6</text></g><g data-datapoint-id="60" class="v-datalabel v-morphable-label" fill="#333333" font-family="'Open Sans', Arial, Helvetica, sans-serif" font-size="12px" font-weight="normal" font-style="normal" cssString="fill:#333333;font-family:'Open Sans', Arial, Helvetica, sans-serif;font-size:12px;font-weight:normal;font-style:normal;" transform="translate(137.22500610351562,223.00911994303385)"><text>38932</text></g><g data-datapoint-id="61" class="v-datalabel v-morphable-label" fill="#333333" font-family="'Open Sans', Arial, Helvetica, sans-serif" font-size="12px" font-weight="normal" font-style="normal" cssString="fill:#333333;font-family:'Open Sans', Arial, Helvetica, sans-serif;font-size:12px;font-weight:normal;font-style:normal;" transform="translate(240.375,185.92176763997395)"><text>33437</text></g><g data-datapoint-id="62" class="v-datalabel v-morphable-label" fill="#333333" font-family="'Open Sans', Arial, Helvetica, sans-serif" font-size="12px" font-weight="normal" font-style="normal" cssString="fill:#333333;font-family:'Open Sans', Arial, Helvetica, sans-serif;font-size:12px;font-weight:normal;font-style:normal;" transform="translate(316.0249938964844,326.70018547395836)"><text>25097.3</text></g><g data-datapoint-id="55" class="v-datalabel v-morphable-label" fill="#333333" font-family="'Open Sans', Arial, Helvetica, sans-serif" font-size="12px" font-weight="normal" font-style="normal" cssString="fill:#333333;font-family:'Open Sans', Arial, Helvetica, sans-serif;font-size:12px;font-weight:normal;font-style:normal;" transform="translate(51.57500076293945,191.87326267382815)"><text>26885.7</text></g><g data-datapoint-id="56" class="v-datalabel v-morphable-label" fill="#333333" font-family="'Open Sans', Arial, Helvetica, sans-serif" font-size="12px" font-weight="normal" font-style="normal" cssString="fill:#333333;font-family:'Open Sans', Arial, Helvetica, sans-serif;font-size:12px;font-weight:normal;font-style:normal;" transform="translate(132.22500610351562,125.79122692366536)"><text>20833.1</text></g><g data-datapoint-id="57" class="v-datalabel v-morphable-label" fill="#333333" font-family="'Open Sans', Arial, Helvetica, sans-serif" font-size="12px" font-weight="normal" font-style="normal" cssString="fill:#333333;font-family:'Open Sans', Arial, Helvetica, sans-serif;font-size:12px;font-weight:normal;font-style:normal;" transform="translate(235.375,78.36884881331379)"><text>32681.6</text></g><g data-datapoint-id="58" class="v-datalabel v-morphable-label" fill="#333333" font-family="'Open Sans', Arial, Helvetica, sans-serif" font-size="12px" font-weight="normal" font-style="normal" cssString="fill:#333333;font-family:'Open Sans', Arial, Helvetica, sans-serif;font-size:12px;font-weight:normal;font-style:normal;" transform="translate(316.0249938964844,257.55154216373694)"><text>17412.1</text></g></g></g></g><g class="v-referenceline-group" clip-path="url(#plot_main_clipPath_c2d40a2d-c27e-419a-8ed7-f32901b01a60)"></g></g><g class="v-m-categoryAxis v-m-xAxis" transform="translate(72.4, 390.4)"><rect class="v-bound" width="412.6" height="59.6" fill="transparent"></rect><g class="v-axis"><g class="v-m-axisScrollbar" transform="translate(0,24.2)"><g><rect class="v-m-scrollbarTrack" visibility="hidden" fill="#f7f7f7" stroke-width="0" stroke="white" width="412.6" height="12"></rect><rect class="v-m-scrollbarThumb" visibility="hidden" fill="#e5e5e5" width="412.6" height="12" transform="translate(0, 0)"></rect></g></g><g class="v-m-axisTitle" transform="translate(0,45.2)"><g class="v-title viz-axis-title" fill="#000000" font-size="12px" font-weight="normal" font-family="'Open Sans', Arial, Helvetica, sans-serif" font-style="normal"><text text-anchor="middle" dominant-baseline="auto" x="206.3" y="11.4"><tspan class="v-title viz-axis-title" dominant-baseline="auto">Country</tspan></text></g></g><g class="v-m-axisBody" transform="translate(0,0)" clip-path="url(#clip-path-2dddfe8d-09cd-4168-a278-a94f00f8440e)"><clipPath class="v-clippath" id="clip-path-2dddfe8d-09cd-4168-a278-a94f00f8440e"><rect x="-1" y="-1" width="414.6" height="26.2"></rect></clipPath><g class="v-line-group"><line class="v-valueaxisline v-line" stroke="#babab9" stroke-width="1" shape-rendering="crispEdges" x1="-0.5" y1="0" x2="413.1" y2="0"></line></g><g class="v-label-group"><g class="v-label v-morphable-label viz-axis-label v-axis-item index_0" fill="#737373" font-size="11px" font-weight="normal" font-family="'Open Sans', Arial, Helvetica, sans-serif" font-style="normal" categorylabel-id="0" transform="translate(0,0)"><rect class="viz-axis-label-rect" fill="transparent" x="1" y="1" width="101.15" height="22.2"></rect><g class="v-axis-label-wrapper"><text x="51.575" y="17.2" text-anchor="middle">China</text></g></g><g class="v-label v-morphable-label viz-axis-label v-axis-item index_0" fill="#737373" font-size="11px" font-weight="normal" font-family="'Open Sans', Arial, Helvetica, sans-serif" font-style="normal" categorylabel-id="1" transform="translate(103.15,0)"><rect class="viz-axis-label-rect" fill="transparent" x="1" y="1" width="101.15" height="22.2"></rect><g class="v-axis-label-wrapper"><text x="51.575" y="17.2" text-anchor="middle">Japan</text></g></g><g class="v-label v-morphable-label viz-axis-label v-axis-item index_0" fill="#737373" font-size="11px" font-weight="normal" font-family="'Open Sans', Arial, Helvetica, sans-serif" font-style="normal" categorylabel-id="2" transform="translate(206.3,0)"><rect class="viz-axis-label-rect" fill="transparent" x="1" y="1" width="101.15" height="22.2"></rect><g class="v-axis-label-wrapper"><text x="51.575" y="17.2" text-anchor="middle">France</text></g></g><g class="v-label v-morphable-label viz-axis-label v-axis-item index_0" fill="#737373" font-size="11px" font-weight="normal" font-family="'Open Sans', Arial, Helvetica, sans-serif" font-style="normal" categorylabel-id="3" transform="translate(309.45,0)"><rect class="viz-axis-label-rect" fill="transparent" x="1" y="1" width="101.15" height="22.2"></rect><g class="v-axis-label-wrapper"><text x="51.575" y="17.2" text-anchor="middle">UK</text></g></g></g></g></g></g><g class="v-m-valueAxis v-m-yAxis" transform="translate(0, 0)"><rect class="v-bound" width="72.4" height="390.4" fill="transparent"></rect><g class="v-axis"><g class="v-m-axisTitle" transform="translate(5.329070518200751e-15,0)"><g class="v-title viz-axis-title" fill="#000000" font-size="12px" font-weight="normal" font-family="'Open Sans', Arial, Helvetica, sans-serif" font-style="normal"><text text-anchor="middle" dominant-baseline="auto" x="11.4" y="195.2" transform="rotate(-90,11.4,195.2)"><tspan class="v-title viz-axis-title" dominant-baseline="auto">Profit</tspan></text></g></g><g class="v-m-axisBody" transform="translate(25.400000000000006,0)"><clipPath class="v-clippath-labels" id="clip-path-ecc26353-4b95-454d-9af9-4d75f1155297"><rect x="-1" y="-10" width="49" height="410.4"></rect></clipPath><clipPath class="v-clippath-ticks" id="clip-path-130a1e12-4930-4d08-adf0-168f095fcf43"><rect x="-1" y="-1" width="49" height="392.4"></rect></clipPath><rect class="v-bound" width="47" height="390.4" fill="transparent"></rect><g clip-path="url(#clip-path-130a1e12-4930-4d08-adf0-168f095fcf43)"><g class="v-tick-group"><line class="v-valueaxisline v-tick" stroke="#878786" stroke-width="1" shape-rendering="crispEdges" x1="47" y1="390.4" x2="42" y2="390.4"></line><line class="v-valueaxisline v-tick" stroke="#878786" stroke-width="1" shape-rendering="crispEdges" x1="47" y1="325.33333333" x2="42" y2="325.33333333"></line><line class="v-valueaxisline v-tick" stroke="#878786" stroke-width="1" shape-rendering="crispEdges" x1="47" y1="260.26666667" x2="42" y2="260.26666667"></line><line class="v-valueaxisline v-tick" stroke="#878786" stroke-width="1" shape-rendering="crispEdges" x1="47" y1="195.2" x2="42" y2="195.2"></line><line class="v-valueaxisline v-tick" stroke="#878786" stroke-width="1" shape-rendering="crispEdges" x1="47" y1="130.13333333" x2="42" y2="130.13333333"></line><line class="v-valueaxisline v-tick" stroke="#878786" stroke-width="1" shape-rendering="crispEdges" x1="47" y1="65.06666667" x2="42" y2="65.06666667"></line><line class="v-valueaxisline v-tick" stroke="#878786" stroke-width="1" shape-rendering="crispEdges" x1="47" y1="0" x2="42" y2="0"></line></g></g><g clip-path="url(#clip-path-ecc26353-4b95-454d-9af9-4d75f1155297)"><g class="v-label-group"><g class="v-label v-morphable-label viz-axis-label" fill="#737373" font-size="10px" font-weight="normal" font-family="'Open Sans', Arial, Helvetica, sans-serif" font-style="normal"><text text-anchor="end" x="36" y="394.4">0</text></g><g class="v-label v-morphable-label viz-axis-label" fill="#737373" font-size="10px" font-weight="normal" font-family="'Open Sans', Arial, Helvetica, sans-serif" font-style="normal"><text text-anchor="end" x="36" y="329.3333333333333">20000</text></g><g class="v-label v-morphable-label viz-axis-label" fill="#737373" font-size="10px" font-weight="normal" font-family="'Open Sans', Arial, Helvetica, sans-serif" font-style="normal"><text text-anchor="end" x="36" y="264.26666666666665">40000</text></g><g class="v-label v-morphable-label viz-axis-label" fill="#737373" font-size="10px" font-weight="normal" font-family="'Open Sans', Arial, Helvetica, sans-serif" font-style="normal"><text text-anchor="end" x="36" y="199.2">60000</text></g><g class="v-label v-morphable-label viz-axis-label" fill="#737373" font-size="10px" font-weight="normal" font-family="'Open Sans', Arial, Helvetica, sans-serif" font-style="normal"><text text-anchor="end" x="36" y="134.13333333333327">80000</text></g><g class="v-label v-morphable-label viz-axis-label" fill="#737373" font-size="10px" font-weight="normal" font-family="'Open Sans', Arial, Helvetica, sans-serif" font-style="normal"><text text-anchor="end" x="36" y="69.06666666666666">100000</text></g><g class="v-label v-morphable-label viz-axis-label" fill="#737373" font-size="10px" font-weight="normal" font-family="'Open Sans', Arial, Helvetica, sans-serif" font-style="normal"><text text-anchor="end" x="36" y="4">120000</text></g></g></g></g></g></g><g class="v-m-scrollbar" transform="translate(485, 0)"></g></g></svg>