<svg class="v-m-root" viewBox="0 0 600 500" width="600" height="500" xmlns="http://www.w3.org/2000/svg" style="left: 0px; top: 0px; direction: ltr; height: 100%; width: 100%; display: block; cursor: default;"><defs></defs><g class="v-m-action-layer-group"></g><g class="v-m-background"><rect class="v-background-body viz-plot-background v-morphable-background" x="0" y="0" width="600" height="500" style="fill:transparent"></rect></g><g class="v-m-title" transform="translate(103.4, 25)"><rect class="v-bound" width="367.6" height="23" fill="transparent"></rect><text class="v-title viz-title-label" fill="#000000" font-family="'Open Sans', Arial, Helvetica, sans-serif" font-size="21px" font-weight="normal" font-style="normal" text-anchor="start" x="0" y="11.5" dominant-baseline="central">Stacked combined column line  Chart</text></g><g class="v-m-legendGroup" transform="translate(493, 84)"><g class="v-m-legend" transform="translate(0,0)"><rect class="v-bound" width="82" height="52.5" fill="transparent"></rect><g class="v-content" transform="translate(0, 0)" font-size="10px" font-family="'Open Sans', Arial, Helvetica, sans-serif" font-weight="normal" fill="#737373" font-style="normal"><rect class="v-legend-body-bound" x="-5" fill="transparent" width="87" height="52.5"></rect><g class="v-groups v-label viz-legend-valueLabel" transform="translate(0, 0)"><g class="v-legend-element v-legend-item" transform="translate (-5,0)" legendlabel-id="0"><rect width="87" height="17.5" fill="transparent"></rect><path class="v-legend-marker" fill="#73d2e0" stroke-width="0" stroke="transparent" opacity="1" stroke-opacity="undefined" d="M-7,0 A7,7 0 1,0 7,0 A7,7 0 1,0 -7,0z" transform="translate(12,8.25)"></path><text x="24" y="3.25" dy="0.85em">Revenue</text></g><g class="v-legend-element v-legend-item" transform="translate (-5,17.5)" legendlabel-id="1"><rect width="87" height="17.5" fill="transparent"></rect><path class="v-legend-marker" fill="#bbd03b" stroke-width="0" stroke="transparent" opacity="1" stroke-opacity="undefined" d="M-7,-7L7,-7L7,7L-7,7Z" transform="translate(12,8.25)"></path><text x="24" y="3.25" dy="0.85em">Cost</text></g><g class="v-legend-element v-legend-item" transform="translate (-5,35)" legendlabel-id="2"><rect width="87" height="17.5" fill="transparent"></rect><path class="v-legend-marker" fill="#999d20" stroke-width="0" stroke="transparent" opacity="1" stroke-opacity="undefined" d="M-7,-7L7,-7L7,7L-7,7Z" transform="translate(12,8.25)"></path><text x="24" y="3.25" dy="0.85em">Consumption</text></g></g></g></g></g><g class="v-m-main" transform="translate(25, 84)"><g class="v-m-plot" transform="translate(78.4, 0)"><rect class="v-background-body viz-plot-background v-morphable-background" x="0" y="0" width="367.6" height="301" style="fill:transparent"></rect><clipPath id="plot_main_clipPath_182e1191-f8a8-4a17-bdeb-d1be58ad683a"><rect y="-1" width="368.6" height="302"></rect></clipPath><rect class="v-plot-bound v-bound v-zoom-plot" width="367.6" height="301" fill="transparent"></rect><g clip-path="url(#plot_main_clipPath_182e1191-f8a8-4a17-bdeb-d1be58ad683a)"><g class="v-plot-main" transform="translate(0, 0)"><g class="v-gridline-group"><g class="v-gridline" stroke="#ececec" stroke-width="1" shape-rendering="crispEdges"><line class="v-gridline-mainline" x1="0" y1="301" x2="367.6" y2="301"></line></g><g class="v-gridline" stroke="#ececec" stroke-width="1" shape-rendering="crispEdges"><line class="v-gridline-mainline" x1="0" y1="225.75" x2="367.6" y2="225.75"></line></g><g class="v-gridline" stroke="#ececec" stroke-width="1" shape-rendering="crispEdges"><line class="v-gridline-mainline" x1="0" y1="150.5" x2="367.6" y2="150.5"></line></g><g class="v-gridline" stroke="#ececec" stroke-width="1" shape-rendering="crispEdges"><line class="v-gridline-mainline" x1="0" y1="75.25" x2="367.6" y2="75.25"></line></g><g class="v-gridline" stroke="#ececec" stroke-width="1" shape-rendering="crispEdges"><line class="v-gridline-mainline" x1="0" y1="0" x2="367.6" y2="0"></line></g></g><g class="v-datapoint-group"><g class="v-stack"><g data-id="0" data-datapoint-id="51" class="v-datapoint v-morphable-datapoint v-datapoint-default" transform="translate(6.126666666666667, 295.21664968558)" combination-column="true"><rect width="24.506666666666668" height="5.78335031442" fill="#999d20" shape-rendering="crispEdges"></rect></g><g data-id="10" data-datapoint-id="41" class="v-datapoint v-morphable-datapoint v-datapoint-default" transform="translate(6.126666666666667, 288.11428980558)" combination-column="true" fill-opacity="1"><rect width="24.506666666666668" height="7.102359880000001" fill="#bbd03b" shape-rendering="crispEdges" stroke-opacity="1" fill-opacity="1"></rect></g></g><g class="v-stack"><g data-id="1" data-datapoint-id="52" class="v-datapoint v-morphable-datapoint v-datapoint-default" transform="translate(42.88666666666667, 277.650510445)" combination-column="true" fill-opacity="1"><rect width="24.506666666666668" height="23.349489554999998" fill="#999d20" shape-rendering="crispEdges" stroke-opacity="1" fill-opacity="1"></rect></g><g data-id="11" data-datapoint-id="42" class="v-datapoint v-morphable-datapoint v-datapoint-default" transform="translate(42.88666666666667, 256.9766889025)" combination-column="true" fill-opacity="1"><rect width="24.506666666666668" height="20.673821542499997" fill="#bbd03b" shape-rendering="crispEdges" stroke-opacity="1" fill-opacity="1"></rect></g></g><g class="v-stack"><g data-id="2" data-datapoint-id="53" class="v-datapoint v-morphable-datapoint v-datapoint-default" transform="translate(79.64666666666668, 290.206728455)" combination-column="true"><rect width="24.50666666666667" height="10.793271545" fill="#999d20" shape-rendering="crispEdges"></rect></g><g data-id="12" data-datapoint-id="43" class="v-datapoint v-morphable-datapoint v-datapoint-default" transform="translate(79.64666666666668, 272.66139481)" combination-column="true"><rect width="24.50666666666667" height="17.545333645" fill="#bbd03b" shape-rendering="crispEdges"></rect></g></g><g class="v-stack"><g data-id="3" data-datapoint-id="54" class="v-datapoint v-morphable-datapoint v-datapoint-default" transform="translate(116.4066666666667, 264.284752935)" combination-column="true" fill-opacity="1"><rect width="24.506666666666664" height="36.715247065" fill="#999d20" shape-rendering="crispEdges" stroke-opacity="1" fill-opacity="1"></rect></g><g data-id="13" data-datapoint-id="44" class="v-datapoint v-morphable-datapoint v-datapoint-default" transform="translate(116.4066666666667, 246.5955706375)" combination-column="true" fill-opacity="1"><rect width="24.506666666666664" height="17.689182297499997" fill="#bbd03b" shape-rendering="crispEdges" stroke-opacity="1" fill-opacity="1"></rect></g></g><g class="v-stack"><g data-id="4" data-datapoint-id="55" class="v-datapoint v-morphable-datapoint v-datapoint-default" transform="translate(153.16666666666669, 280.8943084325)" combination-column="true"><rect width="24.506666666666664" height="20.105691567500003" fill="#999d20" shape-rendering="crispEdges"></rect></g><g data-id="14" data-datapoint-id="45" class="v-datapoint v-morphable-datapoint v-datapoint-default" transform="translate(153.16666666666669, 237.0579356425)" combination-column="true" fill-opacity="1"><rect width="24.506666666666664" height="43.83637279" fill="#bbd03b" shape-rendering="crispEdges" stroke-opacity="1" fill-opacity="1"></rect></g></g><g class="v-stack"><g data-id="5" data-datapoint-id="56" class="v-datapoint v-morphable-datapoint v-datapoint-default" transform="translate(189.92666666666665, 278.0513923576594)" combination-column="true"><rect width="24.506666666666664" height="22.948607642340626" fill="#999d20" shape-rendering="crispEdges"></rect></g><g data-id="15" data-datapoint-id="46" class="v-datapoint v-morphable-datapoint v-datapoint-default" transform="translate(189.92666666666665, 248.10544641515938)" combination-column="true"><rect width="24.506666666666664" height="29.945945942499996" fill="#bbd03b" shape-rendering="crispEdges"></rect></g></g><g class="v-stack"><g data-id="6" data-datapoint-id="57" class="v-datapoint v-morphable-datapoint v-datapoint-default" transform="translate(226.6866666666667, 279.0878147925)" combination-column="true"><rect width="24.506666666666664" height="21.9121852075" fill="#999d20" shape-rendering="crispEdges"></rect></g><g data-id="16" data-datapoint-id="47" class="v-datapoint v-morphable-datapoint v-datapoint-default" transform="translate(226.6866666666667, 253.24491422999998)" combination-column="true"><rect width="24.506666666666664" height="25.842900562500002" fill="#bbd03b" shape-rendering="crispEdges"></rect></g></g><g class="v-stack"><g data-id="7" data-datapoint-id="58" class="v-datapoint v-morphable-datapoint v-datapoint-default" transform="translate(263.4466666666667, 293.6052607757724)" combination-column="true"><rect width="24.506666666666664" height="7.3947392242275995" fill="#999d20" shape-rendering="crispEdges"></rect></g><g data-id="17" data-datapoint-id="48" class="v-datapoint v-morphable-datapoint v-datapoint-default" transform="translate(263.4466666666667, 284.8879802107724)" combination-column="true"><rect width="24.506666666666664" height="8.717280565" fill="#bbd03b" shape-rendering="crispEdges"></rect></g></g><g class="v-stack"><g data-id="8" data-datapoint-id="59" class="v-datapoint v-morphable-datapoint v-datapoint-default" transform="translate(300.2066666666667, 287.7181829527969)" combination-column="true"><rect width="24.506666666666664" height="13.281817047203074" fill="#999d20" shape-rendering="crispEdges"></rect></g><g data-id="18" data-datapoint-id="49" class="v-datapoint v-morphable-datapoint v-datapoint-default" transform="translate(300.2066666666667, 267.9138232377969)" combination-column="true"><rect width="24.506666666666664" height="19.804359715" fill="#bbd03b" shape-rendering="crispEdges"></rect></g></g><g class="v-stack"><g data-id="9" data-datapoint-id="60" class="v-datapoint v-morphable-datapoint v-datapoint-default" transform="translate(336.9666666666667, 260.47671040629393)" combination-column="true"><rect width="24.506666666666664" height="40.523289593706075" fill="#999d20" shape-rendering="crispEdges"></rect></g><g data-id="19" data-datapoint-id="50" class="v-datapoint v-morphable-datapoint v-datapoint-default" transform="translate(336.9666666666667, 214.44940150879393)" combination-column="true"><rect width="24.506666666666664" height="46.0273088975" fill="#bbd03b" shape-rendering="crispEdges"></rect></g></g><g><path d="M18.380000000000003,268.7768867175L55.14,171.40833590999998L91.90000000000002,200.828952806979L128.66000000000003,159.64537179500002L165.42000000000002,46.18454151500002L202.18,143.7251695075L238.94000000000005,155.54238285249997L275.70000000000005,244.36947171L312.46000000000004,196.096032335L349.22,52.04787606096401" fill="none" stroke-width="2" stroke="#73d2e0" stroke-linejoin="round" stroke-dasharray="undefined" class="v-lines v-morphable-line" combination-line="true"></path><g data-id="20" data-datapoint-id="31" class="v-datapoint v-morphable-datapoint v-datapoint-default" transform="translate(18.380000000000003, 268.7768867175)" combination-marker="true"><path d="M-4,0 A4,4 0 1,0 4,0 A4,4 0 1,0 -4,0z" fill="#73d2e0"></path></g><g data-id="21" data-datapoint-id="32" class="v-datapoint v-morphable-datapoint v-datapoint-default" transform="translate(55.14, 171.40833590999998)" combination-marker="true" fill-opacity="1"><path d="M-4,0 A4,4 0 1,0 4,0 A4,4 0 1,0 -4,0z" fill="#73d2e0" fill-opacity="1" stroke-opacity="1"></path></g><g data-id="22" data-datapoint-id="33" class="v-datapoint v-morphable-datapoint v-datapoint-default" transform="translate(91.90000000000002, 200.828952806979)" combination-marker="true"><path d="M-4,0 A4,4 0 1,0 4,0 A4,4 0 1,0 -4,0z" fill="#73d2e0"></path></g><g data-id="23" data-datapoint-id="34" class="v-datapoint v-morphable-datapoint v-datapoint-default" transform="translate(128.66000000000003, 159.64537179500002)" combination-marker="true"><path d="M-4,0 A4,4 0 1,0 4,0 A4,4 0 1,0 -4,0z" fill="#73d2e0"></path></g><g data-id="24" data-datapoint-id="35" class="v-datapoint v-morphable-datapoint v-datapoint-default" transform="translate(165.42000000000002, 46.18454151500002)" combination-marker="true" fill-opacity="1"><path d="M-4,0 A4,4 0 1,0 4,0 A4,4 0 1,0 -4,0z" fill="#73d2e0" fill-opacity="1" stroke-opacity="1"></path></g><g data-id="25" data-datapoint-id="36" class="v-datapoint v-morphable-datapoint v-datapoint-default" transform="translate(202.18, 143.7251695075)" combination-marker="true"><path d="M-4,0 A4,4 0 1,0 4,0 A4,4 0 1,0 -4,0z" fill="#73d2e0"></path></g><g data-id="26" data-datapoint-id="37" class="v-datapoint v-morphable-datapoint v-datapoint-default" transform="translate(238.94000000000005, 155.54238285249997)" combination-marker="true"><path d="M-4,0 A4,4 0 1,0 4,0 A4,4 0 1,0 -4,0z" fill="#73d2e0"></path></g><g data-id="27" data-datapoint-id="38" class="v-datapoint v-morphable-datapoint v-datapoint-default" transform="translate(275.70000000000005, 244.36947171)" combination-marker="true"><path d="M-4,0 A4,4 0 1,0 4,0 A4,4 0 1,0 -4,0z" fill="#73d2e0"></path></g><g data-id="28" data-datapoint-id="39" class="v-datapoint v-morphable-datapoint v-datapoint-default" transform="translate(312.46000000000004, 196.096032335)" combination-marker="true"><path d="M-4,0 A4,4 0 1,0 4,0 A4,4 0 1,0 -4,0z" fill="#73d2e0"></path></g><g data-id="29" data-datapoint-id="40" class="v-datapoint v-morphable-datapoint v-datapoint-default" transform="translate(349.22, 52.04787606096401)" combination-marker="true"><path d="M-4,0 A4,4 0 1,0 4,0 A4,4 0 1,0 -4,0z" fill="#73d2e0"></path></g></g></g><g class="v-datalabel-group" fill="#333333" font-family="'Open Sans', Arial, Helvetica, sans-serif" font-size="12px" font-weight="normal" font-style="normal" cssString="fill:#333333;font-family:'Open Sans', Arial, Helvetica, sans-serif;font-size:12px;font-weight:normal;font-style:normal;"><g data-datapoint-id="33" class="v-datalabel v-morphable-label" transform="translate(44.900001525878906,215.82894897460938)" fill="#333333"><text>1331176.706884</text></g><g data-datapoint-id="34" class="v-datalabel v-morphable-label" transform="translate(61.92791966513428,152.64537048339844)" fill="#333333"><text>1878466.82</text></g><g data-datapoint-id="35" class="v-datalabel v-morphable-label" transform="translate(132.4199981689453,39.184539794921875)" fill="#333333"><text>3386251.94</text></g><g data-datapoint-id="37" class="v-datalabel v-morphable-label" transform="translate(220.16500367956547,148.54238891601562)" fill="#333333"><text>1932991.59</text></g><g data-datapoint-id="39" class="v-datalabel v-morphable-label" transform="translate(245.24634540231244,189.09603881835938)" fill="#333333"><text>1394072.66</text></g></g></g></g><g class="v-referenceline-group" clip-path="url(#plot_main_clipPath_182e1191-f8a8-4a17-bdeb-d1be58ad683a)"></g></g><g class="v-m-categoryAxis v-m-xAxis" transform="translate(78.4, 301)"><rect class="v-bound" width="446" height="90" fill="transparent" x="-78.4" y="0"></rect><g class="v-axis"><g class="v-m-axisScrollbar" transform="translate(0,54.6)"><g><rect class="v-m-scrollbarTrack" visibility="hidden" fill="#f7f7f7" stroke-width="0" stroke="white" width="367.6" height="12"></rect><rect class="v-m-scrollbarThumb" visibility="hidden" fill="#e5e5e5" width="367.6" height="12" transform="translate(0, 0)"></rect></g></g><g class="v-m-axisTitle" transform="translate(0,75.6)"><g class="v-title viz-axis-title" fill="#000000" font-size="12px" font-weight="normal" font-family="'Open Sans', Arial, Helvetica, sans-serif" font-style="normal"><text text-anchor="middle" dominant-baseline="auto" x="183.8" y="11.4"><tspan class="v-title viz-axis-title" dominant-baseline="auto">Store Name</tspan></text></g></g><g class="v-m-axisBody" transform="translate(0,0)" clip-path="url(#clip-path-49ca7492-44c3-40f7-b1f5-2ed0943ee89f)"><clipPath class="v-clippath" id="clip-path-49ca7492-44c3-40f7-b1f5-2ed0943ee89f"><rect x="-79.4" y="-1" width="448" height="56.6"></rect></clipPath><g class="v-line-group"><line class="v-valueaxisline v-line" stroke="#babab9" stroke-width="1" shape-rendering="crispEdges" x1="-0.5" y1="0" x2="368.1" y2="0"></line></g><g class="v-label-group"><g class="v-label v-morphable-label viz-axis-label v-axis-item index_0" fill="#737373" font-size="11px" font-weight="normal" font-family="'Open Sans', Arial, Helvetica, sans-serif" font-style="normal" categorylabel-id="0" transform="translate(0,0)"><rect class="viz-axis-label-rect" fill="transparent" x="18.380000000000024" y="0" width="17.2" height="51" transform="translate(-2.3334523779156067,2.1715728752538097) rotate(45,18.380000000000024,0) "></rect><g class="v-axis-label-wrapper"><text x="22.979999999999997" y="6" text-anchor="end" transform="translate(0,6.533666658163698) rotate(-45,22.979999999999997,6)">24-Seven</text></g></g><g class="v-label v-morphable-label viz-axis-label v-axis-item index_0" fill="#737373" font-size="11px" font-weight="normal" font-family="'Open Sans', Arial, Helvetica, sans-serif" font-style="normal" categorylabel-id="1" transform="translate(36.76,0)"><rect class="viz-axis-label-rect" fill="transparent" x="18.380000000000024" y="0" width="17.2" height="25" transform="translate(-2.3334523779156067,2.1715728752538097) rotate(45,18.380000000000024,0) "></rect><g class="v-axis-label-wrapper"><text x="22.979999999999997" y="6" text-anchor="end" transform="translate(0,6.533666658163698) rotate(-45,22.979999999999997,6)">A&amp;A</text></g></g><g class="v-label v-morphable-label viz-axis-label v-axis-item index_0" fill="#737373" font-size="11px" font-weight="normal" font-family="'Open Sans', Arial, Helvetica, sans-serif" font-style="normal" categorylabel-id="2" transform="translate(73.52,0)"><rect class="viz-axis-label-rect" fill="transparent" x="18.380000000000024" y="0" width="17.2" height="68.01606050557099" transform="translate(-2.3334523779156067,2.1715728752538097) rotate(45,18.380000000000024,0) "></rect><g class="v-axis-label-wrapper"><text x="22.980000000000004" y="6" text-anchor="end" transform="translate(0,6.533666658163698) rotate(-45,22.980000000000004,6)">Alexei's Sp...<title>Alexei's Specialities</title></text></g></g><g class="v-label v-morphable-label viz-axis-label v-axis-item index_0" fill="#737373" font-size="11px" font-weight="normal" font-family="'Open Sans', Arial, Helvetica, sans-serif" font-style="normal" categorylabel-id="3" transform="translate(110.28,0)"><rect class="viz-axis-label-rect" fill="transparent" x="18.380000000000024" y="0" width="17.2" height="56" transform="translate(-2.3334523779156067,2.1715728752538097) rotate(45,18.380000000000024,0) "></rect><g class="v-axis-label-wrapper"><text x="22.979999999999997" y="6" text-anchor="end" transform="translate(0,6.533666658163698) rotate(-45,22.979999999999997,6)">BC Market</text></g></g><g class="v-label v-morphable-label viz-axis-label v-axis-item index_0" fill="#737373" font-size="11px" font-weight="normal" font-family="'Open Sans', Arial, Helvetica, sans-serif" font-style="normal" categorylabel-id="4" transform="translate(147.04,0)"><rect class="viz-axis-label-rect" fill="transparent" x="18.380000000000024" y="0" width="17.2" height="68.01606050557099" transform="translate(-2.3334523779156067,2.1715728752538097) rotate(45,18.380000000000024,0) "></rect><g class="v-axis-label-wrapper"><text x="22.98000000000001" y="6" text-anchor="end" transform="translate(0,6.533666658163698) rotate(-45,22.98000000000001,6)">Choices Fr...<title>Choices Franchise 1</title></text></g></g><g class="v-label v-morphable-label viz-axis-label v-axis-item index_0" fill="#737373" font-size="11px" font-weight="normal" font-family="'Open Sans', Arial, Helvetica, sans-serif" font-style="normal" categorylabel-id="5" transform="translate(183.8,0)"><rect class="viz-axis-label-rect" fill="transparent" x="18.380000000000024" y="0" width="17.2" height="68.01606050557099" transform="translate(-2.3334523779156067,2.1715728752538097) rotate(45,18.380000000000024,0) "></rect><g class="v-axis-label-wrapper"><text x="22.979999999999997" y="6" text-anchor="end" transform="translate(0,6.533666658163698) rotate(-45,22.979999999999997,6)">Choices Fr...<title>Choices Franchise 3</title></text></g></g><g class="v-label v-morphable-label viz-axis-label v-axis-item index_0" fill="#737373" font-size="11px" font-weight="normal" font-family="'Open Sans', Arial, Helvetica, sans-serif" font-style="normal" categorylabel-id="6" transform="translate(220.56,0)"><rect class="viz-axis-label-rect" fill="transparent" x="18.380000000000024" y="0" width="17.2" height="68.01606050557099" transform="translate(-2.3334523779156067,2.1715728752538097) rotate(45,18.380000000000024,0) "></rect><g class="v-axis-label-wrapper"><text x="22.979999999999997" y="6" text-anchor="end" transform="translate(0,6.533666658163698) rotate(-45,22.979999999999997,6)">Choices Fr...<title>Choices Franchise 6</title></text></g></g><g class="v-label v-morphable-label viz-axis-label v-axis-item index_0" fill="#737373" font-size="11px" font-weight="normal" font-family="'Open Sans', Arial, Helvetica, sans-serif" font-style="normal" categorylabel-id="7" transform="translate(257.32,0)"><rect class="viz-axis-label-rect" fill="transparent" x="18.380000000000024" y="0" width="17.2" height="61" transform="translate(-2.3334523779156067,2.1715728752538097) rotate(45,18.380000000000024,0) "></rect><g class="v-axis-label-wrapper"><text x="22.979999999999997" y="6" text-anchor="end" transform="translate(0,6.533666658163698) rotate(-45,22.979999999999997,6)">Dairy World</text></g></g><g class="v-label v-morphable-label viz-axis-label v-axis-item index_0" fill="#737373" font-size="11px" font-weight="normal" font-family="'Open Sans', Arial, Helvetica, sans-serif" font-style="normal" categorylabel-id="8" transform="translate(294.08,0)"><rect class="viz-axis-label-rect" fill="transparent" x="18.380000000000024" y="0" width="17.2" height="67" transform="translate(-2.3334523779156067,2.1715728752538097) rotate(45,18.380000000000024,0) "></rect><g class="v-axis-label-wrapper"><text x="22.979999999999997" y="6" text-anchor="end" transform="translate(0,6.533666658163698) rotate(-45,22.979999999999997,6)">Delikatessen</text></g></g><g class="v-label v-morphable-label viz-axis-label v-axis-item index_0" fill="#737373" font-size="11px" font-weight="normal" font-family="'Open Sans', Arial, Helvetica, sans-serif" font-style="normal" categorylabel-id="9" transform="translate(330.84,0)"><rect class="viz-axis-label-rect" fill="transparent" x="18.380000000000024" y="0" width="17.2" height="68.01606050557099" transform="translate(-2.3334523779156067,2.1715728752538097) rotate(45,18.380000000000024,0) "></rect><g class="v-axis-label-wrapper"><text x="22.980000000000025" y="6" text-anchor="end" transform="translate(0,6.533666658163698) rotate(-45,22.980000000000025,6)">Donald's M...<title>Donald's Market</title></text></g></g></g></g></g></g><g class="v-m-valueAxis v-m-yAxis" transform="translate(0, 0)"><rect class="v-bound" width="78.4" height="301" fill="transparent"></rect><g class="v-axis"><g class="v-m-axisTitle" transform="translate(5.329070518200751e-15,0)"><g class="v-title viz-axis-title" fill="#000000" font-size="12px" font-weight="normal" font-family="'Open Sans', Arial, Helvetica, sans-serif" font-style="normal"><text text-anchor="middle" dominant-baseline="auto" x="11.4" y="150.5" transform="rotate(-90,11.4,150.5)"><tspan class="v-title viz-axis-title" dominant-baseline="auto">Revenue &amp; Cost &amp; Consumption</tspan></text></g></g><g class="v-m-axisBody" transform="translate(25.400000000000006,0)"><clipPath class="v-clippath-labels" id="clip-path-05f565c4-2ff9-4470-9170-bf02cead5afd"><rect x="-1" y="-10" width="55" height="321"></rect></clipPath><clipPath class="v-clippath-ticks" id="clip-path-c3a77169-6aef-4f1c-ba0f-425d94ed6468"><rect x="-1" y="-1" width="55" height="303"></rect></clipPath><rect class="v-bound" width="53" height="301" fill="transparent"></rect><g clip-path="url(#clip-path-c3a77169-6aef-4f1c-ba0f-425d94ed6468)"><g class="v-tick-group"><line class="v-valueaxisline v-tick" stroke="#878786" stroke-width="1" shape-rendering="crispEdges" x1="53" y1="301" x2="48" y2="301"></line><line class="v-valueaxisline v-tick" stroke="#878786" stroke-width="1" shape-rendering="crispEdges" x1="53" y1="225.75" x2="48" y2="225.75"></line><line class="v-valueaxisline v-tick" stroke="#878786" stroke-width="1" shape-rendering="crispEdges" x1="53" y1="150.5" x2="48" y2="150.5"></line><line class="v-valueaxisline v-tick" stroke="#878786" stroke-width="1" shape-rendering="crispEdges" x1="53" y1="75.25" x2="48" y2="75.25"></line><line class="v-valueaxisline v-tick" stroke="#878786" stroke-width="1" shape-rendering="crispEdges" x1="53" y1="0" x2="48" y2="0"></line></g></g><g clip-path="url(#clip-path-05f565c4-2ff9-4470-9170-bf02cead5afd)"><g class="v-label-group"><g class="v-label v-morphable-label viz-axis-label" fill="#737373" font-size="10px" font-weight="normal" font-family="'Open Sans', Arial, Helvetica, sans-serif" font-style="normal"><text text-anchor="end" x="42" y="305">0</text></g><g class="v-label v-morphable-label viz-axis-label" fill="#737373" font-size="10px" font-weight="normal" font-family="'Open Sans', Arial, Helvetica, sans-serif" font-style="normal"><text text-anchor="end" x="42" y="229.75">1000000</text></g><g class="v-label v-morphable-label viz-axis-label" fill="#737373" font-size="10px" font-weight="normal" font-family="'Open Sans', Arial, Helvetica, sans-serif" font-style="normal"><text text-anchor="end" x="42" y="154.5">2000000</text></g><g class="v-label v-morphable-label viz-axis-label" fill="#737373" font-size="10px" font-weight="normal" font-family="'Open Sans', Arial, Helvetica, sans-serif" font-style="normal"><text text-anchor="end" x="42" y="79.25">3000000</text></g><g class="v-label v-morphable-label viz-axis-label" fill="#737373" font-size="10px" font-weight="normal" font-family="'Open Sans', Arial, Helvetica, sans-serif" font-style="normal"><text text-anchor="end" x="42" y="4">4000000</text></g></g></g></g></g></g><g class="v-m-scrollbar" transform="translate(446, 0)"></g></g></svg>