<svg class="v-m-root" viewBox="0 0 600 500" width="600" height="500" xmlns="http://www.w3.org/2000/svg" style="left: 0px; top: 0px; direction: ltr; height: 100%; width: 100%; display: block; cursor: default;"><defs></defs><g class="v-m-action-layer-group"></g><g class="v-m-background"><rect class="v-background-body viz-plot-background v-morphable-background" x="0" y="0" width="600" height="500" style="fill:transparent"></rect></g><g class="v-m-title" transform="translate(103.4, 25)"></g><g class="v-m-legendGroup" transform="translate(512, 25)"><g class="v-m-legend" transform="translate(0,0)"><rect class="v-bound" width="63" height="35" fill="transparent"></rect><g class="v-content" transform="translate(0, 0)" font-size="10px" font-family="'Open Sans', Arial, Helvetica, sans-serif" font-weight="normal" fill="#737373" font-style="normal"><rect class="v-legend-body-bound" x="-5" fill="transparent" width="68" height="35"></rect><g class="v-groups v-label viz-legend-valueLabel" transform="translate(0, 0)"><g class="v-legend-element v-legend-item" transform="translate (-5,0)" legendlabel-id="0"><rect width="68" height="17.5" fill="transparent"></rect><path class="v-legend-marker" fill="#73d2e0" stroke-width="0" stroke="transparent" opacity="1" stroke-opacity="undefined" d="M-7,0 A7,7 0 1,0 7,0 A7,7 0 1,0 -7,0z" transform="translate(12,8.25)"></path><text x="24" y="3.25" dy="0.85em">Revenue</text></g><g class="v-legend-element v-legend-item" transform="translate (-5,17.5)" legendlabel-id="1"><rect width="68" height="17.5" fill="transparent"></rect><path class="v-legend-marker" fill="#bbd03b" stroke-width="0" stroke="transparent" opacity="1" stroke-opacity="undefined" d="M-7,-7L7,-7L7,7L-7,7Z" transform="translate(12,8.25)"></path><text x="24" y="3.25" dy="0.85em">Cost</text></g></g></g></g></g><g class="v-m-main" transform="translate(25, 25)"><g class="v-m-plot" transform="translate(78.4, 0)"><rect class="v-background-body viz-plot-background v-morphable-background" x="0" y="0" width="386.6" height="360" style="fill:transparent"></rect><clipPath id="plot_main_clipPath_350452df-e04e-4e87-be49-dacee046fb0a"><rect y="-1" width="387.6" height="361"></rect></clipPath><rect class="v-plot-bound v-bound v-zoom-plot" width="386.6" height="360" fill="transparent"></rect><g clip-path="url(#plot_main_clipPath_350452df-e04e-4e87-be49-dacee046fb0a)"><g class="v-plot-main" transform="translate(0, 0)"><g class="v-gridline-group"><g class="v-gridline" stroke="#ececec" stroke-width="1" shape-rendering="crispEdges"><line class="v-gridline-mainline" x1="0" y1="360" x2="386.6" y2="360"></line></g><g class="v-gridline" stroke="#ececec" stroke-width="1" shape-rendering="crispEdges"><line class="v-gridline-mainline" x1="0" y1="270" x2="386.6" y2="270"></line></g><g class="v-gridline" stroke="#ececec" stroke-width="1" shape-rendering="crispEdges"><line class="v-gridline-mainline" x1="0" y1="180" x2="386.6" y2="180"></line></g><g class="v-gridline" stroke="#ececec" stroke-width="1" shape-rendering="crispEdges"><line class="v-gridline-mainline" x1="0" y1="90" x2="386.6" y2="90"></line></g><g class="v-gridline" stroke="#ececec" stroke-width="1" shape-rendering="crispEdges"><line class="v-gridline-mainline" x1="0" y1="0" x2="386.6" y2="0"></line></g></g><g class="v-datapoint-group"><g><g data-id="10" data-datapoint-id="11" class="v-datapoint v-morphable-datapoint v-datapoint-default" combination-column="true" transform="translate(6.443333333333333, 351.5054832)"><rect width="25.773333333333333" height="8.4945168" fill="#bbd03b"></rect></g><g data-id="11" data-datapoint-id="12" class="v-datapoint v-morphable-datapoint v-datapoint-hover" combination-column="true" transform="translate(45.10333333333334, 335.2738347)" fill-opacity="1"><rect width="25.773333333333333" height="24.726165299999998" fill="#778520" fill-opacity="1" stroke-opacity="1"></rect></g><g data-id="12" data-datapoint-id="13" class="v-datapoint v-morphable-datapoint v-datapoint-default" combination-column="true" transform="translate(83.76333333333334, 339.01554780000004)"><rect width="25.77333333333334" height="20.9844522" fill="#bbd03b"></rect></g><g data-id="13" data-datapoint-id="14" class="v-datapoint v-morphable-datapoint v-datapoint-default" combination-column="true" transform="translate(122.42333333333336, 338.84350290000003)"><rect width="25.77333333333333" height="21.1564971" fill="#bbd03b"></rect></g><g data-id="14" data-datapoint-id="15" class="v-datapoint v-morphable-datapoint v-datapoint-default" combination-column="true" transform="translate(161.08333333333334, 307.5711156)"><rect width="25.77333333333333" height="52.42888440000001" fill="#bbd03b"></rect></g><g data-id="15" data-datapoint-id="16" class="v-datapoint v-morphable-datapoint v-datapoint-default" combination-column="true" transform="translate(199.7433333333333, 324.1842507)"><rect width="25.77333333333333" height="35.8157493" fill="#bbd03b"></rect></g><g data-id="16" data-datapoint-id="17" class="v-datapoint v-morphable-datapoint v-datapoint-default" combination-column="true" transform="translate(238.40333333333336, 329.0915475)"><rect width="25.77333333333333" height="30.908452499999996" fill="#bbd03b"></rect></g><g data-id="17" data-datapoint-id="18" class="v-datapoint v-morphable-datapoint v-datapoint-default" combination-column="true" transform="translate(277.0633333333334, 349.5740166)"><rect width="25.77333333333333" height="10.4259834" fill="#bbd03b"></rect></g><g data-id="18" data-datapoint-id="19" class="v-datapoint v-morphable-datapoint v-datapoint-default" combination-column="true" transform="translate(315.72333333333336, 336.3137226)"><rect width="25.77333333333333" height="23.686277399999998" fill="#bbd03b"></rect></g><g data-id="19" data-datapoint-id="20" class="v-datapoint v-morphable-datapoint v-datapoint-default" combination-column="true" transform="translate(354.3833333333334, 304.9507269)"><rect width="25.77333333333333" height="55.04927309999999" fill="#bbd03b"></rect></g></g><g><path d="M19.330000000000002,321.4607283L57.99,205.00664759999998L96.65000000000002,240.19409638044002L135.31000000000003,190.9379862L173.97000000000003,55.237325400000024L212.63000000000002,171.8972127L251.29000000000005,186.03075689999997L289.95000000000005,292.26913559999997L328.61000000000007,234.5334606L367.27000000000004,62.24995143504" fill="none" stroke-width="2" stroke="#73d2e0" stroke-linejoin="round" stroke-dasharray="undefined" class="v-lines v-morphable-line" combination-line="true"></path><g data-id="0" data-datapoint-id="1" class="v-datapoint v-morphable-datapoint v-datapoint-default" combination-marker="true" transform="translate(19.330000000000002, 321.4607283)"><path d="M-4,0 A4,4 0 1,0 4,0 A4,4 0 1,0 -4,0z" fill="#73d2e0"></path></g><g data-id="1" data-datapoint-id="2" class="v-datapoint v-morphable-datapoint v-datapoint-default" combination-marker="true" transform="translate(57.99, 205.00664759999998)"><path d="M-4,0 A4,4 0 1,0 4,0 A4,4 0 1,0 -4,0z" fill="#73d2e0"></path></g><g data-id="2" data-datapoint-id="3" class="v-datapoint v-morphable-datapoint v-datapoint-default" combination-marker="true" transform="translate(96.65000000000002, 240.19409638044002)"><path d="M-4,0 A4,4 0 1,0 4,0 A4,4 0 1,0 -4,0z" fill="#73d2e0"></path></g><g data-id="3" data-datapoint-id="4" class="v-datapoint v-morphable-datapoint v-datapoint-default" combination-marker="true" transform="translate(135.31000000000003, 190.9379862)"><path d="M-4,0 A4,4 0 1,0 4,0 A4,4 0 1,0 -4,0z" fill="#73d2e0"></path></g><g data-id="4" data-datapoint-id="5" class="v-datapoint v-morphable-datapoint v-datapoint-default" combination-marker="true" transform="translate(173.97000000000003, 55.237325400000024)"><path d="M-4,0 A4,4 0 1,0 4,0 A4,4 0 1,0 -4,0z" fill="#73d2e0"></path></g><g data-id="5" data-datapoint-id="6" class="v-datapoint v-morphable-datapoint v-datapoint-default" combination-marker="true" transform="translate(212.63000000000002, 171.8972127)"><path d="M-4,0 A4,4 0 1,0 4,0 A4,4 0 1,0 -4,0z" fill="#73d2e0"></path></g><g data-id="6" data-datapoint-id="7" class="v-datapoint v-morphable-datapoint v-datapoint-default" combination-marker="true" transform="translate(251.29000000000005, 186.03075689999997)" fill-opacity="1"><path d="M-4,0 A4,4 0 1,0 4,0 A4,4 0 1,0 -4,0z" fill="#73d2e0" fill-opacity="1" stroke-opacity="1"></path></g><g data-id="7" data-datapoint-id="8" class="v-datapoint v-morphable-datapoint v-datapoint-default" combination-marker="true" transform="translate(289.95000000000005, 292.26913559999997)"><path d="M-4,0 A4,4 0 1,0 4,0 A4,4 0 1,0 -4,0z" fill="#73d2e0"></path></g><g data-id="8" data-datapoint-id="9" class="v-datapoint v-morphable-datapoint v-datapoint-default" combination-marker="true" transform="translate(328.61000000000007, 234.5334606)"><path d="M-4,0 A4,4 0 1,0 4,0 A4,4 0 1,0 -4,0z" fill="#73d2e0"></path></g><g data-id="9" data-datapoint-id="10" class="v-datapoint v-morphable-datapoint v-datapoint-default" combination-marker="true" transform="translate(367.27000000000004, 62.24995143504)"><path d="M-4,0 A4,4 0 1,0 4,0 A4,4 0 1,0 -4,0z" fill="#73d2e0"></path></g></g></g><g class="v-datalabel-group" fill="#333333" font-family="'Open Sans', Arial, Helvetica, sans-serif" font-size="12px" font-weight="normal" font-style="normal" cssString="fill:#333333;font-family:'Open Sans', Arial, Helvetica, sans-serif;font-size:12px;font-weight:normal;font-style:normal;"><g data-datapoint-id="12" class="v-datalabel v-morphable-label" transform="translate(28.489998817443848,329.2738342285156)" fill="#333333"><text>274735.17</text></g><g data-datapoint-id="15" class="v-datalabel v-morphable-label" transform="translate(144.4699945449829,301.57110595703125)" fill="#333333"><text>582543.16</text></g><g data-datapoint-id="2" class="v-datalabel v-morphable-label" transform="translate(24.990001678466797,198.00665283203125)" fill="#333333"><text>1722148.36</text></g><g data-datapoint-id="3" class="v-datalabel v-morphable-label" transform="translate(49.650001525878906,255.194091796875)" fill="#333333"><text>1331176.706884</text></g><g data-datapoint-id="4" class="v-datalabel v-morphable-label" transform="translate(68.30424172250514,183.93798828125)" fill="#333333"><text>1878466.82</text></g><g data-datapoint-id="5" class="v-datalabel v-morphable-label" transform="translate(140.97000122070312,48.23732376098633)" fill="#333333"><text>3386251.94</text></g><g data-datapoint-id="6" class="v-datalabel v-morphable-label" transform="translate(213.3102665605283,164.897216796875)" fill="#333333"><text>2090030.97</text></g><g data-datapoint-id="7" class="v-datalabel v-morphable-label" transform="translate(235.14265734640537,179.03076171875)" fill="#333333"><text>1932991.59</text></g><g data-datapoint-id="8" class="v-datalabel v-morphable-label" transform="translate(260.45001220703125,307.2691345214844)" fill="#333333"><text>752565.16</text></g><g data-datapoint-id="9" class="v-datalabel v-morphable-label" transform="translate(261.18078252534923,227.53346252441406)" fill="#333333"><text>1394072.66</text></g></g></g></g><g class="v-referenceline-group" clip-path="url(#plot_main_clipPath_350452df-e04e-4e87-be49-dacee046fb0a)"></g></g><g class="v-m-categoryAxis v-m-xAxis" transform="translate(78.4, 360)"><rect class="v-bound" width="465" height="90" fill="transparent" x="-78.4" y="0"></rect><g class="v-axis"><g class="v-m-axisScrollbar" transform="translate(0,54.6)"><g><rect class="v-m-scrollbarTrack" visibility="hidden" fill="#f7f7f7" stroke-width="0" stroke="white" width="386.6" height="12"></rect><rect class="v-m-scrollbarThumb" visibility="hidden" fill="#e5e5e5" width="386.6" height="12" transform="translate(0, 0)"></rect></g></g><g class="v-m-axisTitle" transform="translate(0,75.6)"><g class="v-title viz-axis-title" fill="#000000" font-size="12px" font-weight="normal" font-family="'Open Sans', Arial, Helvetica, sans-serif" font-style="normal"><text text-anchor="middle" dominant-baseline="auto" x="193.3" y="11.4"><tspan class="v-title viz-axis-title" dominant-baseline="auto">Store Name</tspan></text></g></g><g class="v-m-axisBody" transform="translate(0,0)" clip-path="url(#clip-path-70991927-4b11-4cbd-9b2f-f6e0ed9ed405)"><clipPath class="v-clippath" id="clip-path-70991927-4b11-4cbd-9b2f-f6e0ed9ed405"><rect x="-79.4" y="-1" width="467" height="56.6"></rect></clipPath><g class="v-line-group"><line class="v-valueaxisline v-line" stroke="#babab9" stroke-width="1" shape-rendering="crispEdges" x1="-0.5" y1="0" x2="387.1" y2="0"></line></g><g class="v-label-group"><g class="v-label v-morphable-label viz-axis-label v-axis-item index_0" fill="#737373" font-size="11px" font-weight="normal" font-family="'Open Sans', Arial, Helvetica, sans-serif" font-style="normal" categorylabel-id="0" transform="translate(0,0)"><rect class="viz-axis-label-rect" fill="transparent" x="19.330000000000013" y="0" width="17.2" height="51" transform="translate(-2.3334523779156067,2.1715728752538097) rotate(45,19.330000000000013,0) "></rect><g class="v-axis-label-wrapper"><text x="23.93" y="6" text-anchor="end" transform="translate(0,6.533666658163698) rotate(-45,23.93,6)">24-Seven</text></g></g><g class="v-label v-morphable-label viz-axis-label v-axis-item index_0" fill="#737373" font-size="11px" font-weight="normal" font-family="'Open Sans', Arial, Helvetica, sans-serif" font-style="normal" categorylabel-id="1" transform="translate(38.66,0)"><rect class="viz-axis-label-rect" fill="transparent" x="19.330000000000013" y="0" width="17.2" height="25" transform="translate(-2.3334523779156067,2.1715728752538097) rotate(45,19.330000000000013,0) "></rect><g class="v-axis-label-wrapper"><text x="23.93" y="6" text-anchor="end" transform="translate(0,6.533666658163698) rotate(-45,23.93,6)">A&amp;A</text></g></g><g class="v-label v-morphable-label viz-axis-label v-axis-item index_0" fill="#737373" font-size="11px" font-weight="normal" font-family="'Open Sans', Arial, Helvetica, sans-serif" font-style="normal" categorylabel-id="2" transform="translate(77.32,0)"><rect class="viz-axis-label-rect" fill="transparent" x="19.330000000000013" y="0" width="17.2" height="68.01606050557099" transform="translate(-2.3334523779156067,2.1715728752538097) rotate(45,19.330000000000013,0) "></rect><g class="v-axis-label-wrapper"><text x="23.930000000000007" y="6" text-anchor="end" transform="translate(0,6.533666658163698) rotate(-45,23.930000000000007,6)">Alexei's Sp...<title>Alexei's Specialities</title></text></g></g><g class="v-label v-morphable-label viz-axis-label v-axis-item index_0" fill="#737373" font-size="11px" font-weight="normal" font-family="'Open Sans', Arial, Helvetica, sans-serif" font-style="normal" categorylabel-id="3" transform="translate(115.98,0)"><rect class="viz-axis-label-rect" fill="transparent" x="19.330000000000013" y="0" width="17.2" height="56" transform="translate(-2.3334523779156067,2.1715728752538097) rotate(45,19.330000000000013,0) "></rect><g class="v-axis-label-wrapper"><text x="23.929999999999993" y="6" text-anchor="end" transform="translate(0,6.533666658163698) rotate(-45,23.929999999999993,6)">BC Market</text></g></g><g class="v-label v-morphable-label viz-axis-label v-axis-item index_0" fill="#737373" font-size="11px" font-weight="normal" font-family="'Open Sans', Arial, Helvetica, sans-serif" font-style="normal" categorylabel-id="4" transform="translate(154.64,0)"><rect class="viz-axis-label-rect" fill="transparent" x="19.330000000000013" y="0" width="17.2" height="68.01606050557099" transform="translate(-2.3334523779156067,2.1715728752538097) rotate(45,19.330000000000013,0) "></rect><g class="v-axis-label-wrapper"><text x="23.930000000000014" y="6" text-anchor="end" transform="translate(0,6.533666658163698) rotate(-45,23.930000000000014,6)">Choices Fr...<title>Choices Franchise 1</title></text></g></g><g class="v-label v-morphable-label viz-axis-label v-axis-item index_0" fill="#737373" font-size="11px" font-weight="normal" font-family="'Open Sans', Arial, Helvetica, sans-serif" font-style="normal" categorylabel-id="5" transform="translate(193.3,0)"><rect class="viz-axis-label-rect" fill="transparent" x="19.330000000000013" y="0" width="17.2" height="68.01606050557099" transform="translate(-2.3334523779156067,2.1715728752538097) rotate(45,19.330000000000013,0) "></rect><g class="v-axis-label-wrapper"><text x="23.93" y="6" text-anchor="end" transform="translate(0,6.533666658163698) rotate(-45,23.93,6)">Choices Fr...<title>Choices Franchise 3</title></text></g></g><g class="v-label v-morphable-label viz-axis-label v-axis-item index_0" fill="#737373" font-size="11px" font-weight="normal" font-family="'Open Sans', Arial, Helvetica, sans-serif" font-style="normal" categorylabel-id="6" transform="translate(231.96,0)"><rect class="viz-axis-label-rect" fill="transparent" x="19.330000000000013" y="0" width="17.2" height="68.01606050557099" transform="translate(-2.3334523779156067,2.1715728752538097) rotate(45,19.330000000000013,0) "></rect><g class="v-axis-label-wrapper"><text x="23.93" y="6" text-anchor="end" transform="translate(0,6.533666658163698) rotate(-45,23.93,6)">Choices Fr...<title>Choices Franchise 6</title></text></g></g><g class="v-label v-morphable-label viz-axis-label v-axis-item index_0" fill="#737373" font-size="11px" font-weight="normal" font-family="'Open Sans', Arial, Helvetica, sans-serif" font-style="normal" categorylabel-id="7" transform="translate(270.62,0)"><rect class="viz-axis-label-rect" fill="transparent" x="19.330000000000013" y="0" width="17.2" height="61" transform="translate(-2.3334523779156067,2.1715728752538097) rotate(45,19.330000000000013,0) "></rect><g class="v-axis-label-wrapper"><text x="23.929999999999986" y="6" text-anchor="end" transform="translate(0,6.533666658163698) rotate(-45,23.929999999999986,6)">Dairy World</text></g></g><g class="v-label v-morphable-label viz-axis-label v-axis-item index_0" fill="#737373" font-size="11px" font-weight="normal" font-family="'Open Sans', Arial, Helvetica, sans-serif" font-style="normal" categorylabel-id="8" transform="translate(309.28,0)"><rect class="viz-axis-label-rect" fill="transparent" x="19.330000000000013" y="0" width="17.2" height="67" transform="translate(-2.3334523779156067,2.1715728752538097) rotate(45,19.330000000000013,0) "></rect><g class="v-axis-label-wrapper"><text x="23.930000000000014" y="6" text-anchor="end" transform="translate(0,6.533666658163698) rotate(-45,23.930000000000014,6)">Delikatessen</text></g></g><g class="v-label v-morphable-label viz-axis-label v-axis-item index_0" fill="#737373" font-size="11px" font-weight="normal" font-family="'Open Sans', Arial, Helvetica, sans-serif" font-style="normal" categorylabel-id="9" transform="translate(347.94,0)"><rect class="viz-axis-label-rect" fill="transparent" x="19.330000000000013" y="0" width="17.2" height="68.01606050557099" transform="translate(-2.3334523779156067,2.1715728752538097) rotate(45,19.330000000000013,0) "></rect><g class="v-axis-label-wrapper"><text x="23.930000000000014" y="6" text-anchor="end" transform="translate(0,6.533666658163698) rotate(-45,23.930000000000014,6)">Donald's M...<title>Donald's Market</title></text></g></g></g></g></g></g><g class="v-m-valueAxis v-m-yAxis" transform="translate(0, 0)"><rect class="v-bound" width="78.4" height="360" fill="transparent"></rect><g class="v-axis"><g class="v-m-axisTitle" transform="translate(5.329070518200751e-15,0)"><g class="v-title viz-axis-title" fill="#000000" font-size="12px" font-weight="normal" font-family="'Open Sans', Arial, Helvetica, sans-serif" font-style="normal"><text text-anchor="middle" dominant-baseline="auto" x="11.4" y="180" transform="rotate(-90,11.4,180)"><tspan class="v-title viz-axis-title" dominant-baseline="auto">Revenue &amp; Cost</tspan></text></g></g><g class="v-m-axisBody" transform="translate(25.400000000000006,0)"><clipPath class="v-clippath-labels" id="clip-path-8a169b5b-6512-4950-854a-0f42334eddf5"><rect x="-1" y="-10" width="55" height="380"></rect></clipPath><clipPath class="v-clippath-ticks" id="clip-path-eb2515d0-4750-4ec4-abc0-8800f0f4dd66"><rect x="-1" y="-1" width="55" height="362"></rect></clipPath><rect class="v-bound" width="53" height="360" fill="transparent"></rect><g clip-path="url(#clip-path-eb2515d0-4750-4ec4-abc0-8800f0f4dd66)"><g class="v-tick-group"><line class="v-valueaxisline v-tick" stroke="#878786" stroke-width="1" shape-rendering="crispEdges" x1="53" y1="360" x2="48" y2="360"></line><line class="v-valueaxisline v-tick" stroke="#878786" stroke-width="1" shape-rendering="crispEdges" x1="53" y1="270" x2="48" y2="270"></line><line class="v-valueaxisline v-tick" stroke="#878786" stroke-width="1" shape-rendering="crispEdges" x1="53" y1="180" x2="48" y2="180"></line><line class="v-valueaxisline v-tick" stroke="#878786" stroke-width="1" shape-rendering="crispEdges" x1="53" y1="90" x2="48" y2="90"></line><line class="v-valueaxisline v-tick" stroke="#878786" stroke-width="1" shape-rendering="crispEdges" x1="53" y1="0" x2="48" y2="0"></line></g></g><g clip-path="url(#clip-path-8a169b5b-6512-4950-854a-0f42334eddf5)"><g class="v-label-group"><g class="v-label v-morphable-label viz-axis-label" fill="#737373" font-size="10px" font-weight="normal" font-family="'Open Sans', Arial, Helvetica, sans-serif" font-style="normal"><text text-anchor="end" x="42" y="364">0</text></g><g class="v-label v-morphable-label viz-axis-label" fill="#737373" font-size="10px" font-weight="normal" font-family="'Open Sans', Arial, Helvetica, sans-serif" font-style="normal"><text text-anchor="end" x="42" y="274">1000000</text></g><g class="v-label v-morphable-label viz-axis-label" fill="#737373" font-size="10px" font-weight="normal" font-family="'Open Sans', Arial, Helvetica, sans-serif" font-style="normal"><text text-anchor="end" x="42" y="184">2000000</text></g><g class="v-label v-morphable-label viz-axis-label" fill="#737373" font-size="10px" font-weight="normal" font-family="'Open Sans', Arial, Helvetica, sans-serif" font-style="normal"><text text-anchor="end" x="42" y="94">3000000</text></g><g class="v-label v-morphable-label viz-axis-label" fill="#737373" font-size="10px" font-weight="normal" font-family="'Open Sans', Arial, Helvetica, sans-serif" font-style="normal"><text text-anchor="end" x="42" y="4">4000000</text></g></g></g></g></g></g><g class="v-m-scrollbar" transform="translate(465, 0)"></g></g></svg>