<svg class="246bf2c0-e79a-464e-8d4d-b356dc14406e v-m-root" width="500" height="500" style="left: 0px; top: 0px; direction: ltr; display: block; cursor: default;" xmlns="http://www.w3.org/2000/svg" text-rendering="geometricPrecision"><g class="v-m-action-layer-group"/><defs/><g class="v-m-background"><rect class="v-background-body viz-plot-background v-morphable-background" x="0" y="0" width="500" height="500" style="fill:transparent"/></g><g class="v-m-title" transform="translate(132.84, 24)"><rect class="v-bound" width="200.08" height="27.796875" fill="transparent"/><text class="v-title viz-title-label" fill="#333333" font-family="'Open Sans', Arial, Helvetica, sans-serif" font-size="24" font-weight="bold" font-style="normal" text-anchor="middle" x="100.04" y="13.8984375" dominant-baseline="central">Title of Chart</text></g><g class="v-m-legendGroup" transform="translate(363, 139.196875)"><g class="v-m-legend" transform="translate(0,0)"><rect class="v-bound" width="113" height="162" fill="transparent"/><g class="v-content" transform="translate(0, 0)" font-size="12px" font-family="'Open Sans', Arial, Helvetica, sans-serif" font-weight="normal" fill="#000000" font-style="normal"><rect class="v-legend-body-bound" x="-5" fill="transparent" width="118" height="162"/><g class="v-groups v-label viz-legend-valueLabel" transform="translate(0, 0)"><g class="v-legend-element v-legend-item" transform="translate (-5,0)" legendlabel-id="0"><rect width="118" height="18" fill="transparent"/><path class="v-legend-marker" fill="#8fbadd" stroke-width="0" stroke="transparent" opacity="1" stroke-opacity="undefined" d="M0,-6L-3,-6Q-6,-6 -6,-3L-6,3Q-6,6 -3,6L3,6Q6,6 6,3L6,-3Q6,-6 3,-6Z" transform="translate(11,9)"/><text x="23" y="3" dy="0.85em">Car / Profit</text></g><g class="v-legend-element v-legend-item" transform="translate (-5,18)" legendlabel-id="1"><rect width="118" height="18" fill="transparent"/><path class="v-legend-marker" fill="#b8d4e9" stroke-width="0" stroke="transparent" opacity="1" stroke-opacity="undefined" d="M0,-6L-3,-6Q-6,-6 -6,-3L-6,3Q-6,6 -3,6L3,6Q6,6 6,3L6,-3Q6,-6 3,-6Z" transform="translate(11,9)"/><text x="23" y="3" dy="0.85em">Truck / Profit</text></g><g class="v-legend-element v-legend-item" transform="translate (-5,36)" legendlabel-id="2"><rect width="118" height="18" fill="transparent"/><path class="v-legend-marker" fill="#7aaed6" stroke-width="0" stroke="transparent" opacity="1" stroke-opacity="undefined" d="M0,-6L-3,-6Q-6,-6 -6,-3L-6,3Q-6,6 -3,6L3,6Q6,6 6,3L6,-3Q6,-6 3,-6Z" transform="translate(11,9)"/><text x="23" y="3" dy="0.85em">Motorcycle / Pr...<title>Motorcycle / Profit</title></text></g><g class="v-legend-element v-legend-item" transform="translate (-5,54)" legendlabel-id="3"><rect width="118" height="18" fill="transparent"/><path class="v-legend-marker" fill="#f6a09b" stroke-width="0" stroke="transparent" opacity="1" stroke-opacity="undefined" d="M0,-6L-3,-6Q-6,-6 -6,-3L-6,3Q-6,6 -3,6L3,6Q6,6 6,3L6,-3Q6,-6 3,-6Z" transform="translate(11,9)"/><text x="23" y="3" dy="0.85em">Car / Revenue</text></g><g class="v-legend-element v-legend-item" transform="translate (-5,72)" legendlabel-id="4"><rect width="118" height="18" fill="transparent"/><path class="v-legend-marker" fill="#f9c3c0" stroke-width="0" stroke="transparent" opacity="1" stroke-opacity="undefined" d="M-6,0 A6,6 0 1,0 6,0 A6,6 0 1,0 -6,0z" transform="translate(11,9)"/><text x="23" y="3" dy="0.85em">Car / Revenue2</text></g><g class="v-legend-element v-legend-item" transform="translate (-5,90)" legendlabel-id="5"><rect width="118" height="18" fill="transparent"/><path class="v-legend-marker" fill="#f58e88" stroke-width="0" stroke="transparent" opacity="1" stroke-opacity="undefined" d="M0,-6L-3,-6Q-6,-6 -6,-3L-6,3Q-6,6 -3,6L3,6Q6,6 6,3L6,-3Q6,-6 3,-6Z" transform="translate(11,9)"/><text x="23" y="3" dy="0.85em">Truck / Revenue</text></g><g class="v-legend-element v-legend-item" transform="translate (-5,108)" legendlabel-id="6"><rect width="118" height="18" fill="transparent"/><path class="v-legend-marker" fill="#f8b1ad" stroke-width="0" stroke="transparent" opacity="1" stroke-opacity="undefined" d="M-6,0 A6,6 0 1,0 6,0 A6,6 0 1,0 -6,0z" transform="translate(11,9)"/><text x="23" y="3" dy="0.85em">Truck / Revenu...<title>Truck / Revenue2</title></text></g><g class="v-legend-element v-legend-item" transform="translate (-5,126)" legendlabel-id="7"><rect width="118" height="18" fill="transparent"/><path class="v-legend-marker" fill="#f05b52" stroke-width="0" stroke="transparent" opacity="1" stroke-opacity="undefined" d="M0,-6L-3,-6Q-6,-6 -6,-3L-6,3Q-6,6 -3,6L3,6Q6,6 6,3L6,-3Q6,-6 3,-6Z" transform="translate(11,9)"/><text x="23" y="3" dy="0.85em">Motorcycle / Re...<title>Motorcycle / Revenue</title></text></g><g class="v-legend-element v-legend-item" transform="translate (-5,144)" legendlabel-id="8"><rect width="118" height="18" fill="transparent"/><path class="v-legend-marker" fill="#f37d76" stroke-width="0" stroke="transparent" opacity="1" stroke-opacity="undefined" d="M-6,0 A6,6 0 1,0 6,0 A6,6 0 1,0 -6,0z" transform="translate(11,9)"/><text x="23" y="3" dy="0.85em">Motorcycle / Re...<title>Motorcycle / Revenue2</title></text></g></g></g></g></g><g class="v-m-main" transform="translate(24, 87.956875)"><g class="v-m-plot" transform="translate(108.84, 51.24)"><rect class="v-background-body viz-plot-background v-morphable-background" x="0" y="0" width="200.08" height="273.56312499999996" style="fill:transparent"/><line class="v-background-border viz-plot-background-border" x1="0" y1="0" x2="0" y2="273.56312499999996" style="stroke: rgb(216, 216, 216); stroke-width: 1px;"/><line class="v-background-border viz-plot-background-border" x1="200.08" y1="0" x2="200.08" y2="273.56312499999996" style="stroke: rgb(216, 216, 216); stroke-width: 1px;"/><line class="v-background-border viz-plot-background-border" x1="0" y1="0" x2="200.08" y2="0" style="stroke: rgb(216, 216, 216); stroke-width: 1px;"/><line class="v-background-border viz-plot-background-border" x1="0" y1="273.56312499999996" x2="200.08" y2="273.56312499999996" style="stroke: rgb(216, 216, 216); stroke-width: 1px;"/><clipPath id="clipPath-547a9a71-2c36-467e-a73e-4d080821e327"><rect y="-1" width="201.08" height="274.56312499999996"/></clipPath><rect class="v-plot-bound v-bound v-zoom-plot" width="200.08" height="273.56312499999996" fill="transparent"/><g clip-path="url(#clipPath-547a9a71-2c36-467e-a73e-4d080821e327)"><g class="v-plot-main" transform="translate(0, 0)"><g class="v-gridline-group"><g class="v-gridline" stroke="#d8d8d8" stroke-width="1" shape-rendering="crispEdges"><line class="v-gridline-mainline" x1="0" y1="0" x2="0" y2="273.563125"/></g><g class="v-gridline" stroke="#d8d8d8" stroke-width="1" shape-rendering="crispEdges"><line class="v-gridline-mainline" x1="33.34666666666667" y1="0" x2="33.34666666666667" y2="273.563125"/></g><g class="v-gridline" stroke="#d8d8d8" stroke-width="1" shape-rendering="crispEdges"><line class="v-gridline-mainline" x1="66.69333333333334" y1="0" x2="66.69333333333334" y2="273.563125"/></g><g class="v-gridline" stroke="#d8d8d8" stroke-width="1" shape-rendering="crispEdges"><line class="v-gridline-mainline" x1="100.04" y1="0" x2="100.04" y2="273.563125"/></g><g class="v-gridline" stroke="#d8d8d8" stroke-width="1" shape-rendering="crispEdges"><line class="v-gridline-mainline" x1="133.38666666666668" y1="0" x2="133.38666666666668" y2="273.563125"/></g><g class="v-gridline" stroke="#d8d8d8" stroke-width="1" shape-rendering="crispEdges"><line class="v-gridline-mainline" x1="166.73333333333335" y1="0" x2="166.73333333333335" y2="273.563125"/></g><g class="v-gridline" stroke="#d8d8d8" stroke-width="1" shape-rendering="crispEdges"><line class="v-gridline-mainline" x1="200.08" y1="0" x2="200.08" y2="273.563125"/></g></g><g class="v-datapoint-group"><g class="v-stack"><g data-id="4" data-datapoint-id="329" class="v-datapoint v-morphable-datapoint v-datapoint-default" transform="translate(0, 35.56320624999999)"><rect width="38.18193333333334" height="21.88505" fill="#f05b52" shape-rendering="crispEdges"/></g><g data-id="12" data-datapoint-id="321" class="v-datapoint v-morphable-datapoint v-datapoint-default" transform="translate(38.18193333333334, 35.56320624999999)"><rect width="50.02" height="21.88505" fill="#f58e88" shape-rendering="crispEdges"/></g><g data-id="20" data-datapoint-id="313" class="v-datapoint v-morphable-datapoint v-datapoint-default" transform="translate(88.20193333333334, 35.56320624999999)"><rect width="83.36666666666667" height="21.88505" fill="#f6a09b" shape-rendering="crispEdges"/></g><g data-id="24" data-datapoint-id="309" class="v-datapoint v-morphable-datapoint v-datapoint-default" transform="translate(0, 10.942524999999998)"><rect width="43.01720000000001" height="21.885049999999993" fill="#7aaed6" shape-rendering="crispEdges"/></g><g data-id="28" data-datapoint-id="305" class="v-datapoint v-morphable-datapoint v-datapoint-default" transform="translate(43.01720000000001, 10.942524999999998)"><rect width="53.02120000000001" height="21.885049999999993" fill="#b8d4e9" shape-rendering="crispEdges"/></g><g data-id="32" data-datapoint-id="301" class="v-datapoint v-morphable-datapoint v-datapoint-default" transform="translate(96.03840000000001, 10.942524999999998)"><rect width="50.02000000000002" height="21.885049999999993" fill="#8fbadd" shape-rendering="crispEdges"/></g></g><g class="v-stack"><g data-id="5" data-datapoint-id="330" class="v-datapoint v-morphable-datapoint v-datapoint-default" transform="translate(0, 103.95398749999998)"><rect width="24.84326666666667" height="21.88505" fill="#f05b52" shape-rendering="crispEdges"/></g><g data-id="13" data-datapoint-id="322" class="v-datapoint v-morphable-datapoint v-datapoint-default" transform="translate(24.84326666666667, 103.95398749999998)"><rect width="41.516600000000004" height="21.88505" fill="#f58e88" shape-rendering="crispEdges"/></g><g data-id="21" data-datapoint-id="314" class="v-datapoint v-morphable-datapoint v-datapoint-default" transform="translate(66.35986666666668, 103.95398749999998)"><rect width="19.34106666666667" height="21.88505" fill="#f6a09b" shape-rendering="crispEdges"/></g><g data-id="25" data-datapoint-id="310" class="v-datapoint v-morphable-datapoint v-datapoint-default" transform="translate(0, 79.33330624999998)"><rect width="16.339866666666666" height="21.885049999999993" fill="#7aaed6" shape-rendering="crispEdges"/></g><g data-id="29" data-datapoint-id="306" class="v-datapoint v-morphable-datapoint v-datapoint-default" transform="translate(16.339866666666666, 79.33330624999998)"><rect width="49.68653333333334" height="21.885049999999993" fill="#b8d4e9" shape-rendering="crispEdges"/></g><g data-id="33" data-datapoint-id="302" class="v-datapoint v-morphable-datapoint v-datapoint-default" transform="translate(66.02640000000001, 79.33330624999998)"><rect width="19.34106666666667" height="21.885049999999993" fill="#8fbadd" shape-rendering="crispEdges"/></g></g><g class="v-stack"><g data-id="6" data-datapoint-id="331" class="v-datapoint v-morphable-datapoint v-datapoint-default" transform="translate(0, 172.34476875)"><rect width="24.509800000000006" height="21.88505" fill="#f05b52" shape-rendering="crispEdges"/></g><g data-id="14" data-datapoint-id="323" class="v-datapoint v-morphable-datapoint v-datapoint-default" transform="translate(24.509800000000006, 172.34476875)"><rect width="41.183133333333345" height="21.88505" fill="#f58e88" shape-rendering="crispEdges"/></g><g data-id="22" data-datapoint-id="315" class="v-datapoint v-morphable-datapoint v-datapoint-default" transform="translate(65.69293333333334, 172.34476875)"><rect width="45.351466666666674" height="21.88505" fill="#f6a09b" shape-rendering="crispEdges"/></g><g data-id="26" data-datapoint-id="311" class="v-datapoint v-morphable-datapoint v-datapoint-default" transform="translate(0, 147.7240875)"><rect width="15.672933333333335" height="21.885049999999993" fill="#7aaed6" shape-rendering="crispEdges"/></g><g data-id="30" data-datapoint-id="307" class="v-datapoint v-morphable-datapoint v-datapoint-default" transform="translate(15.672933333333335, 147.7240875)"><rect width="49.01960000000001" height="21.885049999999993" fill="#b8d4e9" shape-rendering="crispEdges"/></g><g data-id="34" data-datapoint-id="303" class="v-datapoint v-morphable-datapoint v-datapoint-default" transform="translate(64.69253333333334, 147.7240875)"><rect width="45.392983266666675" height="21.885049999999993" fill="#8fbadd" shape-rendering="crispEdges"/></g></g><g class="v-stack"><g data-id="7" data-datapoint-id="332" class="v-datapoint v-morphable-datapoint v-datapoint-default" transform="translate(0, 240.73554999999996)"><rect width="28.177933333333335" height="21.88505" fill="#f05b52" shape-rendering="crispEdges"/></g><g data-id="15" data-datapoint-id="324" class="v-datapoint v-morphable-datapoint v-datapoint-default" transform="translate(28.177933333333335, 240.73554999999996)"><rect width="61.5246" height="21.88505" fill="#f58e88" shape-rendering="crispEdges"/></g><g data-id="23" data-datapoint-id="316" class="v-datapoint v-morphable-datapoint v-datapoint-default" transform="translate(89.70253333333335, 240.73554999999996)"><rect width="42.68373333333334" height="21.88505" fill="#f6a09b" shape-rendering="crispEdges"/></g><g data-id="27" data-datapoint-id="312" class="v-datapoint v-morphable-datapoint v-datapoint-default" transform="translate(0, 216.11486874999997)"><rect width="23.009200000000003" height="21.885049999999993" fill="#7aaed6" shape-rendering="crispEdges"/></g><g data-id="31" data-datapoint-id="308" class="v-datapoint v-morphable-datapoint v-datapoint-default" transform="translate(23.009200000000003, 216.11486874999997)"><rect width="89.70253333333335" height="21.885049999999993" fill="#b8d4e9" shape-rendering="crispEdges"/></g><g data-id="35" data-datapoint-id="304" class="v-datapoint v-morphable-datapoint v-datapoint-default" transform="translate(112.71173333333334, 216.11486874999997)"><rect width="42.68373333333334" height="21.885049999999993" fill="#8fbadd" shape-rendering="crispEdges"/></g></g><g><path d="M54.85526666666667,34.195390624999995L41.516600000000004,102.58617187499998L41.18313333333334,170.976953125L44.851266666666675,239.36773437499997" fill="none" stroke-width="2" stroke="#f37d76" stroke-linejoin="round" stroke-dasharray="undefined" class="v-lines v-morphable-line" combination-line="true"/><g data-id="0" data-datapoint-id="333" class="v-datapoint v-morphable-datapoint v-datapoint-default" transform="translate(54.85526666666667, 34.195390624999995)"><path d="M-4,0 A4,4 0 1,0 4,0 A4,4 0 1,0 -4,0z" fill="#f37d76"/></g><g data-id="1" data-datapoint-id="334" class="v-datapoint v-morphable-datapoint v-datapoint-default" transform="translate(41.516600000000004, 102.58617187499998)"><path d="M-4,0 A4,4 0 1,0 4,0 A4,4 0 1,0 -4,0z" fill="#f37d76"/></g><g data-id="2" data-datapoint-id="335" class="v-datapoint v-morphable-datapoint v-datapoint-default" transform="translate(41.18313333333334, 170.976953125)"><path d="M-4,0 A4,4 0 1,0 4,0 A4,4 0 1,0 -4,0z" fill="#f37d76"/></g><g data-id="3" data-datapoint-id="336" class="v-datapoint v-morphable-datapoint v-datapoint-default" transform="translate(44.851266666666675, 239.36773437499997)"><path d="M-4,0 A4,4 0 1,0 4,0 A4,4 0 1,0 -4,0z" fill="#f37d76"/></g></g><g><path d="M66.69333333333334,34.195390624999995L58.189933333333336,102.58617187499998L57.85646666666668,170.976953125L78.19793333333334,239.36773437499997" fill="none" stroke-width="2" stroke="#f8b1ad" stroke-linejoin="round" stroke-dasharray="undefined" class="v-lines v-morphable-line" combination-line="true"/><g data-id="8" data-datapoint-id="325" class="v-datapoint v-morphable-datapoint v-datapoint-default" transform="translate(66.69333333333334, 34.195390624999995)"><path d="M-4,0 A4,4 0 1,0 4,0 A4,4 0 1,0 -4,0z" fill="#f8b1ad"/></g><g data-id="9" data-datapoint-id="326" class="v-datapoint v-morphable-datapoint v-datapoint-default" transform="translate(58.189933333333336, 102.58617187499998)"><path d="M-4,0 A4,4 0 1,0 4,0 A4,4 0 1,0 -4,0z" fill="#f8b1ad"/></g><g data-id="10" data-datapoint-id="327" class="v-datapoint v-morphable-datapoint v-datapoint-default" transform="translate(57.85646666666668, 170.976953125)"><path d="M-4,0 A4,4 0 1,0 4,0 A4,4 0 1,0 -4,0z" fill="#f8b1ad"/></g><g data-id="11" data-datapoint-id="328" class="v-datapoint v-morphable-datapoint v-datapoint-default" transform="translate(78.19793333333334, 239.36773437499997)"><path d="M-4,0 A4,4 0 1,0 4,0 A4,4 0 1,0 -4,0z" fill="#f8b1ad"/></g></g><g><path d="M100.04,34.195390624999995L36.01440000000001,102.58617187499998L62.024800000000006,170.976953125L59.357066666666675,239.36773437499997" fill="none" stroke-width="2" stroke="#f9c3c0" stroke-linejoin="round" stroke-dasharray="undefined" class="v-lines v-morphable-line" combination-line="true"/><g data-id="16" data-datapoint-id="317" class="v-datapoint v-morphable-datapoint v-datapoint-default" transform="translate(100.04, 34.195390624999995)"><path d="M-4,0 A4,4 0 1,0 4,0 A4,4 0 1,0 -4,0z" fill="#f9c3c0"/></g><g data-id="17" data-datapoint-id="318" class="v-datapoint v-morphable-datapoint v-datapoint-default" transform="translate(36.01440000000001, 102.58617187499998)"><path d="M-4,0 A4,4 0 1,0 4,0 A4,4 0 1,0 -4,0z" fill="#f9c3c0"/></g><g data-id="18" data-datapoint-id="319" class="v-datapoint v-morphable-datapoint v-datapoint-default" transform="translate(62.024800000000006, 170.976953125)"><path d="M-4,0 A4,4 0 1,0 4,0 A4,4 0 1,0 -4,0z" fill="#f9c3c0"/></g><g data-id="19" data-datapoint-id="320" class="v-datapoint v-morphable-datapoint v-datapoint-default" transform="translate(59.357066666666675, 239.36773437499997)"><path d="M-4,0 A4,4 0 1,0 4,0 A4,4 0 1,0 -4,0z" fill="#f9c3c0"/></g></g></g></g></g><g class="v-referenceline-group" clip-path="url(#clipPath-547a9a71-2c36-467e-a73e-4d080821e327)"/></g><g class="v-m-categoryAxis v-m-yAxis" transform="translate(0, 51.24)"><rect class="v-bound" width="108.84" height="273.56312499999996" fill="transparent"/><g class="v-axis"><g class="v-m-axisTitle" transform="translate(3.552713678800501e-15,0)"><g class="v-title viz-axis-title" fill="#000000" font-size="14px" font-weight="bold" font-family="'Open Sans', Arial, Helvetica, sans-serif" font-style="normal"><text text-anchor="middle" dominant-baseline="auto" x="13.8" y="136.78156249999998" transform="rotate(-90,13.8,136.78156249999998)"><tspan class="v-title viz-axis-title" dominant-baseline="auto">Country</tspan><tspan class="v-title viz-axis-title" dominant-baseline="auto"> / Year</tspan></text></g></g><g class="v-m-axisBody" transform="translate(25.840000000000003,0)" clip-path="url(#clipPath-3f8afe5d-8146-4a6e-9ec0-09327c64197a)"><clipPath class="v-clippath" id="clipPath-3f8afe5d-8146-4a6e-9ec0-09327c64197a"><rect x="-1" y="-1" width="85" height="275.56312499999996"/></clipPath><g class="v-line-group"><line class="v-valueaxisline v-line" stroke="#6c6c6c" stroke-width="1" shape-rendering="crispEdges" x1="83" y1="-0.5" x2="83" y2="274.06312499999996"/></g><g class="v-tick-group"><line class="v-valueaxisline v-longtick" stroke="#6c6c6c" stroke-width="1" shape-rendering="crispEdges" x1="83" y1="0" x2="0" y2="0"/><line class="v-valueaxisline v-longtick" stroke="#6c6c6c" stroke-width="1" shape-rendering="crispEdges" x1="83" y1="68.39078125" x2="0" y2="68.39078125"/><line class="v-valueaxisline v-longtick" stroke="#6c6c6c" stroke-width="1" shape-rendering="crispEdges" x1="83" y1="136.7815625" x2="0" y2="136.7815625"/><line class="v-valueaxisline v-longtick" stroke="#6c6c6c" stroke-width="1" shape-rendering="crispEdges" x1="83" y1="205.17234375" x2="0" y2="205.17234375"/><line class="v-valueaxisline v-longtick" stroke="#6c6c6c" stroke-width="1" shape-rendering="crispEdges" x1="83" y1="273.563125" x2="0" y2="273.563125"/></g><g class="v-label-group"><g class="v-label v-morphable-label viz-axis-label v-axis-item index_0" fill="#333333" font-size="12px" font-weight="normal" font-family="'Open Sans', Arial, Helvetica, sans-serif" font-style="normal" categorylabel-id="4" transform="translate(44,0)"><rect class="viz-axis-label-rect" fill="transparent" x="1" y="1" width="37" height="66.39078125"/><g class="v-axis-label-wrapper"><text x="33" y="38.395390625000005" text-anchor="end">2001</text></g></g><g class="v-label v-morphable-label viz-axis-label v-axis-item index_0" fill="#333333" font-size="12px" font-weight="normal" font-family="'Open Sans', Arial, Helvetica, sans-serif" font-style="normal" categorylabel-id="5" transform="translate(44,68.39078125)"><rect class="viz-axis-label-rect" fill="transparent" x="1" y="1" width="37" height="66.39078125"/><g class="v-axis-label-wrapper"><text x="33" y="38.395390625000005" text-anchor="end">2001</text></g></g><g class="v-label v-morphable-label viz-axis-label v-axis-item index_0" fill="#333333" font-size="12px" font-weight="normal" font-family="'Open Sans', Arial, Helvetica, sans-serif" font-style="normal" categorylabel-id="6" transform="translate(44,136.7815625)"><rect class="viz-axis-label-rect" fill="transparent" x="1" y="1" width="37" height="66.39078125"/><g class="v-axis-label-wrapper"><text x="33" y="38.395390625000005" text-anchor="end">2002</text></g></g><g class="v-label v-morphable-label viz-axis-label v-axis-item index_0" fill="#333333" font-size="12px" font-weight="normal" font-family="'Open Sans', Arial, Helvetica, sans-serif" font-style="normal" categorylabel-id="7" transform="translate(44,205.17234375)"><rect class="viz-axis-label-rect" fill="transparent" x="1" y="1" width="37" height="66.39078125"/><g class="v-axis-label-wrapper"><text x="33" y="38.395390625000005" text-anchor="end">2002</text></g></g><g class="v-label v-morphable-label viz-axis-label v-axis-item index_1" fill="#333333" font-size="12px" font-weight="normal" font-family="'Open Sans', Arial, Helvetica, sans-serif" font-style="normal" categorylabel-id="0" transform="translate(0,0)"><rect class="viz-axis-label-rect" fill="transparent" x="1" y="1" width="42" height="66.39078125"/><g class="v-axis-label-wrapper"><text x="38" y="38.395390625000005" text-anchor="end">China</text></g></g><g class="v-label v-morphable-label viz-axis-label v-axis-item index_1" fill="#333333" font-size="12px" font-weight="normal" font-family="'Open Sans', Arial, Helvetica, sans-serif" font-style="normal" categorylabel-id="1" transform="translate(0,68.39078125)"><rect class="viz-axis-label-rect" fill="transparent" x="1" y="1" width="42" height="66.39078125"/><g class="v-axis-label-wrapper"><text x="38" y="38.395390625000005" text-anchor="end">USA</text></g></g><g class="v-label v-morphable-label viz-axis-label v-axis-item index_1" fill="#333333" font-size="12px" font-weight="normal" font-family="'Open Sans', Arial, Helvetica, sans-serif" font-style="normal" categorylabel-id="2" transform="translate(0,136.7815625)"><rect class="viz-axis-label-rect" fill="transparent" x="1" y="1" width="42" height="66.39078125"/><g class="v-axis-label-wrapper"><text x="38" y="38.395390625000005" text-anchor="end">China</text></g></g><g class="v-label v-morphable-label viz-axis-label v-axis-item index_1" fill="#333333" font-size="12px" font-weight="normal" font-family="'Open Sans', Arial, Helvetica, sans-serif" font-style="normal" categorylabel-id="3" transform="translate(0,205.17234375)"><rect class="viz-axis-label-rect" fill="transparent" x="1" y="1" width="42" height="66.39078125"/><g class="v-axis-label-wrapper"><text x="38" y="38.395390625000005" text-anchor="end">USA</text></g></g></g></g></g></g><g class="v-m-valueAxis v-m-xAxis2" transform="translate(108.84, 0)"><rect class="v-bound" width="200.08" height="51.24" fill="transparent"/><g class="v-axis"><g class="v-m-axisTitle" transform="translate(0,3.552713678800501e-15)"><g class="v-title viz-axis-title" fill="#8fbadd" font-size="14px" font-weight="bold" font-family="'Open Sans', Arial, Helvetica, sans-serif" font-style="normal"><text text-anchor="middle" dominant-baseline="auto" x="100.04" y="13.8"><tspan class="v-title viz-axis-title" dominant-baseline="auto">Profit</tspan></text></g></g><g class="v-m-axisBody" transform="translate(0,25.840000000000003)"><clipPath class="v-clippath-labels" id="clipPath-a0870f5f-c36c-4b8f-9a0b-24f403cedad8"><rect x="-16" y="-1" width="239.08" height="27.4"/></clipPath><clipPath class="v-clippath-ticks" id="clipPath-6d91b179-c2c3-43f2-bbe8-2c4f622b6df5"><rect x="-1" y="-1" width="202.08" height="27.4"/></clipPath><rect class="v-bound" width="200.08" height="25.4" fill="transparent"/><g class="v-line-group"><line class="v-valueaxisline v-line" stroke="#8fbadd" stroke-width="1" shape-rendering="crispEdges" x1="-0.5" y1="25.4" x2="200.58" y2="25.4"/></g><g clip-path="url(#clipPath-6d91b179-c2c3-43f2-bbe8-2c4f622b6df5)"><g class="v-tick-group"><line class="v-valueaxisline v-tick" stroke="#8fbadd" stroke-width="1" shape-rendering="crispEdges" x1="0" y1="25.4" x2="0" y2="20.4"/><line class="v-valueaxisline v-tick" stroke="#8fbadd" stroke-width="1" shape-rendering="crispEdges" x1="33.34666666666667" y1="25.4" x2="33.34666666666667" y2="20.4"/><line class="v-valueaxisline v-tick" stroke="#8fbadd" stroke-width="1" shape-rendering="crispEdges" x1="66.69333333333334" y1="25.4" x2="66.69333333333334" y2="20.4"/><line class="v-valueaxisline v-tick" stroke="#8fbadd" stroke-width="1" shape-rendering="crispEdges" x1="100.04" y1="25.4" x2="100.04" y2="20.4"/><line class="v-valueaxisline v-tick" stroke="#8fbadd" stroke-width="1" shape-rendering="crispEdges" x1="133.38666666666668" y1="25.4" x2="133.38666666666668" y2="20.4"/><line class="v-valueaxisline v-tick" stroke="#8fbadd" stroke-width="1" shape-rendering="crispEdges" x1="166.73333333333335" y1="25.4" x2="166.73333333333335" y2="20.4"/><line class="v-valueaxisline v-tick" stroke="#8fbadd" stroke-width="1" shape-rendering="crispEdges" x1="200.08" y1="25.4" x2="200.08" y2="20.4"/></g></g><g clip-path="url(#clipPath-a0870f5f-c36c-4b8f-9a0b-24f403cedad8)"><g class="v-label-group"><g class="v-label v-morphable-label viz-axis-label" fill="#333333" font-size="12px" font-weight="normal" font-family="'Open Sans', Arial, Helvetica, sans-serif" font-style="normal"><text text-anchor="middle" x="0" y="11.399999999999999">0.00</text></g><g class="v-label v-morphable-label viz-axis-label" fill="#333333" font-size="12px" font-weight="normal" font-family="'Open Sans', Arial, Helvetica, sans-serif" font-style="normal"><text text-anchor="middle" x="66.69333333333334" y="11.399999999999999">200.00</text></g><g class="v-label v-morphable-label viz-axis-label" fill="#333333" font-size="12px" font-weight="normal" font-family="'Open Sans', Arial, Helvetica, sans-serif" font-style="normal"><text text-anchor="middle" x="133.38666666666668" y="11.399999999999999">400.00</text></g><g class="v-label v-morphable-label viz-axis-label" fill="#333333" font-size="12px" font-weight="normal" font-family="'Open Sans', Arial, Helvetica, sans-serif" font-style="normal"><text text-anchor="middle" x="200.08" y="11.399999999999999">600.00</text></g></g></g></g></g></g><g class="v-m-scrollbar" transform="translate(308.92, 51.24)"><g><rect class="v-m-scrollbarTrack" visibility="hidden" fill="#f7f7f7" width="12" height="273.56312499999996"/><rect class="v-m-scrollbarThumb" visibility="hidden" fill="#e5e5e5" width="12" height="273.56312499999996" transform="translate(0, 0)"/></g></g><g class="v-m-valueAxis2 v-m-xAxis" transform="translate(108.84, 324.80312499999997)"><rect class="v-bound" width="200.08" height="63.24" fill="transparent"/><g class="v-axis"><g class="v-m-axisScrollbar" transform="translate(0,25.4)"><g><rect class="v-m-scrollbarTrack" visibility="hidden" fill="#f7f7f7" width="200.08" height="12"/><rect class="v-m-scrollbarThumb" visibility="hidden" fill="#e5e5e5" width="200.08" height="12" transform="translate(0, 0)"/></g></g><g class="v-m-axisTitle" transform="translate(0,46.44)"><g class="v-title viz-axis-title" fill="#f6a09b" font-size="14px" font-weight="bold" font-family="'Open Sans', Arial, Helvetica, sans-serif" font-style="normal"><text text-anchor="middle" dominant-baseline="auto" x="100.04" y="13.8"><tspan class="v-title viz-axis-title" dominant-baseline="auto">Revenue &amp; Revenue2</tspan></text></g></g><g class="v-m-axisBody" transform="translate(0,0)"><clipPath class="v-clippath-labels" id="clipPath-41af40f4-c0e6-49d4-8aae-1eb364578397"><rect x="-7.5" y="-1" width="225.58" height="27.4"/></clipPath><clipPath class="v-clippath-ticks" id="clipPath-a217acb7-21ba-4d86-92a1-5b9681fa411c"><rect x="-1" y="-1" width="202.08" height="27.4"/></clipPath><rect class="v-bound" width="200.08" height="25.4" fill="transparent"/><g class="v-line-group"><line class="v-valueaxisline v-line" stroke="#f6a09b" stroke-width="1" shape-rendering="crispEdges" x1="-0.5" y1="0" x2="200.58" y2="0"/></g><g clip-path="url(#clipPath-a217acb7-21ba-4d86-92a1-5b9681fa411c)"><g class="v-tick-group"><line class="v-valueaxisline v-tick" stroke="#f6a09b" stroke-width="1" shape-rendering="crispEdges" x1="0" y1="0" x2="0" y2="5"/><line class="v-valueaxisline v-tick" stroke="#f6a09b" stroke-width="1" shape-rendering="crispEdges" x1="33.34666666666667" y1="0" x2="33.34666666666667" y2="5"/><line class="v-valueaxisline v-tick" stroke="#f6a09b" stroke-width="1" shape-rendering="crispEdges" x1="66.69333333333334" y1="0" x2="66.69333333333334" y2="5"/><line class="v-valueaxisline v-tick" stroke="#f6a09b" stroke-width="1" shape-rendering="crispEdges" x1="100.04" y1="0" x2="100.04" y2="5"/><line class="v-valueaxisline v-tick" stroke="#f6a09b" stroke-width="1" shape-rendering="crispEdges" x1="133.38666666666668" y1="0" x2="133.38666666666668" y2="5"/><line class="v-valueaxisline v-tick" stroke="#f6a09b" stroke-width="1" shape-rendering="crispEdges" x1="166.73333333333335" y1="0" x2="166.73333333333335" y2="5"/><line class="v-valueaxisline v-tick" stroke="#f6a09b" stroke-width="1" shape-rendering="crispEdges" x1="200.08" y1="0" x2="200.08" y2="5"/></g></g><g clip-path="url(#clipPath-41af40f4-c0e6-49d4-8aae-1eb364578397)"><g class="v-label-group"><g class="v-label v-morphable-label viz-axis-label" fill="#333333" font-size="12px" font-weight="normal" font-family="'Open Sans', Arial, Helvetica, sans-serif" font-style="normal"><text text-anchor="middle" x="0" y="22.4">0</text></g><g class="v-label v-morphable-label viz-axis-label" fill="#333333" font-size="12px" font-weight="normal" font-family="'Open Sans', Arial, Helvetica, sans-serif" font-style="normal"><text text-anchor="middle" x="33.34666666666667" y="22.4">200</text></g><g class="v-label v-morphable-label viz-axis-label" fill="#333333" font-size="12px" font-weight="normal" font-family="'Open Sans', Arial, Helvetica, sans-serif" font-style="normal"><text text-anchor="middle" x="66.69333333333334" y="22.4">400</text></g><g class="v-label v-morphable-label viz-axis-label" fill="#333333" font-size="12px" font-weight="normal" font-family="'Open Sans', Arial, Helvetica, sans-serif" font-style="normal"><text text-anchor="middle" x="100.04" y="22.4">600</text></g><g class="v-label v-morphable-label viz-axis-label" fill="#333333" font-size="12px" font-weight="normal" font-family="'Open Sans', Arial, Helvetica, sans-serif" font-style="normal"><text text-anchor="middle" x="133.38666666666668" y="22.4">800</text></g><g class="v-label v-morphable-label viz-axis-label" fill="#333333" font-size="12px" font-weight="normal" font-family="'Open Sans', Arial, Helvetica, sans-serif" font-style="normal"><text text-anchor="middle" x="166.73333333333335" y="22.4">1000</text></g><g class="v-label v-morphable-label viz-axis-label" fill="#333333" font-size="12px" font-weight="normal" font-family="'Open Sans', Arial, Helvetica, sans-serif" font-style="normal"><text text-anchor="middle" x="200.08" y="22.4">1200</text></g></g></g></g></g></g></g></svg>