<svg class="v-m-root" viewBox="0 0 600 500" width="600" height="500" xmlns="http://www.w3.org/2000/svg" style="left: 0px; top: 0px; direction: ltr; height: 100%; width: 100%; display: block; cursor: default;"><defs></defs><g class="v-m-action-layer-group"></g><g class="v-m-background"><rect class="v-background-body viz-plot-background v-morphable-background" x="0" y="0" width="600" height="500" style="fill:transparent"></rect></g><g class="v-m-title" transform="translate(25, 25)"></g><g class="v-m-legendGroup" transform="translate(465, 25)"><g class="v-m-legend" transform="translate(0,0)"><rect class="v-bound" width="110" height="175" fill="transparent"></rect><g class="v-content" transform="translate(0, 0)" font-size="10px" font-family="'Open Sans', Arial, Helvetica, sans-serif" font-weight="normal" fill="#737373" font-style="normal"><rect class="v-legend-body-bound" x="-5" fill="transparent" width="115" height="175"></rect><g class="v-groups v-label viz-legend-valueLabel" transform="translate(0, 0)"><g class="v-legend-element v-legend-item" transform="translate (-5,0)" legendlabel-id="0"><rect width="115" height="17.5" fill="transparent"></rect><path class="v-legend-marker" fill="#73d2e0" stroke-width="0" stroke="transparent" opacity="1" stroke-opacity="undefined" d="M-7,-7L7,-7L7,7L-7,7Z" transform="translate(12,8.25)"></path><text x="24" y="3.25" dy="0.85em">24-Seven</text></g><g class="v-legend-element v-legend-item" transform="translate (-5,17.5)" legendlabel-id="1"><rect width="115" height="17.5" fill="transparent"></rect><path class="v-legend-marker" fill="#bbd03b" stroke-width="0" stroke="transparent" opacity="1" stroke-opacity="undefined" d="M-7,-7L7,-7L7,7L-7,7Z" transform="translate(12,8.25)"></path><text x="24" y="3.25" dy="0.85em">A&amp;A</text></g><g class="v-legend-element v-legend-item" transform="translate (-5,35)" legendlabel-id="2"><rect width="115" height="17.5" fill="transparent"></rect><path class="v-legend-marker" fill="#999d20" stroke-width="0" stroke="transparent" opacity="1" stroke-opacity="undefined" d="M-7,-7L7,-7L7,7L-7,7Z" transform="translate(12,8.25)"></path><text x="24" y="3.25" dy="0.85em">Alexei's Specialities</text></g><g class="v-legend-element v-legend-item" transform="translate (-5,52.5)" legendlabel-id="3"><rect width="115" height="17.5" fill="transparent"></rect><path class="v-legend-marker" fill="#f2910f" stroke-width="0" stroke="transparent" opacity="1" stroke-opacity="undefined" d="M-7,-7L7,-7L7,7L-7,7Z" transform="translate(12,8.25)"></path><text x="24" y="3.25" dy="0.85em">BC Market</text></g><g class="v-legend-element v-legend-item" transform="translate (-5,70)" legendlabel-id="4"><rect width="115" height="17.5" fill="transparent"></rect><path class="v-legend-marker" fill="#fccd8c" stroke-width="0" stroke="transparent" opacity="1" stroke-opacity="undefined" d="M-7,-7L7,-7L7,7L-7,7Z" transform="translate(12,8.25)"></path><text x="24" y="3.25" dy="0.85em">Choices Franchis...<title>Choices Franchise 1</title></text></g><g class="v-legend-element v-legend-item" transform="translate (-5,87.5)" legendlabel-id="5"><rect width="115" height="17.5" fill="transparent"></rect><path class="v-legend-marker" fill="#a5d5cb" stroke-width="0" stroke="transparent" opacity="1" stroke-opacity="undefined" d="M-7,-7L7,-7L7,7L-7,7Z" transform="translate(12,8.25)"></path><text x="24" y="3.25" dy="0.85em">Choices Franchis...<title>Choices Franchise 3</title></text></g><g class="v-legend-element v-legend-item" transform="translate (-5,105)" legendlabel-id="6"><rect width="115" height="17.5" fill="transparent"></rect><path class="v-legend-marker" fill="#00adc6" stroke-width="0" stroke="transparent" opacity="1" stroke-opacity="undefined" d="M-7,-7L7,-7L7,7L-7,7Z" transform="translate(12,8.25)"></path><text x="24" y="3.25" dy="0.85em">Choices Franchis...<title>Choices Franchise 6</title></text></g><g class="v-legend-element v-legend-item" transform="translate (-5,122.5)" legendlabel-id="7"><rect width="115" height="17.5" fill="transparent"></rect><path class="v-legend-marker" fill="#919795" stroke-width="0" stroke="transparent" opacity="1" stroke-opacity="undefined" d="M-7,-7L7,-7L7,7L-7,7Z" transform="translate(12,8.25)"></path><text x="24" y="3.25" dy="0.85em">Dairy World</text></g><g class="v-legend-element v-legend-item" transform="translate (-5,140)" legendlabel-id="8"><rect width="115" height="17.5" fill="transparent"></rect><path class="v-legend-marker" fill="#ed6b06" stroke-width="0" stroke="transparent" opacity="1" stroke-opacity="undefined" d="M-7,-7L7,-7L7,7L-7,7Z" transform="translate(12,8.25)"></path><text x="24" y="3.25" dy="0.85em">Delikatessen</text></g><g class="v-legend-element v-legend-item" transform="translate (-5,157.5)" legendlabel-id="9"><rect width="115" height="17.5" fill="transparent"></rect><path class="v-legend-marker" fill="#73d2e0" stroke-width="0" stroke="transparent" opacity="1" stroke-opacity="undefined" d="M-7,-7L7,-7L7,7L-7,7Z" transform="translate(12,8.25)"></path><text x="24" y="3.25" dy="0.85em">Donald's Market</text></g></g></g></g></g><g class="v-m-plot" transform="translate(25, 25)"><rect class="v-background-body viz-plot-background v-morphable-background" x="0" y="0" width="418" height="450" style="fill:transparent"></rect><clipPath id="plot_main_clipPath_9d724f56-562f-4b71-a524-2f4f6f63ed35"><rect y="-1" width="419" height="451"></rect></clipPath><rect class="v-plot-bound v-bound v-zoom-plot" width="418" height="450" fill="transparent"></rect><g clip-path="url(#plot_main_clipPath_9d724f56-562f-4b71-a524-2f4f6f63ed35)"><g class="v-plot-main" transform="translate(0, 0)"><g class="v-datapoint-group" transform="translate(209, 165.60400702987698)"><g data-id="0" data-datapoint-id="1" class="v-datapoint v-morphable-datapoint v-datapoint-default"><path fill="#73d2e0" d="M9.049006312047708e-15,-147.78148799062683A147.78148799062683,147.78148799062683 0 0,1 21.738639740207667,-146.1738681672249L10.869319870103833,-73.08693408361245A73.89074399531341,73.89074399531341 0 0,0 4.524503156023854e-15,-73.89074399531341Z"></path></g><g data-id="1" data-datapoint-id="2" class="v-datapoint v-morphable-datapoint v-datapoint-default"><path fill="#bbd03b" d="M21.738639740207667,-146.1738681672249A147.78148799062683,147.78148799062683 0 0,1 99.79795693585658,-108.99420160794196L49.89897846792829,-54.49710080397098A73.89074399531341,73.89074399531341 0 0,0 10.869319870103833,-73.08693408361245Z"></path></g><g data-id="2" data-datapoint-id="3" class="v-datapoint v-morphable-datapoint v-datapoint-default" fill-opacity="1"><path fill="#999d20" d="M99.79795693585658,-108.99420160794196A147.78148799062683,147.78148799062683 0 0,1 137.755902214296,-53.50401478252922L68.877951107148,-26.75200739126461A73.89074399531341,73.89074399531341 0 0,0 49.89897846792829,-54.49710080397098Z" stroke-opacity="1"></path></g><g data-id="3" data-datapoint-id="4" class="v-datapoint v-morphable-datapoint v-datapoint-default"><path fill="#f2910f" d="M137.755902214296,-53.50401478252922A147.78148799062683,147.78148799062683 0 0,1 142.14097510773271,40.43898352019612L71.07048755386636,20.21949176009806A73.89074399531341,73.89074399531341 0 0,0 68.877951107148,-26.75200739126461Z"></path></g><g data-id="4" data-datapoint-id="5" class="v-datapoint v-morphable-datapoint v-datapoint-default"><path fill="#fccd8c" d="M142.14097510773271,40.43898352019612A147.78148799062683,147.78148799062683 0 0,1 18.59184407798983,146.60733790129163L9.295922038994915,73.30366895064581A73.89074399531341,73.89074399531341 0 0,0 71.07048755386636,20.21949176009806Z"></path></g><g data-id="5" data-datapoint-id="6" class="v-datapoint v-morphable-datapoint v-datapoint-default"><path fill="#a5d5cb" d="M18.59184407798983,146.60733790129163A147.78148799062683,147.78148799062683 0 0,1 -82.7643365362342,122.43133908620273L-41.3821682681171,61.21566954310136A73.89074399531341,73.89074399531341 0 0,0 9.295922038994915,73.30366895064581Z"></path></g><g data-id="6" data-datapoint-id="7" class="v-datapoint v-morphable-datapoint v-datapoint-hover" fill-opacity="1"><path fill="#005460" d="M-82.7643365362342,122.43133908620273A147.78148799062683,147.78148799062683 0 0,1 -140.74100347557766,45.07036868510419L-70.37050173778883,22.535184342552096A73.89074399531341,73.89074399531341 0 0,0 -41.3821682681171,61.21566954310136Z" stroke-opacity="1"></path></g><g data-id="7" data-datapoint-id="8" class="v-datapoint v-morphable-datapoint v-datapoint-default"><path fill="#919795" d="M-140.74100347557766,45.07036868510419A147.78148799062683,147.78148799062683 0 0,1 -147.59342429445925,7.453140127456856L-73.79671214722963,3.726570063728428A73.89074399531341,73.89074399531341 0 0,0 -70.37050173778883,22.535184342552096Z"></path></g><g data-id="8" data-datapoint-id="9" class="v-datapoint v-morphable-datapoint v-datapoint-default"><path fill="#ed6b06" d="M-147.59342429445925,7.453140127456856A147.78148799062683,147.78148799062683 0 0,1 -134.31720345955787,-61.6300011968807L-67.15860172977894,-30.81500059844035A73.89074399531341,73.89074399531341 0 0,0 -73.79671214722963,3.726570063728428Z"></path></g><g data-id="9" data-datapoint-id="10" class="v-datapoint v-morphable-datapoint v-datapoint-default"><path fill="#73d2e0" d="M-134.31720345955787,-61.6300011968807A147.78148799062683,147.78148799062683 0 0,1 -1.5840334740059109e-13,-147.78148799062683L-7.920167370029554e-14,-73.89074399531341A73.89074399531341,73.89074399531341 0 0,0 -67.15860172977894,-30.81500059844035Z"></path></g></g><g class="v-datalabel-group" fill="#333333" font-family="'Open Sans', Arial, Helvetica, sans-serif" font-size="12px" font-weight="normal" font-style="normal" cssString="fill:#333333;font-family:'Open Sans', Arial, Helvetica, sans-serif;font-size:12px;font-weight:normal;font-style:normal;"><g data-datapoint-id="2" class="v-datalabel v-morphable-label" transform="translate(225.16111613410908,69.53871213503646)" fill="#333333"><text>A&amp;A   (9.4%)</text></g><g data-datapoint-id="3" class="v-datalabel v-morphable-label" transform="translate(234.48078448158589,107.02676619923102)" fill="#333333"><text>Ale... Specialities   (7.3%)</text></g><g data-datapoint-id="4" class="v-datalabel v-morphable-label" transform="translate(268.21556601988027,164.43602080791626)" fill="#333333"><text>BC Market   (10.3%)</text></g><g data-datapoint-id="5" class="v-datalabel v-morphable-label" transform="translate(208.7366799700839,253.66652037647475)" fill="#333333"><text>Cho... Franchise 1   (18.6%)</text></g><g data-datapoint-id="6" class="v-datalabel v-morphable-label" transform="translate(110.78421892497983,277.41561372684754)" fill="#333333"><text>Cho... Franchise 3   (11.5%)</text></g><g data-datapoint-id="7" class="v-datalabel v-morphable-label" transform="translate(47.80686585930492,236.07333942803626)" fill="#333333"><text>Cho... Franchise 6   (10.6%)</text></g><g data-datapoint-id="8" class="v-datalabel v-morphable-label" transform="translate(48.9582804111988,189.46723620928609)" fill="#333333"><text>Dai... World   (4.1%)</text></g><g data-datapoint-id="9" class="v-datalabel v-morphable-label" transform="translate(65.15559111575243,148.686564697641)" fill="#333333"><text>Deli...   (7.6%)</text></g><g data-datapoint-id="10" class="v-datalabel v-morphable-label" transform="translate(85.16053920100515,76.30939774012329)" fill="#333333"><text>Donal... Market   (18.2%)</text></g></g></g></g></g></svg>