<svg class="43889e89-56dc-4ca5-af85-63c25b075e14 v-m-root" width="500" height="500" style="left: 0px; top: 0px; direction: ltr; display: block; cursor: default;" xmlns="http://www.w3.org/2000/svg" text-rendering="geometricPrecision"><g class="v-m-action-layer-group"/><defs/><g class="v-m-background"><rect class="v-background-body viz-plot-background v-morphable-background" x="0" y="0" width="500" height="500" style="fill:transparent"/></g><g class="v-m-title" transform="translate(98.84, 24)"><rect class="v-bound" width="169.24" height="27.796875" fill="transparent"/><text class="v-title viz-title-label" fill="#333333" font-family="'Open Sans', Arial, Helvetica, sans-serif" font-size="24" font-weight="bold" font-style="normal" text-anchor="middle" x="84.62" y="13.8984375" dominant-baseline="central">Title of Chart</text></g><g class="v-m-legendGroup" transform="translate(363, 87.956875)"><g class="v-m-legend" transform="translate(0,0)"><rect class="v-bound" width="113" height="162" fill="transparent"/><g class="v-content" transform="translate(0, 0)" font-size="12px" font-family="'Open Sans', Arial, Helvetica, sans-serif" font-weight="normal" fill="#000000" font-style="normal"><rect class="v-legend-body-bound" x="-5" fill="transparent" width="118" height="162"/><g class="v-groups v-label viz-legend-valueLabel" transform="translate(0, 0)"><g class="v-legend-element v-legend-item" transform="translate (-5,0)" legendlabel-id="0"><rect width="118" height="18" fill="transparent"/><path class="v-legend-marker" fill="#8fbadd" stroke-width="0" stroke="transparent" opacity="1" stroke-opacity="undefined" d="M0,-6L-3,-6Q-6,-6 -6,-3L-6,3Q-6,6 -3,6L3,6Q6,6 6,3L6,-3Q6,-6 3,-6Z" transform="translate(11,9)"/><text x="23" y="3" dy="0.85em">Car / Profit</text></g><g class="v-legend-element v-legend-item" transform="translate (-5,18)" legendlabel-id="1"><rect width="118" height="18" fill="transparent"/><path class="v-legend-marker" fill="#b8d4e9" stroke-width="0" stroke="transparent" opacity="1" stroke-opacity="undefined" d="M0,-6L-3,-6Q-6,-6 -6,-3L-6,3Q-6,6 -3,6L3,6Q6,6 6,3L6,-3Q6,-6 3,-6Z" transform="translate(11,9)"/><text x="23" y="3" dy="0.85em">Truck / Profit</text></g><g class="v-legend-element v-legend-item" transform="translate (-5,36)" legendlabel-id="2"><rect width="118" height="18" fill="transparent"/><path class="v-legend-marker" fill="#7aaed6" stroke-width="0" stroke="transparent" opacity="1" stroke-opacity="undefined" d="M0,-6L-3,-6Q-6,-6 -6,-3L-6,3Q-6,6 -3,6L3,6Q6,6 6,3L6,-3Q6,-6 3,-6Z" transform="translate(11,9)"/><text x="23" y="3" dy="0.85em">Motorcycle / Pr...<title>Motorcycle / Profit</title></text></g><g class="v-legend-element v-legend-item" transform="translate (-5,54)" legendlabel-id="3"><rect width="118" height="18" fill="transparent"/><path class="v-legend-marker" fill="#f6a09b" stroke-width="0" stroke="transparent" opacity="1" stroke-opacity="undefined" d="M0,-6L-3,-6Q-6,-6 -6,-3L-6,3Q-6,6 -3,6L3,6Q6,6 6,3L6,-3Q6,-6 3,-6Z" transform="translate(11,9)"/><text x="23" y="3" dy="0.85em">Car / Revenue</text></g><g class="v-legend-element v-legend-item" transform="translate (-5,72)" legendlabel-id="4"><rect width="118" height="18" fill="transparent"/><path class="v-legend-marker" fill="#f9c3c0" stroke-width="0" stroke="transparent" opacity="1" stroke-opacity="undefined" d="M-6,0 A6,6 0 1,0 6,0 A6,6 0 1,0 -6,0z" transform="translate(11,9)"/><text x="23" y="3" dy="0.85em">Car / Revenue2</text></g><g class="v-legend-element v-legend-item" transform="translate (-5,90)" legendlabel-id="5"><rect width="118" height="18" fill="transparent"/><path class="v-legend-marker" fill="#f58e88" stroke-width="0" stroke="transparent" opacity="1" stroke-opacity="undefined" d="M0,-6L-3,-6Q-6,-6 -6,-3L-6,3Q-6,6 -3,6L3,6Q6,6 6,3L6,-3Q6,-6 3,-6Z" transform="translate(11,9)"/><text x="23" y="3" dy="0.85em">Truck / Revenue</text></g><g class="v-legend-element v-legend-item" transform="translate (-5,108)" legendlabel-id="6"><rect width="118" height="18" fill="transparent"/><path class="v-legend-marker" fill="#f8b1ad" stroke-width="0" stroke="transparent" opacity="1" stroke-opacity="undefined" d="M-6,0 A6,6 0 1,0 6,0 A6,6 0 1,0 -6,0z" transform="translate(11,9)"/><text x="23" y="3" dy="0.85em">Truck / Revenu...<title>Truck / Revenue2</title></text></g><g class="v-legend-element v-legend-item" transform="translate (-5,126)" legendlabel-id="7"><rect width="118" height="18" fill="transparent"/><path class="v-legend-marker" fill="#f05b52" stroke-width="0" stroke="transparent" opacity="1" stroke-opacity="undefined" d="M0,-6L-3,-6Q-6,-6 -6,-3L-6,3Q-6,6 -3,6L3,6Q6,6 6,3L6,-3Q6,-6 3,-6Z" transform="translate(11,9)"/><text x="23" y="3" dy="0.85em">Motorcycle / Re...<title>Motorcycle / Revenue</title></text></g><g class="v-legend-element v-legend-item" transform="translate (-5,144)" legendlabel-id="8"><rect width="118" height="18" fill="transparent"/><path class="v-legend-marker" fill="#f37d76" stroke-width="0" stroke="transparent" opacity="1" stroke-opacity="undefined" d="M-6,0 A6,6 0 1,0 6,0 A6,6 0 1,0 -6,0z" transform="translate(11,9)"/><text x="23" y="3" dy="0.85em">Motorcycle / Re...<title>Motorcycle / Revenue2</title></text></g></g></g></g></g><g class="v-m-main" transform="translate(24, 87.956875)"><g class="v-m-plot" transform="translate(74.84, 0)"><rect class="v-background-body viz-plot-background v-morphable-background" x="0" y="0" width="169.24" height="299.403125" style="fill:transparent"/><line class="v-background-border viz-plot-background-border" x1="0" y1="0" x2="0" y2="299.403125" style="stroke: rgb(216, 216, 216); stroke-width: 1px;"/><line class="v-background-border viz-plot-background-border" x1="169.24" y1="0" x2="169.24" y2="299.403125" style="stroke: rgb(216, 216, 216); stroke-width: 1px;"/><line class="v-background-border viz-plot-background-border" x1="0" y1="0" x2="169.24" y2="0" style="stroke: rgb(216, 216, 216); stroke-width: 1px;"/><line class="v-background-border viz-plot-background-border" x1="0" y1="299.403125" x2="169.24" y2="299.403125" style="stroke: rgb(216, 216, 216); stroke-width: 1px;"/><clipPath id="clipPath-6ce4e763-58f0-4c0a-bdf2-5b5d6e928138"><rect y="-1" width="170.24" height="300.403125"/></clipPath><rect class="v-plot-bound v-bound v-zoom-plot" width="169.24" height="299.403125" fill="transparent"/><g clip-path="url(#clipPath-6ce4e763-58f0-4c0a-bdf2-5b5d6e928138)"><g class="v-plot-main" transform="translate(0, 0)"><g class="v-gridline-group"><g class="v-gridline" stroke="#d8d8d8" stroke-width="1" shape-rendering="crispEdges"><line class="v-gridline-mainline" x1="0" y1="299.403125" x2="169.24" y2="299.403125"/></g><g class="v-gridline" stroke="#d8d8d8" stroke-width="1" shape-rendering="crispEdges"><line class="v-gridline-mainline" x1="0" y1="249.50260416666666" x2="169.24" y2="249.50260416666666"/></g><g class="v-gridline" stroke="#d8d8d8" stroke-width="1" shape-rendering="crispEdges"><line class="v-gridline-mainline" x1="0" y1="199.60208333333333" x2="169.24" y2="199.60208333333333"/></g><g class="v-gridline" stroke="#d8d8d8" stroke-width="1" shape-rendering="crispEdges"><line class="v-gridline-mainline" x1="0" y1="149.7015625" x2="169.24" y2="149.7015625"/></g><g class="v-gridline" stroke="#d8d8d8" stroke-width="1" shape-rendering="crispEdges"><line class="v-gridline-mainline" x1="0" y1="99.80104166666663" x2="169.24" y2="99.80104166666663"/></g><g class="v-gridline" stroke="#d8d8d8" stroke-width="1" shape-rendering="crispEdges"><line class="v-gridline-mainline" x1="0" y1="49.90052083333333" x2="169.24" y2="49.90052083333333"/></g><g class="v-gridline" stroke="#d8d8d8" stroke-width="1" shape-rendering="crispEdges"><line class="v-gridline-mainline" x1="0" y1="0" x2="169.24" y2="0"/></g></g><g class="v-datapoint-group"><g class="v-stack"><g data-id="4" data-datapoint-id="293" class="v-datapoint v-morphable-datapoint v-datapoint-default" transform="translate(22.0012, 242.2670286458333)"><rect width="13.539200000000003" height="57.13609635416667" fill="#f05b52" shape-rendering="crispEdges"/></g><g data-id="12" data-datapoint-id="285" class="v-datapoint v-morphable-datapoint v-datapoint-default" transform="translate(22.0012, 167.4162473958333)"><rect width="13.539200000000003" height="74.85078125" fill="#f58e88" shape-rendering="crispEdges"/></g><g data-id="20" data-datapoint-id="277" class="v-datapoint v-morphable-datapoint v-datapoint-default" transform="translate(22.0012, 42.66494531249999)"><rect width="13.539200000000003" height="124.75130208333333" fill="#f6a09b" shape-rendering="crispEdges"/></g><g data-id="24" data-datapoint-id="273" class="v-datapoint v-morphable-datapoint v-datapoint-default" transform="translate(6.7696000000000005, 235.03145312499996)"><rect width="13.5392" height="64.371671875" fill="#7aaed6" shape-rendering="crispEdges"/></g><g data-id="28" data-datapoint-id="269" class="v-datapoint v-morphable-datapoint v-datapoint-default" transform="translate(6.7696000000000005, 155.689625)"><rect width="13.5392" height="79.341828125" fill="#b8d4e9" shape-rendering="crispEdges"/></g><g data-id="32" data-datapoint-id="265" class="v-datapoint v-morphable-datapoint v-datapoint-default" transform="translate(6.7696000000000005, 80.83884374999997)"><rect width="13.5392" height="74.85078125000001" fill="#8fbadd" shape-rendering="crispEdges"/></g></g><g class="v-stack"><g data-id="5" data-datapoint-id="294" class="v-datapoint v-morphable-datapoint v-datapoint-default" transform="translate(64.3112, 262.22723697916666)"><rect width="13.539200000000003" height="37.175888020833334" fill="#f05b52" shape-rendering="crispEdges"/></g><g data-id="13" data-datapoint-id="286" class="v-datapoint v-morphable-datapoint v-datapoint-default" transform="translate(64.3112, 200.10108854166666)"><rect width="13.539200000000003" height="62.12614843749999" fill="#f58e88" shape-rendering="crispEdges"/></g><g data-id="21" data-datapoint-id="278" class="v-datapoint v-morphable-datapoint v-datapoint-default" transform="translate(64.3112, 171.1587864583333)"><rect width="13.539200000000003" height="28.942302083333335" fill="#f6a09b" shape-rendering="crispEdges"/></g><g data-id="25" data-datapoint-id="274" class="v-datapoint v-morphable-datapoint v-datapoint-default" transform="translate(49.0796, 274.95186979166664)"><rect width="13.5392" height="24.451255208333333" fill="#7aaed6" shape-rendering="crispEdges"/></g><g data-id="29" data-datapoint-id="270" class="v-datapoint v-morphable-datapoint v-datapoint-default" transform="translate(49.0796, 200.60009374999998)"><rect width="13.5392" height="74.35177604166667" fill="#b8d4e9" shape-rendering="crispEdges"/></g><g data-id="33" data-datapoint-id="266" class="v-datapoint v-morphable-datapoint v-datapoint-default" transform="translate(49.0796, 171.65779166666664)"><rect width="13.5392" height="28.942302083333335" fill="#8fbadd" shape-rendering="crispEdges"/></g></g><g class="v-stack"><g data-id="6" data-datapoint-id="295" class="v-datapoint v-morphable-datapoint v-datapoint-default" transform="translate(106.6212, 262.72624218749996)"><rect width="13.539200000000003" height="36.676882812500004" fill="#f05b52" shape-rendering="crispEdges"/></g><g data-id="14" data-datapoint-id="287" class="v-datapoint v-morphable-datapoint v-datapoint-default" transform="translate(106.6212, 201.09909895833331)"><rect width="13.539200000000003" height="61.62714322916668" fill="#f58e88" shape-rendering="crispEdges"/></g><g data-id="22" data-datapoint-id="279" class="v-datapoint v-morphable-datapoint v-datapoint-default" transform="translate(106.6212, 133.23439062499997)"><rect width="13.539200000000003" height="67.86470833333334" fill="#f6a09b" shape-rendering="crispEdges"/></g><g data-id="26" data-datapoint-id="275" class="v-datapoint v-morphable-datapoint v-datapoint-default" transform="translate(91.38960000000002, 275.9498802083333)"><rect width="13.5392" height="23.453244791666666" fill="#7aaed6" shape-rendering="crispEdges"/></g><g data-id="30" data-datapoint-id="271" class="v-datapoint v-morphable-datapoint v-datapoint-default" transform="translate(91.38960000000002, 202.5961145833333)"><rect width="13.5392" height="73.35376562500001" fill="#b8d4e9" shape-rendering="crispEdges"/></g><g data-id="34" data-datapoint-id="267" class="v-datapoint v-morphable-datapoint v-datapoint-default" transform="translate(91.38960000000002, 134.66928010156246)"><rect width="13.5392" height="67.92683448177084" fill="#8fbadd" shape-rendering="crispEdges"/></g></g><g class="v-stack"><g data-id="7" data-datapoint-id="296" class="v-datapoint v-morphable-datapoint v-datapoint-default" transform="translate(148.93120000000002, 257.2371848958333)"><rect width="13.539200000000003" height="42.165940104166665" fill="#f05b52" shape-rendering="crispEdges"/></g><g data-id="15" data-datapoint-id="288" class="v-datapoint v-morphable-datapoint v-datapoint-default" transform="translate(148.93120000000002, 165.17072395833333)"><rect width="13.539200000000003" height="92.0664609375" fill="#f58e88" shape-rendering="crispEdges"/></g><g data-id="23" data-datapoint-id="280" class="v-datapoint v-morphable-datapoint v-datapoint-default" transform="translate(148.93120000000002, 101.29805729166664)"><rect width="13.539200000000003" height="63.872666666666674" fill="#f6a09b" shape-rendering="crispEdges"/></g><g data-id="27" data-datapoint-id="276" class="v-datapoint v-morphable-datapoint v-datapoint-default" transform="translate(133.6996, 264.971765625)"><rect width="13.5392" height="34.431359375" fill="#7aaed6" shape-rendering="crispEdges"/></g><g data-id="31" data-datapoint-id="272" class="v-datapoint v-morphable-datapoint v-datapoint-default" transform="translate(133.6996, 130.73936458333333)"><rect width="13.5392" height="134.23240104166666" fill="#b8d4e9" shape-rendering="crispEdges"/></g><g data-id="35" data-datapoint-id="268" class="v-datapoint v-morphable-datapoint v-datapoint-default" transform="translate(133.6996, 66.86669791666665)"><rect width="13.5392" height="63.872666666666674" fill="#8fbadd" shape-rendering="crispEdges"/></g></g><g><path d="M21.155,217.31676822916666L63.465,237.27697656249998L105.775,237.77598177083334L148.08499999999998,232.28692447916666" fill="none" stroke-width="2" stroke="#f37d76" stroke-linejoin="round" stroke-dasharray="undefined" class="v-lines v-morphable-line" combination-line="true"/><g data-id="0" data-datapoint-id="297" class="v-datapoint v-morphable-datapoint v-datapoint-default" transform="translate(21.155, 217.31676822916666)"><path d="M-4,0 A4,4 0 1,0 4,0 A4,4 0 1,0 -4,0z" fill="#f37d76"/></g><g data-id="1" data-datapoint-id="298" class="v-datapoint v-morphable-datapoint v-datapoint-default" transform="translate(63.465, 237.27697656249998)"><path d="M-4,0 A4,4 0 1,0 4,0 A4,4 0 1,0 -4,0z" fill="#f37d76"/></g><g data-id="2" data-datapoint-id="299" class="v-datapoint v-morphable-datapoint v-datapoint-default" transform="translate(105.775, 237.77598177083334)"><path d="M-4,0 A4,4 0 1,0 4,0 A4,4 0 1,0 -4,0z" fill="#f37d76"/></g><g data-id="3" data-datapoint-id="300" class="v-datapoint v-morphable-datapoint v-datapoint-default" transform="translate(148.08499999999998, 232.28692447916666)"><path d="M-4,0 A4,4 0 1,0 4,0 A4,4 0 1,0 -4,0z" fill="#f37d76"/></g></g><g><path d="M21.155,199.60208333333333L63.465,212.32671614583333L105.775,212.82572135416666L148.08499999999998,182.38640364583333" fill="none" stroke-width="2" stroke="#f8b1ad" stroke-linejoin="round" stroke-dasharray="undefined" class="v-lines v-morphable-line" combination-line="true"/><g data-id="8" data-datapoint-id="289" class="v-datapoint v-morphable-datapoint v-datapoint-default" transform="translate(21.155, 199.60208333333333)"><path d="M-4,0 A4,4 0 1,0 4,0 A4,4 0 1,0 -4,0z" fill="#f8b1ad"/></g><g data-id="9" data-datapoint-id="290" class="v-datapoint v-morphable-datapoint v-datapoint-default" transform="translate(63.465, 212.32671614583333)"><path d="M-4,0 A4,4 0 1,0 4,0 A4,4 0 1,0 -4,0z" fill="#f8b1ad"/></g><g data-id="10" data-datapoint-id="291" class="v-datapoint v-morphable-datapoint v-datapoint-default" transform="translate(105.775, 212.82572135416666)"><path d="M-4,0 A4,4 0 1,0 4,0 A4,4 0 1,0 -4,0z" fill="#f8b1ad"/></g><g data-id="11" data-datapoint-id="292" class="v-datapoint v-morphable-datapoint v-datapoint-default" transform="translate(148.08499999999998, 182.38640364583333)"><path d="M-4,0 A4,4 0 1,0 4,0 A4,4 0 1,0 -4,0z" fill="#f8b1ad"/></g></g><g><path d="M21.155,149.7015625L63.465,245.51056249999996L105.775,206.58815624999997L148.08499999999998,210.58019791666666" fill="none" stroke-width="2" stroke="#f9c3c0" stroke-linejoin="round" stroke-dasharray="undefined" class="v-lines v-morphable-line" combination-line="true"/><g data-id="16" data-datapoint-id="281" class="v-datapoint v-morphable-datapoint v-datapoint-default" transform="translate(21.155, 149.7015625)"><path d="M-4,0 A4,4 0 1,0 4,0 A4,4 0 1,0 -4,0z" fill="#f9c3c0"/></g><g data-id="17" data-datapoint-id="282" class="v-datapoint v-morphable-datapoint v-datapoint-default" transform="translate(63.465, 245.51056249999996)"><path d="M-4,0 A4,4 0 1,0 4,0 A4,4 0 1,0 -4,0z" fill="#f9c3c0"/></g><g data-id="18" data-datapoint-id="283" class="v-datapoint v-morphable-datapoint v-datapoint-default" transform="translate(105.775, 206.58815624999997)"><path d="M-4,0 A4,4 0 1,0 4,0 A4,4 0 1,0 -4,0z" fill="#f9c3c0"/></g><g data-id="19" data-datapoint-id="284" class="v-datapoint v-morphable-datapoint v-datapoint-default" transform="translate(148.08499999999998, 210.58019791666666)"><path d="M-4,0 A4,4 0 1,0 4,0 A4,4 0 1,0 -4,0z" fill="#f9c3c0"/></g></g></g></g></g><g class="v-referenceline-group" clip-path="url(#clipPath-6ce4e763-58f0-4c0a-bdf2-5b5d6e928138)"/></g><g class="v-m-categoryAxis v-m-xAxis" transform="translate(74.84, 299.403125)"><rect class="v-bound" width="169.24" height="88.64" fill="transparent"/><g class="v-axis"><g class="v-m-axisScrollbar" transform="translate(0,50.8)"><g><rect class="v-m-scrollbarTrack" visibility="hidden" fill="#f7f7f7" width="169.24" height="12"/><rect class="v-m-scrollbarThumb" visibility="hidden" fill="#e5e5e5" width="169.24" height="12" transform="translate(0, 0)"/></g></g><g class="v-m-axisTitle" transform="translate(0,71.84)"><g class="v-title viz-axis-title" fill="#000000" font-size="14px" font-weight="bold" font-family="'Open Sans', Arial, Helvetica, sans-serif" font-style="normal"><text text-anchor="middle" dominant-baseline="auto" x="84.62" y="13.8"><tspan class="v-title viz-axis-title" dominant-baseline="auto">Country</tspan><tspan class="v-title viz-axis-title" dominant-baseline="auto"> / Year</tspan></text></g></g><g class="v-m-axisBody" transform="translate(0,0)" clip-path="url(#clipPath-5408c03e-37e4-4e9d-a6c5-2efdb51c37c4)"><clipPath class="v-clippath" id="clipPath-5408c03e-37e4-4e9d-a6c5-2efdb51c37c4"><rect x="-1" y="-1" width="171.24" height="52.8"/></clipPath><g class="v-line-group"><line class="v-valueaxisline v-line" stroke="#6c6c6c" stroke-width="1" shape-rendering="crispEdges" x1="-0.5" y1="0" x2="169.74" y2="0"/></g><g class="v-tick-group"><line class="v-valueaxisline v-longtick" stroke="#6c6c6c" stroke-width="1" shape-rendering="crispEdges" x1="0" y1="0" x2="0" y2="50.8"/><line class="v-valueaxisline v-longtick" stroke="#6c6c6c" stroke-width="1" shape-rendering="crispEdges" x1="42.31" y1="0" x2="42.31" y2="50.8"/><line class="v-valueaxisline v-longtick" stroke="#6c6c6c" stroke-width="1" shape-rendering="crispEdges" x1="84.62" y1="0" x2="84.62" y2="50.8"/><line class="v-valueaxisline v-longtick" stroke="#6c6c6c" stroke-width="1" shape-rendering="crispEdges" x1="126.93" y1="0" x2="126.93" y2="50.8"/><line class="v-valueaxisline v-longtick" stroke="#6c6c6c" stroke-width="1" shape-rendering="crispEdges" x1="169.24" y1="0" x2="169.24" y2="50.8"/></g><g class="v-label-group"><g class="v-label v-morphable-label viz-axis-label v-axis-item index_0" fill="#333333" font-size="12px" font-weight="normal" font-family="'Open Sans', Arial, Helvetica, sans-serif" font-style="normal" categorylabel-id="4" transform="translate(0,0)"><rect class="viz-axis-label-rect" fill="transparent" x="1" y="1" width="40.31" height="23.4"/><g class="v-axis-label-wrapper"><text x="21.155" y="17.4" text-anchor="middle">2001</text></g></g><g class="v-label v-morphable-label viz-axis-label v-axis-item index_0" fill="#333333" font-size="12px" font-weight="normal" font-family="'Open Sans', Arial, Helvetica, sans-serif" font-style="normal" categorylabel-id="5" transform="translate(42.31,0)"><rect class="viz-axis-label-rect" fill="transparent" x="1" y="1" width="40.31" height="23.4"/><g class="v-axis-label-wrapper"><text x="21.155" y="17.4" text-anchor="middle">2001</text></g></g><g class="v-label v-morphable-label viz-axis-label v-axis-item index_0" fill="#333333" font-size="12px" font-weight="normal" font-family="'Open Sans', Arial, Helvetica, sans-serif" font-style="normal" categorylabel-id="6" transform="translate(84.62,0)"><rect class="viz-axis-label-rect" fill="transparent" x="1" y="1" width="40.31" height="23.4"/><g class="v-axis-label-wrapper"><text x="21.155" y="17.4" text-anchor="middle">2002</text></g></g><g class="v-label v-morphable-label viz-axis-label v-axis-item index_0" fill="#333333" font-size="12px" font-weight="normal" font-family="'Open Sans', Arial, Helvetica, sans-serif" font-style="normal" categorylabel-id="7" transform="translate(126.93,0)"><rect class="viz-axis-label-rect" fill="transparent" x="1" y="1" width="40.31" height="23.4"/><g class="v-axis-label-wrapper"><text x="21.155" y="17.4" text-anchor="middle">2002</text></g></g><g class="v-label v-morphable-label viz-axis-label v-axis-item index_1" fill="#333333" font-size="12px" font-weight="normal" font-family="'Open Sans', Arial, Helvetica, sans-serif" font-style="normal" categorylabel-id="0" transform="translate(0,25.4)"><rect class="viz-axis-label-rect" fill="transparent" x="1" y="1" width="40.31" height="23.4"/><g class="v-axis-label-wrapper"><text x="21.155" y="17.4" text-anchor="middle">China</text></g></g><g class="v-label v-morphable-label viz-axis-label v-axis-item index_1" fill="#333333" font-size="12px" font-weight="normal" font-family="'Open Sans', Arial, Helvetica, sans-serif" font-style="normal" categorylabel-id="1" transform="translate(42.31,25.4)"><rect class="viz-axis-label-rect" fill="transparent" x="1" y="1" width="40.31" height="23.4"/><g class="v-axis-label-wrapper"><text x="21.155" y="17.4" text-anchor="middle">USA</text></g></g><g class="v-label v-morphable-label viz-axis-label v-axis-item index_1" fill="#333333" font-size="12px" font-weight="normal" font-family="'Open Sans', Arial, Helvetica, sans-serif" font-style="normal" categorylabel-id="2" transform="translate(84.62,25.4)"><rect class="viz-axis-label-rect" fill="transparent" x="1" y="1" width="40.31" height="23.4"/><g class="v-axis-label-wrapper"><text x="21.155" y="17.4" text-anchor="middle">China</text></g></g><g class="v-label v-morphable-label viz-axis-label v-axis-item index_1" fill="#333333" font-size="12px" font-weight="normal" font-family="'Open Sans', Arial, Helvetica, sans-serif" font-style="normal" categorylabel-id="3" transform="translate(126.93,25.4)"><rect class="viz-axis-label-rect" fill="transparent" x="1" y="1" width="40.31" height="23.4"/><g class="v-axis-label-wrapper"><text x="21.155" y="17.4" text-anchor="middle">USA</text></g></g></g></g></g></g><g class="v-m-valueAxis v-m-yAxis" transform="translate(0, 0)"><rect class="v-bound" width="74.84" height="299.403125" fill="transparent"/><g class="v-axis"><g class="v-m-axisTitle" transform="translate(3.552713678800501e-15,0)"><g class="v-title viz-axis-title" fill="#8fbadd" font-size="14px" font-weight="bold" font-family="'Open Sans', Arial, Helvetica, sans-serif" font-style="normal"><text text-anchor="middle" dominant-baseline="auto" x="13.8" y="149.7015625" transform="rotate(-90,13.8,149.7015625)"><tspan class="v-title viz-axis-title" dominant-baseline="auto">Profit</tspan></text></g></g><g class="v-m-axisBody" transform="translate(25.840000000000003,0)"><clipPath class="v-clippath-labels" id="clipPath-3bdeb4dd-0c38-4451-ad6f-c2c1cde3982f"><rect x="-1" y="-11.2" width="51" height="321.80312499999997"/></clipPath><clipPath class="v-clippath-ticks" id="clipPath-30ac5d6f-de7c-4633-9fd5-4e0b666494f4"><rect x="-1" y="-1" width="51" height="301.403125"/></clipPath><rect class="v-bound" width="49" height="299.403125" fill="transparent"/><g class="v-line-group"><line class="v-valueaxisline v-line" stroke="#8fbadd" stroke-width="1" shape-rendering="crispEdges" x1="49" y1="-0.5" x2="49" y2="299.903125"/></g><g clip-path="url(#clipPath-30ac5d6f-de7c-4633-9fd5-4e0b666494f4)"><g class="v-tick-group"><line class="v-valueaxisline v-tick" stroke="#8fbadd" stroke-width="1" shape-rendering="crispEdges" x1="49" y1="299.403125" x2="44" y2="299.403125"/><line class="v-valueaxisline v-tick" stroke="#8fbadd" stroke-width="1" shape-rendering="crispEdges" x1="49" y1="249.50260416666666" x2="44" y2="249.50260416666666"/><line class="v-valueaxisline v-tick" stroke="#8fbadd" stroke-width="1" shape-rendering="crispEdges" x1="49" y1="199.60208333333333" x2="44" y2="199.60208333333333"/><line class="v-valueaxisline v-tick" stroke="#8fbadd" stroke-width="1" shape-rendering="crispEdges" x1="49" y1="149.7015625" x2="44" y2="149.7015625"/><line class="v-valueaxisline v-tick" stroke="#8fbadd" stroke-width="1" shape-rendering="crispEdges" x1="49" y1="99.80104166666663" x2="44" y2="99.80104166666663"/><line class="v-valueaxisline v-tick" stroke="#8fbadd" stroke-width="1" shape-rendering="crispEdges" x1="49" y1="49.90052083333333" x2="44" y2="49.90052083333333"/><line class="v-valueaxisline v-tick" stroke="#8fbadd" stroke-width="1" shape-rendering="crispEdges" x1="49" y1="0" x2="44" y2="0"/></g></g><g clip-path="url(#clipPath-3bdeb4dd-0c38-4451-ad6f-c2c1cde3982f)"><g class="v-label-group"><g class="v-label v-morphable-label viz-axis-label" fill="#333333" font-size="12px" font-weight="normal" font-family="'Open Sans', Arial, Helvetica, sans-serif" font-style="normal"><text text-anchor="end" x="38" y="303.603125">0.00</text></g><g class="v-label v-morphable-label viz-axis-label" fill="#333333" font-size="12px" font-weight="normal" font-family="'Open Sans', Arial, Helvetica, sans-serif" font-style="normal"><text text-anchor="end" x="38" y="253.70260416666665">100.00</text></g><g class="v-label v-morphable-label viz-axis-label" fill="#333333" font-size="12px" font-weight="normal" font-family="'Open Sans', Arial, Helvetica, sans-serif" font-style="normal"><text text-anchor="end" x="38" y="203.80208333333331">200.00</text></g><g class="v-label v-morphable-label viz-axis-label" fill="#333333" font-size="12px" font-weight="normal" font-family="'Open Sans', Arial, Helvetica, sans-serif" font-style="normal"><text text-anchor="end" x="38" y="153.90156249999998">300.00</text></g><g class="v-label v-morphable-label viz-axis-label" fill="#333333" font-size="12px" font-weight="normal" font-family="'Open Sans', Arial, Helvetica, sans-serif" font-style="normal"><text text-anchor="end" x="38" y="104.00104166666664">400.00</text></g><g class="v-label v-morphable-label viz-axis-label" fill="#333333" font-size="12px" font-weight="normal" font-family="'Open Sans', Arial, Helvetica, sans-serif" font-style="normal"><text text-anchor="end" x="38" y="54.100520833333334">500.00</text></g><g class="v-label v-morphable-label viz-axis-label" fill="#333333" font-size="12px" font-weight="normal" font-family="'Open Sans', Arial, Helvetica, sans-serif" font-style="normal"><text text-anchor="end" x="38" y="4.2">600.00</text></g></g></g></g></g></g><g class="v-m-valueAxis2 v-m-yAxis2" transform="translate(244.08, 0)"><rect class="v-bound" width="76.84" height="299.403125" fill="transparent"/><g class="v-axis"><g class="v-m-axisScrollbar" transform="translate(39,0)"><g><rect class="v-m-scrollbarTrack" visibility="hidden" fill="#f7f7f7" width="12" height="299.403125"/><rect class="v-m-scrollbarThumb" visibility="hidden" fill="#e5e5e5" width="12" height="299.403125" transform="translate(0, 0)"/></g></g><g class="v-m-axisTitle" transform="translate(60.04,0)"><g class="v-title viz-axis-title" fill="#f6a09b" font-size="14px" font-weight="bold" font-family="'Open Sans', Arial, Helvetica, sans-serif" font-style="normal"><text text-anchor="middle" dominant-baseline="auto" x="13.8" y="149.7015625" transform="rotate(-90,13.8,149.7015625)"><tspan class="v-title viz-axis-title" dominant-baseline="auto">Revenue &amp; Revenue2</tspan></text></g></g><g class="v-m-axisBody" transform="translate(0,0)"><clipPath class="v-clippath-labels" id="clipPath-e99b58b8-3514-40ad-935f-98b99f745c0e"><rect x="-1" y="-11.2" width="41" height="321.80312499999997"/></clipPath><clipPath class="v-clippath-ticks" id="clipPath-733d70f2-a7b4-45b7-b551-82275433e997"><rect x="-1" y="-1" width="41" height="301.403125"/></clipPath><rect class="v-bound" width="39" height="299.403125" fill="transparent"/><g class="v-line-group"><line class="v-valueaxisline v-line" stroke="#f6a09b" stroke-width="1" shape-rendering="crispEdges" x1="0" y1="-0.5" x2="0" y2="299.903125"/></g><g clip-path="url(#clipPath-733d70f2-a7b4-45b7-b551-82275433e997)"><g class="v-tick-group"><line class="v-valueaxisline v-tick" stroke="#f6a09b" stroke-width="1" shape-rendering="crispEdges" x1="0" y1="299.403125" x2="5" y2="299.403125"/><line class="v-valueaxisline v-tick" stroke="#f6a09b" stroke-width="1" shape-rendering="crispEdges" x1="0" y1="249.50260416666666" x2="5" y2="249.50260416666666"/><line class="v-valueaxisline v-tick" stroke="#f6a09b" stroke-width="1" shape-rendering="crispEdges" x1="0" y1="199.60208333333333" x2="5" y2="199.60208333333333"/><line class="v-valueaxisline v-tick" stroke="#f6a09b" stroke-width="1" shape-rendering="crispEdges" x1="0" y1="149.7015625" x2="5" y2="149.7015625"/><line class="v-valueaxisline v-tick" stroke="#f6a09b" stroke-width="1" shape-rendering="crispEdges" x1="0" y1="99.80104166666663" x2="5" y2="99.80104166666663"/><line class="v-valueaxisline v-tick" stroke="#f6a09b" stroke-width="1" shape-rendering="crispEdges" x1="0" y1="49.90052083333333" x2="5" y2="49.90052083333333"/><line class="v-valueaxisline v-tick" stroke="#f6a09b" stroke-width="1" shape-rendering="crispEdges" x1="0" y1="0" x2="5" y2="0"/></g></g><g clip-path="url(#clipPath-e99b58b8-3514-40ad-935f-98b99f745c0e)"><g class="v-label-group"><g class="v-label v-morphable-label viz-axis-label" fill="#333333" font-size="12px" font-weight="normal" font-family="'Open Sans', Arial, Helvetica, sans-serif" font-style="normal"><text text-anchor="start" x="11" y="303.603125">0</text></g><g class="v-label v-morphable-label viz-axis-label" fill="#333333" font-size="12px" font-weight="normal" font-family="'Open Sans', Arial, Helvetica, sans-serif" font-style="normal"><text text-anchor="start" x="11" y="253.70260416666665">200</text></g><g class="v-label v-morphable-label viz-axis-label" fill="#333333" font-size="12px" font-weight="normal" font-family="'Open Sans', Arial, Helvetica, sans-serif" font-style="normal"><text text-anchor="start" x="11" y="203.80208333333331">400</text></g><g class="v-label v-morphable-label viz-axis-label" fill="#333333" font-size="12px" font-weight="normal" font-family="'Open Sans', Arial, Helvetica, sans-serif" font-style="normal"><text text-anchor="start" x="11" y="153.90156249999998">600</text></g><g class="v-label v-morphable-label viz-axis-label" fill="#333333" font-size="12px" font-weight="normal" font-family="'Open Sans', Arial, Helvetica, sans-serif" font-style="normal"><text text-anchor="start" x="11" y="104.00104166666664">800</text></g><g class="v-label v-morphable-label viz-axis-label" fill="#333333" font-size="12px" font-weight="normal" font-family="'Open Sans', Arial, Helvetica, sans-serif" font-style="normal"><text text-anchor="start" x="11" y="54.100520833333334">1000</text></g><g class="v-label v-morphable-label viz-axis-label" fill="#333333" font-size="12px" font-weight="normal" font-family="'Open Sans', Arial, Helvetica, sans-serif" font-style="normal"><text text-anchor="start" x="11" y="4.2">1200</text></g></g></g></g></g></g></g></svg>