<svg class="v-m-root" viewBox="0 0 600 500" width="600" height="500" xmlns="http://www.w3.org/2000/svg" style="left: 0px; top: 0px; direction: ltr; height: 100%; width: 100%; display: block; cursor: default;"><defs></defs><g class="v-m-action-layer-group"></g><g class="v-m-background"><rect class="v-background-body viz-plot-background v-morphable-background" x="0" y="0" width="600" height="500" style="fill:transparent"></rect></g><g class="v-m-title" transform="translate(50.4, 25)"><rect class="v-bound" width="414.20000000000005" height="23" fill="transparent"></rect><text class="v-title viz-title-label" fill="#000000" font-family="'Open Sans', Arial, Helvetica, sans-serif" font-size="21px" font-weight="normal" font-style="normal" text-anchor="start" x="0" y="11.5" dominant-baseline="central">Dual Line Chart</text></g><g class="v-m-legendGroup" transform="translate(512, 84)"><g class="v-m-legend" transform="translate(0,0)"><rect class="v-bound" width="63" height="35" fill="transparent"></rect><g class="v-content" transform="translate(0, 0)" font-size="10px" font-family="'Open Sans', Arial, Helvetica, sans-serif" font-weight="normal" fill="#737373" font-style="normal"><rect class="v-legend-body-bound" x="-5" fill="transparent" width="68" height="35"></rect><g class="v-groups v-label viz-legend-valueLabel" transform="translate(0, 0)"><g class="v-legend-element v-legend-item" transform="translate (-5,0)" legendlabel-id="0"><rect width="68" height="17.5" fill="transparent"></rect><path class="v-legend-marker" fill="#00abaa" stroke-width="0" stroke="transparent" opacity="1" stroke-opacity="undefined" d="M-7,0 A7,7 0 1,0 7,0 A7,7 0 1,0 -7,0z" transform="translate(12,8.25)"></path><text x="24" y="3.25" dy="0.85em">Revenue</text></g><g class="v-legend-element v-legend-item" transform="translate (-5,17.5)" legendlabel-id="1"><rect width="68" height="17.5" fill="transparent"></rect><path class="v-legend-marker" fill="#ee6a05" stroke-width="0" stroke="transparent" opacity="1" stroke-opacity="undefined" d="M-7,0 A7,7 0 1,0 7,0 A7,7 0 1,0 -7,0z" transform="translate(12,8.25)"></path><text x="24" y="3.25" dy="0.85em">Cost</text></g></g></g></g></g><g class="v-m-main" transform="translate(25, 84)"><g class="v-m-plot" transform="translate(25.4, 0)"><rect class="v-background-body viz-plot-background v-morphable-background" x="0" y="0" width="414.20000000000005" height="301" style="fill:transparent"></rect><clipPath id="plot_main_clipPath_6252dfd2-a7ef-4a44-8f87-fef3f27c8fbb"><rect y="-1" width="415.20000000000005" height="302"></rect></clipPath><rect class="v-plot-bound v-bound v-zoom-plot" width="414.20000000000005" height="301" fill="transparent"></rect><g clip-path="url(#plot_main_clipPath_6252dfd2-a7ef-4a44-8f87-fef3f27c8fbb)"><g class="v-plot-main" transform="translate(0, 0)"><g class="v-gridline-group"><g class="v-gridline" stroke="#ececec" stroke-width="1" shape-rendering="crispEdges"><line class="v-gridline-mainline" x1="0" y1="301" x2="414.2" y2="301"></line></g><g class="v-gridline" stroke="#ececec" stroke-width="1" shape-rendering="crispEdges"><line class="v-gridline-mainline" x1="0" y1="225.75" x2="414.2" y2="225.75"></line></g><g class="v-gridline" stroke="#ececec" stroke-width="1" shape-rendering="crispEdges"><line class="v-gridline-mainline" x1="0" y1="150.5" x2="414.2" y2="150.5"></line></g><g class="v-gridline" stroke="#ececec" stroke-width="1" shape-rendering="crispEdges"><line class="v-gridline-mainline" x1="0" y1="75.25" x2="414.2" y2="75.25"></line></g><g class="v-gridline" stroke="#ececec" stroke-width="1" shape-rendering="crispEdges"><line class="v-gridline-mainline" x1="0" y1="0" x2="414.2" y2="0"></line></g></g><g class="v-datapoint-group"><g><path d="M20.710000000000004,268.7768867175L62.13000000000001,171.40833590999998L103.55000000000003,200.828952806979L144.97000000000003,159.64537179500002L186.39000000000001,46.18454151500002L227.81000000000003,143.7251695075L269.2300000000001,155.54238285249997L310.6500000000001,244.36947171L352.0700000000001,196.096032335L393.49000000000007,52.04787606096401" fill="none" stroke-width="2" stroke="#00abaa" stroke-linejoin="round" stroke-dasharray="undefined" class="v-lines v-morphable-line"></path><g data-id="0" data-datapoint-id="21" class="v-datapoint v-morphable-datapoint v-datapoint-default" transform="translate(20.710000000000004, 268.7768867175)"><path d="M-4,0 A4,4 0 1,0 4,0 A4,4 0 1,0 -4,0z" fill="#00abaa"></path></g><g data-id="1" data-datapoint-id="22" class="v-datapoint v-morphable-datapoint v-datapoint-default" transform="translate(62.13000000000001, 171.40833590999998)"><path d="M-4,0 A4,4 0 1,0 4,0 A4,4 0 1,0 -4,0z" fill="#00abaa"></path></g><g data-id="2" data-datapoint-id="23" class="v-datapoint v-morphable-datapoint v-datapoint-default" transform="translate(103.55000000000003, 200.828952806979)"><path d="M-4,0 A4,4 0 1,0 4,0 A4,4 0 1,0 -4,0z" fill="#00abaa"></path></g><g data-id="3" data-datapoint-id="24" class="v-datapoint v-morphable-datapoint v-datapoint-default" transform="translate(144.97000000000003, 159.64537179500002)"><path d="M-4,0 A4,4 0 1,0 4,0 A4,4 0 1,0 -4,0z" fill="#00abaa"></path></g><g data-id="4" data-datapoint-id="25" class="v-datapoint v-morphable-datapoint v-datapoint-default" transform="translate(186.39000000000001, 46.18454151500002)"><path d="M-4,0 A4,4 0 1,0 4,0 A4,4 0 1,0 -4,0z" fill="#00abaa"></path></g><g data-id="5" data-datapoint-id="26" class="v-datapoint v-morphable-datapoint v-datapoint-default" transform="translate(227.81000000000003, 143.7251695075)"><path d="M-4,0 A4,4 0 1,0 4,0 A4,4 0 1,0 -4,0z" fill="#00abaa"></path></g><g data-id="6" data-datapoint-id="27" class="v-datapoint v-morphable-datapoint v-datapoint-default" transform="translate(269.2300000000001, 155.54238285249997)"><path d="M-4,0 A4,4 0 1,0 4,0 A4,4 0 1,0 -4,0z" fill="#00abaa"></path></g><g data-id="7" data-datapoint-id="28" class="v-datapoint v-morphable-datapoint v-datapoint-default" transform="translate(310.6500000000001, 244.36947171)"><path d="M-4,0 A4,4 0 1,0 4,0 A4,4 0 1,0 -4,0z" fill="#00abaa"></path></g><g data-id="8" data-datapoint-id="29" class="v-datapoint v-morphable-datapoint v-datapoint-default" transform="translate(352.0700000000001, 196.096032335)"><path d="M-4,0 A4,4 0 1,0 4,0 A4,4 0 1,0 -4,0z" fill="#00abaa"></path></g><g data-id="9" data-datapoint-id="30" class="v-datapoint v-morphable-datapoint v-datapoint-default" transform="translate(393.49000000000007, 52.04787606096401)"><path d="M-4,0 A4,4 0 1,0 4,0 A4,4 0 1,0 -4,0z" fill="#00abaa"></path></g></g><g><path d="M20.710000000000004,265.48820059999997L62.13000000000001,197.63089228750002L103.55000000000003,213.273331775L144.97000000000003,212.55408851250002L186.39000000000001,81.81813604999996L227.81000000000003,151.27027028749998L269.2300000000001,171.78549718749997L310.6500000000001,257.413597175L352.0700000000001,201.97820142499998L393.49000000000007,70.86345551249998" fill="none" stroke-width="2" stroke="#ee6a05" stroke-linejoin="round" stroke-dasharray="undefined" class="v-lines v-morphable-line"></path><g data-id="10" data-datapoint-id="31" class="v-datapoint v-morphable-datapoint v-datapoint-default" transform="translate(20.710000000000004, 265.48820059999997)"><path d="M-4,0 A4,4 0 1,0 4,0 A4,4 0 1,0 -4,0z" fill="#ee6a05"></path></g><g data-id="11" data-datapoint-id="32" class="v-datapoint v-morphable-datapoint v-datapoint-default" transform="translate(62.13000000000001, 197.63089228750002)"><path d="M-4,0 A4,4 0 1,0 4,0 A4,4 0 1,0 -4,0z" fill="#ee6a05"></path></g><g data-id="12" data-datapoint-id="33" class="v-datapoint v-morphable-datapoint v-datapoint-default" transform="translate(103.55000000000003, 213.273331775)" fill-opacity="1"><path d="M-4,0 A4,4 0 1,0 4,0 A4,4 0 1,0 -4,0z" fill="#ee6a05" fill-opacity="1" stroke-opacity="1"></path></g><g data-id="13" data-datapoint-id="34" class="v-datapoint v-morphable-datapoint v-datapoint-default" transform="translate(144.97000000000003, 212.55408851250002)"><path d="M-4,0 A4,4 0 1,0 4,0 A4,4 0 1,0 -4,0z" fill="#ee6a05"></path></g><g data-id="14" data-datapoint-id="35" class="v-datapoint v-morphable-datapoint v-datapoint-default" transform="translate(186.39000000000001, 81.81813604999996)"><path d="M-4,0 A4,4 0 1,0 4,0 A4,4 0 1,0 -4,0z" fill="#ee6a05"></path></g><g data-id="15" data-datapoint-id="36" class="v-datapoint v-morphable-datapoint v-datapoint-default" transform="translate(227.81000000000003, 151.27027028749998)"><path d="M-4,0 A4,4 0 1,0 4,0 A4,4 0 1,0 -4,0z" fill="#ee6a05"></path></g><g data-id="16" data-datapoint-id="37" class="v-datapoint v-morphable-datapoint v-datapoint-default" transform="translate(269.2300000000001, 171.78549718749997)"><path d="M-4,0 A4,4 0 1,0 4,0 A4,4 0 1,0 -4,0z" fill="#ee6a05"></path></g><g data-id="17" data-datapoint-id="38" class="v-datapoint v-morphable-datapoint v-datapoint-default" transform="translate(310.6500000000001, 257.413597175)"><path d="M-4,0 A4,4 0 1,0 4,0 A4,4 0 1,0 -4,0z" fill="#ee6a05"></path></g><g data-id="18" data-datapoint-id="39" class="v-datapoint v-morphable-datapoint v-datapoint-default" transform="translate(352.0700000000001, 201.97820142499998)"><path d="M-4,0 A4,4 0 1,0 4,0 A4,4 0 1,0 -4,0z" fill="#ee6a05"></path></g><g data-id="19" data-datapoint-id="40" class="v-datapoint v-morphable-datapoint v-datapoint-default" transform="translate(393.49000000000007, 70.86345551249998)"><path d="M-4,0 A4,4 0 1,0 4,0 A4,4 0 1,0 -4,0z" fill="#ee6a05"></path></g></g></g><g class="v-datalabel-group" fill="#333333" font-family="'Open Sans', Arial, Helvetica, sans-serif" font-size="12px" font-weight="normal" font-style="normal" cssString="fill:#333333;font-family:'Open Sans', Arial, Helvetica, sans-serif;font-size:12px;font-weight:normal;font-style:normal;"><g data-datapoint-id="24" class="v-datalabel v-morphable-label" transform="translate(78.52541981854904,152.64537048339844)" fill="#333333"><text>1878466.82</text></g><g data-datapoint-id="25" class="v-datalabel v-morphable-label" transform="translate(153.38999938964844,39.184539794921875)" fill="#333333"><text>3386251.94</text></g><g data-datapoint-id="32" class="v-datalabel v-morphable-label" transform="translate(32.630001068115234,190.63088989257812)" fill="#333333"><text>274735.17</text></g><g data-datapoint-id="33" class="v-datalabel v-morphable-label" transform="translate(74.05000305175781,228.27333068847656)" fill="#333333"><text>233160.58</text></g><g data-datapoint-id="34" class="v-datalabel v-morphable-label" transform="translate(85.18775137763726,205.55409240722656)" fill="#333333"><text>235072.19</text></g><g data-datapoint-id="35" class="v-datalabel v-morphable-label" transform="translate(156.88999938964844,74.8181381225586)" fill="#333333"><text>582543.16</text></g><g data-datapoint-id="36" class="v-datalabel v-morphable-label" transform="translate(226.6353223287898,144.270263671875)" fill="#333333"><text>397952.77</text></g><g data-datapoint-id="37" class="v-datalabel v-morphable-label" transform="translate(258.09707236407405,164.78549194335938)" fill="#333333"><text>343427.25</text></g><g data-datapoint-id="38" class="v-datalabel v-morphable-label" transform="translate(281.1499938964844,272.4136047363281)" fill="#333333"><text>115844.26</text></g><g data-datapoint-id="39" class="v-datalabel v-morphable-label" transform="translate(292.28134744393594,194.9781951904297)" fill="#333333"><text>263180.86</text></g></g></g></g><g class="v-referenceline-group" clip-path="url(#plot_main_clipPath_6252dfd2-a7ef-4a44-8f87-fef3f27c8fbb)"></g></g><g class="v-m-categoryAxis v-m-xAxis" transform="translate(25.4, 301)"><rect class="v-bound" width="439.6" height="90" fill="transparent" x="-25.4" y="0"></rect><g class="v-axis"><g class="v-m-axisScrollbar" transform="translate(0,54.6)"><g><rect class="v-m-scrollbarTrack" visibility="hidden" fill="#f7f7f7" stroke-width="0" stroke="white" width="414.20000000000005" height="12"></rect><rect class="v-m-scrollbarThumb" visibility="hidden" fill="#e5e5e5" width="414.20000000000005" height="12" transform="translate(0, 0)"></rect></g></g><g class="v-m-axisTitle" transform="translate(0,75.6)"><g class="v-title viz-axis-title" fill="#000000" font-size="12px" font-weight="normal" font-family="'Open Sans', Arial, Helvetica, sans-serif" font-style="normal"><text text-anchor="middle" dominant-baseline="auto" x="207.10000000000002" y="11.4"><tspan class="v-title viz-axis-title" dominant-baseline="auto">Store Name</tspan></text></g></g><g class="v-m-axisBody" transform="translate(0,0)" clip-path="url(#clip-path-36c11ca5-0e19-4d0a-b6ba-46da83bc83fc)"><clipPath class="v-clippath" id="clip-path-36c11ca5-0e19-4d0a-b6ba-46da83bc83fc"><rect x="-26.4" y="-1" width="441.6" height="56.6"></rect></clipPath><g class="v-line-group"><line class="v-valueaxisline v-line" stroke="#babab9" stroke-width="1" shape-rendering="crispEdges" x1="-0.5" y1="0" x2="414.70000000000005" y2="0"></line></g><g class="v-label-group"><g class="v-label v-morphable-label viz-axis-label v-axis-item index_0" fill="#737373" font-size="11px" font-weight="normal" font-family="'Open Sans', Arial, Helvetica, sans-serif" font-style="normal" categorylabel-id="0" transform="translate(0,0)"><rect class="viz-axis-label-rect" fill="transparent" x="20.710000000000008" y="0" width="17.2" height="51" transform="translate(-2.3334523779156067,2.1715728752538097) rotate(45,20.710000000000008,0) "></rect><g class="v-axis-label-wrapper"><text x="25.310000000000002" y="6" text-anchor="end" transform="translate(0,6.533666658163698) rotate(-45,25.310000000000002,6)">24-Seven</text></g></g><g class="v-label v-morphable-label viz-axis-label v-axis-item index_0" fill="#737373" font-size="11px" font-weight="normal" font-family="'Open Sans', Arial, Helvetica, sans-serif" font-style="normal" categorylabel-id="1" transform="translate(41.42,0)"><rect class="viz-axis-label-rect" fill="transparent" x="20.710000000000008" y="0" width="17.2" height="25" transform="translate(-2.3334523779156067,2.1715728752538097) rotate(45,20.710000000000008,0) "></rect><g class="v-axis-label-wrapper"><text x="25.310000000000002" y="6" text-anchor="end" transform="translate(0,6.533666658163698) rotate(-45,25.310000000000002,6)">A&amp;A</text></g></g><g class="v-label v-morphable-label viz-axis-label v-axis-item index_0" fill="#737373" font-size="11px" font-weight="normal" font-family="'Open Sans', Arial, Helvetica, sans-serif" font-style="normal" categorylabel-id="2" transform="translate(82.84,0)"><rect class="viz-axis-label-rect" fill="transparent" x="20.710000000000008" y="0" width="17.2" height="68.01606050557099" transform="translate(-2.3334523779156067,2.1715728752538097) rotate(45,20.710000000000008,0) "></rect><g class="v-axis-label-wrapper"><text x="25.310000000000002" y="6" text-anchor="end" transform="translate(0,6.533666658163698) rotate(-45,25.310000000000002,6)">Alexei's Sp...<title>Alexei's Specialities</title></text></g></g><g class="v-label v-morphable-label viz-axis-label v-axis-item index_0" fill="#737373" font-size="11px" font-weight="normal" font-family="'Open Sans', Arial, Helvetica, sans-serif" font-style="normal" categorylabel-id="3" transform="translate(124.26,0)"><rect class="viz-axis-label-rect" fill="transparent" x="20.710000000000008" y="0" width="17.2" height="56" transform="translate(-2.3334523779156067,2.1715728752538097) rotate(45,20.710000000000008,0) "></rect><g class="v-axis-label-wrapper"><text x="25.310000000000002" y="6" text-anchor="end" transform="translate(0,6.533666658163698) rotate(-45,25.310000000000002,6)">BC Market</text></g></g><g class="v-label v-morphable-label viz-axis-label v-axis-item index_0" fill="#737373" font-size="11px" font-weight="normal" font-family="'Open Sans', Arial, Helvetica, sans-serif" font-style="normal" categorylabel-id="4" transform="translate(165.68,0)"><rect class="viz-axis-label-rect" fill="transparent" x="20.710000000000008" y="0" width="17.2" height="68.01606050557099" transform="translate(-2.3334523779156067,2.1715728752538097) rotate(45,20.710000000000008,0) "></rect><g class="v-axis-label-wrapper"><text x="25.309999999999995" y="6" text-anchor="end" transform="translate(0,6.533666658163698) rotate(-45,25.309999999999995,6)">Choices Fr...<title>Choices Franchise 1</title></text></g></g><g class="v-label v-morphable-label viz-axis-label v-axis-item index_0" fill="#737373" font-size="11px" font-weight="normal" font-family="'Open Sans', Arial, Helvetica, sans-serif" font-style="normal" categorylabel-id="5" transform="translate(207.1,0)"><rect class="viz-axis-label-rect" fill="transparent" x="20.710000000000008" y="0" width="17.2" height="68.01606050557099" transform="translate(-2.3334523779156067,2.1715728752538097) rotate(45,20.710000000000008,0) "></rect><g class="v-axis-label-wrapper"><text x="25.31000000000001" y="6" text-anchor="end" transform="translate(0,6.533666658163698) rotate(-45,25.31000000000001,6)">Choices Fr...<title>Choices Franchise 3</title></text></g></g><g class="v-label v-morphable-label viz-axis-label v-axis-item index_0" fill="#737373" font-size="11px" font-weight="normal" font-family="'Open Sans', Arial, Helvetica, sans-serif" font-style="normal" categorylabel-id="6" transform="translate(248.52,0)"><rect class="viz-axis-label-rect" fill="transparent" x="20.710000000000008" y="0" width="17.2" height="68.01606050557099" transform="translate(-2.3334523779156067,2.1715728752538097) rotate(45,20.710000000000008,0) "></rect><g class="v-axis-label-wrapper"><text x="25.309999999999995" y="6" text-anchor="end" transform="translate(0,6.533666658163698) rotate(-45,25.309999999999995,6)">Choices Fr...<title>Choices Franchise 6</title></text></g></g><g class="v-label v-morphable-label viz-axis-label v-axis-item index_0" fill="#737373" font-size="11px" font-weight="normal" font-family="'Open Sans', Arial, Helvetica, sans-serif" font-style="normal" categorylabel-id="7" transform="translate(289.94,0)"><rect class="viz-axis-label-rect" fill="transparent" x="20.710000000000008" y="0" width="17.2" height="61" transform="translate(-2.3334523779156067,2.1715728752538097) rotate(45,20.710000000000008,0) "></rect><g class="v-axis-label-wrapper"><text x="25.31000000000001" y="6" text-anchor="end" transform="translate(0,6.533666658163698) rotate(-45,25.31000000000001,6)">Dairy World</text></g></g><g class="v-label v-morphable-label viz-axis-label v-axis-item index_0" fill="#737373" font-size="11px" font-weight="normal" font-family="'Open Sans', Arial, Helvetica, sans-serif" font-style="normal" categorylabel-id="8" transform="translate(331.36,0)"><rect class="viz-axis-label-rect" fill="transparent" x="20.710000000000008" y="0" width="17.2" height="67" transform="translate(-2.3334523779156067,2.1715728752538097) rotate(45,20.710000000000008,0) "></rect><g class="v-axis-label-wrapper"><text x="25.30999999999998" y="6" text-anchor="end" transform="translate(0,6.533666658163698) rotate(-45,25.30999999999998,6)">Delikatessen</text></g></g><g class="v-label v-morphable-label viz-axis-label v-axis-item index_0" fill="#737373" font-size="11px" font-weight="normal" font-family="'Open Sans', Arial, Helvetica, sans-serif" font-style="normal" categorylabel-id="9" transform="translate(372.78,0)"><rect class="viz-axis-label-rect" fill="transparent" x="20.710000000000008" y="0" width="17.2" height="68.01606050557099" transform="translate(-2.3334523779156067,2.1715728752538097) rotate(45,20.710000000000008,0) "></rect><g class="v-axis-label-wrapper"><text x="25.31000000000001" y="6" text-anchor="end" transform="translate(0,6.533666658163698) rotate(-45,25.31000000000001,6)">Donald's M...<title>Donald's Market</title></text></g></g></g></g></g></g><g class="v-m-valueAxis v-m-yAxis" transform="translate(0, 0)"><rect class="v-bound" width="25.4" height="301" fill="transparent"></rect><g class="v-axis"><g class="v-m-axisTitle" transform="translate(-1.7763568394002505e-15,0)"><g class="v-title viz-axis-title" fill="#00abaa" font-size="12px" font-weight="normal" font-family="'Open Sans', Arial, Helvetica, sans-serif" font-style="normal"><text text-anchor="middle" dominant-baseline="auto" x="11.4" y="150.5" transform="rotate(-90,11.4,150.5)"><tspan class="v-title viz-axis-title" dominant-baseline="auto">Revenue</tspan></text></g></g><g class="v-m-axisBody" transform="translate(25.4,0)"><rect class="v-bound" width="0" height="301" fill="transparent"></rect></g></g></g><g class="v-m-valueAxis2 v-m-yAxis2" transform="translate(439.6, 0)"><rect class="v-bound" width="25.4" height="301" fill="transparent"></rect><g class="v-axis"><g class="v-m-axisScrollbar" transform="translate(0,0)"></g><g class="v-m-axisTitle" transform="translate(11,0)"><g class="v-title viz-axis-title" fill="#ee6a05" font-size="12px" font-weight="normal" font-family="'Open Sans', Arial, Helvetica, sans-serif" font-style="normal"><text text-anchor="middle" dominant-baseline="auto" x="11.4" y="150.5" transform="rotate(-90,11.4,150.5)"><tspan class="v-title viz-axis-title" dominant-baseline="auto">Cost</tspan></text></g></g><g class="v-m-axisBody" transform="translate(0,0)"><rect class="v-bound" width="0" height="301" fill="transparent"></rect></g></g></g></g></svg>