<svg class="04f13946-842c-4df1-b327-bac7f2e8a5b4 v-m-root" width="500" height="500" style="left: 0px; top: 0px; direction: ltr; display: block; cursor: default;" xmlns="http://www.w3.org/2000/svg" text-rendering="geometricPrecision"><g class="v-m-action-layer-group"/><defs/><g class="v-m-background"><rect class="v-background-body viz-plot-background v-morphable-background" x="0" y="0" width="500" height="500" style="fill:transparent"/></g><g class="v-m-title" transform="translate(132.84, 24)"><rect class="v-bound" width="200.08" height="27.796875" fill="transparent"/><text class="v-title viz-title-label" fill="#333333" font-family="'Open Sans', Arial, Helvetica, sans-serif" font-size="24" font-weight="bold" font-style="normal" text-anchor="middle" x="100.04" y="13.8984375" dominant-baseline="central">Title of Chart</text></g><g class="v-m-legendGroup" transform="translate(363, 139.196875)"><g class="v-m-legend" transform="translate(0,0)"><rect class="v-bound" width="113" height="162" fill="transparent"/><g class="v-content" transform="translate(0, 0)" font-size="12px" font-family="'Open Sans', Arial, Helvetica, sans-serif" font-weight="normal" fill="#000000" font-style="normal"><rect class="v-legend-body-bound" x="-5" fill="transparent" width="118" height="162"/><g class="v-groups v-label viz-legend-valueLabel" transform="translate(0, 0)"><g class="v-legend-element v-legend-item" transform="translate (-5,0)" legendlabel-id="0"><rect width="118" height="18" fill="transparent"/><path class="v-legend-marker" fill="#8fbadd" stroke-width="0" stroke="transparent" opacity="1" stroke-opacity="undefined" d="M-6,0 A6,6 0 1,0 6,0 A6,6 0 1,0 -6,0z" transform="translate(11,9)"/><text x="23" y="3" dy="0.85em">Car / Profit</text></g><g class="v-legend-element v-legend-item" transform="translate (-5,18)" legendlabel-id="1"><rect width="118" height="18" fill="transparent"/><path class="v-legend-marker" fill="#b8d4e9" stroke-width="0" stroke="transparent" opacity="1" stroke-opacity="undefined" d="M-6,0 A6,6 0 1,0 6,0 A6,6 0 1,0 -6,0z" transform="translate(11,9)"/><text x="23" y="3" dy="0.85em">Truck / Profit</text></g><g class="v-legend-element v-legend-item" transform="translate (-5,36)" legendlabel-id="2"><rect width="118" height="18" fill="transparent"/><path class="v-legend-marker" fill="#7aaed6" stroke-width="0" stroke="transparent" opacity="1" stroke-opacity="undefined" d="M-6,0 A6,6 0 1,0 6,0 A6,6 0 1,0 -6,0z" transform="translate(11,9)"/><text x="23" y="3" dy="0.85em">Motorcycle / Pr...<title>Motorcycle / Profit</title></text></g><g class="v-legend-element v-legend-item" transform="translate (-5,54)" legendlabel-id="3"><rect width="118" height="18" fill="transparent"/><path class="v-legend-marker" fill="#f6a09b" stroke-width="0" stroke="transparent" opacity="1" stroke-opacity="undefined" d="M-6,0 A6,6 0 1,0 6,0 A6,6 0 1,0 -6,0z" transform="translate(11,9)"/><text x="23" y="3" dy="0.85em">Car / Revenue</text></g><g class="v-legend-element v-legend-item" transform="translate (-5,72)" legendlabel-id="4"><rect width="118" height="18" fill="transparent"/><path class="v-legend-marker" fill="#f9c3c0" stroke-width="0" stroke="transparent" opacity="1" stroke-opacity="undefined" d="M-6,0 A6,6 0 1,0 6,0 A6,6 0 1,0 -6,0z" transform="translate(11,9)"/><text x="23" y="3" dy="0.85em">Car / Revenue2</text></g><g class="v-legend-element v-legend-item" transform="translate (-5,90)" legendlabel-id="5"><rect width="118" height="18" fill="transparent"/><path class="v-legend-marker" fill="#f58e88" stroke-width="0" stroke="transparent" opacity="1" stroke-opacity="undefined" d="M-6,0 A6,6 0 1,0 6,0 A6,6 0 1,0 -6,0z" transform="translate(11,9)"/><text x="23" y="3" dy="0.85em">Truck / Revenue</text></g><g class="v-legend-element v-legend-item" transform="translate (-5,108)" legendlabel-id="6"><rect width="118" height="18" fill="transparent"/><path class="v-legend-marker" fill="#f8b1ad" stroke-width="0" stroke="transparent" opacity="1" stroke-opacity="undefined" d="M-6,0 A6,6 0 1,0 6,0 A6,6 0 1,0 -6,0z" transform="translate(11,9)"/><text x="23" y="3" dy="0.85em">Truck / Revenu...<title>Truck / Revenue2</title></text></g><g class="v-legend-element v-legend-item" transform="translate (-5,126)" legendlabel-id="7"><rect width="118" height="18" fill="transparent"/><path class="v-legend-marker" fill="#f05b52" stroke-width="0" stroke="transparent" opacity="1" stroke-opacity="undefined" d="M-6,0 A6,6 0 1,0 6,0 A6,6 0 1,0 -6,0z" transform="translate(11,9)"/><text x="23" y="3" dy="0.85em">Motorcycle / Re...<title>Motorcycle / Revenue</title></text></g><g class="v-legend-element v-legend-item" transform="translate (-5,144)" legendlabel-id="8"><rect width="118" height="18" fill="transparent"/><path class="v-legend-marker" fill="#f37d76" stroke-width="0" stroke="transparent" opacity="1" stroke-opacity="undefined" d="M-6,0 A6,6 0 1,0 6,0 A6,6 0 1,0 -6,0z" transform="translate(11,9)"/><text x="23" y="3" dy="0.85em">Motorcycle / Re...<title>Motorcycle / Revenue2</title></text></g></g></g></g></g><g class="v-m-main" transform="translate(24, 87.956875)"><g class="v-m-plot" transform="translate(108.84, 51.24)"><rect class="v-background-body viz-plot-background v-morphable-background" x="0" y="0" width="200.08" height="273.56312499999996" style="fill:transparent"/><line class="v-background-border viz-plot-background-border" x1="0" y1="0" x2="0" y2="273.56312499999996" style="stroke: rgb(216, 216, 216); stroke-width: 1px;"/><line class="v-background-border viz-plot-background-border" x1="200.08" y1="0" x2="200.08" y2="273.56312499999996" style="stroke: rgb(216, 216, 216); stroke-width: 1px;"/><line class="v-background-border viz-plot-background-border" x1="0" y1="0" x2="200.08" y2="0" style="stroke: rgb(216, 216, 216); stroke-width: 1px;"/><line class="v-background-border viz-plot-background-border" x1="0" y1="273.56312499999996" x2="200.08" y2="273.56312499999996" style="stroke: rgb(216, 216, 216); stroke-width: 1px;"/><clipPath id="clipPath-2c1139c6-55bf-4da5-baae-e0f28663e189"><rect y="-1" width="201.08" height="274.56312499999996"/></clipPath><rect class="v-plot-bound v-bound v-zoom-plot" width="200.08" height="273.56312499999996" fill="transparent"/><g clip-path="url(#clipPath-2c1139c6-55bf-4da5-baae-e0f28663e189)"><g class="v-plot-main" transform="translate(0, 0)"><g class="v-gridline-group"><g class="v-gridline" stroke="#d8d8d8" stroke-width="1" shape-rendering="crispEdges"><line class="v-gridline-mainline" x1="0" y1="0" x2="0" y2="273.563125"/></g><g class="v-gridline" stroke="#d8d8d8" stroke-width="1" shape-rendering="crispEdges"><line class="v-gridline-mainline" x1="33.34666666666667" y1="0" x2="33.34666666666667" y2="273.563125"/></g><g class="v-gridline" stroke="#d8d8d8" stroke-width="1" shape-rendering="crispEdges"><line class="v-gridline-mainline" x1="66.69333333333334" y1="0" x2="66.69333333333334" y2="273.563125"/></g><g class="v-gridline" stroke="#d8d8d8" stroke-width="1" shape-rendering="crispEdges"><line class="v-gridline-mainline" x1="100.04" y1="0" x2="100.04" y2="273.563125"/></g><g class="v-gridline" stroke="#d8d8d8" stroke-width="1" shape-rendering="crispEdges"><line class="v-gridline-mainline" x1="133.38666666666668" y1="0" x2="133.38666666666668" y2="273.563125"/></g><g class="v-gridline" stroke="#d8d8d8" stroke-width="1" shape-rendering="crispEdges"><line class="v-gridline-mainline" x1="166.73333333333335" y1="0" x2="166.73333333333335" y2="273.563125"/></g><g class="v-gridline" stroke="#d8d8d8" stroke-width="1" shape-rendering="crispEdges"><line class="v-gridline-mainline" x1="200.08" y1="0" x2="200.08" y2="273.563125"/></g></g><g class="v-datapoint-group"><g><path d="M100.04,34.195390624999995L38.68213333333334,102.58617187499998L90.78596653333335,170.976953125L85.36746666666667,239.36773437499997" fill="none" stroke-width="2" stroke="#8fbadd" stroke-linejoin="round" stroke-dasharray="undefined" class="v-lines v-morphable-line"/><g data-id="0" data-datapoint-id="133" class="v-datapoint v-morphable-datapoint v-datapoint-default" transform="translate(100.04, 34.195390624999995)"><path d="M-4,0 A4,4 0 1,0 4,0 A4,4 0 1,0 -4,0z" fill="#8fbadd"/></g><g data-id="1" data-datapoint-id="134" class="v-datapoint v-morphable-datapoint v-datapoint-default" transform="translate(38.68213333333334, 102.58617187499998)"><path d="M-4,0 A4,4 0 1,0 4,0 A4,4 0 1,0 -4,0z" fill="#8fbadd"/></g><g data-id="2" data-datapoint-id="135" class="v-datapoint v-morphable-datapoint v-datapoint-default" transform="translate(90.78596653333335, 170.976953125)"><path d="M-4,0 A4,4 0 1,0 4,0 A4,4 0 1,0 -4,0z" fill="#8fbadd"/></g><g data-id="3" data-datapoint-id="136" class="v-datapoint v-morphable-datapoint v-datapoint-default" transform="translate(85.36746666666667, 239.36773437499997)"><path d="M-4,0 A4,4 0 1,0 4,0 A4,4 0 1,0 -4,0z" fill="#8fbadd"/></g></g><g><path d="M106.04240000000001,34.195390624999995L99.37306666666667,102.58617187499998L98.03920000000002,170.976953125L179.4050666666667,239.36773437499997" fill="none" stroke-width="2" stroke="#b8d4e9" stroke-linejoin="round" stroke-dasharray="undefined" class="v-lines v-morphable-line"/><g data-id="4" data-datapoint-id="137" class="v-datapoint v-morphable-datapoint v-datapoint-default" transform="translate(106.04240000000001, 34.195390624999995)"><path d="M-4,0 A4,4 0 1,0 4,0 A4,4 0 1,0 -4,0z" fill="#b8d4e9"/></g><g data-id="5" data-datapoint-id="138" class="v-datapoint v-morphable-datapoint v-datapoint-default" transform="translate(99.37306666666667, 102.58617187499998)"><path d="M-4,0 A4,4 0 1,0 4,0 A4,4 0 1,0 -4,0z" fill="#b8d4e9"/></g><g data-id="6" data-datapoint-id="139" class="v-datapoint v-morphable-datapoint v-datapoint-default" transform="translate(98.03920000000002, 170.976953125)"><path d="M-4,0 A4,4 0 1,0 4,0 A4,4 0 1,0 -4,0z" fill="#b8d4e9"/></g><g data-id="7" data-datapoint-id="140" class="v-datapoint v-morphable-datapoint v-datapoint-default" transform="translate(179.4050666666667, 239.36773437499997)"><path d="M-4,0 A4,4 0 1,0 4,0 A4,4 0 1,0 -4,0z" fill="#b8d4e9"/></g></g><g><path d="M86.03440000000002,34.195390624999995L32.67973333333333,102.58617187499998L31.34586666666667,170.976953125L46.01840000000001,239.36773437499997" fill="none" stroke-width="2" stroke="#7aaed6" stroke-linejoin="round" stroke-dasharray="undefined" class="v-lines v-morphable-line"/><g data-id="8" data-datapoint-id="141" class="v-datapoint v-morphable-datapoint v-datapoint-default" transform="translate(86.03440000000002, 34.195390624999995)"><path d="M-4,0 A4,4 0 1,0 4,0 A4,4 0 1,0 -4,0z" fill="#7aaed6"/></g><g data-id="9" data-datapoint-id="142" class="v-datapoint v-morphable-datapoint v-datapoint-default" transform="translate(32.67973333333333, 102.58617187499998)"><path d="M-4,0 A4,4 0 1,0 4,0 A4,4 0 1,0 -4,0z" fill="#7aaed6"/></g><g data-id="10" data-datapoint-id="143" class="v-datapoint v-morphable-datapoint v-datapoint-default" transform="translate(31.34586666666667, 170.976953125)"><path d="M-4,0 A4,4 0 1,0 4,0 A4,4 0 1,0 -4,0z" fill="#7aaed6"/></g><g data-id="11" data-datapoint-id="144" class="v-datapoint v-morphable-datapoint v-datapoint-default" transform="translate(46.01840000000001, 239.36773437499997)"><path d="M-4,0 A4,4 0 1,0 4,0 A4,4 0 1,0 -4,0z" fill="#7aaed6"/></g></g><g><path d="M83.36666666666667,34.195390624999995L19.34106666666667,102.58617187499998L45.351466666666674,170.976953125L42.683733333333336,239.36773437499997" fill="none" stroke-width="2" stroke="#f6a09b" stroke-linejoin="round" stroke-dasharray="undefined" class="v-lines v-morphable-line"/><g data-id="12" data-datapoint-id="145" class="v-datapoint v-morphable-datapoint v-datapoint-default" transform="translate(83.36666666666667, 34.195390624999995)"><path d="M-4,0 A4,4 0 1,0 4,0 A4,4 0 1,0 -4,0z" fill="#f6a09b"/></g><g data-id="13" data-datapoint-id="146" class="v-datapoint v-morphable-datapoint v-datapoint-default" transform="translate(19.34106666666667, 102.58617187499998)"><path d="M-4,0 A4,4 0 1,0 4,0 A4,4 0 1,0 -4,0z" fill="#f6a09b"/></g><g data-id="14" data-datapoint-id="147" class="v-datapoint v-morphable-datapoint v-datapoint-default" transform="translate(45.351466666666674, 170.976953125)"><path d="M-4,0 A4,4 0 1,0 4,0 A4,4 0 1,0 -4,0z" fill="#f6a09b"/></g><g data-id="15" data-datapoint-id="148" class="v-datapoint v-morphable-datapoint v-datapoint-default" transform="translate(42.683733333333336, 239.36773437499997)"><path d="M-4,0 A4,4 0 1,0 4,0 A4,4 0 1,0 -4,0z" fill="#f6a09b"/></g></g><g><path d="M100.04,34.195390624999995L36.01440000000001,102.58617187499998L62.024800000000006,170.976953125L59.357066666666675,239.36773437499997" fill="none" stroke-width="2" stroke="#f9c3c0" stroke-linejoin="round" stroke-dasharray="undefined" class="v-lines v-morphable-line"/><g data-id="16" data-datapoint-id="149" class="v-datapoint v-morphable-datapoint v-datapoint-default" transform="translate(100.04, 34.195390624999995)"><path d="M-4,0 A4,4 0 1,0 4,0 A4,4 0 1,0 -4,0z" fill="#f9c3c0"/></g><g data-id="17" data-datapoint-id="150" class="v-datapoint v-morphable-datapoint v-datapoint-default" transform="translate(36.01440000000001, 102.58617187499998)"><path d="M-4,0 A4,4 0 1,0 4,0 A4,4 0 1,0 -4,0z" fill="#f9c3c0"/></g><g data-id="18" data-datapoint-id="151" class="v-datapoint v-morphable-datapoint v-datapoint-default" transform="translate(62.024800000000006, 170.976953125)"><path d="M-4,0 A4,4 0 1,0 4,0 A4,4 0 1,0 -4,0z" fill="#f9c3c0"/></g><g data-id="19" data-datapoint-id="152" class="v-datapoint v-morphable-datapoint v-datapoint-default" transform="translate(59.357066666666675, 239.36773437499997)"><path d="M-4,0 A4,4 0 1,0 4,0 A4,4 0 1,0 -4,0z" fill="#f9c3c0"/></g></g><g><path d="M50.02,34.195390624999995L41.516600000000004,102.58617187499998L41.18313333333334,170.976953125L61.5246,239.36773437499997" fill="none" stroke-width="2" stroke="#f58e88" stroke-linejoin="round" stroke-dasharray="undefined" class="v-lines v-morphable-line"/><g data-id="20" data-datapoint-id="153" class="v-datapoint v-morphable-datapoint v-datapoint-default" transform="translate(50.02, 34.195390624999995)"><path d="M-4,0 A4,4 0 1,0 4,0 A4,4 0 1,0 -4,0z" fill="#f58e88"/></g><g data-id="21" data-datapoint-id="154" class="v-datapoint v-morphable-datapoint v-datapoint-default" transform="translate(41.516600000000004, 102.58617187499998)"><path d="M-4,0 A4,4 0 1,0 4,0 A4,4 0 1,0 -4,0z" fill="#f58e88"/></g><g data-id="22" data-datapoint-id="155" class="v-datapoint v-morphable-datapoint v-datapoint-default" transform="translate(41.18313333333334, 170.976953125)"><path d="M-4,0 A4,4 0 1,0 4,0 A4,4 0 1,0 -4,0z" fill="#f58e88"/></g><g data-id="23" data-datapoint-id="156" class="v-datapoint v-morphable-datapoint v-datapoint-default" transform="translate(61.5246, 239.36773437499997)"><path d="M-4,0 A4,4 0 1,0 4,0 A4,4 0 1,0 -4,0z" fill="#f58e88"/></g></g><g><path d="M66.69333333333334,34.195390624999995L58.189933333333336,102.58617187499998L57.85646666666668,170.976953125L78.19793333333334,239.36773437499997" fill="none" stroke-width="2" stroke="#f8b1ad" stroke-linejoin="round" stroke-dasharray="undefined" class="v-lines v-morphable-line"/><g data-id="24" data-datapoint-id="157" class="v-datapoint v-morphable-datapoint v-datapoint-default" transform="translate(66.69333333333334, 34.195390624999995)"><path d="M-4,0 A4,4 0 1,0 4,0 A4,4 0 1,0 -4,0z" fill="#f8b1ad"/></g><g data-id="25" data-datapoint-id="158" class="v-datapoint v-morphable-datapoint v-datapoint-default" transform="translate(58.189933333333336, 102.58617187499998)"><path d="M-4,0 A4,4 0 1,0 4,0 A4,4 0 1,0 -4,0z" fill="#f8b1ad"/></g><g data-id="26" data-datapoint-id="159" class="v-datapoint v-morphable-datapoint v-datapoint-default" transform="translate(57.85646666666668, 170.976953125)"><path d="M-4,0 A4,4 0 1,0 4,0 A4,4 0 1,0 -4,0z" fill="#f8b1ad"/></g><g data-id="27" data-datapoint-id="160" class="v-datapoint v-morphable-datapoint v-datapoint-default" transform="translate(78.19793333333334, 239.36773437499997)"><path d="M-4,0 A4,4 0 1,0 4,0 A4,4 0 1,0 -4,0z" fill="#f8b1ad"/></g></g><g><path d="M38.18193333333334,34.195390624999995L24.84326666666667,102.58617187499998L24.509800000000006,170.976953125L28.177933333333335,239.36773437499997" fill="none" stroke-width="2" stroke="#f05b52" stroke-linejoin="round" stroke-dasharray="undefined" class="v-lines v-morphable-line"/><g data-id="28" data-datapoint-id="161" class="v-datapoint v-morphable-datapoint v-datapoint-default" transform="translate(38.18193333333334, 34.195390624999995)"><path d="M-4,0 A4,4 0 1,0 4,0 A4,4 0 1,0 -4,0z" fill="#f05b52"/></g><g data-id="29" data-datapoint-id="162" class="v-datapoint v-morphable-datapoint v-datapoint-default" transform="translate(24.84326666666667, 102.58617187499998)"><path d="M-4,0 A4,4 0 1,0 4,0 A4,4 0 1,0 -4,0z" fill="#f05b52"/></g><g data-id="30" data-datapoint-id="163" class="v-datapoint v-morphable-datapoint v-datapoint-default" transform="translate(24.509800000000006, 170.976953125)"><path d="M-4,0 A4,4 0 1,0 4,0 A4,4 0 1,0 -4,0z" fill="#f05b52"/></g><g data-id="31" data-datapoint-id="164" class="v-datapoint v-morphable-datapoint v-datapoint-default" transform="translate(28.177933333333335, 239.36773437499997)"><path d="M-4,0 A4,4 0 1,0 4,0 A4,4 0 1,0 -4,0z" fill="#f05b52"/></g></g><g><path d="M54.85526666666667,34.195390624999995L41.516600000000004,102.58617187499998L41.18313333333334,170.976953125L44.851266666666675,239.36773437499997" fill="none" stroke-width="2" stroke="#f37d76" stroke-linejoin="round" stroke-dasharray="undefined" class="v-lines v-morphable-line"/><g data-id="32" data-datapoint-id="165" class="v-datapoint v-morphable-datapoint v-datapoint-default" transform="translate(54.85526666666667, 34.195390624999995)"><path d="M-4,0 A4,4 0 1,0 4,0 A4,4 0 1,0 -4,0z" fill="#f37d76"/></g><g data-id="33" data-datapoint-id="166" class="v-datapoint v-morphable-datapoint v-datapoint-default" transform="translate(41.516600000000004, 102.58617187499998)"><path d="M-4,0 A4,4 0 1,0 4,0 A4,4 0 1,0 -4,0z" fill="#f37d76"/></g><g data-id="34" data-datapoint-id="167" class="v-datapoint v-morphable-datapoint v-datapoint-default" transform="translate(41.18313333333334, 170.976953125)"><path d="M-4,0 A4,4 0 1,0 4,0 A4,4 0 1,0 -4,0z" fill="#f37d76"/></g><g data-id="35" data-datapoint-id="168" class="v-datapoint v-morphable-datapoint v-datapoint-default" transform="translate(44.851266666666675, 239.36773437499997)"><path d="M-4,0 A4,4 0 1,0 4,0 A4,4 0 1,0 -4,0z" fill="#f37d76"/></g></g></g></g></g><g class="v-referenceline-group" clip-path="url(#clipPath-2c1139c6-55bf-4da5-baae-e0f28663e189)"/></g><g class="v-m-categoryAxis v-m-yAxis" transform="translate(0, 51.24)"><rect class="v-bound" width="108.84" height="273.56312499999996" fill="transparent"/><g class="v-axis"><g class="v-m-axisTitle" transform="translate(3.552713678800501e-15,0)"><g class="v-title viz-axis-title" fill="#000000" font-size="14px" font-weight="bold" font-family="'Open Sans', Arial, Helvetica, sans-serif" font-style="normal"><text text-anchor="middle" dominant-baseline="auto" x="13.8" y="136.78156249999998" transform="rotate(-90,13.8,136.78156249999998)"><tspan class="v-title viz-axis-title" dominant-baseline="auto">Country</tspan><tspan class="v-title viz-axis-title" dominant-baseline="auto"> / Year</tspan></text></g></g><g class="v-m-axisBody" transform="translate(25.840000000000003,0)" clip-path="url(#clipPath-664ac103-51ba-4b1c-bec0-c5f9319460f1)"><clipPath class="v-clippath" id="clipPath-664ac103-51ba-4b1c-bec0-c5f9319460f1"><rect x="-1" y="-1" width="85" height="275.56312499999996"/></clipPath><g class="v-line-group"><line class="v-valueaxisline v-line" stroke="#6c6c6c" stroke-width="1" shape-rendering="crispEdges" x1="83" y1="-0.5" x2="83" y2="274.06312499999996"/></g><g class="v-tick-group"><line class="v-valueaxisline v-longtick" stroke="#6c6c6c" stroke-width="1" shape-rendering="crispEdges" x1="83" y1="0" x2="0" y2="0"/><line class="v-valueaxisline v-longtick" stroke="#6c6c6c" stroke-width="1" shape-rendering="crispEdges" x1="83" y1="68.39078125" x2="0" y2="68.39078125"/><line class="v-valueaxisline v-longtick" stroke="#6c6c6c" stroke-width="1" shape-rendering="crispEdges" x1="83" y1="136.7815625" x2="0" y2="136.7815625"/><line class="v-valueaxisline v-longtick" stroke="#6c6c6c" stroke-width="1" shape-rendering="crispEdges" x1="83" y1="205.17234375" x2="0" y2="205.17234375"/><line class="v-valueaxisline v-longtick" stroke="#6c6c6c" stroke-width="1" shape-rendering="crispEdges" x1="83" y1="273.563125" x2="0" y2="273.563125"/></g><g class="v-label-group"><g class="v-label v-morphable-label viz-axis-label v-axis-item index_0" fill="#333333" font-size="12px" font-weight="normal" font-family="'Open Sans', Arial, Helvetica, sans-serif" font-style="normal" categorylabel-id="4" transform="translate(44,0)"><rect class="viz-axis-label-rect" fill="transparent" x="1" y="1" width="37" height="66.39078125"/><g class="v-axis-label-wrapper"><text x="33" y="38.395390625000005" text-anchor="end">2001</text></g></g><g class="v-label v-morphable-label viz-axis-label v-axis-item index_0" fill="#333333" font-size="12px" font-weight="normal" font-family="'Open Sans', Arial, Helvetica, sans-serif" font-style="normal" categorylabel-id="5" transform="translate(44,68.39078125)"><rect class="viz-axis-label-rect" fill="transparent" x="1" y="1" width="37" height="66.39078125"/><g class="v-axis-label-wrapper"><text x="33" y="38.395390625000005" text-anchor="end">2001</text></g></g><g class="v-label v-morphable-label viz-axis-label v-axis-item index_0" fill="#333333" font-size="12px" font-weight="normal" font-family="'Open Sans', Arial, Helvetica, sans-serif" font-style="normal" categorylabel-id="6" transform="translate(44,136.7815625)"><rect class="viz-axis-label-rect" fill="transparent" x="1" y="1" width="37" height="66.39078125"/><g class="v-axis-label-wrapper"><text x="33" y="38.395390625000005" text-anchor="end">2002</text></g></g><g class="v-label v-morphable-label viz-axis-label v-axis-item index_0" fill="#333333" font-size="12px" font-weight="normal" font-family="'Open Sans', Arial, Helvetica, sans-serif" font-style="normal" categorylabel-id="7" transform="translate(44,205.17234375)"><rect class="viz-axis-label-rect" fill="transparent" x="1" y="1" width="37" height="66.39078125"/><g class="v-axis-label-wrapper"><text x="33" y="38.395390625000005" text-anchor="end">2002</text></g></g><g class="v-label v-morphable-label viz-axis-label v-axis-item index_1" fill="#333333" font-size="12px" font-weight="normal" font-family="'Open Sans', Arial, Helvetica, sans-serif" font-style="normal" categorylabel-id="0" transform="translate(0,0)"><rect class="viz-axis-label-rect" fill="transparent" x="1" y="1" width="42" height="66.39078125"/><g class="v-axis-label-wrapper"><text x="38" y="38.395390625000005" text-anchor="end">China</text></g></g><g class="v-label v-morphable-label viz-axis-label v-axis-item index_1" fill="#333333" font-size="12px" font-weight="normal" font-family="'Open Sans', Arial, Helvetica, sans-serif" font-style="normal" categorylabel-id="1" transform="translate(0,68.39078125)"><rect class="viz-axis-label-rect" fill="transparent" x="1" y="1" width="42" height="66.39078125"/><g class="v-axis-label-wrapper"><text x="38" y="38.395390625000005" text-anchor="end">USA</text></g></g><g class="v-label v-morphable-label viz-axis-label v-axis-item index_1" fill="#333333" font-size="12px" font-weight="normal" font-family="'Open Sans', Arial, Helvetica, sans-serif" font-style="normal" categorylabel-id="2" transform="translate(0,136.7815625)"><rect class="viz-axis-label-rect" fill="transparent" x="1" y="1" width="42" height="66.39078125"/><g class="v-axis-label-wrapper"><text x="38" y="38.395390625000005" text-anchor="end">China</text></g></g><g class="v-label v-morphable-label viz-axis-label v-axis-item index_1" fill="#333333" font-size="12px" font-weight="normal" font-family="'Open Sans', Arial, Helvetica, sans-serif" font-style="normal" categorylabel-id="3" transform="translate(0,205.17234375)"><rect class="viz-axis-label-rect" fill="transparent" x="1" y="1" width="42" height="66.39078125"/><g class="v-axis-label-wrapper"><text x="38" y="38.395390625000005" text-anchor="end">USA</text></g></g></g></g></g></g><g class="v-m-valueAxis v-m-xAxis2" transform="translate(108.84, 0)"><rect class="v-bound" width="200.08" height="51.24" fill="transparent"/><g class="v-axis"><g class="v-m-axisTitle" transform="translate(0,3.552713678800501e-15)"><g class="v-title viz-axis-title" fill="#8fbadd" font-size="14px" font-weight="bold" font-family="'Open Sans', Arial, Helvetica, sans-serif" font-style="normal"><text text-anchor="middle" dominant-baseline="auto" x="100.04" y="13.8"><tspan class="v-title viz-axis-title" dominant-baseline="auto">Profit</tspan></text></g></g><g class="v-m-axisBody" transform="translate(0,25.840000000000003)"><clipPath class="v-clippath-labels" id="clipPath-bed5e67b-1c66-4b65-97e5-948a8f5c14d3"><rect x="-16" y="-1" width="239.08" height="27.4"/></clipPath><clipPath class="v-clippath-ticks" id="clipPath-ae5b9568-eebe-4d3b-89e6-5c383e71839a"><rect x="-1" y="-1" width="202.08" height="27.4"/></clipPath><rect class="v-bound" width="200.08" height="25.4" fill="transparent"/><g class="v-line-group"><line class="v-valueaxisline v-line" stroke="#8fbadd" stroke-width="1" shape-rendering="crispEdges" x1="-0.5" y1="25.4" x2="200.58" y2="25.4"/></g><g clip-path="url(#clipPath-ae5b9568-eebe-4d3b-89e6-5c383e71839a)"><g class="v-tick-group"><line class="v-valueaxisline v-tick" stroke="#8fbadd" stroke-width="1" shape-rendering="crispEdges" x1="0" y1="25.4" x2="0" y2="20.4"/><line class="v-valueaxisline v-tick" stroke="#8fbadd" stroke-width="1" shape-rendering="crispEdges" x1="33.34666666666667" y1="25.4" x2="33.34666666666667" y2="20.4"/><line class="v-valueaxisline v-tick" stroke="#8fbadd" stroke-width="1" shape-rendering="crispEdges" x1="66.69333333333334" y1="25.4" x2="66.69333333333334" y2="20.4"/><line class="v-valueaxisline v-tick" stroke="#8fbadd" stroke-width="1" shape-rendering="crispEdges" x1="100.04" y1="25.4" x2="100.04" y2="20.4"/><line class="v-valueaxisline v-tick" stroke="#8fbadd" stroke-width="1" shape-rendering="crispEdges" x1="133.38666666666668" y1="25.4" x2="133.38666666666668" y2="20.4"/><line class="v-valueaxisline v-tick" stroke="#8fbadd" stroke-width="1" shape-rendering="crispEdges" x1="166.73333333333335" y1="25.4" x2="166.73333333333335" y2="20.4"/><line class="v-valueaxisline v-tick" stroke="#8fbadd" stroke-width="1" shape-rendering="crispEdges" x1="200.08" y1="25.4" x2="200.08" y2="20.4"/></g></g><g clip-path="url(#clipPath-bed5e67b-1c66-4b65-97e5-948a8f5c14d3)"><g class="v-label-group"><g class="v-label v-morphable-label viz-axis-label" fill="#333333" font-size="12px" font-weight="normal" font-family="'Open Sans', Arial, Helvetica, sans-serif" font-style="normal"><text text-anchor="middle" x="0" y="11.399999999999999">0.00</text></g><g class="v-label v-morphable-label viz-axis-label" fill="#333333" font-size="12px" font-weight="normal" font-family="'Open Sans', Arial, Helvetica, sans-serif" font-style="normal"><text text-anchor="middle" x="66.69333333333334" y="11.399999999999999">100.00</text></g><g class="v-label v-morphable-label viz-axis-label" fill="#333333" font-size="12px" font-weight="normal" font-family="'Open Sans', Arial, Helvetica, sans-serif" font-style="normal"><text text-anchor="middle" x="133.38666666666668" y="11.399999999999999">200.00</text></g><g class="v-label v-morphable-label viz-axis-label" fill="#333333" font-size="12px" font-weight="normal" font-family="'Open Sans', Arial, Helvetica, sans-serif" font-style="normal"><text text-anchor="middle" x="200.08" y="11.399999999999999">300.00</text></g></g></g></g></g></g><g class="v-m-scrollbar" transform="translate(308.92, 51.24)"><g><rect class="v-m-scrollbarTrack" visibility="hidden" fill="#f7f7f7" width="12" height="273.56312499999996"/><rect class="v-m-scrollbarThumb" visibility="hidden" fill="#e5e5e5" width="12" height="273.56312499999996" transform="translate(0, 0)"/></g></g><g class="v-m-valueAxis2 v-m-xAxis" transform="translate(108.84, 324.80312499999997)"><rect class="v-bound" width="200.08" height="63.24" fill="transparent"/><g class="v-axis"><g class="v-m-axisScrollbar" transform="translate(0,25.4)"><g><rect class="v-m-scrollbarTrack" visibility="hidden" fill="#f7f7f7" width="200.08" height="12"/><rect class="v-m-scrollbarThumb" visibility="hidden" fill="#e5e5e5" width="200.08" height="12" transform="translate(0, 0)"/></g></g><g class="v-m-axisTitle" transform="translate(0,46.44)"><g class="v-title viz-axis-title" fill="#f6a09b" font-size="14px" font-weight="bold" font-family="'Open Sans', Arial, Helvetica, sans-serif" font-style="normal"><text text-anchor="middle" dominant-baseline="auto" x="100.04" y="13.8"><tspan class="v-title viz-axis-title" dominant-baseline="auto">Revenue &amp; Revenue2</tspan></text></g></g><g class="v-m-axisBody" transform="translate(0,0)"><clipPath class="v-clippath-labels" id="clipPath-e90d62a9-2e47-4250-9b31-20c8d30025d3"><rect x="-7.5" y="-1" width="225.58" height="27.4"/></clipPath><clipPath class="v-clippath-ticks" id="clipPath-2d424adf-45af-4daa-8058-3608a1d4454b"><rect x="-1" y="-1" width="202.08" height="27.4"/></clipPath><rect class="v-bound" width="200.08" height="25.4" fill="transparent"/><g class="v-line-group"><line class="v-valueaxisline v-line" stroke="#f6a09b" stroke-width="1" shape-rendering="crispEdges" x1="-0.5" y1="0" x2="200.58" y2="0"/></g><g clip-path="url(#clipPath-2d424adf-45af-4daa-8058-3608a1d4454b)"><g class="v-tick-group"><line class="v-valueaxisline v-tick" stroke="#f6a09b" stroke-width="1" shape-rendering="crispEdges" x1="0" y1="0" x2="0" y2="5"/><line class="v-valueaxisline v-tick" stroke="#f6a09b" stroke-width="1" shape-rendering="crispEdges" x1="33.34666666666667" y1="0" x2="33.34666666666667" y2="5"/><line class="v-valueaxisline v-tick" stroke="#f6a09b" stroke-width="1" shape-rendering="crispEdges" x1="66.69333333333334" y1="0" x2="66.69333333333334" y2="5"/><line class="v-valueaxisline v-tick" stroke="#f6a09b" stroke-width="1" shape-rendering="crispEdges" x1="100.04" y1="0" x2="100.04" y2="5"/><line class="v-valueaxisline v-tick" stroke="#f6a09b" stroke-width="1" shape-rendering="crispEdges" x1="133.38666666666668" y1="0" x2="133.38666666666668" y2="5"/><line class="v-valueaxisline v-tick" stroke="#f6a09b" stroke-width="1" shape-rendering="crispEdges" x1="166.73333333333335" y1="0" x2="166.73333333333335" y2="5"/><line class="v-valueaxisline v-tick" stroke="#f6a09b" stroke-width="1" shape-rendering="crispEdges" x1="200.08" y1="0" x2="200.08" y2="5"/></g></g><g clip-path="url(#clipPath-e90d62a9-2e47-4250-9b31-20c8d30025d3)"><g class="v-label-group"><g class="v-label v-morphable-label viz-axis-label" fill="#333333" font-size="12px" font-weight="normal" font-family="'Open Sans', Arial, Helvetica, sans-serif" font-style="normal"><text text-anchor="middle" x="0" y="22.4">0</text></g><g class="v-label v-morphable-label viz-axis-label" fill="#333333" font-size="12px" font-weight="normal" font-family="'Open Sans', Arial, Helvetica, sans-serif" font-style="normal"><text text-anchor="middle" x="33.34666666666667" y="22.4">200</text></g><g class="v-label v-morphable-label viz-axis-label" fill="#333333" font-size="12px" font-weight="normal" font-family="'Open Sans', Arial, Helvetica, sans-serif" font-style="normal"><text text-anchor="middle" x="66.69333333333334" y="22.4">400</text></g><g class="v-label v-morphable-label viz-axis-label" fill="#333333" font-size="12px" font-weight="normal" font-family="'Open Sans', Arial, Helvetica, sans-serif" font-style="normal"><text text-anchor="middle" x="100.04" y="22.4">600</text></g><g class="v-label v-morphable-label viz-axis-label" fill="#333333" font-size="12px" font-weight="normal" font-family="'Open Sans', Arial, Helvetica, sans-serif" font-style="normal"><text text-anchor="middle" x="133.38666666666668" y="22.4">800</text></g><g class="v-label v-morphable-label viz-axis-label" fill="#333333" font-size="12px" font-weight="normal" font-family="'Open Sans', Arial, Helvetica, sans-serif" font-style="normal"><text text-anchor="middle" x="166.73333333333335" y="22.4">1000</text></g><g class="v-label v-morphable-label viz-axis-label" fill="#333333" font-size="12px" font-weight="normal" font-family="'Open Sans', Arial, Helvetica, sans-serif" font-style="normal"><text text-anchor="middle" x="200.08" y="22.4">1200</text></g></g></g></g></g></g></g></svg>