<svg class="v-m-root" viewBox="0 0 600 500" width="600" height="500" xmlns="http://www.w3.org/2000/svg"  style="left: 0px; top: 0px; direction: ltr; height: 100%; width: 100%; display: block; cursor: default;"><defs><pattern patternUnits="userSpaceOnUse" width="7" height="7" id="hatching5045ca8a-976c-4356-be96-d1273e9446e0"><rect fill="white" x="0" y="0" width="7" height="7"></rect><path d="M2,0L5,0L0,5L0,2L2,0 M7,2L7,5L5,7L2,7L7,2" fill="#3f3f3f"></path></pattern></defs><g class="v-m-action-layer-group"></g><g class="v-m-background"><rect class="v-background-body viz-plot-background v-morphable-background" x="0" y="0" width="600" height="500" style="fill:transparent"></rect></g><g class="v-m-title" transform="translate(24, 24)"><rect class="v-bound" width="506" height="17" fill="transparent"></rect><text class="v-title viz-title-label" fill="#333333" font-family="'Open Sans', Arial, Helvetica, sans-serif" font-size="16px" font-weight="bold" font-style="normal" text-anchor="middle" x="253" y="8.5" dominant-baseline="central">Sales Forecast and Planning Trend</text></g><g class="v-m-legendGroup" transform="translate(576, 77.16)"><g class="v-m-legend"><rect class="v-bound" width="0" height="0" visibility="hidden"></rect></g></g><g class="v-m-main" transform="translate(24, 77.16)"><g class="v-m-plot" transform="translate(0, 0)"><rect class="v-background-body viz-plot-background v-morphable-background" x="0" y="0" width="506" height="318.64" style="fill:transparent"></rect><clipPath id="plot_main_clipPath_567c5b80-748c-4859-bcb7-82a48540e754"><rect y="-1" width="507" height="319.64"></rect></clipPath><rect class="v-plot-bound v-bound v-zoom-plot" width="506" height="318.64" fill="transparent"></rect><g x="0" y="0" width="506" height="318.64" class="v-referenceline-background" opacity="1"></g><g clip-path="url(#plot_main_clipPath_567c5b80-748c-4859-bcb7-82a48540e754)"><g class="v-plot-main" transform="translate(0, 0)"><g class="v-datapoint-group"><g><path d="M16.866666666666667,210.83346666666665L50.599999999999994,174.18986666666666L84.33333333333333,134.89093333333332L118.06666666666668,138.07733333333334L151.8,134.35986666666665L185.53333333333333,140.73266666666666L219.26666666666668,144.4501333333333L253,125.33173333333332L286.73333333333335,116.30359999999999L320.4666666666667,98.77839999999998L354.2,87.09493333333333L387.93333333333334,51.51346666666665L421.6666666666667,181.09373333333335L455.4,117.36573333333331L489.1333333333333,135.95306666666664" fill="none" stroke-width="2" stroke="#5a5a5a" stroke-linejoin="round" stroke-dasharray="undefined" class="v-lines v-morphable-line"></path><g data-id="0" data-datapoint-id="1" class="v-datapoint v-morphable-datapoint v-datapoint-default" transform="translate(16.866666666666667, 210.83346666666665)"><path d="M-6,0 A6,6 0 1,0 6,0 A6,6 0 1,0 -6,0z" fill="#5a5a5a"></path></g><g data-id="1" data-datapoint-id="2" class="v-datapoint v-morphable-datapoint v-datapoint-default" transform="translate(50.599999999999994, 174.18986666666666)"><path d="M-6,0 A6,6 0 1,0 6,0 A6,6 0 1,0 -6,0z" fill="#5a5a5a"></path></g><g data-id="2" data-datapoint-id="3" class="v-datapoint v-morphable-datapoint v-datapoint-default" transform="translate(84.33333333333333, 134.89093333333332)"><path d="M-6,0 A6,6 0 1,0 6,0 A6,6 0 1,0 -6,0z" fill="#5a5a5a"></path></g><g data-id="3" data-datapoint-id="4" class="v-datapoint v-morphable-datapoint v-datapoint-default" transform="translate(118.06666666666668, 138.07733333333334)"><path d="M-6,0 A6,6 0 1,0 6,0 A6,6 0 1,0 -6,0z" fill="#5a5a5a"></path></g><g data-id="4" data-datapoint-id="5" class="v-datapoint v-morphable-datapoint v-datapoint-default" transform="translate(151.8, 134.35986666666665)"><path d="M-6,0 A6,6 0 1,0 6,0 A6,6 0 1,0 -6,0z" fill="#5a5a5a"></path></g><g data-id="5" data-datapoint-id="6" class="v-datapoint v-morphable-datapoint v-datapoint-default" transform="translate(185.53333333333333, 140.73266666666666)"><path d="M-6,0 A6,6 0 1,0 6,0 A6,6 0 1,0 -6,0z" fill="#5a5a5a"></path></g><g data-id="6" data-datapoint-id="7" class="v-datapoint v-morphable-datapoint v-datapoint-default" transform="translate(219.26666666666668, 144.4501333333333)"><path d="M-6,0 A6,6 0 1,0 6,0 A6,6 0 1,0 -6,0z" fill="#5a5a5a"></path></g><g data-id="7" data-datapoint-id="8" class="v-datapoint v-morphable-datapoint v-datapoint-default" transform="translate(253, 125.33173333333332)"><path d="M-6,0 A6,6 0 1,0 6,0 A6,6 0 1,0 -6,0z" fill="#5a5a5a"></path></g><g data-id="8" data-datapoint-id="9" class="v-datapoint v-morphable-datapoint v-datapoint-default" transform="translate(286.73333333333335, 116.30359999999999)"><path d="M-6,0 A6,6 0 1,0 6,0 A6,6 0 1,0 -6,0z" fill="#5a5a5a"></path></g><g data-id="9" data-datapoint-id="10" class="v-datapoint v-morphable-datapoint v-datapoint-default" transform="translate(320.4666666666667, 98.77839999999998)"><path d="M-6,0 A6,6 0 1,0 6,0 A6,6 0 1,0 -6,0z" fill="#5a5a5a"></path></g><g data-id="10" data-datapoint-id="11" class="v-datapoint v-morphable-datapoint v-datapoint-default" transform="translate(354.2, 87.09493333333333)"><path d="M-6,0 A6,6 0 1,0 6,0 A6,6 0 1,0 -6,0z" fill="#5a5a5a"></path></g><g data-id="11" data-datapoint-id="12" class="v-datapoint v-morphable-datapoint v-datapoint-default" transform="translate(387.93333333333334, 51.51346666666665)"><path d="M-6,0 A6,6 0 1,0 6,0 A6,6 0 1,0 -6,0z" fill="#5a5a5a"></path></g><g data-id="12" data-datapoint-id="13" class="v-datapoint v-morphable-datapoint v-datapoint-default" transform="translate(421.6666666666667, 181.09373333333335)"><path d="M-6,0 A6,6 0 1,0 6,0 A6,6 0 1,0 -6,0z" fill="#5a5a5a"></path></g><g data-id="13" data-datapoint-id="14" class="v-datapoint v-morphable-datapoint v-datapoint-default" transform="translate(455.4, 117.36573333333331)"><path d="M-6,0 A6,6 0 1,0 6,0 A6,6 0 1,0 -6,0z" fill="#5a5a5a"></path></g><g data-id="14" data-datapoint-id="15" class="v-datapoint v-morphable-datapoint v-datapoint-default" transform="translate(489.1333333333333, 135.95306666666664)"><path d="M-6,0 A6,6 0 1,0 6,0 A6,6 0 1,0 -6,0z" fill="#5a5a5a"></path></g></g><g><path d="M16.866666666666667,281.4653333333333L50.599999999999994,235.2625333333333L84.33333333333333,226.23439999999997L118.06666666666668,210.30239999999998L151.8,214.55093333333332L185.53333333333333,210.83346666666665L219.26666666666668,196.49466666666666L253,192.24613333333332L286.73333333333335,176.3141333333333L320.4666666666667,187.99759999999998L354.2,245.3528L387.93333333333334,229.42079999999999L421.6666666666667,226.76546666666667L455.4,176.3141333333333L489.1333333333333,191.184" fill="none" stroke-width="2" stroke="#6e6e6e" stroke-linejoin="round" stroke-dasharray="undefined" class="v-lines v-morphable-line"></path><g data-id="15" data-datapoint-id="16" class="v-datapoint v-morphable-datapoint v-datapoint-default" transform="translate(16.866666666666667, 281.4653333333333)"><path d="M-6,0 A6,6 0 1,0 6,0 A6,6 0 1,0 -6,0z" fill="#6e6e6e"></path></g><g data-id="16" data-datapoint-id="17" class="v-datapoint v-morphable-datapoint v-datapoint-default" transform="translate(50.599999999999994, 235.2625333333333)"><path d="M-6,0 A6,6 0 1,0 6,0 A6,6 0 1,0 -6,0z" fill="#6e6e6e"></path></g><g data-id="17" data-datapoint-id="18" class="v-datapoint v-morphable-datapoint v-datapoint-default" transform="translate(84.33333333333333, 226.23439999999997)"><path d="M-6,0 A6,6 0 1,0 6,0 A6,6 0 1,0 -6,0z" fill="#6e6e6e"></path></g><g data-id="18" data-datapoint-id="19" class="v-datapoint v-morphable-datapoint v-datapoint-default" transform="translate(118.06666666666668, 210.30239999999998)"><path d="M-6,0 A6,6 0 1,0 6,0 A6,6 0 1,0 -6,0z" fill="#6e6e6e"></path></g><g data-id="19" data-datapoint-id="20" class="v-datapoint v-morphable-datapoint v-datapoint-default" transform="translate(151.8, 214.55093333333332)"><path d="M-6,0 A6,6 0 1,0 6,0 A6,6 0 1,0 -6,0z" fill="#6e6e6e"></path></g><g data-id="20" data-datapoint-id="21" class="v-datapoint v-morphable-datapoint v-datapoint-default" transform="translate(185.53333333333333, 210.83346666666665)"><path d="M-6,0 A6,6 0 1,0 6,0 A6,6 0 1,0 -6,0z" fill="#6e6e6e"></path></g><g data-id="21" data-datapoint-id="22" class="v-datapoint v-morphable-datapoint v-datapoint-default" transform="translate(219.26666666666668, 196.49466666666666)"><path d="M-6,0 A6,6 0 1,0 6,0 A6,6 0 1,0 -6,0z" fill="#6e6e6e"></path></g><g data-id="22" data-datapoint-id="23" class="v-datapoint v-morphable-datapoint v-datapoint-default" transform="translate(253, 192.24613333333332)"><path d="M-6,0 A6,6 0 1,0 6,0 A6,6 0 1,0 -6,0z" fill="#6e6e6e"></path></g><g data-id="23" data-datapoint-id="24" class="v-datapoint v-morphable-datapoint v-datapoint-default" transform="translate(286.73333333333335, 176.3141333333333)"><path d="M-6,0 A6,6 0 1,0 6,0 A6,6 0 1,0 -6,0z" fill="#6e6e6e"></path></g><g data-id="24" data-datapoint-id="25" class="v-datapoint v-morphable-datapoint v-datapoint-default" transform="translate(320.4666666666667, 187.99759999999998)"><path d="M-6,0 A6,6 0 1,0 6,0 A6,6 0 1,0 -6,0z" fill="#6e6e6e"></path></g><g data-id="25" data-datapoint-id="26" class="v-datapoint v-morphable-datapoint v-datapoint-default" transform="translate(354.2, 245.3528)"><path d="M-6,0 A6,6 0 1,0 6,0 A6,6 0 1,0 -6,0z" fill="#6e6e6e"></path></g><g data-id="26" data-datapoint-id="27" class="v-datapoint v-morphable-datapoint v-datapoint-default" transform="translate(387.93333333333334, 229.42079999999999)"><path d="M-6,0 A6,6 0 1,0 6,0 A6,6 0 1,0 -6,0z" fill="#6e6e6e"></path></g><g data-id="27" data-datapoint-id="28" class="v-datapoint v-morphable-datapoint v-datapoint-default" transform="translate(421.6666666666667, 226.76546666666667)"><path d="M-6,0 A6,6 0 1,0 6,0 A6,6 0 1,0 -6,0z" fill="#6e6e6e"></path></g><g data-id="28" data-datapoint-id="29" class="v-datapoint v-morphable-datapoint v-datapoint-default" transform="translate(455.4, 176.3141333333333)"><path d="M-6,0 A6,6 0 1,0 6,0 A6,6 0 1,0 -6,0z" fill="#6e6e6e"></path></g><g data-id="29" data-datapoint-id="30" class="v-datapoint v-morphable-datapoint v-datapoint-default" transform="translate(489.1333333333333, 191.184)"><path d="M-6,0 A6,6 0 1,0 6,0 A6,6 0 1,0 -6,0z" fill="#6e6e6e"></path></g></g><g><path d="M16.866666666666667,295.27306666666664L50.599999999999994,297.39733333333334L84.33333333333333,293.67986666666667L118.06666666666668,288.90026666666665L151.8,283.0585333333333L185.53333333333333,295.27306666666664L219.26666666666668,288.90026666666665L253,287.3070666666666L286.73333333333335,286.776L320.4666666666667,305.36333333333334L354.2,309.6118666666667L387.93333333333334,312.2672L421.6666666666667,278.2789333333333L455.4,284.6517333333333L489.1333333333333,279.3410666666667" fill="none" stroke-width="2" stroke="#464646" stroke-linejoin="round" stroke-dasharray="undefined" class="v-lines v-morphable-line"></path><g data-id="30" data-datapoint-id="31" class="v-datapoint v-morphable-datapoint v-datapoint-default" transform="translate(16.866666666666667, 295.27306666666664)"><path d="M-6,0 A6,6 0 1,0 6,0 A6,6 0 1,0 -6,0z" fill="#464646"></path></g><g data-id="31" data-datapoint-id="32" class="v-datapoint v-morphable-datapoint v-datapoint-default" transform="translate(50.599999999999994, 297.39733333333334)"><path d="M-6,0 A6,6 0 1,0 6,0 A6,6 0 1,0 -6,0z" fill="#464646"></path></g><g data-id="32" data-datapoint-id="33" class="v-datapoint v-morphable-datapoint v-datapoint-default" transform="translate(84.33333333333333, 293.67986666666667)"><path d="M-6,0 A6,6 0 1,0 6,0 A6,6 0 1,0 -6,0z" fill="#464646"></path></g><g data-id="33" data-datapoint-id="34" class="v-datapoint v-morphable-datapoint v-datapoint-default" transform="translate(118.06666666666668, 288.90026666666665)"><path d="M-6,0 A6,6 0 1,0 6,0 A6,6 0 1,0 -6,0z" fill="#464646"></path></g><g data-id="34" data-datapoint-id="35" class="v-datapoint v-morphable-datapoint v-datapoint-default" transform="translate(151.8, 283.0585333333333)"><path d="M-6,0 A6,6 0 1,0 6,0 A6,6 0 1,0 -6,0z" fill="#464646"></path></g><g data-id="35" data-datapoint-id="36" class="v-datapoint v-morphable-datapoint v-datapoint-default" transform="translate(185.53333333333333, 295.27306666666664)"><path d="M-6,0 A6,6 0 1,0 6,0 A6,6 0 1,0 -6,0z" fill="#464646"></path></g><g data-id="36" data-datapoint-id="37" class="v-datapoint v-morphable-datapoint v-datapoint-default" transform="translate(219.26666666666668, 288.90026666666665)"><path d="M-6,0 A6,6 0 1,0 6,0 A6,6 0 1,0 -6,0z" fill="#464646"></path></g><g data-id="37" data-datapoint-id="38" class="v-datapoint v-morphable-datapoint v-datapoint-default" transform="translate(253, 287.3070666666666)"><path d="M-6,0 A6,6 0 1,0 6,0 A6,6 0 1,0 -6,0z" fill="#464646"></path></g><g data-id="38" data-datapoint-id="39" class="v-datapoint v-morphable-datapoint v-datapoint-default" transform="translate(286.73333333333335, 286.776)"><path d="M-6,0 A6,6 0 1,0 6,0 A6,6 0 1,0 -6,0z" fill="#464646"></path></g><g data-id="39" data-datapoint-id="40" class="v-datapoint v-morphable-datapoint v-datapoint-default" transform="translate(320.4666666666667, 305.36333333333334)"><path d="M-6,0 A6,6 0 1,0 6,0 A6,6 0 1,0 -6,0z" fill="#464646"></path></g><g data-id="40" data-datapoint-id="41" class="v-datapoint v-morphable-datapoint v-datapoint-default" transform="translate(354.2, 309.6118666666667)"><path d="M-6,0 A6,6 0 1,0 6,0 A6,6 0 1,0 -6,0z" fill="#464646"></path></g><g data-id="41" data-datapoint-id="42" class="v-datapoint v-morphable-datapoint v-datapoint-default" transform="translate(387.93333333333334, 312.2672)"><path d="M-6,0 A6,6 0 1,0 6,0 A6,6 0 1,0 -6,0z" fill="#464646"></path></g><g data-id="42" data-datapoint-id="43" class="v-datapoint v-morphable-datapoint v-datapoint-default" transform="translate(421.6666666666667, 278.2789333333333)"><path d="M-6,0 A6,6 0 1,0 6,0 A6,6 0 1,0 -6,0z" fill="#464646"></path></g><g data-id="43" data-datapoint-id="44" class="v-datapoint v-morphable-datapoint v-datapoint-default" transform="translate(455.4, 284.6517333333333)"><path d="M-6,0 A6,6 0 1,0 6,0 A6,6 0 1,0 -6,0z" fill="#464646"></path></g><g data-id="44" data-datapoint-id="45" class="v-datapoint v-morphable-datapoint v-datapoint-default" transform="translate(489.1333333333333, 279.3410666666667)"><path d="M-6,0 A6,6 0 1,0 6,0 A6,6 0 1,0 -6,0z" fill="#464646"></path></g></g></g><g class="v-datalabel-group"><g data-datapoint-id="1" class="v-datalabel v-morphable-label" fill="#000000" font-family="'Open Sans', Arial, Helvetica, sans-serif" font-size="12px" font-weight="normal" font-style="normal" cssString="fill:#000000;font-family:'Open Sans', Arial, Helvetica, sans-serif;font-size:12px;font-weight:normal;font-style:normal;" transform="translate(1.3666667938232422,227.83346557617188)"><text>203.0</text></g><g data-datapoint-id="2" class="v-datalabel v-morphable-label" fill="#000000" font-family="'Open Sans', Arial, Helvetica, sans-serif" font-size="12px" font-weight="normal" font-style="normal" cssString="fill:#000000;font-family:'Open Sans', Arial, Helvetica, sans-serif;font-size:12px;font-weight:normal;font-style:normal;" transform="translate(24.325401854006458,165.1898651123047)"><text>272.0</text></g><g data-datapoint-id="3" class="v-datalabel v-morphable-label" fill="#000000" font-family="'Open Sans', Arial, Helvetica, sans-serif" font-size="12px" font-weight="normal" font-style="normal" cssString="fill:#000000;font-family:'Open Sans', Arial, Helvetica, sans-serif;font-size:12px;font-weight:normal;font-style:normal;" transform="translate(68.83333587646484,125.89093017578125)"><text>346.0</text></g><g data-datapoint-id="4" class="v-datalabel v-morphable-label" fill="#000000" font-family="'Open Sans', Arial, Helvetica, sans-serif" font-size="12px" font-weight="normal" font-style="normal" cssString="fill:#000000;font-family:'Open Sans', Arial, Helvetica, sans-serif;font-size:12px;font-weight:normal;font-style:normal;" transform="translate(102.56666564941406,155.07733154296875)"><text>340.0</text></g><g data-datapoint-id="5" class="v-datalabel v-morphable-label" fill="#000000" font-family="'Open Sans', Arial, Helvetica, sans-serif" font-size="12px" font-weight="normal" font-style="normal" cssString="fill:#000000;font-family:'Open Sans', Arial, Helvetica, sans-serif;font-size:12px;font-weight:normal;font-style:normal;" transform="translate(136.3000030517578,125.35986328125)"><text>347.0</text></g><g data-datapoint-id="6" class="v-datalabel v-morphable-label" fill="#000000" font-family="'Open Sans', Arial, Helvetica, sans-serif" font-size="12px" font-weight="normal" font-style="normal" cssString="fill:#000000;font-family:'Open Sans', Arial, Helvetica, sans-serif;font-size:12px;font-weight:normal;font-style:normal;" transform="translate(170.03334045410156,131.732666015625)"><text>335.0</text></g><g data-datapoint-id="7" class="v-datalabel v-morphable-label" fill="#000000" font-family="'Open Sans', Arial, Helvetica, sans-serif" font-size="12px" font-weight="normal" font-style="normal" cssString="fill:#000000;font-family:'Open Sans', Arial, Helvetica, sans-serif;font-size:12px;font-weight:normal;font-style:normal;" transform="translate(203.76666259765625,161.45013427734375)"><text>328.0</text></g><g data-datapoint-id="9" class="v-datalabel v-morphable-label" fill="#000000" font-family="'Open Sans', Arial, Helvetica, sans-serif" font-size="12px" font-weight="normal" font-style="normal" cssString="fill:#000000;font-family:'Open Sans', Arial, Helvetica, sans-serif;font-size:12px;font-weight:normal;font-style:normal;" transform="translate(270.05696548486173,107.30359649658203)"><text>381.0</text></g><g data-datapoint-id="11" class="v-datalabel v-morphable-label" fill="#000000" font-family="'Open Sans', Arial, Helvetica, sans-serif" font-size="12px" font-weight="normal" font-style="normal" cssString="fill:#000000;font-family:'Open Sans', Arial, Helvetica, sans-serif;font-size:12px;font-weight:normal;font-style:normal;" transform="translate(328.7325326541787,78.09493255615234)"><text>436.0</text></g><g data-datapoint-id="12" class="v-datalabel v-morphable-label" fill="#000000" font-family="'Open Sans', Arial, Helvetica, sans-serif" font-size="12px" font-weight="normal" font-style="normal" cssString="fill:#000000;font-family:'Open Sans', Arial, Helvetica, sans-serif;font-size:12px;font-weight:normal;font-style:normal;" transform="translate(372.4333190917969,42.513465881347656)"><text>503.0</text></g><g data-datapoint-id="13" class="v-datalabel v-morphable-label" fill="#000000" font-family="'Open Sans', Arial, Helvetica, sans-serif" font-size="12px" font-weight="normal" font-style="normal" cssString="fill:#000000;font-family:'Open Sans', Arial, Helvetica, sans-serif;font-size:12px;font-weight:normal;font-style:normal;" transform="translate(406.1666564941406,198.09373474121094)"><text>259.0</text></g><g data-datapoint-id="14" class="v-datalabel v-morphable-label" fill="#000000" font-family="'Open Sans', Arial, Helvetica, sans-serif" font-size="12px" font-weight="normal" font-style="normal" cssString="fill:#000000;font-family:'Open Sans', Arial, Helvetica, sans-serif;font-size:12px;font-weight:normal;font-style:normal;" transform="translate(439.8999938964844,108.36573028564453)"><text>379.0</text></g><g data-datapoint-id="15" class="v-datalabel v-morphable-label" fill="#000000" font-family="'Open Sans', Arial, Helvetica, sans-serif" font-size="12px" font-weight="normal" font-style="normal" cssString="fill:#000000;font-family:'Open Sans', Arial, Helvetica, sans-serif;font-size:12px;font-weight:normal;font-style:normal;" transform="translate(473.6333312988281,152.95306396484375)"><text>344.0</text></g><g data-datapoint-id="17" class="v-datalabel v-morphable-label" fill="#000000" font-family="'Open Sans', Arial, Helvetica, sans-serif" font-size="12px" font-weight="normal" font-style="normal" cssString="fill:#000000;font-family:'Open Sans', Arial, Helvetica, sans-serif;font-size:12px;font-weight:normal;font-style:normal;" transform="translate(35.099998474121094,226.2625274658203)"><text>157.0</text></g><g data-datapoint-id="18" class="v-datalabel v-morphable-label" fill="#000000" font-family="'Open Sans', Arial, Helvetica, sans-serif" font-size="12px" font-weight="normal" font-style="normal" cssString="fill:#000000;font-family:'Open Sans', Arial, Helvetica, sans-serif;font-size:12px;font-weight:normal;font-style:normal;" transform="translate(68.83333587646484,217.23440551757812)"><text>174.0</text></g><g data-datapoint-id="19" class="v-datalabel v-morphable-label" fill="#000000" font-family="'Open Sans', Arial, Helvetica, sans-serif" font-size="12px" font-weight="normal" font-style="normal" cssString="fill:#000000;font-family:'Open Sans', Arial, Helvetica, sans-serif;font-size:12px;font-weight:normal;font-style:normal;" transform="translate(102.56666564941406,201.30239868164062)"><text>204.0</text></g><g data-datapoint-id="20" class="v-datalabel v-morphable-label" fill="#000000" font-family="'Open Sans', Arial, Helvetica, sans-serif" font-size="12px" font-weight="normal" font-style="normal" cssString="fill:#000000;font-family:'Open Sans', Arial, Helvetica, sans-serif;font-size:12px;font-weight:normal;font-style:normal;" transform="translate(136.3000030517578,231.55093383789062)"><text>196.0</text></g><g data-datapoint-id="21" class="v-datalabel v-morphable-label" fill="#000000" font-family="'Open Sans', Arial, Helvetica, sans-serif" font-size="12px" font-weight="normal" font-style="normal" cssString="fill:#000000;font-family:'Open Sans', Arial, Helvetica, sans-serif;font-size:12px;font-weight:normal;font-style:normal;" transform="translate(170.03334045410156,201.83346557617188)"><text>203.0</text></g><g data-datapoint-id="22" class="v-datalabel v-morphable-label" fill="#000000" font-family="'Open Sans', Arial, Helvetica, sans-serif" font-size="12px" font-weight="normal" font-style="normal" cssString="fill:#000000;font-family:'Open Sans', Arial, Helvetica, sans-serif;font-size:12px;font-weight:normal;font-style:normal;" transform="translate(203.76666259765625,187.49465942382812)"><text>230.0</text></g><g data-datapoint-id="23" class="v-datalabel v-morphable-label" fill="#000000" font-family="'Open Sans', Arial, Helvetica, sans-serif" font-size="12px" font-weight="normal" font-style="normal" cssString="fill:#000000;font-family:'Open Sans', Arial, Helvetica, sans-serif;font-size:12px;font-weight:normal;font-style:normal;" transform="translate(237.5,183.2461395263672)"><text>238.0</text></g><g data-datapoint-id="24" class="v-datalabel v-morphable-label" fill="#000000" font-family="'Open Sans', Arial, Helvetica, sans-serif" font-size="12px" font-weight="normal" font-style="normal" cssString="fill:#000000;font-family:'Open Sans', Arial, Helvetica, sans-serif;font-size:12px;font-weight:normal;font-style:normal;" transform="translate(271.23333740234375,167.3141326904297)"><text>268.0</text></g><g data-datapoint-id="25" class="v-datalabel v-morphable-label" fill="#000000" font-family="'Open Sans', Arial, Helvetica, sans-serif" font-size="12px" font-weight="normal" font-style="normal" cssString="fill:#000000;font-family:'Open Sans', Arial, Helvetica, sans-serif;font-size:12px;font-weight:normal;font-style:normal;" transform="translate(304.9666748046875,178.9976043701172)"><text>246.0</text></g><g data-datapoint-id="26" class="v-datalabel v-morphable-label" fill="#000000" font-family="'Open Sans', Arial, Helvetica, sans-serif" font-size="12px" font-weight="normal" font-style="normal" cssString="fill:#000000;font-family:'Open Sans', Arial, Helvetica, sans-serif;font-size:12px;font-weight:normal;font-style:normal;" transform="translate(338.70001220703125,262.35279846191406)"><text>138.0</text></g><g data-datapoint-id="28" class="v-datalabel v-morphable-label" fill="#000000" font-family="'Open Sans', Arial, Helvetica, sans-serif" font-size="12px" font-weight="normal" font-style="normal" cssString="fill:#000000;font-family:'Open Sans', Arial, Helvetica, sans-serif;font-size:12px;font-weight:normal;font-style:normal;" transform="translate(393.68434322996336,217.76547241210938)"><text>173.0</text></g><g data-datapoint-id="29" class="v-datalabel v-morphable-label" fill="#000000" font-family="'Open Sans', Arial, Helvetica, sans-serif" font-size="12px" font-weight="normal" font-style="normal" cssString="fill:#000000;font-family:'Open Sans', Arial, Helvetica, sans-serif;font-size:12px;font-weight:normal;font-style:normal;" transform="translate(439.8999938964844,167.3141326904297)"><text>268.0</text></g><g data-datapoint-id="30" class="v-datalabel v-morphable-label" fill="#000000" font-family="'Open Sans', Arial, Helvetica, sans-serif" font-size="12px" font-weight="normal" font-style="normal" cssString="fill:#000000;font-family:'Open Sans', Arial, Helvetica, sans-serif;font-size:12px;font-weight:normal;font-style:normal;" transform="translate(473.6333312988281,208.1840057373047)"><text>240.0</text></g><g data-datapoint-id="31" class="v-datalabel v-morphable-label" fill="#000000" font-family="'Open Sans', Arial, Helvetica, sans-serif" font-size="12px" font-weight="normal" font-style="normal" cssString="fill:#000000;font-family:'Open Sans', Arial, Helvetica, sans-serif;font-size:12px;font-weight:normal;font-style:normal;" transform="translate(4.866666793823242,286.2730712890625)"><text>44.0</text></g><g data-datapoint-id="32" class="v-datalabel v-morphable-label" fill="#000000" font-family="'Open Sans', Arial, Helvetica, sans-serif" font-size="12px" font-weight="normal" font-style="normal" cssString="fill:#000000;font-family:'Open Sans', Arial, Helvetica, sans-serif;font-size:12px;font-weight:normal;font-style:normal;" transform="translate(38.599998474121094,314.3973388671875)"><text>40.0</text></g><g data-datapoint-id="33" class="v-datalabel v-morphable-label" fill="#000000" font-family="'Open Sans', Arial, Helvetica, sans-serif" font-size="12px" font-weight="normal" font-style="normal" cssString="fill:#000000;font-family:'Open Sans', Arial, Helvetica, sans-serif;font-size:12px;font-weight:normal;font-style:normal;" transform="translate(72.33333587646484,284.67987060546875)"><text>47.0</text></g><g data-datapoint-id="34" class="v-datalabel v-morphable-label" fill="#000000" font-family="'Open Sans', Arial, Helvetica, sans-serif" font-size="12px" font-weight="normal" font-style="normal" cssString="fill:#000000;font-family:'Open Sans', Arial, Helvetica, sans-serif;font-size:12px;font-weight:normal;font-style:normal;" transform="translate(106.06666564941406,279.9002685546875)"><text>56.0</text></g><g data-datapoint-id="35" class="v-datalabel v-morphable-label" fill="#000000" font-family="'Open Sans', Arial, Helvetica, sans-serif" font-size="12px" font-weight="normal" font-style="normal" cssString="fill:#000000;font-family:'Open Sans', Arial, Helvetica, sans-serif;font-size:12px;font-weight:normal;font-style:normal;" transform="translate(139.8000030517578,274.05853271484375)"><text>67.0</text></g><g data-datapoint-id="36" class="v-datalabel v-morphable-label" fill="#000000" font-family="'Open Sans', Arial, Helvetica, sans-serif" font-size="12px" font-weight="normal" font-style="normal" cssString="fill:#000000;font-family:'Open Sans', Arial, Helvetica, sans-serif;font-size:12px;font-weight:normal;font-style:normal;" transform="translate(173.53334045410156,312.2730712890625)"><text>44.0</text></g><g data-datapoint-id="37" class="v-datalabel v-morphable-label" fill="#000000" font-family="'Open Sans', Arial, Helvetica, sans-serif" font-size="12px" font-weight="normal" font-style="normal" cssString="fill:#000000;font-family:'Open Sans', Arial, Helvetica, sans-serif;font-size:12px;font-weight:normal;font-style:normal;" transform="translate(207.26666259765625,279.9002685546875)"><text>56.0</text></g><g data-datapoint-id="38" class="v-datalabel v-morphable-label" fill="#000000" font-family="'Open Sans', Arial, Helvetica, sans-serif" font-size="12px" font-weight="normal" font-style="normal" cssString="fill:#000000;font-family:'Open Sans', Arial, Helvetica, sans-serif;font-size:12px;font-weight:normal;font-style:normal;" transform="translate(241,278.30706787109375)"><text>59.0</text></g><g data-datapoint-id="39" class="v-datalabel v-morphable-label" fill="#000000" font-family="'Open Sans', Arial, Helvetica, sans-serif" font-size="12px" font-weight="normal" font-style="normal" cssString="fill:#000000;font-family:'Open Sans', Arial, Helvetica, sans-serif;font-size:12px;font-weight:normal;font-style:normal;" transform="translate(274.73333740234375,277.7760009765625)"><text>60.0</text></g><g data-datapoint-id="40" class="v-datalabel v-morphable-label" fill="#000000" font-family="'Open Sans', Arial, Helvetica, sans-serif" font-size="12px" font-weight="normal" font-style="normal" cssString="fill:#000000;font-family:'Open Sans', Arial, Helvetica, sans-serif;font-size:12px;font-weight:normal;font-style:normal;" transform="translate(308.4666748046875,296.36334228515625)"><text>25.0</text></g><g data-datapoint-id="41" class="v-datalabel v-morphable-label" fill="#000000" font-family="'Open Sans', Arial, Helvetica, sans-serif" font-size="12px" font-weight="normal" font-style="normal" cssString="fill:#000000;font-family:'Open Sans', Arial, Helvetica, sans-serif;font-size:12px;font-weight:normal;font-style:normal;" transform="translate(342.20001220703125,300.61187744140625)"><text>17.0</text></g><g data-datapoint-id="43" class="v-datalabel v-morphable-label" fill="#000000" font-family="'Open Sans', Arial, Helvetica, sans-serif" font-size="12px" font-weight="normal" font-style="normal" cssString="fill:#000000;font-family:'Open Sans', Arial, Helvetica, sans-serif;font-size:12px;font-weight:normal;font-style:normal;" transform="translate(409.6666564941406,269.2789306640625)"><text>76.0</text></g><g data-datapoint-id="44" class="v-datalabel v-morphable-label" fill="#000000" font-family="'Open Sans', Arial, Helvetica, sans-serif" font-size="12px" font-weight="normal" font-style="normal" cssString="fill:#000000;font-family:'Open Sans', Arial, Helvetica, sans-serif;font-size:12px;font-weight:normal;font-style:normal;" transform="translate(443.3999938964844,301.6517333984375)"><text>64.0</text></g><g data-datapoint-id="45" class="v-datalabel v-morphable-label" fill="#000000" font-family="'Open Sans', Arial, Helvetica, sans-serif" font-size="12px" font-weight="normal" font-style="normal" cssString="fill:#000000;font-family:'Open Sans', Arial, Helvetica, sans-serif;font-size:12px;font-weight:normal;font-style:normal;" transform="translate(477.1333312988281,270.341064453125)"><text>74.0</text></g></g></g></g><g class="v-referenceline-group" clip-path="url(#plot_main_clipPath_567c5b80-748c-4859-bcb7-82a48540e754)"></g></g><g class="v-m-categoryAxis v-m-xAxis" transform="translate(0, 318.64)"><rect class="v-bound" width="506" height="80.2" fill="transparent"></rect><g class="v-axis"><g class="v-m-axisScrollbar" transform="translate(0,0)"></g><g class="v-m-axisTitle" transform="translate(0,0)"></g><g class="v-m-axisBody" transform="translate(0,0)" clip-path="url(#clip-path-18766d9d-9653-4d1a-a553-d261c1138527)"><clipPath class="v-clippath" id="clip-path-18766d9d-9653-4d1a-a553-d261c1138527"><rect x="-1" y="-1" width="508" height="82.2"></rect></clipPath><g class="v-tick-group"><rect class="v-valueaxisrect" shape-rendering="crispEdges" fill="#323232" x="0" y="0" width="33.733333333333334" height="5"></rect><rect class="v-valueaxisrect" shape-rendering="crispEdges" fill="#323232" x="33.733333333333334" y="0" width="33.733333333333334" height="5"></rect><rect class="v-valueaxisrect" shape-rendering="crispEdges" fill="#323232" x="67.46666666666667" y="0" width="33.733333333333334" height="5"></rect><rect class="v-valueaxisrect" shape-rendering="crispEdges" fill="#323232" x="101.2" y="0" width="33.733333333333334" height="5"></rect><rect class="v-valueaxisrect" shape-rendering="crispEdges" fill="#323232" x="134.93333333333334" y="0" width="33.73333333333332" height="5"></rect><rect class="v-valueaxisrect" shape-rendering="crispEdges" fill="#323232" x="168.66666666666666" y="0" width="33.73333333333332" height="5"></rect><rect class="v-valueaxisrect" shape-rendering="crispEdges" fill="#323232" x="202.4" y="0" width="33.73333333333332" height="5"></rect><rect class="v-valueaxisrect" shape-rendering="crispEdges" fill="#323232" x="236.13333333333333" y="0" width="33.73333333333335" height="5"></rect><rect class="v-valueaxisrect" shape-rendering="crispEdges" fill="#323232" x="269.8666666666667" y="0" width="33.73333333333329" height="5"></rect><rect class="v-valueaxisrect" shape-rendering="crispEdges" fill="url(#hatching5045ca8a-976c-4356-be96-d1273e9446e0)" x="303.59999999999997" y="0" width="33.73333333333335" height="5"></rect><rect class="v-valueaxisrect" shape-rendering="crispEdges" fill="url(#hatching5045ca8a-976c-4356-be96-d1273e9446e0)" x="337.3333333333333" y="0" width="33.73333333333335" height="5"></rect><rect class="v-valueaxisrect" shape-rendering="crispEdges" fill="url(#hatching5045ca8a-976c-4356-be96-d1273e9446e0)" x="371.06666666666666" y="0" width="33.73333333333329" height="5"></rect><rect class="v-valueaxisrect" shape-rendering="crispEdges" fill="transparent" x="404.8" y="0" width="33.73333333333335" height="5"></rect><rect class="v-valueaxisrect" shape-rendering="crispEdges" fill="transparent" x="438.53333333333336" y="0" width="33.73333333333329" height="5"></rect><rect class="v-valueaxisrect" shape-rendering="crispEdges" fill="transparent" x="472.26666666666665" y="0" width="33.73333333333335" height="5"></rect><line class="v-valueaxisline v-longtick" stroke="#333333" stroke-width="undefined" shape-rendering="crispEdges" x1="0" y1="5" x2="0" y2="81.19999999999999"></line><line class="v-valueaxisline v-tick" stroke="#333333" stroke-width="undefined" shape-rendering="crispEdges" x1="303.6" y1="5" x2="303.6" y2="81.19999999999999"></line><line class="v-valueaxisline v-tick" stroke="#333333" stroke-width="undefined" shape-rendering="crispEdges" x1="404.8" y1="5" x2="404.8" y2="81.19999999999999"></line><line class="v-valueaxisline v-tick" stroke="#333333" stroke-width="undefined" shape-rendering="crispEdges" x1="506" y1="5" x2="506" y2="81.19999999999999"></line></g><g class="v-line-group"><line class="v-valueaxisline v-line" stroke="#333333" stroke-width="1" shape-rendering="crispEdges" x1="-0.5" y1="0" x2="506.5" y2="0"></line><line class="v-valueaxisline v-line" stroke="#333333" stroke-width="1" shape-rendering="crispEdges" x1="-0.5" y1="5" x2="506.5" y2="5"></line></g><g class="v-label-group"><g class="v-label v-morphable-label viz-axis-label v-axis-item index_0" fill="#333333" font-size="12px" font-weight="normal" font-family="'Open Sans', Arial, Helvetica, sans-serif" font-style="normal" categorylabel-id="6" transform="translate(0,5)"><rect class="viz-axis-label-rect" fill="transparent" x="1" y="1" width="31.73333333" height="23.4"></rect><g class="v-axis-label-wrapper"><text x="16.866666665" y="17.4" text-anchor="middle">Jan</text></g></g><g class="v-label v-morphable-label viz-axis-label v-axis-item index_0" fill="#333333" font-size="12px" font-weight="normal" font-family="'Open Sans', Arial, Helvetica, sans-serif" font-style="normal" categorylabel-id="7" transform="translate(33.73333333,5)"><rect class="viz-axis-label-rect" fill="transparent" x="1" y="1" width="31.73333333" height="23.4"></rect><g class="v-axis-label-wrapper"><text x="16.866666665" y="17.4" text-anchor="middle">Feb</text></g></g><g class="v-label v-morphable-label viz-axis-label v-axis-item index_0" fill="#333333" font-size="12px" font-weight="normal" font-family="'Open Sans', Arial, Helvetica, sans-serif" font-style="normal" categorylabel-id="8" transform="translate(67.46666667,5)"><rect class="viz-axis-label-rect" fill="transparent" x="1" y="1" width="31.73333333" height="23.4"></rect><g class="v-axis-label-wrapper"><text x="16.866666665" y="17.4" text-anchor="middle">Mar</text></g></g><g class="v-label v-morphable-label viz-axis-label v-axis-item index_0" fill="#333333" font-size="12px" font-weight="normal" font-family="'Open Sans', Arial, Helvetica, sans-serif" font-style="normal" categorylabel-id="9" transform="translate(101.2,5)"><rect class="viz-axis-label-rect" fill="transparent" x="1" y="1" width="31.73333333" height="23.4"></rect><g class="v-axis-label-wrapper"><text x="16.866666665" y="17.4" text-anchor="middle">Apr</text></g></g><g class="v-label v-morphable-label viz-axis-label v-axis-item index_0" fill="#333333" font-size="12px" font-weight="normal" font-family="'Open Sans', Arial, Helvetica, sans-serif" font-style="normal" categorylabel-id="10" transform="translate(134.93333333,5)"><rect class="viz-axis-label-rect" fill="transparent" x="1" y="1" width="31.73333333" height="23.4"></rect><g class="v-axis-label-wrapper"><text x="16.866666665" y="17.4" text-anchor="middle">May</text></g></g><g class="v-label v-morphable-label viz-axis-label v-axis-item index_0" fill="#333333" font-size="12px" font-weight="normal" font-family="'Open Sans', Arial, Helvetica, sans-serif" font-style="normal" categorylabel-id="11" transform="translate(168.66666667,5)"><rect class="viz-axis-label-rect" fill="transparent" x="1" y="1" width="31.73333333" height="23.4"></rect><g class="v-axis-label-wrapper"><text x="16.866666665" y="17.4" text-anchor="middle">Jun</text></g></g><g class="v-label v-morphable-label viz-axis-label v-axis-item index_0" fill="#333333" font-size="12px" font-weight="normal" font-family="'Open Sans', Arial, Helvetica, sans-serif" font-style="normal" categorylabel-id="12" transform="translate(202.4,5)"><rect class="viz-axis-label-rect" fill="transparent" x="1" y="1" width="31.73333333" height="23.4"></rect><g class="v-axis-label-wrapper"><text x="16.866666665" y="17.4" text-anchor="middle">Jul</text></g></g><g class="v-label v-morphable-label viz-axis-label v-axis-item index_0" fill="#333333" font-size="12px" font-weight="normal" font-family="'Open Sans', Arial, Helvetica, sans-serif" font-style="normal" categorylabel-id="13" transform="translate(236.13333333,5)"><rect class="viz-axis-label-rect" fill="transparent" x="1" y="1" width="31.73333333" height="23.4"></rect><g class="v-axis-label-wrapper"><text x="16.866666665" y="17.4" text-anchor="middle">Aug</text></g></g><g class="v-label v-morphable-label viz-axis-label v-axis-item index_0" fill="#333333" font-size="12px" font-weight="normal" font-family="'Open Sans', Arial, Helvetica, sans-serif" font-style="normal" categorylabel-id="14" transform="translate(269.86666667,5)"><rect class="viz-axis-label-rect" fill="transparent" x="1" y="1" width="31.73333333" height="23.4"></rect><g class="v-axis-label-wrapper"><text x="16.866666665" y="17.4" text-anchor="middle">Sep</text></g></g><g class="v-label v-morphable-label viz-axis-label v-axis-item index_0" fill="#333333" font-size="12px" font-weight="normal" font-family="'Open Sans', Arial, Helvetica, sans-serif" font-style="normal" categorylabel-id="15" transform="translate(303.6,5)"><rect class="viz-axis-label-rect" fill="transparent" x="1" y="1" width="31.73333333" height="23.4"></rect><g class="v-axis-label-wrapper"><text x="16.866666665" y="17.4" text-anchor="middle">Oct</text></g></g><g class="v-label v-morphable-label viz-axis-label v-axis-item index_0" fill="#333333" font-size="12px" font-weight="normal" font-family="'Open Sans', Arial, Helvetica, sans-serif" font-style="normal" categorylabel-id="16" transform="translate(337.33333333,5)"><rect class="viz-axis-label-rect" fill="transparent" x="1" y="1" width="31.73333333" height="23.4"></rect><g class="v-axis-label-wrapper"><text x="16.866666665" y="17.4" text-anchor="middle">Nov</text></g></g><g class="v-label v-morphable-label viz-axis-label v-axis-item index_0" fill="#333333" font-size="12px" font-weight="normal" font-family="'Open Sans', Arial, Helvetica, sans-serif" font-style="normal" categorylabel-id="17" transform="translate(371.06666667,5)"><rect class="viz-axis-label-rect" fill="transparent" x="1" y="1" width="31.73333333" height="23.4"></rect><g class="v-axis-label-wrapper"><text x="16.866666665" y="17.4" text-anchor="middle">Dec</text></g></g><g class="v-label v-morphable-label viz-axis-label v-axis-item index_0" fill="#333333" font-size="12px" font-weight="normal" font-family="'Open Sans', Arial, Helvetica, sans-serif" font-style="normal" categorylabel-id="18" transform="translate(404.8,5)"><rect class="viz-axis-label-rect" fill="transparent" x="1" y="1" width="31.73333333" height="23.4"></rect><g class="v-axis-label-wrapper"><text x="16.866666665" y="17.4" text-anchor="middle">Jan</text></g></g><g class="v-label v-morphable-label viz-axis-label v-axis-item index_0" fill="#333333" font-size="12px" font-weight="normal" font-family="'Open Sans', Arial, Helvetica, sans-serif" font-style="normal" categorylabel-id="19" transform="translate(438.53333333,5)"><rect class="viz-axis-label-rect" fill="transparent" x="1" y="1" width="31.73333333" height="23.4"></rect><g class="v-axis-label-wrapper"><text x="16.866666665" y="17.4" text-anchor="middle">Feb</text></g></g><g class="v-label v-morphable-label viz-axis-label v-axis-item index_0" fill="#333333" font-size="12px" font-weight="normal" font-family="'Open Sans', Arial, Helvetica, sans-serif" font-style="normal" categorylabel-id="20" transform="translate(472.26666667,5)"><rect class="viz-axis-label-rect" fill="transparent" x="1" y="1" width="31.73333333" height="23.4"></rect><g class="v-axis-label-wrapper"><text x="16.866666665" y="17.4" text-anchor="middle">Mar</text></g></g><g class="v-label v-morphable-label viz-axis-label v-axis-item index_1" fill="#333333" font-size="12px" font-weight="normal" font-family="'Open Sans', Arial, Helvetica, sans-serif" font-style="normal" categorylabel-id="3" transform="translate(0,30.4)"><rect class="viz-axis-label-rect" fill="transparent" x="1" y="1" width="301.6" height="23.4"></rect><g class="v-axis-label-wrapper"><text x="2.8666666650000003" y="17.4" text-anchor="start">2014</text></g></g><g class="v-label v-morphable-label viz-axis-label v-axis-item index_1" fill="#333333" font-size="12px" font-weight="normal" font-family="'Open Sans', Arial, Helvetica, sans-serif" font-style="normal" categorylabel-id="4" transform="translate(303.6,30.4)"><rect class="viz-axis-label-rect" fill="transparent" x="1" y="1" width="99.2" height="23.4"></rect><g class="v-axis-label-wrapper"><text x="2.8666666650000003" y="17.4" text-anchor="start">2014</text></g></g><g class="v-label v-morphable-label viz-axis-label v-axis-item index_1" fill="#333333" font-size="12px" font-weight="normal" font-family="'Open Sans', Arial, Helvetica, sans-serif" font-style="normal" categorylabel-id="5" transform="translate(404.8,30.4)"><rect class="viz-axis-label-rect" fill="transparent" x="1" y="1" width="99.2" height="23.4"></rect><g class="v-axis-label-wrapper"><text x="2.8666666650000003" y="17.4" text-anchor="start">2015</text></g></g><g class="v-label v-morphable-label viz-axis-label v-axis-item index_2" fill="#333333" font-size="12px" font-weight="normal" font-family="'Open Sans', Arial, Helvetica, sans-serif" font-style="normal" categorylabel-id="0" transform="translate(0,55.8)"><rect class="viz-axis-label-rect" fill="transparent" x="1" y="1" width="301.6" height="23.4"></rect><g class="v-axis-label-wrapper"><text x="8.366666665" y="17.4" text-anchor="start">AC</text></g></g><g class="v-label v-morphable-label viz-axis-label v-axis-item index_2" fill="#333333" font-size="12px" font-weight="normal" font-family="'Open Sans', Arial, Helvetica, sans-serif" font-style="normal" categorylabel-id="1" transform="translate(303.6,55.8)"><rect class="viz-axis-label-rect" fill="transparent" x="1" y="1" width="99.2" height="23.4"></rect><g class="v-axis-label-wrapper"><text x="8.866666665" y="17.4" text-anchor="start">FC</text></g></g><g class="v-label v-morphable-label viz-axis-label v-axis-item index_2" fill="#333333" font-size="12px" font-weight="normal" font-family="'Open Sans', Arial, Helvetica, sans-serif" font-style="normal" categorylabel-id="2" transform="translate(404.8,55.8)"><rect class="viz-axis-label-rect" fill="transparent" x="1" y="1" width="99.2" height="23.4"></rect><g class="v-axis-label-wrapper"><text x="9.366666665" y="17.4" text-anchor="start">PL</text></g></g></g></g></g></g><g class="v-m-valueAxis v-m-yAxis" transform="translate(506, 0)"><rect class="v-bound" width="46" height="318.64" fill="transparent"></rect><g class="v-axis"><g class="v-m-axisTitle" transform="translate(46,0)"></g><g class="v-m-axisBody" transform="translate(46,0)"><rect class="v-bound" width="0" height="318.64" fill="transparent"></rect></g></g></g><g class="v-m-scrollbar" transform="translate(506, 0)"></g><g class="v-m-embeddedLegend" transform="translate(506, 0)"><rect class="v-bound" x="0" y="0" width="46" height="318.64" fill="transparent"></rect><g class="v-legend-item v-embeddedLegend-item" transform="translate(2,139.95306396484375)" visibility="visible"><rect width="45" height="14" y="-12" fill="transparent"></rect><text fill="#000000" font-family="'Open Sans', Arial, Helvetica, sans-serif" font-size="12px" font-weight="bold" font-style="normal">License</text></g><g class="v-legend-item v-embeddedLegend-item" transform="translate(2,195.18399047851562)" visibility="visible"><rect width="45" height="14" y="-12" fill="transparent"></rect><text fill="#000000" font-family="'Open Sans', Arial, Helvetica, sans-serif" font-size="12px" font-weight="bold" font-style="normal">Support</text></g><g class="v-legend-item v-embeddedLegend-item" transform="translate(2,283.3410949707031)" visibility="visible"><rect width="46" height="14" y="-12" fill="transparent"></rect><text fill="#000000" font-family="'Open Sans', Arial, Helvetica, sans-serif" font-size="12px" font-weight="bold" font-style="normal">Training</text></g></g></g></svg>