<svg class="efe3777d-7b34-4918-9f07-d88ee533778b v-m-root" width="500" height="500" style="left: 0px; top: 0px; direction: ltr; display: block; cursor: default;" xmlns="http://www.w3.org/2000/svg" text-rendering="geometricPrecision"><g class="v-m-action-layer-group"/><defs/><g class="v-m-background"><rect class="v-background-body viz-plot-background v-morphable-background" x="0" y="0" width="500" height="500" style="fill:transparent"/></g><g class="v-m-title" transform="translate(132.84, 24)"><rect class="v-bound" width="200.08" height="27.796875" fill="transparent"/><text class="v-title viz-title-label" fill="#333333" font-family="'Open Sans', Arial, Helvetica, sans-serif" font-size="24" font-weight="bold" font-style="normal" text-anchor="middle" x="100.04" y="13.8984375" dominant-baseline="central">Title of Chart</text></g><g class="v-m-legendGroup" transform="translate(363, 87.956875)"><g class="v-m-legend" transform="translate(0,0)"><rect class="v-bound" width="113" height="108" fill="transparent"/><g class="v-content" transform="translate(0, 0)" font-size="12px" font-family="'Open Sans', Arial, Helvetica, sans-serif" font-weight="normal" fill="#000000" font-style="normal"><rect class="v-legend-body-bound" x="-5" fill="transparent" width="118" height="108"/><g class="v-groups v-label viz-legend-valueLabel" transform="translate(0, 0)"><g class="v-legend-element v-legend-item" transform="translate (-5,0)" legendlabel-id="0"><rect width="118" height="18" fill="transparent"/><path class="v-legend-marker" fill="#748cb2" stroke-width="0" stroke="transparent" opacity="1" stroke-opacity="undefined" d="M-6,0 A6,6 0 1,0 6,0 A6,6 0 1,0 -6,0z" transform="translate(11,9)"/><text x="23" y="3" dy="0.85em">Car / Profit</text></g><g class="v-legend-element v-legend-item" transform="translate (-5,18)" legendlabel-id="1"><rect width="118" height="18" fill="transparent"/><path class="v-legend-marker" fill="#9cc677" stroke-width="0" stroke="transparent" opacity="1" stroke-opacity="undefined" d="M-6,0 A6,6 0 1,0 6,0 A6,6 0 1,0 -6,0z" transform="translate(11,9)"/><text x="23" y="3" dy="0.85em">Car / Revenue</text></g><g class="v-legend-element v-legend-item" transform="translate (-5,36)" legendlabel-id="2"><rect width="118" height="18" fill="transparent"/><path class="v-legend-marker" fill="#eacf5e" stroke-width="0" stroke="transparent" opacity="1" stroke-opacity="undefined" d="M-6,0 A6,6 0 1,0 6,0 A6,6 0 1,0 -6,0z" transform="translate(11,9)"/><text x="23" y="3" dy="0.85em">Motorcycle / Pr...<title>Motorcycle / Profit</title></text></g><g class="v-legend-element v-legend-item" transform="translate (-5,54)" legendlabel-id="3"><rect width="118" height="18" fill="transparent"/><path class="v-legend-marker" fill="#f9ad79" stroke-width="0" stroke="transparent" opacity="1" stroke-opacity="undefined" d="M-6,0 A6,6 0 1,0 6,0 A6,6 0 1,0 -6,0z" transform="translate(11,9)"/><text x="23" y="3" dy="0.85em">Motorcycle / Re...<title>Motorcycle / Revenue</title></text></g><g class="v-legend-element v-legend-item" transform="translate (-5,72)" legendlabel-id="4"><rect width="118" height="18" fill="transparent"/><path class="v-legend-marker" fill="#d16a7c" stroke-width="0" stroke="transparent" opacity="1" stroke-opacity="undefined" d="M-6,0 A6,6 0 1,0 6,0 A6,6 0 1,0 -6,0z" transform="translate(11,9)"/><text x="23" y="3" dy="0.85em">Truck / Profit</text></g><g class="v-legend-element v-legend-item" transform="translate (-5,90)" legendlabel-id="5"><rect width="118" height="18" fill="transparent"/><path class="v-legend-marker" fill="#8873a2" stroke-width="0" stroke="transparent" opacity="1" stroke-opacity="undefined" d="M-6,0 A6,6 0 1,0 6,0 A6,6 0 1,0 -6,0z" transform="translate(11,9)"/><text x="23" y="3" dy="0.85em">Truck / Revenue</text></g></g></g></g></g><g class="v-m-main" transform="translate(24, 87.956875)"><g class="v-m-plot" transform="translate(108.84, 0)"><rect class="v-background-body viz-plot-background v-morphable-background" x="0" y="0" width="200.08" height="324.80312499999997" style="fill:transparent"/><line class="v-background-border viz-plot-background-border" x1="0" y1="0" x2="0" y2="324.80312499999997" style="stroke: rgb(216, 216, 216); stroke-width: 1px;"/><line class="v-background-border viz-plot-background-border" x1="200.08" y1="0" x2="200.08" y2="324.80312499999997" style="stroke: rgb(216, 216, 216); stroke-width: 1px;"/><line class="v-background-border viz-plot-background-border" x1="0" y1="0" x2="200.08" y2="0" style="stroke: rgb(216, 216, 216); stroke-width: 1px;"/><line class="v-background-border viz-plot-background-border" x1="0" y1="324.80312499999997" x2="200.08" y2="324.80312499999997" style="stroke: rgb(216, 216, 216); stroke-width: 1px;"/><clipPath id="clipPath-678479d7-9cb3-47fe-9aec-bee95abe0d5c"><rect y="-1" width="201.08" height="325.80312499999997"/></clipPath><rect class="v-plot-bound v-bound v-zoom-plot" width="200.08" height="324.80312499999997" fill="transparent"/><g clip-path="url(#clipPath-678479d7-9cb3-47fe-9aec-bee95abe0d5c)"><g class="v-plot-main" transform="translate(0, 0)"><g class="v-gridline-group"><g class="v-gridline" stroke="#d8d8d8" stroke-width="1" shape-rendering="crispEdges"><line class="v-gridline-mainline" x1="0" y1="0" x2="0" y2="324.803125"/></g><g class="v-gridline" stroke="#d8d8d8" stroke-width="1" shape-rendering="crispEdges"><line class="v-gridline-mainline" x1="50.02" y1="0" x2="50.02" y2="324.803125"/></g><g class="v-gridline" stroke="#d8d8d8" stroke-width="1" shape-rendering="crispEdges"><line class="v-gridline-mainline" x1="100.04" y1="0" x2="100.04" y2="324.803125"/></g><g class="v-gridline" stroke="#d8d8d8" stroke-width="1" shape-rendering="crispEdges"><line class="v-gridline-mainline" x1="150.06" y1="0" x2="150.06" y2="324.803125"/></g><g class="v-gridline" stroke="#d8d8d8" stroke-width="1" shape-rendering="crispEdges"><line class="v-gridline-mainline" x1="200.08" y1="0" x2="200.08" y2="324.803125"/></g></g><g class="v-zeroline-group" style="pointer-events:none" stroke="#6c6c6c" stroke-width="1" shape-rendering="crispEdges"><g class="v-zeroline"><line x1="50.02" x2="50.02" y1="0" y2="324.803125"/></g></g><g class="v-datapoint-group"><g><path d="M12.505,40.600390624999996L84.06473745000001,121.80117187499998L64.5258,203.00195312499997L82.03280000000001,284.202734375" fill="none" stroke-width="2" stroke="#748cb2" stroke-linejoin="round" stroke-dasharray="undefined" class="v-lines v-morphable-line"/><g data-id="0" data-datapoint-id="73" class="v-datapoint v-morphable-datapoint v-datapoint-default" transform="translate(12.505, 40.600390624999996)"><path d="M-4,0 A4,4 0 1,0 4,0 A4,4 0 1,0 -4,0z" fill="#748cb2"/></g><g data-id="1" data-datapoint-id="74" class="v-datapoint v-morphable-datapoint v-datapoint-default" transform="translate(84.06473745000001, 121.80117187499998)"><path d="M-4,0 A4,4 0 1,0 4,0 A4,4 0 1,0 -4,0z" fill="#748cb2"/></g><g data-id="2" data-datapoint-id="75" class="v-datapoint v-morphable-datapoint v-datapoint-default" transform="translate(64.5258, 203.00195312499997)"><path d="M-4,0 A4,4 0 1,0 4,0 A4,4 0 1,0 -4,0z" fill="#748cb2"/></g><g data-id="3" data-datapoint-id="76" class="v-datapoint v-morphable-datapoint v-datapoint-default" transform="translate(82.03280000000001, 284.202734375)"><path d="M-4,0 A4,4 0 1,0 4,0 A4,4 0 1,0 -4,0z" fill="#748cb2"/></g></g><g><path d="M175.07000000000002,40.600390624999996L118.0472,121.80117187499998L79.03160000000001,203.00195312499997L114.04560000000002,284.202734375" fill="none" stroke-width="2" stroke="#9cc677" stroke-linejoin="round" stroke-dasharray="undefined" class="v-lines v-morphable-line"/><g data-id="4" data-datapoint-id="77" class="v-datapoint v-morphable-datapoint v-datapoint-default" transform="translate(175.07000000000002, 40.600390624999996)"><path d="M-4,0 A4,4 0 1,0 4,0 A4,4 0 1,0 -4,0z" fill="#9cc677"/></g><g data-id="5" data-datapoint-id="78" class="v-datapoint v-morphable-datapoint v-datapoint-default" transform="translate(118.0472, 121.80117187499998)"><path d="M-4,0 A4,4 0 1,0 4,0 A4,4 0 1,0 -4,0z" fill="#9cc677"/></g><g data-id="6" data-datapoint-id="79" class="v-datapoint v-morphable-datapoint v-datapoint-default" transform="translate(79.03160000000001, 203.00195312499997)"><path d="M-4,0 A4,4 0 1,0 4,0 A4,4 0 1,0 -4,0z" fill="#9cc677"/></g><g data-id="7" data-datapoint-id="80" class="v-datapoint v-morphable-datapoint v-datapoint-default" transform="translate(114.04560000000002, 284.202734375)"><path d="M-4,0 A4,4 0 1,0 4,0 A4,4 0 1,0 -4,0z" fill="#9cc677"/></g></g><g><path d="M82.28290000000001,40.600390624999996L61.77470000000001,121.80117187499998L62.27490000000001,203.00195312499997L67.2769,284.202734375" fill="none" stroke-width="2" stroke="#eacf5e" stroke-linejoin="round" stroke-dasharray="undefined" class="v-lines v-morphable-line"/><g data-id="8" data-datapoint-id="81" class="v-datapoint v-morphable-datapoint v-datapoint-default" transform="translate(82.28290000000001, 40.600390624999996)"><path d="M-4,0 A4,4 0 1,0 4,0 A4,4 0 1,0 -4,0z" fill="#eacf5e"/></g><g data-id="9" data-datapoint-id="82" class="v-datapoint v-morphable-datapoint v-datapoint-default" transform="translate(61.77470000000001, 121.80117187499998)"><path d="M-4,0 A4,4 0 1,0 4,0 A4,4 0 1,0 -4,0z" fill="#eacf5e"/></g><g data-id="10" data-datapoint-id="83" class="v-datapoint v-morphable-datapoint v-datapoint-default" transform="translate(62.27490000000001, 203.00195312499997)"><path d="M-4,0 A4,4 0 1,0 4,0 A4,4 0 1,0 -4,0z" fill="#eacf5e"/></g><g data-id="11" data-datapoint-id="84" class="v-datapoint v-morphable-datapoint v-datapoint-default" transform="translate(67.2769, 284.202734375)"><path d="M-4,0 A4,4 0 1,0 4,0 A4,4 0 1,0 -4,0z" fill="#eacf5e"/></g></g><g><path d="M107.2929,40.600390624999996L86.78470000000002,121.80117187499998L87.28490000000001,203.00195312499997L92.2869,284.202734375" fill="none" stroke-width="2" stroke="#f9ad79" stroke-linejoin="round" stroke-dasharray="undefined" class="v-lines v-morphable-line"/><g data-id="12" data-datapoint-id="85" class="v-datapoint v-morphable-datapoint v-datapoint-default" transform="translate(107.2929, 40.600390624999996)"><path d="M-4,0 A4,4 0 1,0 4,0 A4,4 0 1,0 -4,0z" fill="#f9ad79"/></g><g data-id="13" data-datapoint-id="86" class="v-datapoint v-morphable-datapoint v-datapoint-default" transform="translate(86.78470000000002, 121.80117187499998)"><path d="M-4,0 A4,4 0 1,0 4,0 A4,4 0 1,0 -4,0z" fill="#f9ad79"/></g><g data-id="14" data-datapoint-id="87" class="v-datapoint v-morphable-datapoint v-datapoint-default" transform="translate(87.28490000000001, 203.00195312499997)"><path d="M-4,0 A4,4 0 1,0 4,0 A4,4 0 1,0 -4,0z" fill="#f9ad79"/></g><g data-id="15" data-datapoint-id="88" class="v-datapoint v-morphable-datapoint v-datapoint-default" transform="translate(92.2869, 284.202734375)"><path d="M-4,0 A4,4 0 1,0 4,0 A4,4 0 1,0 -4,0z" fill="#f9ad79"/></g></g><g><path d="M89.7859,40.600390624999996L86.78470000000002,121.80117187499998L87.28490000000001,203.00195312499997L117.29690000000002,284.202734375" fill="none" stroke-width="2" stroke="#d16a7c" stroke-linejoin="round" stroke-dasharray="undefined" class="v-lines v-morphable-line"/><g data-id="16" data-datapoint-id="89" class="v-datapoint v-morphable-datapoint v-datapoint-default" transform="translate(89.7859, 40.600390624999996)"><path d="M-4,0 A4,4 0 1,0 4,0 A4,4 0 1,0 -4,0z" fill="#d16a7c"/></g><g data-id="17" data-datapoint-id="90" class="v-datapoint v-morphable-datapoint v-datapoint-default" transform="translate(86.78470000000002, 121.80117187499998)"><path d="M-4,0 A4,4 0 1,0 4,0 A4,4 0 1,0 -4,0z" fill="#d16a7c"/></g><g data-id="18" data-datapoint-id="91" class="v-datapoint v-morphable-datapoint v-datapoint-default" transform="translate(87.28490000000001, 203.00195312499997)"><path d="M-4,0 A4,4 0 1,0 4,0 A4,4 0 1,0 -4,0z" fill="#d16a7c"/></g><g data-id="19" data-datapoint-id="92" class="v-datapoint v-morphable-datapoint v-datapoint-default" transform="translate(117.29690000000002, 284.202734375)"><path d="M-4,0 A4,4 0 1,0 4,0 A4,4 0 1,0 -4,0z" fill="#d16a7c"/></g></g><g><path d="M125.05000000000001,40.600390624999996L111.7947,121.80117187499998L112.29490000000001,203.00195312499997L142.3069,284.202734375" fill="none" stroke-width="2" stroke="#8873a2" stroke-linejoin="round" stroke-dasharray="undefined" class="v-lines v-morphable-line"/><g data-id="20" data-datapoint-id="93" class="v-datapoint v-morphable-datapoint v-datapoint-default" transform="translate(125.05000000000001, 40.600390624999996)"><path d="M-4,0 A4,4 0 1,0 4,0 A4,4 0 1,0 -4,0z" fill="#8873a2"/></g><g data-id="21" data-datapoint-id="94" class="v-datapoint v-morphable-datapoint v-datapoint-default" transform="translate(111.7947, 121.80117187499998)"><path d="M-4,0 A4,4 0 1,0 4,0 A4,4 0 1,0 -4,0z" fill="#8873a2"/></g><g data-id="22" data-datapoint-id="95" class="v-datapoint v-morphable-datapoint v-datapoint-default" transform="translate(112.29490000000001, 203.00195312499997)"><path d="M-4,0 A4,4 0 1,0 4,0 A4,4 0 1,0 -4,0z" fill="#8873a2"/></g><g data-id="23" data-datapoint-id="96" class="v-datapoint v-morphable-datapoint v-datapoint-default" transform="translate(142.3069, 284.202734375)"><path d="M-4,0 A4,4 0 1,0 4,0 A4,4 0 1,0 -4,0z" fill="#8873a2"/></g></g></g></g></g><g class="v-referenceline-group" clip-path="url(#clipPath-678479d7-9cb3-47fe-9aec-bee95abe0d5c)"/></g><g class="v-m-categoryAxis v-m-yAxis" transform="translate(0, 0)"><rect class="v-bound" width="108.84" height="324.80312499999997" fill="transparent"/><g class="v-axis"><g class="v-m-axisTitle" transform="translate(3.552713678800501e-15,0)"><g class="v-title viz-axis-title" fill="#000000" font-size="14px" font-weight="bold" font-family="'Open Sans', Arial, Helvetica, sans-serif" font-style="normal"><text text-anchor="middle" dominant-baseline="auto" x="13.8" y="162.40156249999998" transform="rotate(-90,13.8,162.40156249999998)"><tspan class="v-title viz-axis-title" dominant-baseline="auto">Country</tspan><tspan class="v-title viz-axis-title" dominant-baseline="auto"> / Year</tspan></text></g></g><g class="v-m-axisBody" transform="translate(25.840000000000003,0)" clip-path="url(#clipPath-ea8b9f44-896e-44f1-86e5-957b946a5d27)"><clipPath class="v-clippath" id="clipPath-ea8b9f44-896e-44f1-86e5-957b946a5d27"><rect x="-1" y="-1" width="85" height="326.80312499999997"/></clipPath><g class="v-line-group"><line class="v-valueaxisline v-line" stroke="#d8d8d8" stroke-width="1" shape-rendering="crispEdges" x1="83" y1="-0.5" x2="83" y2="325.30312499999997"/></g><g class="v-tick-group"><line class="v-valueaxisline v-longtick" stroke="#d8d8d8" stroke-width="1" shape-rendering="crispEdges" x1="83" y1="0" x2="0" y2="0"/><line class="v-valueaxisline v-tick" stroke="#d8d8d8" stroke-width="1" shape-rendering="crispEdges" x1="83" y1="81.20078125" x2="78" y2="81.20078125"/><line class="v-valueaxisline v-longtick" stroke="#d8d8d8" stroke-width="1" shape-rendering="crispEdges" x1="83" y1="162.4015625" x2="0" y2="162.4015625"/><line class="v-valueaxisline v-tick" stroke="#d8d8d8" stroke-width="1" shape-rendering="crispEdges" x1="83" y1="243.60234375" x2="78" y2="243.60234375"/><line class="v-valueaxisline v-longtick" stroke="#d8d8d8" stroke-width="1" shape-rendering="crispEdges" x1="83" y1="324.803125" x2="0" y2="324.803125"/></g><g class="v-label-group"><g class="v-label v-morphable-label viz-axis-label v-axis-item index_0" fill="#333333" font-size="12px" font-weight="normal" font-family="'Open Sans', Arial, Helvetica, sans-serif" font-style="normal" categorylabel-id="2" transform="translate(44,0)"><rect class="viz-axis-label-rect" fill="transparent" x="1" y="1" width="37" height="79.20078125"/><g class="v-axis-label-wrapper"><text x="33" y="44.800390625000006" text-anchor="end">2001</text></g></g><g class="v-label v-morphable-label viz-axis-label v-axis-item index_0" fill="#333333" font-size="12px" font-weight="normal" font-family="'Open Sans', Arial, Helvetica, sans-serif" font-style="normal" categorylabel-id="3" transform="translate(44,81.20078125)"><rect class="viz-axis-label-rect" fill="transparent" x="1" y="1" width="37" height="79.20078125"/><g class="v-axis-label-wrapper"><text x="33" y="44.800390625000006" text-anchor="end">2002</text></g></g><g class="v-label v-morphable-label viz-axis-label v-axis-item index_0" fill="#333333" font-size="12px" font-weight="normal" font-family="'Open Sans', Arial, Helvetica, sans-serif" font-style="normal" categorylabel-id="4" transform="translate(44,162.4015625)"><rect class="viz-axis-label-rect" fill="transparent" x="1" y="1" width="37" height="79.20078124999998"/><g class="v-axis-label-wrapper"><text x="33" y="44.80039062499999" text-anchor="end">2001</text></g></g><g class="v-label v-morphable-label viz-axis-label v-axis-item index_0" fill="#333333" font-size="12px" font-weight="normal" font-family="'Open Sans', Arial, Helvetica, sans-serif" font-style="normal" categorylabel-id="5" transform="translate(44,243.60234375)"><rect class="viz-axis-label-rect" fill="transparent" x="1" y="1" width="37" height="79.20078125000003"/><g class="v-axis-label-wrapper"><text x="33" y="44.80039062500002" text-anchor="end">2002</text></g></g><g class="v-label v-morphable-label viz-axis-label v-axis-item index_1" fill="#333333" font-size="12px" font-weight="normal" font-family="'Open Sans', Arial, Helvetica, sans-serif" font-style="normal" categorylabel-id="0" transform="translate(0,0)"><rect class="viz-axis-label-rect" fill="transparent" x="1" y="1" width="42" height="160.4015625"/><g class="v-axis-label-wrapper"><text x="38" y="44.800390625000006" text-anchor="end">China</text></g></g><g class="v-label v-morphable-label viz-axis-label v-axis-item index_1" fill="#333333" font-size="12px" font-weight="normal" font-family="'Open Sans', Arial, Helvetica, sans-serif" font-style="normal" categorylabel-id="1" transform="translate(0,162.4015625)"><rect class="viz-axis-label-rect" fill="transparent" x="1" y="1" width="42" height="160.4015625"/><g class="v-axis-label-wrapper"><text x="38" y="44.80039062499999" text-anchor="end">USA</text></g></g></g></g></g></g><g class="v-m-valueAxis v-m-xAxis" transform="translate(108.84, 324.80312499999997)"><rect class="v-bound" width="200.08" height="63.24" fill="transparent"/><g class="v-axis"><g class="v-m-axisScrollbar" transform="translate(0,25.4)"><g><rect class="v-m-scrollbarTrack" visibility="hidden" fill="#f7f7f7" width="200.08" height="12"/><rect class="v-m-scrollbarThumb" visibility="hidden" fill="#e5e5e5" width="200.08" height="12" transform="translate(0, 0)"/></g></g><g class="v-m-axisTitle" transform="translate(0,46.44)"><g class="v-title viz-axis-title" fill="#000000" font-size="14px" font-weight="bold" font-family="'Open Sans', Arial, Helvetica, sans-serif" font-style="normal"><text text-anchor="middle" dominant-baseline="auto" x="100.04" y="13.8"><tspan class="v-title viz-axis-title" dominant-baseline="auto">Profit &amp; Revenue</tspan></text></g></g><g class="v-m-axisBody" transform="translate(0,0)"><clipPath class="v-clippath-labels" id="clipPath-3393ef9c-15ce-4143-80d4-bf94c990a377"><rect x="-25" y="-1" width="248.08" height="27.4"/></clipPath><clipPath class="v-clippath-ticks" id="clipPath-8220ce66-3a33-43fb-8aa3-33c1bb8e260b"><rect x="-1" y="-1" width="202.08" height="27.4"/></clipPath><rect class="v-bound" width="200.08" height="25.4" fill="transparent"/><g class="v-line-group"><line class="v-valueaxisline v-line" stroke="#6c6c6c" stroke-width="1" shape-rendering="crispEdges" x1="-0.5" y1="0" x2="200.58" y2="0"/></g><g clip-path="url(#clipPath-8220ce66-3a33-43fb-8aa3-33c1bb8e260b)"><g class="v-tick-group"><line class="v-valueaxisline v-tick" stroke="#6c6c6c" stroke-width="1" shape-rendering="crispEdges" x1="0" y1="0" x2="0" y2="5"/><line class="v-valueaxisline v-tick" stroke="#6c6c6c" stroke-width="1" shape-rendering="crispEdges" x1="50.02" y1="0" x2="50.02" y2="5"/><line class="v-valueaxisline v-tick" stroke="#6c6c6c" stroke-width="1" shape-rendering="crispEdges" x1="100.04" y1="0" x2="100.04" y2="5"/><line class="v-valueaxisline v-tick" stroke="#6c6c6c" stroke-width="1" shape-rendering="crispEdges" x1="150.06" y1="0" x2="150.06" y2="5"/><line class="v-valueaxisline v-tick" stroke="#6c6c6c" stroke-width="1" shape-rendering="crispEdges" x1="200.08" y1="0" x2="200.08" y2="5"/></g></g><g clip-path="url(#clipPath-3393ef9c-15ce-4143-80d4-bf94c990a377)"><g class="v-label-group"><g class="v-label v-morphable-label viz-axis-label" fill="#333333" font-size="12px" font-weight="normal" font-family="'Open Sans', Arial, Helvetica, sans-serif" font-style="normal"><text text-anchor="middle" x="0" y="22.4">-200.00</text></g><g class="v-label v-morphable-label viz-axis-label" fill="#333333" font-size="12px" font-weight="normal" font-family="'Open Sans', Arial, Helvetica, sans-serif" font-style="normal"><text text-anchor="middle" x="50.02" y="22.4">0.00</text></g><g class="v-label v-morphable-label viz-axis-label" fill="#333333" font-size="12px" font-weight="normal" font-family="'Open Sans', Arial, Helvetica, sans-serif" font-style="normal"><text text-anchor="middle" x="100.04" y="22.4">200.00</text></g><g class="v-label v-morphable-label viz-axis-label" fill="#333333" font-size="12px" font-weight="normal" font-family="'Open Sans', Arial, Helvetica, sans-serif" font-style="normal"><text text-anchor="middle" x="150.06" y="22.4">400.00</text></g><g class="v-label v-morphable-label viz-axis-label" fill="#333333" font-size="12px" font-weight="normal" font-family="'Open Sans', Arial, Helvetica, sans-serif" font-style="normal"><text text-anchor="middle" x="200.08" y="22.4">600.00</text></g></g></g></g></g></g><g class="v-m-scrollbar" transform="translate(308.92, 0)"><g><rect class="v-m-scrollbarTrack" visibility="hidden" fill="#f7f7f7" width="12" height="324.80312499999997"/><rect class="v-m-scrollbarThumb" visibility="hidden" fill="#e5e5e5" width="12" height="324.80312499999997" transform="translate(0, 0)"/></g></g></g></svg>