<svg class="v-m-root" viewBox="0 0 600 500" width="600" height="500" xmlns="http://www.w3.org/2000/svg" style="left: 0px; top: 0px; direction: ltr; height: 100%; width: 100%; display: block; cursor: default;"><defs></defs><g class="v-m-action-layer-group"></g><g class="v-m-background"><rect class="v-background-body viz-plot-background v-morphable-background" x="0" y="0" width="600" height="500" style="fill:transparent"></rect></g><g class="v-m-title" transform="translate(96.4, 25)"></g><g class="v-m-legendGroup" transform="translate(532, 25)"><g class="v-m-legend" transform="translate(0,0)"><rect class="v-bound" width="43" height="52.5" fill="transparent"></rect><g class="v-content" transform="translate(0, 0)" font-size="10px" font-family="'Open Sans', Arial, Helvetica, sans-serif" font-weight="normal" fill="#737373" font-style="normal"><rect class="v-legend-body-bound" x="-5" fill="transparent" width="48" height="52.5"></rect><g class="v-groups v-label viz-legend-valueLabel" transform="translate(0, 0)"><g class="v-legend-element v-legend-item" transform="translate (-5,0)" legendlabel-id="0"><rect height="17.5" fill="transparent" width="48"></rect><path transform="translate(12,8.25)" class="v-legend-marker" fill="#73d2e0" stroke-width="0" stroke="transparent" opacity="1" stroke-opacity="undefined" d="M-7,0 A7,7 0 1,0 7,0 A7,7 0 1,0 -7,0z"></path><text x="24" y="3.25" dy="0.85em">2009</text></g><g class="v-legend-element v-legend-item" transform="translate (-5,17.5)" legendlabel-id="1"><rect height="17.5" fill="transparent" width="48"></rect><path transform="translate(12,8.25)" class="v-legend-marker" fill="#bbd03b" stroke-width="0" stroke="transparent" opacity="1" stroke-opacity="undefined" d="M-7,0 A7,7 0 1,0 7,0 A7,7 0 1,0 -7,0z"></path><text x="24" y="3.25" dy="0.85em">2010</text></g><g class="v-legend-element v-legend-item" transform="translate (-5,35)" legendlabel-id="2"><rect height="17.5" fill="transparent" width="48"></rect><path transform="translate(12,8.25)" class="v-legend-marker" fill="#999d20" stroke-width="0" stroke="transparent" opacity="1" stroke-opacity="undefined" d="M-7,0 A7,7 0 1,0 7,0 A7,7 0 1,0 -7,0z"></path><text x="24" y="3.25" dy="0.85em">2011</text></g></g></g></g></g><g class="v-m-main" transform="translate(25, 25)"><g class="v-m-plot" transform="translate(71.4, 0)"><rect class="v-background-body viz-plot-background v-morphable-background" x="0" y="0" width="401.6" height="403.6" style="fill:transparent"></rect><clipPath id="plot_main_clipPath_637e4b5f-839e-4291-9a10-3ce869e1c12e"><rect y="-1" width="402.6" height="404.6"></rect></clipPath><rect class="v-plot-bound v-bound v-zoom-plot" width="401.6" height="403.6" fill="transparent"></rect><g clip-path="url(#plot_main_clipPath_637e4b5f-839e-4291-9a10-3ce869e1c12e)"><g class="v-plot-main" transform="translate(0, 0)"><g class="v-gridline-group"><g class="v-gridline" stroke="#ececec" stroke-width="1" shape-rendering="crispEdges"><line class="v-gridline-mainline" x1="0" y1="0" x2="0" y2="403.6"></line></g><g class="v-gridline" stroke="#ececec" stroke-width="1" shape-rendering="crispEdges"><line class="v-gridline-mainline" x1="66.93333333333335" y1="0" x2="66.93333333333335" y2="403.6"></line></g><g class="v-gridline" stroke="#ececec" stroke-width="1" shape-rendering="crispEdges"><line class="v-gridline-mainline" x1="133.8666666666667" y1="0" x2="133.8666666666667" y2="403.6"></line></g><g class="v-gridline" stroke="#ececec" stroke-width="1" shape-rendering="crispEdges"><line class="v-gridline-mainline" x1="200.8" y1="0" x2="200.8" y2="403.6"></line></g><g class="v-gridline" stroke="#ececec" stroke-width="1" shape-rendering="crispEdges"><line class="v-gridline-mainline" x1="267.7333333333334" y1="0" x2="267.7333333333334" y2="403.6"></line></g><g class="v-gridline" stroke="#ececec" stroke-width="1" shape-rendering="crispEdges"><line class="v-gridline-mainline" x1="334.6666666666667" y1="0" x2="334.6666666666667" y2="403.6"></line></g><g class="v-gridline" stroke="#ececec" stroke-width="1" shape-rendering="crispEdges"><line class="v-gridline-mainline" x1="401.6" y1="0" x2="401.6" y2="403.6"></line></g></g><g class="v-datapoint-group"><g class="v-area-group"><g class="v-area"><path class="v-area-path v-morphable-areabg" fill="#999d20" opacity="0.8" d="M72.18425333333334,50.45L112.19030666666667,151.35L159.53660400000004,252.25L28.674574666666672,353.15000000000003L0,353.15000000000003L0,252.25L0,151.35L0,50.45"></path><path stroke="#999d20" stroke-width="1px" opacity="0.8" class="v-area-line-path v-morphable-areabg"></path><path class="v-area-detection-path" opacity="0" d="M72.18425333333334,40.45L72.18425333333334,50.45L0,50.45L0,40.45M28.674574666666672,353.15000000000003L28.674574666666672,363.15000000000003L0,363.15000000000003L0,353.15000000000003"></path></g><g class="v-area"><path class="v-area-path v-morphable-areabg" fill="#bbd03b" opacity="0.8" d="M164.376888,50.45L242.48273333333339,151.35L271.4390973333334,252.25L112.66687200000001,353.15000000000003L28.674574666666672,353.15000000000003L159.53660400000007,252.25L112.19030666666669,151.35L72.18425333333333,50.45"></path><path stroke="#bbd03b" stroke-width="1px" opacity="0.8" class="v-area-line-path v-morphable-areabg"></path><path class="v-area-detection-path" opacity="0" d="M164.376888,40.45L164.376888,50.45L72.18425333333333,50.45L72.18425333333333,40.45M112.66687200000001,353.15000000000003L112.66687200000001,363.15000000000003L28.674574666666672,363.15000000000003L28.674574666666672,353.15000000000003"></path></g><g class="v-area"><path class="v-area-path v-morphable-areabg" fill="#73d2e0" opacity="0.8" d="M254.35436400000003,50.45L312.2041746666667,151.35L380.81351866666665,252.25L170.93936666666667,353.15000000000003L112.66687200000001,353.15000000000003L271.43909733333334,252.25L242.48273333333333,151.35L164.376888,50.45"></path><path stroke="#73d2e0" stroke-width="1px" opacity="0.8" class="v-area-line-path v-morphable-areabg"></path><path class="v-area-detection-path" opacity="0" d="M254.35436400000003,40.45L254.35436400000003,50.45L164.376888,50.45L164.376888,40.45M170.93936666666667,353.15000000000003L170.93936666666667,363.15000000000003L112.66687200000001,363.15000000000003L112.66687200000001,353.15000000000003"></path></g></g><g class="v-area-point-group"><line stroke="#73d2e0" stroke-opacity="1" stroke-width="2px" x1="312.2041746666667" y1="151.35" x2="242.48273333333333" y2="151.35" class="v-area-ref-line" data-datapoint-id="2"></line><g class="v-area-point"><g data-id="0" data-datapoint-id="9" class="v-datapoint v-morphable-datapoint v-datapoint-default" transform="translate(72.18425333333334, 50.45)" opacity="0"><path d="M-4,0 A4,4 0 1,0 4,0 A4,4 0 1,0 -4,0z" fill="#999d20"></path></g><g data-id="1" data-datapoint-id="10" class="v-datapoint v-morphable-datapoint v-datapoint-default" transform="translate(112.19030666666667, 151.35)" opacity="0"><path d="M-4,0 A4,4 0 1,0 4,0 A4,4 0 1,0 -4,0z" fill="#999d20"></path></g><g data-id="2" data-datapoint-id="11" class="v-datapoint v-morphable-datapoint v-datapoint-default" transform="translate(159.53660400000004, 252.25)" opacity="0"><path d="M-4,0 A4,4 0 1,0 4,0 A4,4 0 1,0 -4,0z" fill="#999d20"></path></g><g data-id="3" data-datapoint-id="12" class="v-datapoint v-morphable-datapoint v-datapoint-default" transform="translate(28.674574666666672, 353.15000000000003)" opacity="0"><path d="M-4,0 A4,4 0 1,0 4,0 A4,4 0 1,0 -4,0z" fill="#999d20"></path></g></g><g class="v-area-point"><g data-id="4" data-datapoint-id="5" class="v-datapoint v-morphable-datapoint v-datapoint-default" transform="translate(164.376888, 50.45)" opacity="0"><path d="M-4,0 A4,4 0 1,0 4,0 A4,4 0 1,0 -4,0z" fill="#bbd03b"></path></g><g data-id="5" data-datapoint-id="6" class="v-datapoint v-morphable-datapoint v-datapoint-default" transform="translate(242.48273333333339, 151.35)" opacity="0"><path d="M-4,0 A4,4 0 1,0 4,0 A4,4 0 1,0 -4,0z" fill="#bbd03b"></path></g><g data-id="6" data-datapoint-id="7" class="v-datapoint v-morphable-datapoint v-datapoint-default" transform="translate(271.4390973333334, 252.25)" opacity="0"><path d="M-4,0 A4,4 0 1,0 4,0 A4,4 0 1,0 -4,0z" fill="#bbd03b"></path></g><g data-id="7" data-datapoint-id="8" class="v-datapoint v-morphable-datapoint v-datapoint-default" transform="translate(112.66687200000001, 353.15000000000003)" opacity="0"><path d="M-4,0 A4,4 0 1,0 4,0 A4,4 0 1,0 -4,0z" fill="#bbd03b"></path></g></g><g class="v-area-point"><g data-id="8" data-datapoint-id="1" class="v-datapoint v-morphable-datapoint v-datapoint-default" transform="translate(254.35436400000003, 50.45)" opacity="0"><path d="M-4,0 A4,4 0 1,0 4,0 A4,4 0 1,0 -4,0z" fill="#73d2e0"></path></g><g data-id="9" data-datapoint-id="2" class="v-datapoint v-morphable-datapoint v-datapoint-hover" transform="translate(312.2041746666667, 151.35)" opacity="1" fill-opacity="1"><path d="M-4,0 A4,4 0 1,0 4,0 A4,4 0 1,0 -4,0z" fill="#2bafc2" stroke-opacity="1"></path></g><g data-id="10" data-datapoint-id="3" class="v-datapoint v-morphable-datapoint v-datapoint-default" transform="translate(380.81351866666665, 252.25)" opacity="0" fill-opacity="1"><path d="M-4,0 A4,4 0 1,0 4,0 A4,4 0 1,0 -4,0z" fill="#2bafc2" stroke-opacity="1"></path></g><g data-id="11" data-datapoint-id="4" class="v-datapoint v-morphable-datapoint v-datapoint-default" transform="translate(170.93936666666667, 353.15000000000003)" opacity="0"><path d="M-4,0 A4,4 0 1,0 4,0 A4,4 0 1,0 -4,0z" fill="#73d2e0"></path></g></g></g></g><g class="v-datalabel-group"><g data-datapoint-id="9" class="v-datalabel v-morphable-label" fill="#333333" font-family="'Open Sans', Arial, Helvetica, sans-serif" font-size="12px" font-weight="normal" font-style="normal" cssString="fill:#333333;font-family:'Open Sans', Arial, Helvetica, sans-serif;font-size:12px;font-weight:normal;font-style:normal;" transform="translate(5.092123211263015,61.45000076293945)"><text>$21,569.00</text></g><g data-datapoint-id="10" class="v-datalabel v-morphable-label" fill="#333333" font-family="'Open Sans', Arial, Helvetica, sans-serif" font-size="12px" font-weight="normal" font-style="normal" cssString="fill:#333333;font-family:'Open Sans', Arial, Helvetica, sans-serif;font-size:12px;font-weight:normal;font-style:normal;" transform="translate(25.095154283854164,155.35000610351562)"><text>$33,523.00</text></g><g data-datapoint-id="11" class="v-datalabel v-morphable-label" fill="#333333" font-family="'Open Sans', Arial, Helvetica, sans-serif" font-size="12px" font-weight="normal" font-style="normal" cssString="fill:#333333;font-family:'Open Sans', Arial, Helvetica, sans-serif;font-size:12px;font-weight:normal;font-style:normal;" transform="translate(48.76830383496092,256.25)"><text>$47,670.30</text></g><g data-datapoint-id="12" class="v-datalabel v-morphable-label" fill="#333333" font-family="'Open Sans', Arial, Helvetica, sans-serif" font-size="12px" font-weight="normal" font-style="normal" cssString="fill:#333333;font-family:'Open Sans', Arial, Helvetica, sans-serif;font-size:12px;font-weight:normal;font-style:normal;"></g><g data-datapoint-id="5" class="v-datalabel v-morphable-label" fill="#333333" font-family="'Open Sans', Arial, Helvetica, sans-serif" font-size="12px" font-weight="normal" font-style="normal" cssString="fill:#333333;font-family:'Open Sans', Arial, Helvetica, sans-serif;font-size:12px;font-weight:normal;font-style:normal;" transform="translate(87.28057475651042,61.45000076293945)"><text>$27,547.60</text></g><g data-datapoint-id="6" class="v-datalabel v-morphable-label" fill="#333333" font-family="'Open Sans', Arial, Helvetica, sans-serif" font-size="12px" font-weight="normal" font-style="normal" cssString="fill:#333333;font-family:'Open Sans', Arial, Helvetica, sans-serif;font-size:12px;font-weight:normal;font-style:normal;" transform="translate(146.3365137174479,155.35000610351562)"><text>$38,932.00</text></g><g data-datapoint-id="7" class="v-datalabel v-morphable-label" fill="#333333" font-family="'Open Sans', Arial, Helvetica, sans-serif" font-size="12px" font-weight="normal" font-style="normal" cssString="fill:#333333;font-family:'Open Sans', Arial, Helvetica, sans-serif;font-size:12px;font-weight:normal;font-style:normal;" transform="translate(184.48784024739584,256.25)"><text>$33,437.00</text></g><g data-datapoint-id="8" class="v-datalabel v-morphable-label" fill="#333333" font-family="'Open Sans', Arial, Helvetica, sans-serif" font-size="12px" font-weight="normal" font-style="normal" cssString="fill:#333333;font-family:'Open Sans', Arial, Helvetica, sans-serif;font-size:12px;font-weight:normal;font-style:normal;" transform="translate(39.67072145052083,350.1499938964844)"><text>$25,097.30</text></g><g data-datapoint-id="1" class="v-datalabel v-morphable-label" fill="#333333" font-family="'Open Sans', Arial, Helvetica, sans-serif" font-size="12px" font-weight="normal" font-style="normal" cssString="fill:#333333;font-family:'Open Sans', Arial, Helvetica, sans-serif;font-size:12px;font-weight:normal;font-style:normal;" transform="translate(178.3656321171875,61.45000076293945)"><text>$26,885.70</text></g><g data-datapoint-id="2" class="v-datalabel v-morphable-label" fill="#333333" font-family="'Open Sans', Arial, Helvetica, sans-serif" font-size="12px" font-weight="normal" font-style="normal" cssString="fill:#333333;font-family:'Open Sans', Arial, Helvetica, sans-serif;font-size:12px;font-weight:normal;font-style:normal;" transform="translate(246.34344193098957,155.35000610351562)"><text>$20,833.10</text></g><g data-datapoint-id="3" class="v-datalabel v-morphable-label" fill="#333333" font-family="'Open Sans', Arial, Helvetica, sans-serif" font-size="12px" font-weight="normal" font-style="normal" cssString="fill:#333333;font-family:'Open Sans', Arial, Helvetica, sans-serif;font-size:12px;font-weight:normal;font-style:normal;" transform="translate(295.12629641341147,256.25)"><text>$32,681.60</text></g><g data-datapoint-id="4" class="v-datalabel v-morphable-label" fill="#333333" font-family="'Open Sans', Arial, Helvetica, sans-serif" font-size="12px" font-weight="normal" font-style="normal" cssString="fill:#333333;font-family:'Open Sans', Arial, Helvetica, sans-serif;font-size:12px;font-weight:normal;font-style:normal;"></g></g></g></g><g class="v-referenceline-group" clip-path="url(#plot_main_clipPath_637e4b5f-839e-4291-9a10-3ce869e1c12e)"></g></g><g class="v-m-categoryAxis v-m-yAxis" transform="translate(0, 0)"><rect class="v-bound" width="71.4" height="403.6" fill="transparent"></rect><g class="v-axis"><g class="v-m-axisTitle" transform="translate(5.329070518200751e-15,0)"><g class="v-title viz-axis-title" fill="#000000" font-size="12px" font-weight="normal" font-family="'Open Sans', Arial, Helvetica, sans-serif" font-style="normal"><text text-anchor="middle" dominant-baseline="auto" x="11.4" y="201.8" transform="rotate(-90,11.4,201.8)"><tspan class="v-title viz-axis-title" dominant-baseline="auto">Country</tspan></text></g></g><g class="v-m-axisBody" transform="translate(25.400000000000006,0)" clip-path="url(#clip-path-986f478d-806a-4014-b702-dca5d7050ae9)"><clipPath class="v-clippath" id="clip-path-986f478d-806a-4014-b702-dca5d7050ae9"><rect x="-1" y="-1" width="48" height="405.6"></rect></clipPath><g class="v-line-group"><line class="v-valueaxisline v-line" stroke="#babab9" stroke-width="1" shape-rendering="crispEdges" x1="46" y1="-0.5" x2="46" y2="404.1"></line></g><g class="v-label-group"><g class="v-label v-morphable-label viz-axis-label v-axis-item index_0" fill="#737373" font-size="11px" font-weight="normal" font-family="'Open Sans', Arial, Helvetica, sans-serif" font-style="normal" categorylabel-id="0" transform="translate(0,0)"><rect class="viz-axis-label-rect" fill="transparent" x="1" y="1" width="44" height="98.9"></rect><g class="v-axis-label-wrapper"><text x="40" y="55.050000000000004" text-anchor="end">China</text></g></g><g class="v-label v-morphable-label viz-axis-label v-axis-item index_0" fill="#737373" font-size="11px" font-weight="normal" font-family="'Open Sans', Arial, Helvetica, sans-serif" font-style="normal" categorylabel-id="1" transform="translate(0,100.9)"><rect class="viz-axis-label-rect" fill="transparent" x="1" y="1" width="44" height="98.9"></rect><g class="v-axis-label-wrapper"><text x="40" y="55.050000000000004" text-anchor="end">Japan</text></g></g><g class="v-label v-morphable-label viz-axis-label v-axis-item index_0" fill="#737373" font-size="11px" font-weight="normal" font-family="'Open Sans', Arial, Helvetica, sans-serif" font-style="normal" categorylabel-id="2" transform="translate(0,201.8)"><rect class="viz-axis-label-rect" fill="transparent" x="1" y="1" width="44" height="98.90000000000003"></rect><g class="v-axis-label-wrapper"><text x="40" y="55.05000000000002" text-anchor="end">France</text></g></g><g class="v-label v-morphable-label viz-axis-label v-axis-item index_0" fill="#737373" font-size="11px" font-weight="normal" font-family="'Open Sans', Arial, Helvetica, sans-serif" font-style="normal" categorylabel-id="3" transform="translate(0,302.7)"><rect class="viz-axis-label-rect" fill="transparent" x="1" y="1" width="44" height="98.89999999999998"></rect><g class="v-axis-label-wrapper"><text x="40" y="55.04999999999999" text-anchor="end">UK</text></g></g></g></g></g></g><g class="v-m-valueAxis v-m-xAxis" transform="translate(71.4, 403.6)"><rect class="v-bound" width="401.6" height="46.4" fill="transparent"></rect><g class="v-axis"><g class="v-m-axisScrollbar" transform="translate(0,0)"></g><g class="v-m-axisTitle" transform="translate(0,32)"><g class="v-title viz-axis-title" fill="#000000" font-size="12px" font-weight="normal" font-family="'Open Sans', Arial, Helvetica, sans-serif" font-style="normal"><text text-anchor="middle" dominant-baseline="auto" x="200.8" y="11.4"><tspan class="v-title viz-axis-title" dominant-baseline="auto">Profit</tspan></text></g></g><g class="v-m-axisBody" transform="translate(0,0)"><clipPath class="v-clippath-labels" id="clip-path-c50333f4-e8c8-4f89-96e4-99242e1307af"><rect x="-4" y="-1" width="429.1" height="25"></rect></clipPath><clipPath class="v-clippath-ticks" id="clip-path-b991defc-1d15-469f-8989-348722bf03f9"><rect x="-1" y="-1" width="403.6" height="25"></rect></clipPath><rect class="v-bound" width="401.6" height="23" fill="transparent"></rect><g clip-path="url(#clip-path-b991defc-1d15-469f-8989-348722bf03f9)"><g class="v-tick-group"><line class="v-valueaxisline v-tick" stroke="#878786" stroke-width="1" shape-rendering="crispEdges" x1="0" y1="0" x2="0" y2="5"></line><line class="v-valueaxisline v-tick" stroke="#878786" stroke-width="1" shape-rendering="crispEdges" x1="66.93333333" y1="0" x2="66.93333333" y2="5"></line><line class="v-valueaxisline v-tick" stroke="#878786" stroke-width="1" shape-rendering="crispEdges" x1="133.86666667" y1="0" x2="133.86666667" y2="5"></line><line class="v-valueaxisline v-tick" stroke="#878786" stroke-width="1" shape-rendering="crispEdges" x1="200.8" y1="0" x2="200.8" y2="5"></line><line class="v-valueaxisline v-tick" stroke="#878786" stroke-width="1" shape-rendering="crispEdges" x1="267.73333333" y1="0" x2="267.73333333" y2="5"></line><line class="v-valueaxisline v-tick" stroke="#878786" stroke-width="1" shape-rendering="crispEdges" x1="334.66666667" y1="0" x2="334.66666667" y2="5"></line><line class="v-valueaxisline v-tick" stroke="#878786" stroke-width="1" shape-rendering="crispEdges" x1="401.6" y1="0" x2="401.6" y2="5"></line></g></g><g clip-path="url(#clip-path-c50333f4-e8c8-4f89-96e4-99242e1307af)"><g class="v-label-group"><g class="v-label v-morphable-label viz-axis-label" fill="#737373" font-size="10px" font-weight="normal" font-family="'Open Sans', Arial, Helvetica, sans-serif" font-style="normal"><text text-anchor="middle" x="0" y="21"></text></g><g class="v-label v-morphable-label viz-axis-label" fill="#737373" font-size="10px" font-weight="normal" font-family="'Open Sans', Arial, Helvetica, sans-serif" font-style="normal"><text text-anchor="middle" x="66.93333333333335" y="21">20,000</text></g><g class="v-label v-morphable-label viz-axis-label" fill="#737373" font-size="10px" font-weight="normal" font-family="'Open Sans', Arial, Helvetica, sans-serif" font-style="normal"><text text-anchor="middle" x="133.8666666666667" y="21">40,000</text></g><g class="v-label v-morphable-label viz-axis-label" fill="#737373" font-size="10px" font-weight="normal" font-family="'Open Sans', Arial, Helvetica, sans-serif" font-style="normal"><text text-anchor="middle" x="200.8" y="21">60,000</text></g><g class="v-label v-morphable-label viz-axis-label" fill="#737373" font-size="10px" font-weight="normal" font-family="'Open Sans', Arial, Helvetica, sans-serif" font-style="normal"><text text-anchor="middle" x="267.7333333333334" y="21">80,000</text></g><g class="v-label v-morphable-label viz-axis-label" fill="#737373" font-size="10px" font-weight="normal" font-family="'Open Sans', Arial, Helvetica, sans-serif" font-style="normal"><text text-anchor="middle" x="334.6666666666667" y="21">100,000</text></g><g class="v-label v-morphable-label viz-axis-label" fill="#737373" font-size="10px" font-weight="normal" font-family="'Open Sans', Arial, Helvetica, sans-serif" font-style="normal"><text text-anchor="middle" x="401.6" y="21">120,000</text></g></g></g></g></g></g><g class="v-m-scrollbar" transform="translate(473, 0)"><g><rect class="v-m-scrollbarTrack" visibility="hidden" fill="#f7f7f7" stroke-width="0" stroke="white" width="12" height="403.6"></rect><rect class="v-m-scrollbarThumb" visibility="hidden" fill="#e5e5e5" width="12" height="403.6" transform="translate(0, 0)"></rect></g></g></g></svg>