<svg class="v-m-root" viewBox="0 0 600 500" width="600" height="500" xmlns="http://www.w3.org/2000/svg" style="left: 0px; top: 0px; direction: ltr; height: 100%; width: 100%; display: block; cursor: default;"><defs></defs><g class="v-m-action-layer-group"></g><g class="v-m-background"><rect class="v-background-body viz-plot-background v-morphable-background" x="0" y="0" width="600" height="500" style="fill:transparent"></rect></g><g class="v-m-title" transform="translate(147, 24)"></g><g class="v-m-legendGroup" transform="translate(508, 24)"><g class="v-m-legend" transform="translate(0,0)"><rect class="v-bound" width="68" height="36" fill="transparent"></rect><g class="v-content" transform="translate(0, 0)" font-size="12px" font-family="'Open Sans', Arial, Helvetica, sans-serif" font-weight="normal" fill="#000000" font-style="normal"><rect class="v-legend-body-bound" x="-5" fill="transparent" width="73" height="36"></rect><g class="v-groups v-label viz-legend-valueLabel" transform="translate(0, 0)"><g class="v-legend-element v-legend-item" transform="translate (-5,0)" legendlabel-id="0"><rect width="73" height="18" fill="transparent"></rect><path class="v-legend-marker" fill="#748cb2" stroke-width="0" stroke="transparent" opacity="1" stroke-opacity="undefined" d="M-6,0 A6,6 0 1,0 6,0 A6,6 0 1,0 -6,0z" transform="translate(11,9)"></path><text x="23" y="3" dy="0.85em">Revenue</text></g><g class="v-legend-element v-legend-item" transform="translate (-5,18)" legendlabel-id="1"><rect width="73" height="18" fill="transparent"></rect><path class="v-legend-marker" fill="#9cc677" stroke-width="0" stroke="transparent" opacity="1" stroke-opacity="undefined" d="M0,-6L-3,-6Q-6,-6 -6,-3L-6,3Q-6,6 -3,6L3,6Q6,6 6,3L6,-3Q6,-6 3,-6Z" transform="translate(11,9)"></path><text x="23" y="3" dy="0.85em">Cost</text></g></g></g></g></g><g class="v-m-main" transform="translate(24, 24)"><g class="v-m-plot" transform="translate(123, 0)"><rect class="v-background-body viz-plot-background v-morphable-background" x="0" y="0" width="326.92" height="414.6" style="fill:transparent"></rect><line class="v-background-border viz-plot-background-border" x1="0" y1="0" x2="0" y2="414.6" style="stroke: rgb(216, 216, 216); stroke-width: 1px;"></line><line class="v-background-border viz-plot-background-border" x1="326.92" y1="0" x2="326.92" y2="414.6" style="stroke: rgb(216, 216, 216); stroke-width: 1px;"></line><line class="v-background-border viz-plot-background-border" x1="0" y1="0" x2="326.92" y2="0" style="stroke: rgb(216, 216, 216); stroke-width: 1px;"></line><line class="v-background-border viz-plot-background-border" x1="0" y1="414.6" x2="326.92" y2="414.6" style="stroke: rgb(216, 216, 216); stroke-width: 1px;"></line><clipPath id="plot_main_clipPath_a007b6f5-19b8-4da1-8df4-c7d5434c5d06"><rect y="-1" width="327.92" height="415.6"></rect></clipPath><rect class="v-plot-bound v-bound v-zoom-plot" width="326.92" height="414.6" fill="transparent"></rect><g clip-path="url(#plot_main_clipPath_a007b6f5-19b8-4da1-8df4-c7d5434c5d06)"><g class="v-plot-main" transform="translate(0, 0)"><g class="v-gridline-group"><g class="v-gridline" stroke="#d8d8d8" stroke-width="1" shape-rendering="crispEdges"><line class="v-gridline-mainline" x1="0" y1="0" x2="0" y2="414.6"></line></g><g class="v-gridline" stroke="#d8d8d8" stroke-width="1" shape-rendering="crispEdges"><line class="v-gridline-mainline" x1="81.73" y1="0" x2="81.73" y2="414.6"></line></g><g class="v-gridline" stroke="#d8d8d8" stroke-width="1" shape-rendering="crispEdges"><line class="v-gridline-mainline" x1="163.46" y1="0" x2="163.46" y2="414.6"></line></g><g class="v-gridline" stroke="#d8d8d8" stroke-width="1" shape-rendering="crispEdges"><line class="v-gridline-mainline" x1="245.19" y1="0" x2="245.19" y2="414.6"></line></g><g class="v-gridline" stroke="#d8d8d8" stroke-width="1" shape-rendering="crispEdges"><line class="v-gridline-mainline" x1="326.92" y1="0" x2="326.92" y2="414.6"></line></g></g><g class="v-datapoint-group"><g><g data-id="10" data-datapoint-id="71" class="v-datapoint v-morphable-datapoint v-datapoint-default" combination-column="true" transform="translate(0, 10.365000000000002)"><rect width="7.7139650896" height="20.730000000000004" fill="#9cc677"></rect></g><g data-id="11" data-datapoint-id="72" class="v-datapoint v-morphable-datapoint v-datapoint-default" combination-column="true" transform="translate(0, 51.825)"><rect width="22.454105444099998" height="20.730000000000004" fill="#9cc677"></rect></g><g data-id="12" data-datapoint-id="73" class="v-datapoint v-morphable-datapoint v-datapoint-default" combination-column="true" transform="translate(0, 93.28500000000003)"><rect width="19.0562142034" height="20.730000000000008" fill="#9cc677"></rect></g><g data-id="13" data-datapoint-id="74" class="v-datapoint v-morphable-datapoint v-datapoint-default" combination-column="true" transform="translate(0, 134.74500000000003)"><rect width="19.2124500887" height="20.729999999999997" fill="#9cc677"></rect></g><g data-id="14" data-datapoint-id="75" class="v-datapoint v-morphable-datapoint v-datapoint-default" combination-column="true" transform="translate(0, 176.20500000000004)"><rect width="47.61125246680001" height="20.729999999999997" fill="#9cc677"></rect></g><g data-id="15" data-datapoint-id="76" class="v-datapoint v-morphable-datapoint v-datapoint-default" combination-column="true" transform="translate(0, 217.66500000000002)"><rect width="32.5246798921" height="20.729999999999997" fill="#9cc677"></rect></g><g data-id="16" data-datapoint-id="77" class="v-datapoint v-morphable-datapoint v-datapoint-default" combination-column="true" transform="translate(0, 259.12500000000006)"><rect width="28.0683091425" height="20.729999999999997" fill="#9cc677"></rect></g><g data-id="17" data-datapoint-id="78" class="v-datapoint v-morphable-datapoint v-datapoint-default" combination-column="true" transform="translate(0, 300.58500000000004)"><rect width="9.4679513698" height="20.729999999999997" fill="#9cc677"></rect></g><g data-id="18" data-datapoint-id="79" class="v-datapoint v-morphable-datapoint v-datapoint-default" combination-column="true" transform="translate(0, 342.0450000000001)"><rect width="21.509771687799997" height="20.729999999999997" fill="#9cc677"></rect></g><g data-id="19" data-datapoint-id="80" class="v-datapoint v-morphable-datapoint v-datapoint-default" combination-column="true" transform="translate(0, 383.50500000000005)"><rect width="49.990856560699996" height="20.729999999999997" fill="#9cc677"></rect></g></g><g><path d="M34.9979408449,20.730000000000004L140.7511854628,62.190000000000005L108.79707225362932,103.65000000000003L153.5270931986,145.11000000000004L276.7583710562,186.57000000000005L170.8182311781,228.03000000000003L157.98340265070001,269.49000000000007L61.5071505268,310.95000000000005L113.9375585018,352.4100000000001L270.3901274357131,393.87000000000006" fill="none" stroke-width="2" stroke="#748cb2" stroke-linejoin="round" stroke-dasharray="undefined" class="v-lines v-morphable-line" combination-line="true"></path><g data-id="0" data-datapoint-id="61" class="v-datapoint v-morphable-datapoint v-datapoint-default" combination-marker="true" transform="translate(34.9979408449, 20.730000000000004)"><path d="M-4,0 A4,4 0 1,0 4,0 A4,4 0 1,0 -4,0z" fill="#748cb2"></path></g><g data-id="1" data-datapoint-id="62" class="v-datapoint v-morphable-datapoint v-datapoint-default" combination-marker="true" transform="translate(140.7511854628, 62.190000000000005)"><path d="M-4,0 A4,4 0 1,0 4,0 A4,4 0 1,0 -4,0z" fill="#748cb2"></path></g><g data-id="2" data-datapoint-id="63" class="v-datapoint v-morphable-datapoint v-datapoint-default" combination-marker="true" transform="translate(108.79707225362932, 103.65000000000003)"><path d="M-4,0 A4,4 0 1,0 4,0 A4,4 0 1,0 -4,0z" fill="#748cb2"></path></g><g data-id="3" data-datapoint-id="64" class="v-datapoint v-morphable-datapoint v-datapoint-default" combination-marker="true" transform="translate(153.5270931986, 145.11000000000004)"><path d="M-4,0 A4,4 0 1,0 4,0 A4,4 0 1,0 -4,0z" fill="#748cb2"></path></g><g data-id="4" data-datapoint-id="65" class="v-datapoint v-morphable-datapoint v-datapoint-default" combination-marker="true" transform="translate(276.7583710562, 186.57000000000005)"><path d="M-4,0 A4,4 0 1,0 4,0 A4,4 0 1,0 -4,0z" fill="#748cb2"></path></g><g data-id="5" data-datapoint-id="66" class="v-datapoint v-morphable-datapoint v-datapoint-default" combination-marker="true" transform="translate(170.8182311781, 228.03000000000003)"><path d="M-4,0 A4,4 0 1,0 4,0 A4,4 0 1,0 -4,0z" fill="#748cb2"></path></g><g data-id="6" data-datapoint-id="67" class="v-datapoint v-morphable-datapoint v-datapoint-default" combination-marker="true" transform="translate(157.98340265070001, 269.49000000000007)"><path d="M-4,0 A4,4 0 1,0 4,0 A4,4 0 1,0 -4,0z" fill="#748cb2"></path></g><g data-id="7" data-datapoint-id="68" class="v-datapoint v-morphable-datapoint v-datapoint-default" combination-marker="true" transform="translate(61.5071505268, 310.95000000000005)"><path d="M-4,0 A4,4 0 1,0 4,0 A4,4 0 1,0 -4,0z" fill="#748cb2"></path></g><g data-id="8" data-datapoint-id="69" class="v-datapoint v-morphable-datapoint v-datapoint-default" combination-marker="true" transform="translate(113.9375585018, 352.4100000000001)"><path d="M-4,0 A4,4 0 1,0 4,0 A4,4 0 1,0 -4,0z" fill="#748cb2"></path></g><g data-id="9" data-datapoint-id="70" class="v-datapoint v-morphable-datapoint v-datapoint-default" combination-marker="true" transform="translate(270.3901274357131, 393.87000000000006)"><path d="M-4,0 A4,4 0 1,0 4,0 A4,4 0 1,0 -4,0z" fill="#748cb2"></path></g></g></g><g class="v-datalabel-group" fill="#333333" font-family="'Open Sans', Arial, Helvetica, sans-serif" font-size="12px" font-weight="normal" font-style="normal" cssString="fill:#333333;font-family:'Open Sans', Arial, Helvetica, sans-serif;font-size:12px;font-weight:normal;font-style:normal;"><g data-datapoint-id="72" class="v-datalabel v-morphable-label" transform="translate(28.454105377197266,66.19000053405762)" fill="#333333"><text>274735.17</text></g><g data-datapoint-id="73" class="v-datalabel v-morphable-label" transform="translate(25.05621337890625,107.65000343322754)" fill="#333333"><text>233160.58</text></g><g data-datapoint-id="74" class="v-datalabel v-morphable-label" transform="translate(25.21245002746582,149.10999488830566)" fill="#333333"><text>235072.19</text></g><g data-datapoint-id="75" class="v-datalabel v-morphable-label" transform="translate(53.61125183105469,190.57000160217285)" fill="#333333"><text>582543.16</text></g><g data-datapoint-id="76" class="v-datalabel v-morphable-label" transform="translate(38.524681091308594,232.02999305725098)" fill="#333333"><text>397952.77</text></g><g data-datapoint-id="77" class="v-datalabel v-morphable-label" transform="translate(34.06830978393555,273.48999977111816)" fill="#333333"><text>343427.25</text></g><g data-datapoint-id="79" class="v-datalabel v-morphable-label" transform="translate(27.5097713470459,356.41001319885254)" fill="#333333"><text>263180.86</text></g><g data-datapoint-id="80" class="v-datalabel v-morphable-label" transform="translate(55.9908561706543,397.87000465393066)" fill="#333333"><text>611658.59</text></g><g data-datapoint-id="61" class="v-datalabel v-morphable-label" transform="translate(38.99794006347656,24.729999542236328)" fill="#333333"><text>428214.13</text></g><g data-datapoint-id="62" class="v-datalabel v-morphable-label" transform="translate(144.75119018554688,66.18999862670898)" fill="#333333"><text>1722148.36</text></g><g data-datapoint-id="63" class="v-datalabel v-morphable-label" transform="translate(112.79707336425781,107.6500015258789)" fill="#333333"><text>1331176.706884</text></g><g data-datapoint-id="64" class="v-datalabel v-morphable-label" transform="translate(157.527099609375,149.11000061035156)" fill="#333333"><text>1878466.82</text></g><g data-datapoint-id="66" class="v-datalabel v-morphable-label" transform="translate(174.8182373046875,232.02999877929688)" fill="#333333"><text>2090030.97</text></g><g data-datapoint-id="67" class="v-datalabel v-morphable-label" transform="translate(161.9833984375,273.489990234375)" fill="#333333"><text>1932991.59</text></g><g data-datapoint-id="68" class="v-datalabel v-morphable-label" transform="translate(65.50714874267578,314.95001220703125)" fill="#333333"><text>752565.16</text></g><g data-datapoint-id="69" class="v-datalabel v-morphable-label" transform="translate(117.93756103515625,356.4100036621094)" fill="#333333"><text>1394072.66</text></g></g></g></g><g class="v-referenceline-group" clip-path="url(#plot_main_clipPath_a007b6f5-19b8-4da1-8df4-c7d5434c5d06)"></g></g><g class="v-m-categoryAxis v-m-yAxis" transform="translate(0, 0)"><rect class="v-bound" width="123" height="414.6" fill="transparent"></rect><g class="v-axis"><g class="v-m-axisTitle" transform="translate(0,0)"></g><g class="v-m-axisBody" transform="translate(0,0)" clip-path="url(#clip-path-5c8cf051-9c1d-461f-89cc-5beac2948afa)"><clipPath class="v-clippath" id="clip-path-5c8cf051-9c1d-461f-89cc-5beac2948afa"><rect x="-1" y="-1" width="125" height="416.6"></rect></clipPath><g class="v-tick-group"><line class="v-valueaxisline v-tick" stroke="#6c6c6c" stroke-width="1" shape-rendering="crispEdges" x1="123" y1="0" x2="118" y2="0"></line><line class="v-valueaxisline v-tick" stroke="#6c6c6c" stroke-width="1" shape-rendering="crispEdges" x1="123" y1="41.46" x2="118" y2="41.46"></line><line class="v-valueaxisline v-tick" stroke="#6c6c6c" stroke-width="1" shape-rendering="crispEdges" x1="123" y1="82.92" x2="118" y2="82.92"></line><line class="v-valueaxisline v-tick" stroke="#6c6c6c" stroke-width="1" shape-rendering="crispEdges" x1="123" y1="124.38" x2="118" y2="124.38"></line><line class="v-valueaxisline v-tick" stroke="#6c6c6c" stroke-width="1" shape-rendering="crispEdges" x1="123" y1="165.84" x2="118" y2="165.84"></line><line class="v-valueaxisline v-tick" stroke="#6c6c6c" stroke-width="1" shape-rendering="crispEdges" x1="123" y1="207.3" x2="118" y2="207.3"></line><line class="v-valueaxisline v-tick" stroke="#6c6c6c" stroke-width="1" shape-rendering="crispEdges" x1="123" y1="248.76" x2="118" y2="248.76"></line><line class="v-valueaxisline v-tick" stroke="#6c6c6c" stroke-width="1" shape-rendering="crispEdges" x1="123" y1="290.22" x2="118" y2="290.22"></line><line class="v-valueaxisline v-tick" stroke="#6c6c6c" stroke-width="1" shape-rendering="crispEdges" x1="123" y1="331.68" x2="118" y2="331.68"></line><line class="v-valueaxisline v-tick" stroke="#6c6c6c" stroke-width="1" shape-rendering="crispEdges" x1="123" y1="373.14" x2="118" y2="373.14"></line><line class="v-valueaxisline v-tick" stroke="#6c6c6c" stroke-width="1" shape-rendering="crispEdges" x1="123" y1="414.6" x2="118" y2="414.6"></line></g><g class="v-line-group"><line class="v-valueaxisline v-line" stroke="#6c6c6c" stroke-width="1" shape-rendering="crispEdges" x1="123" y1="-0.5" x2="123" y2="415.1"></line></g><g class="v-label-group"><g class="v-label v-morphable-label viz-axis-label v-axis-item index_0" fill="#333333" font-size="12px" font-weight="normal" font-family="'Open Sans', Arial, Helvetica, sans-serif" font-style="normal" categorylabel-id="0" transform="translate(0,0)"><rect class="viz-axis-label-rect" fill="transparent" x="1" y="1" width="121" height="39.46"></rect><g class="v-axis-label-wrapper"><text x="117" y="24.93" text-anchor="end">24-Seven</text></g></g><g class="v-label v-morphable-label viz-axis-label v-axis-item index_0" fill="#333333" font-size="12px" font-weight="normal" font-family="'Open Sans', Arial, Helvetica, sans-serif" font-style="normal" categorylabel-id="1" transform="translate(0,41.46)"><rect class="viz-axis-label-rect" fill="transparent" x="1" y="1" width="121" height="39.46"></rect><g class="v-axis-label-wrapper"><text x="117" y="24.93" text-anchor="end">A&amp;A</text></g></g><g class="v-label v-morphable-label viz-axis-label v-axis-item index_0" fill="#333333" font-size="12px" font-weight="normal" font-family="'Open Sans', Arial, Helvetica, sans-serif" font-style="normal" categorylabel-id="2" transform="translate(0,82.92)"><rect class="viz-axis-label-rect" fill="transparent" x="1" y="1" width="121" height="39.459999999999994"></rect><g class="v-axis-label-wrapper"><text x="117" y="24.929999999999996" text-anchor="end">Alexei's Specialities</text></g></g><g class="v-label v-morphable-label viz-axis-label v-axis-item index_0" fill="#333333" font-size="12px" font-weight="normal" font-family="'Open Sans', Arial, Helvetica, sans-serif" font-style="normal" categorylabel-id="3" transform="translate(0,124.38)"><rect class="viz-axis-label-rect" fill="transparent" x="1" y="1" width="121" height="39.46000000000001"></rect><g class="v-axis-label-wrapper"><text x="117" y="24.930000000000003" text-anchor="end">BC Market</text></g></g><g class="v-label v-morphable-label viz-axis-label v-axis-item index_0" fill="#333333" font-size="12px" font-weight="normal" font-family="'Open Sans', Arial, Helvetica, sans-serif" font-style="normal" categorylabel-id="4" transform="translate(0,165.84)"><rect class="viz-axis-label-rect" fill="transparent" x="1" y="1" width="121" height="39.46000000000001"></rect><g class="v-axis-label-wrapper"><text x="117" y="24.930000000000003" text-anchor="end">Choices Franchise 1</text></g></g><g class="v-label v-morphable-label viz-axis-label v-axis-item index_0" fill="#333333" font-size="12px" font-weight="normal" font-family="'Open Sans', Arial, Helvetica, sans-serif" font-style="normal" categorylabel-id="5" transform="translate(0,207.3)"><rect class="viz-axis-label-rect" fill="transparent" x="1" y="1" width="121" height="39.45999999999998"></rect><g class="v-axis-label-wrapper"><text x="117" y="24.92999999999999" text-anchor="end">Choices Franchise 3</text></g></g><g class="v-label v-morphable-label viz-axis-label v-axis-item index_0" fill="#333333" font-size="12px" font-weight="normal" font-family="'Open Sans', Arial, Helvetica, sans-serif" font-style="normal" categorylabel-id="6" transform="translate(0,248.76)"><rect class="viz-axis-label-rect" fill="transparent" x="1" y="1" width="121" height="39.460000000000036"></rect><g class="v-axis-label-wrapper"><text x="117" y="24.930000000000017" text-anchor="end">Choices Franchise 6</text></g></g><g class="v-label v-morphable-label viz-axis-label v-axis-item index_0" fill="#333333" font-size="12px" font-weight="normal" font-family="'Open Sans', Arial, Helvetica, sans-serif" font-style="normal" categorylabel-id="7" transform="translate(0,290.22)"><rect class="viz-axis-label-rect" fill="transparent" x="1" y="1" width="121" height="39.45999999999998"></rect><g class="v-axis-label-wrapper"><text x="117" y="24.92999999999999" text-anchor="end">Dairy World</text></g></g><g class="v-label v-morphable-label viz-axis-label v-axis-item index_0" fill="#333333" font-size="12px" font-weight="normal" font-family="'Open Sans', Arial, Helvetica, sans-serif" font-style="normal" categorylabel-id="8" transform="translate(0,331.68)"><rect class="viz-axis-label-rect" fill="transparent" x="1" y="1" width="121" height="39.45999999999998"></rect><g class="v-axis-label-wrapper"><text x="117" y="24.92999999999999" text-anchor="end">Delikatessen</text></g></g><g class="v-label v-morphable-label viz-axis-label v-axis-item index_0" fill="#333333" font-size="12px" font-weight="normal" font-family="'Open Sans', Arial, Helvetica, sans-serif" font-style="normal" categorylabel-id="9" transform="translate(0,373.14)"><rect class="viz-axis-label-rect" fill="transparent" x="1" y="1" width="121" height="39.460000000000036"></rect><g class="v-axis-label-wrapper"><text x="117" y="24.930000000000017" text-anchor="end">Donald's Market</text></g></g></g></g></g></g><g class="v-m-valueAxis v-m-xAxis" transform="translate(123, 414.6)"><rect class="v-bound" width="326.92" height="37.4" fill="transparent"></rect><g class="v-axis"><g class="v-m-axisScrollbar" transform="translate(0,25.4)"><g><rect class="v-m-scrollbarTrack" visibility="hidden" fill="#f7f7f7" stroke-width="0" stroke="white" width="326.92" height="12"></rect><rect class="v-m-scrollbarThumb" visibility="hidden" fill="#e5e5e5" width="326.92" height="12" transform="translate(0, 0)"></rect></g></g><g class="v-m-axisTitle" transform="translate(0,0)"></g><g class="v-m-axisBody" transform="translate(0,0)"><clipPath class="v-clippath-labels" id="clip-path-aefce78d-6c6c-48d5-a3dd-af32282cf699"><rect x="-7.5" y="-1" width="362.92" height="27.4"></rect></clipPath><clipPath class="v-clippath-ticks" id="clip-path-ea49e331-ee0a-4562-9fa4-4ae9e51b067c"><rect x="-1" y="-1" width="328.92" height="27.4"></rect></clipPath><rect class="v-bound" width="326.92" height="25.4" fill="transparent"></rect><g class="v-line-group"><line class="v-valueaxisline v-line" stroke="#6c6c6c" stroke-width="1" shape-rendering="crispEdges" x1="-0.5" y1="0" x2="327.42" y2="0"></line></g><g clip-path="url(#clip-path-ea49e331-ee0a-4562-9fa4-4ae9e51b067c)"><g class="v-tick-group"><line class="v-valueaxisline v-tick" stroke="#6c6c6c" stroke-width="1" shape-rendering="crispEdges" x1="0" y1="0" x2="0" y2="5"></line><line class="v-valueaxisline v-tick" stroke="#6c6c6c" stroke-width="1" shape-rendering="crispEdges" x1="81.73" y1="0" x2="81.73" y2="5"></line><line class="v-valueaxisline v-tick" stroke="#6c6c6c" stroke-width="1" shape-rendering="crispEdges" x1="163.46" y1="0" x2="163.46" y2="5"></line><line class="v-valueaxisline v-tick" stroke="#6c6c6c" stroke-width="1" shape-rendering="crispEdges" x1="245.19" y1="0" x2="245.19" y2="5"></line><line class="v-valueaxisline v-tick" stroke="#6c6c6c" stroke-width="1" shape-rendering="crispEdges" x1="326.92" y1="0" x2="326.92" y2="5"></line></g></g><g clip-path="url(#clip-path-aefce78d-6c6c-48d5-a3dd-af32282cf699)"><g class="v-label-group"><g class="v-label v-morphable-label viz-axis-label" fill="#333333" font-size="12px" font-weight="normal" font-family="'Open Sans', Arial, Helvetica, sans-serif" font-style="normal"><text text-anchor="middle" x="0" y="22.4">0</text></g><g class="v-label v-morphable-label viz-axis-label" fill="#333333" font-size="12px" font-weight="normal" font-family="'Open Sans', Arial, Helvetica, sans-serif" font-style="normal"><text text-anchor="middle" x="81.73" y="22.4">1000000</text></g><g class="v-label v-morphable-label viz-axis-label" fill="#333333" font-size="12px" font-weight="normal" font-family="'Open Sans', Arial, Helvetica, sans-serif" font-style="normal"><text text-anchor="middle" x="163.46" y="22.4">2000000</text></g><g class="v-label v-morphable-label viz-axis-label" fill="#333333" font-size="12px" font-weight="normal" font-family="'Open Sans', Arial, Helvetica, sans-serif" font-style="normal"><text text-anchor="middle" x="245.19" y="22.4">3000000</text></g><g class="v-label v-morphable-label viz-axis-label" fill="#333333" font-size="12px" font-weight="normal" font-family="'Open Sans', Arial, Helvetica, sans-serif" font-style="normal"><text text-anchor="middle" x="326.92" y="22.4">4000000</text></g></g></g></g></g></g><g class="v-m-scrollbar" transform="translate(449.92, 0)"><g><rect class="v-m-scrollbarTrack" visibility="hidden" fill="#f7f7f7" stroke-width="0" stroke="white" width="12" height="414.6"></rect><rect class="v-m-scrollbarThumb" visibility="hidden" fill="#e5e5e5" width="12" height="414.6000000000001" transform="translate(0, 0)"></rect></g></g></g></svg>