<svg class="v-m-root" viewBox="0 0 600 500" width="600" height="500" xmlns="http://www.w3.org/2000/svg" style="left: 0px; top: 0px; direction: ltr; height: 100%; width: 100%; display: block; cursor: default;"><defs></defs><g class="v-m-action-layer-group"></g><g class="v-m-background"><rect class="v-background-body viz-plot-background v-morphable-background" x="0" y="0" width="600" height="500" style="fill:transparent"></rect></g><g class="v-m-title" transform="translate(84, 24)"></g><g class="v-m-legendGroup" transform="translate(485, 24)"><g class="v-m-legend" transform="translate(0,0)"><rect class="v-bound" width="91" height="54" fill="transparent"></rect><g class="v-content" transform="translate(0, 0)" font-size="12px" font-family="'Open Sans', Arial, Helvetica, sans-serif" font-weight="normal" fill="#000000" font-style="normal"><rect class="v-legend-body-bound" x="-5" fill="transparent" width="96" height="54"></rect><g class="v-groups v-label viz-legend-valueLabel" transform="translate(0, 0)"><g class="v-legend-element v-legend-item" transform="translate (-5,0)" legendlabel-id="0"><rect width="96" height="18" fill="transparent"></rect><path class="v-legend-marker" fill="#748cb2" stroke-width="0" stroke="transparent" opacity="1" stroke-opacity="undefined" d="M-6,0 A6,6 0 1,0 6,0 A6,6 0 1,0 -6,0z" transform="translate(11,9)"></path><text x="23" y="3" dy="0.85em">Revenue</text></g><g class="v-legend-element v-legend-item" transform="translate (-5,18)" legendlabel-id="1"><rect width="96" height="18" fill="transparent"></rect><path class="v-legend-marker" fill="#9cc677" stroke-width="0" stroke="transparent" opacity="1" stroke-opacity="undefined" d="M0,-6L-3,-6Q-6,-6 -6,-3L-6,3Q-6,6 -3,6L3,6Q6,6 6,3L6,-3Q6,-6 3,-6Z" transform="translate(11,9)"></path><text x="23" y="3" dy="0.85em">Cost</text></g><g class="v-legend-element v-legend-item" transform="translate (-5,36)" legendlabel-id="2"><rect width="96" height="18" fill="transparent"></rect><path class="v-legend-marker" fill="#eacf5e" stroke-width="0" stroke="transparent" opacity="1" stroke-opacity="undefined" d="M0,-6L-3,-6Q-6,-6 -6,-3L-6,3Q-6,6 -3,6L3,6Q6,6 6,3L6,-3Q6,-6 3,-6Z" transform="translate(11,9)"></path><text x="23" y="3" dy="0.85em">Consumption</text></g></g></g></g></g><g class="v-m-main" transform="translate(24, 24)"><g class="v-m-plot" transform="translate(60, 0)"><rect class="v-background-body viz-plot-background v-morphable-background" x="0" y="0" width="366.92" height="317" style="fill:transparent"></rect><line class="v-background-border viz-plot-background-border" x1="0" y1="0" x2="0" y2="317" style="stroke: rgb(216, 216, 216); stroke-width: 1px;"></line><line class="v-background-border viz-plot-background-border" x1="366.92" y1="0" x2="366.92" y2="317" style="stroke: rgb(216, 216, 216); stroke-width: 1px;"></line><line class="v-background-border viz-plot-background-border" x1="0" y1="0" x2="366.92" y2="0" style="stroke: rgb(216, 216, 216); stroke-width: 1px;"></line><line class="v-background-border viz-plot-background-border" x1="0" y1="317" x2="366.92" y2="317" style="stroke: rgb(216, 216, 216); stroke-width: 1px;"></line><clipPath id="plot_main_clipPath_fcf9817b-5683-4708-8430-09c9de8e0c21"><rect y="-1" width="367.92" height="318"></rect></clipPath><rect class="v-plot-bound v-bound v-zoom-plot" width="366.92" height="317" fill="transparent"></rect><g clip-path="url(#plot_main_clipPath_fcf9817b-5683-4708-8430-09c9de8e0c21)"><g class="v-plot-main" transform="translate(0, 0)"><g class="v-gridline-group"><g class="v-gridline" stroke="#d8d8d8" stroke-width="1" shape-rendering="crispEdges"><line class="v-gridline-mainline" x1="0" y1="317" x2="366.92" y2="317"></line></g><g class="v-gridline" stroke="#d8d8d8" stroke-width="1" shape-rendering="crispEdges"><line class="v-gridline-mainline" x1="0" y1="237.75" x2="366.92" y2="237.75"></line></g><g class="v-gridline" stroke="#d8d8d8" stroke-width="1" shape-rendering="crispEdges"><line class="v-gridline-mainline" x1="0" y1="158.5" x2="366.92" y2="158.5"></line></g><g class="v-gridline" stroke="#d8d8d8" stroke-width="1" shape-rendering="crispEdges"><line class="v-gridline-mainline" x1="0" y1="79.25" x2="366.92" y2="79.25"></line></g><g class="v-gridline" stroke="#d8d8d8" stroke-width="1" shape-rendering="crispEdges"><line class="v-gridline-mainline" x1="0" y1="0" x2="366.92" y2="0"></line></g></g><g class="v-datapoint-group"><g class="v-stack"><g data-id="0" data-datapoint-id="111" class="v-datapoint v-morphable-datapoint v-datapoint-default" transform="translate(9.173, 310.90922907086)" combination-column="true"><rect width="18.346" height="6.09077092914" fill="#eacf5e" shape-rendering="crispEdges"></rect></g><g data-id="10" data-datapoint-id="101" class="v-datapoint v-morphable-datapoint v-datapoint-default" transform="translate(9.173, 303.42933511086)" combination-column="true"><rect width="18.346" height="7.479893960000001" fill="#9cc677" shape-rendering="crispEdges"></rect></g></g><g class="v-stack"><g data-id="1" data-datapoint-id="112" class="v-datapoint v-morphable-datapoint v-datapoint-default" transform="translate(45.865, 292.409341565)" combination-column="true"><rect width="18.346" height="24.590658434999995" fill="#eacf5e" shape-rendering="crispEdges"></rect></g><g data-id="11" data-datapoint-id="102" class="v-datapoint v-morphable-datapoint v-datapoint-default" transform="translate(45.865, 270.6365793425)" combination-column="true"><rect width="18.346" height="21.7727622225" fill="#9cc677" shape-rendering="crispEdges"></rect></g></g><g class="v-stack"><g data-id="2" data-datapoint-id="113" class="v-datapoint v-morphable-datapoint v-datapoint-default" transform="translate(82.55700000000002, 305.632999735)" combination-column="true"><rect width="18.346000000000007" height="11.367000265" fill="#eacf5e" shape-rendering="crispEdges"></rect></g><g data-id="12" data-datapoint-id="103" class="v-datapoint v-morphable-datapoint v-datapoint-default" transform="translate(82.55700000000002, 287.15502377)" combination-column="true"><rect width="18.346000000000007" height="18.477975965" fill="#9cc677" shape-rendering="crispEdges"></rect></g></g><g class="v-stack"><g data-id="3" data-datapoint-id="114" class="v-datapoint v-morphable-datapoint v-datapoint-default" transform="translate(119.24900000000002, 278.333111895)" combination-column="true"><rect width="18.345999999999997" height="38.666888105" fill="#eacf5e" shape-rendering="crispEdges"></rect></g><g data-id="13" data-datapoint-id="104" class="v-datapoint v-morphable-datapoint v-datapoint-default" transform="translate(119.24900000000002, 259.7036408375)" combination-column="true"><rect width="18.345999999999997" height="18.629471057499998" fill="#9cc677" shape-rendering="crispEdges"></rect></g></g><g class="v-stack"><g data-id="4" data-datapoint-id="115" class="v-datapoint v-morphable-datapoint v-datapoint-default" transform="translate(155.94100000000003, 295.8255673525)" combination-column="true"><rect width="18.345999999999997" height="21.1744326475" fill="#eacf5e" shape-rendering="crispEdges"></rect></g><g data-id="14" data-datapoint-id="105" class="v-datapoint v-morphable-datapoint v-datapoint-default" transform="translate(155.94100000000003, 249.65902192250002)" combination-column="true"><rect width="18.345999999999997" height="46.16654543" fill="#9cc677" shape-rendering="crispEdges"></rect></g></g><g class="v-stack"><g data-id="5" data-datapoint-id="116" class="v-datapoint v-morphable-datapoint v-datapoint-default" transform="translate(192.633, 292.8315328152094)" combination-column="true"><rect width="18.345999999999997" height="24.168467184790625" fill="#eacf5e" shape-rendering="crispEdges"></rect></g><g data-id="15" data-datapoint-id="106" class="v-datapoint v-morphable-datapoint v-datapoint-default" transform="translate(192.633, 261.29377579270937)" combination-column="true"><rect width="18.345999999999997" height="31.537757022499996" fill="#9cc677" shape-rendering="crispEdges"></rect></g></g><g class="v-stack"><g data-id="6" data-datapoint-id="117" class="v-datapoint v-morphable-datapoint v-datapoint-default" transform="translate(229.32500000000005, 293.9230474725)" combination-column="true"><rect width="18.345999999999997" height="23.076952527499998" fill="#eacf5e" shape-rendering="crispEdges"></rect></g><g data-id="16" data-datapoint-id="107" class="v-datapoint v-morphable-datapoint v-datapoint-default" transform="translate(229.32500000000005, 266.70643791)" combination-column="true"><rect width="18.345999999999997" height="27.2166095625" fill="#9cc677" shape-rendering="crispEdges"></rect></g></g><g class="v-stack"><g data-id="7" data-datapoint-id="118" class="v-datapoint v-morphable-datapoint v-datapoint-default" transform="translate(266.01700000000005, 309.2121849366108)" combination-column="true"><rect width="18.345999999999997" height="7.7878150633892" fill="#eacf5e" shape-rendering="crispEdges"></rect></g><g data-id="17" data-datapoint-id="108" class="v-datapoint v-morphable-datapoint v-datapoint-default" transform="translate(266.01700000000005, 300.0315273316108)" combination-column="true"><rect width="18.345999999999997" height="9.180657604999999" fill="#9cc677" shape-rendering="crispEdges"></rect></g></g><g class="v-stack"><g data-id="8" data-datapoint-id="119" class="v-datapoint v-morphable-datapoint v-datapoint-default" transform="translate(302.70900000000006, 303.01217274430775)" combination-column="true"><rect width="18.345999999999997" height="13.987827255692274" fill="#eacf5e" shape-rendering="crispEdges"></rect></g><g data-id="18" data-datapoint-id="109" class="v-datapoint v-morphable-datapoint v-datapoint-default" transform="translate(302.70900000000006, 282.15508958930775)" combination-column="true"><rect width="18.345999999999997" height="20.857083155" fill="#9cc677" shape-rendering="crispEdges"></rect></g></g><g class="v-stack"><g data-id="9" data-datapoint-id="120" class="v-datapoint v-morphable-datapoint v-datapoint-default" transform="translate(339.401, 274.3226485009806)" combination-column="true"><rect width="18.345999999999997" height="42.67735149901936" fill="#eacf5e" shape-rendering="crispEdges"></rect></g><g data-id="19" data-datapoint-id="110" class="v-datapoint v-morphable-datapoint v-datapoint-default" transform="translate(339.401, 225.84870524348065)" combination-column="true"><rect width="18.345999999999997" height="48.4739432575" fill="#9cc677" shape-rendering="crispEdges"></rect></g></g><g><path d="M18.346,283.0640301975L55.038000000000004,180.51974246999998L91.73000000000002,211.504245979443L128.42200000000003,168.13150451500002L165.11400000000003,48.63953375500002L201.806,151.3650456275L238.49800000000005,163.81041649249997L275.19000000000005,257.35921107L311.88200000000006,206.519741695L348.574,54.814540569188004" fill="none" stroke-width="2" stroke="#748cb2" stroke-linejoin="round" stroke-dasharray="undefined" class="v-lines v-morphable-line" combination-line="true"></path><g data-id="20" data-datapoint-id="91" class="v-datapoint v-morphable-datapoint v-datapoint-default" transform="translate(18.346, 283.0640301975)" combination-marker="true"><path d="M-4,0 A4,4 0 1,0 4,0 A4,4 0 1,0 -4,0z" fill="#748cb2"></path></g><g data-id="21" data-datapoint-id="92" class="v-datapoint v-morphable-datapoint v-datapoint-default" transform="translate(55.038000000000004, 180.51974246999998)" combination-marker="true"><path d="M-4,0 A4,4 0 1,0 4,0 A4,4 0 1,0 -4,0z" fill="#748cb2"></path></g><g data-id="22" data-datapoint-id="93" class="v-datapoint v-morphable-datapoint v-datapoint-default" transform="translate(91.73000000000002, 211.504245979443)" combination-marker="true"><path d="M-4,0 A4,4 0 1,0 4,0 A4,4 0 1,0 -4,0z" fill="#748cb2"></path></g><g data-id="23" data-datapoint-id="94" class="v-datapoint v-morphable-datapoint v-datapoint-default" transform="translate(128.42200000000003, 168.13150451500002)" combination-marker="true"><path d="M-4,0 A4,4 0 1,0 4,0 A4,4 0 1,0 -4,0z" fill="#748cb2"></path></g><g data-id="24" data-datapoint-id="95" class="v-datapoint v-morphable-datapoint v-datapoint-default" transform="translate(165.11400000000003, 48.63953375500002)" combination-marker="true"><path d="M-4,0 A4,4 0 1,0 4,0 A4,4 0 1,0 -4,0z" fill="#748cb2"></path></g><g data-id="25" data-datapoint-id="96" class="v-datapoint v-morphable-datapoint v-datapoint-default" transform="translate(201.806, 151.3650456275)" combination-marker="true"><path d="M-4,0 A4,4 0 1,0 4,0 A4,4 0 1,0 -4,0z" fill="#748cb2"></path></g><g data-id="26" data-datapoint-id="97" class="v-datapoint v-morphable-datapoint v-datapoint-default" transform="translate(238.49800000000005, 163.81041649249997)" combination-marker="true"><path d="M-4,0 A4,4 0 1,0 4,0 A4,4 0 1,0 -4,0z" fill="#748cb2"></path></g><g data-id="27" data-datapoint-id="98" class="v-datapoint v-morphable-datapoint v-datapoint-default" transform="translate(275.19000000000005, 257.35921107)" combination-marker="true"><path d="M-4,0 A4,4 0 1,0 4,0 A4,4 0 1,0 -4,0z" fill="#748cb2"></path></g><g data-id="28" data-datapoint-id="99" class="v-datapoint v-morphable-datapoint v-datapoint-default" transform="translate(311.88200000000006, 206.519741695)" combination-marker="true"><path d="M-4,0 A4,4 0 1,0 4,0 A4,4 0 1,0 -4,0z" fill="#748cb2"></path></g><g data-id="29" data-datapoint-id="100" class="v-datapoint v-morphable-datapoint v-datapoint-default" transform="translate(348.574, 54.814540569188004)" combination-marker="true"><path d="M-4,0 A4,4 0 1,0 4,0 A4,4 0 1,0 -4,0z" fill="#748cb2"></path></g></g></g><g class="v-datalabel-group" fill="#333333" font-family="'Open Sans', Arial, Helvetica, sans-serif" font-size="12px" font-weight="normal" font-style="normal" cssString="fill:#333333;font-family:'Open Sans', Arial, Helvetica, sans-serif;font-size:12px;font-weight:normal;font-style:normal;"><g data-datapoint-id="93" class="v-datalabel v-morphable-label" transform="translate(44.730003356933594,226.50424194335938)" fill="#333333"><text>1331176.706884</text></g><g data-datapoint-id="94" class="v-datalabel v-morphable-label" transform="translate(61.57146791046108,161.13150024414062)" fill="#333333"><text>1878466.82</text></g><g data-datapoint-id="95" class="v-datalabel v-morphable-label" transform="translate(132.11399841308594,41.63953399658203)" fill="#333333"><text>3386251.94</text></g><g data-datapoint-id="97" class="v-datalabel v-morphable-label" transform="translate(220.86026588417508,156.81040954589844)" fill="#333333"><text>1932991.59</text></g><g data-datapoint-id="99" class="v-datalabel v-morphable-label" transform="translate(244.57504599634723,199.51974487304688)" fill="#333333"><text>1394072.66</text></g></g></g></g><g class="v-referenceline-group" clip-path="url(#plot_main_clipPath_fcf9817b-5683-4708-8430-09c9de8e0c21)"></g></g><g class="v-m-categoryAxis v-m-xAxis" transform="translate(60, 317)"><rect class="v-bound" width="366.92" height="135" fill="transparent"></rect><g class="v-axis"><g class="v-m-axisScrollbar" transform="translate(0,123)"><g><rect class="v-m-scrollbarTrack" visibility="hidden" fill="#f7f7f7" stroke-width="0" stroke="white" width="366.92" height="12"></rect><rect class="v-m-scrollbarThumb" visibility="hidden" fill="#e5e5e5" width="366.92" height="12" transform="translate(0, 0)"></rect></g></g><g class="v-m-axisTitle" transform="translate(0,0)"></g><g class="v-m-axisBody" transform="translate(0,0)" clip-path="url(#clip-path-1b1bcd21-f3f6-47bc-b679-4ae5343d2dbd)"><clipPath class="v-clippath" id="clip-path-1b1bcd21-f3f6-47bc-b679-4ae5343d2dbd"><rect x="-1" y="-1" width="368.92" height="125"></rect></clipPath><g class="v-tick-group"><line class="v-valueaxisline v-tick" stroke="#6c6c6c" stroke-width="1" shape-rendering="crispEdges" x1="0" y1="0" x2="0" y2="5"></line><line class="v-valueaxisline v-tick" stroke="#6c6c6c" stroke-width="1" shape-rendering="crispEdges" x1="36.692" y1="0" x2="36.692" y2="5"></line><line class="v-valueaxisline v-tick" stroke="#6c6c6c" stroke-width="1" shape-rendering="crispEdges" x1="73.384" y1="0" x2="73.384" y2="5"></line><line class="v-valueaxisline v-tick" stroke="#6c6c6c" stroke-width="1" shape-rendering="crispEdges" x1="110.076" y1="0" x2="110.076" y2="5"></line><line class="v-valueaxisline v-tick" stroke="#6c6c6c" stroke-width="1" shape-rendering="crispEdges" x1="146.768" y1="0" x2="146.768" y2="5"></line><line class="v-valueaxisline v-tick" stroke="#6c6c6c" stroke-width="1" shape-rendering="crispEdges" x1="183.46" y1="0" x2="183.46" y2="5"></line><line class="v-valueaxisline v-tick" stroke="#6c6c6c" stroke-width="1" shape-rendering="crispEdges" x1="220.152" y1="0" x2="220.152" y2="5"></line><line class="v-valueaxisline v-tick" stroke="#6c6c6c" stroke-width="1" shape-rendering="crispEdges" x1="256.844" y1="0" x2="256.844" y2="5"></line><line class="v-valueaxisline v-tick" stroke="#6c6c6c" stroke-width="1" shape-rendering="crispEdges" x1="293.536" y1="0" x2="293.536" y2="5"></line><line class="v-valueaxisline v-tick" stroke="#6c6c6c" stroke-width="1" shape-rendering="crispEdges" x1="330.228" y1="0" x2="330.228" y2="5"></line><line class="v-valueaxisline v-tick" stroke="#6c6c6c" stroke-width="1" shape-rendering="crispEdges" x1="366.92" y1="0" x2="366.92" y2="5"></line></g><g class="v-line-group"><line class="v-valueaxisline v-line" stroke="#6c6c6c" stroke-width="1" shape-rendering="crispEdges" x1="-0.5" y1="0" x2="367.42" y2="0"></line></g><g class="v-label-group"><g class="v-label v-morphable-label viz-axis-label v-axis-item index_0" fill="#333333" font-size="12px" font-weight="normal" font-family="'Open Sans', Arial, Helvetica, sans-serif" font-style="normal" categorylabel-id="0" transform="translate(0,0)"><rect class="viz-axis-label-rect" fill="transparent" x="1" y="1" width="34.692" height="121"></rect><g class="v-axis-label-wrapper"><text x="22.546" y="6" text-anchor="end" transform="translate(0,6.17221986770266e-16) rotate(-90,22.546,6)">24-Seven</text></g></g><g class="v-label v-morphable-label viz-axis-label v-axis-item index_0" fill="#333333" font-size="12px" font-weight="normal" font-family="'Open Sans', Arial, Helvetica, sans-serif" font-style="normal" categorylabel-id="1" transform="translate(36.692,0)"><rect class="viz-axis-label-rect" fill="transparent" x="1" y="1" width="34.692" height="121"></rect><g class="v-axis-label-wrapper"><text x="22.546" y="6" text-anchor="end" transform="translate(0,6.17221986770266e-16) rotate(-90,22.546,6)">A&amp;A</text></g></g><g class="v-label v-morphable-label viz-axis-label v-axis-item index_0" fill="#333333" font-size="12px" font-weight="normal" font-family="'Open Sans', Arial, Helvetica, sans-serif" font-style="normal" categorylabel-id="2" transform="translate(73.384,0)"><rect class="viz-axis-label-rect" fill="transparent" x="1" y="1" width="34.69199999999999" height="121"></rect><g class="v-axis-label-wrapper"><text x="22.545999999999996" y="6" text-anchor="end" transform="translate(0,6.17221986770266e-16) rotate(-90,22.545999999999996,6)">Alexei's Specialities</text></g></g><g class="v-label v-morphable-label viz-axis-label v-axis-item index_0" fill="#333333" font-size="12px" font-weight="normal" font-family="'Open Sans', Arial, Helvetica, sans-serif" font-style="normal" categorylabel-id="3" transform="translate(110.076,0)"><rect class="viz-axis-label-rect" fill="transparent" x="1" y="1" width="34.69200000000001" height="121"></rect><g class="v-axis-label-wrapper"><text x="22.546000000000003" y="6" text-anchor="end" transform="translate(0,6.17221986770266e-16) rotate(-90,22.546000000000003,6)">BC Market</text></g></g><g class="v-label v-morphable-label viz-axis-label v-axis-item index_0" fill="#333333" font-size="12px" font-weight="normal" font-family="'Open Sans', Arial, Helvetica, sans-serif" font-style="normal" categorylabel-id="4" transform="translate(146.768,0)"><rect class="viz-axis-label-rect" fill="transparent" x="1" y="1" width="34.69200000000001" height="121"></rect><g class="v-axis-label-wrapper"><text x="22.546000000000003" y="6" text-anchor="end" transform="translate(0,6.17221986770266e-16) rotate(-90,22.546000000000003,6)">Choices Franchise 1</text></g></g><g class="v-label v-morphable-label viz-axis-label v-axis-item index_0" fill="#333333" font-size="12px" font-weight="normal" font-family="'Open Sans', Arial, Helvetica, sans-serif" font-style="normal" categorylabel-id="5" transform="translate(183.46,0)"><rect class="viz-axis-label-rect" fill="transparent" x="1" y="1" width="34.69199999999998" height="121"></rect><g class="v-axis-label-wrapper"><text x="22.54599999999999" y="6" text-anchor="end" transform="translate(0,6.17221986770266e-16) rotate(-90,22.54599999999999,6)">Choices Franchise 3</text></g></g><g class="v-label v-morphable-label viz-axis-label v-axis-item index_0" fill="#333333" font-size="12px" font-weight="normal" font-family="'Open Sans', Arial, Helvetica, sans-serif" font-style="normal" categorylabel-id="6" transform="translate(220.152,0)"><rect class="viz-axis-label-rect" fill="transparent" x="1" y="1" width="34.69200000000001" height="121"></rect><g class="v-axis-label-wrapper"><text x="22.546000000000003" y="6" text-anchor="end" transform="translate(0,6.17221986770266e-16) rotate(-90,22.546000000000003,6)">Choices Franchise 6</text></g></g><g class="v-label v-morphable-label viz-axis-label v-axis-item index_0" fill="#333333" font-size="12px" font-weight="normal" font-family="'Open Sans', Arial, Helvetica, sans-serif" font-style="normal" categorylabel-id="7" transform="translate(256.844,0)"><rect class="viz-axis-label-rect" fill="transparent" x="1" y="1" width="34.69200000000001" height="121"></rect><g class="v-axis-label-wrapper"><text x="22.546000000000003" y="6" text-anchor="end" transform="translate(0,6.17221986770266e-16) rotate(-90,22.546000000000003,6)">Dairy World</text></g></g><g class="v-label v-morphable-label viz-axis-label v-axis-item index_0" fill="#333333" font-size="12px" font-weight="normal" font-family="'Open Sans', Arial, Helvetica, sans-serif" font-style="normal" categorylabel-id="8" transform="translate(293.536,0)"><rect class="viz-axis-label-rect" fill="transparent" x="1" y="1" width="34.69200000000001" height="121"></rect><g class="v-axis-label-wrapper"><text x="22.546000000000003" y="6" text-anchor="end" transform="translate(0,6.17221986770266e-16) rotate(-90,22.546000000000003,6)">Delikatessen</text></g></g><g class="v-label v-morphable-label viz-axis-label v-axis-item index_0" fill="#333333" font-size="12px" font-weight="normal" font-family="'Open Sans', Arial, Helvetica, sans-serif" font-style="normal" categorylabel-id="9" transform="translate(330.228,0)"><rect class="viz-axis-label-rect" fill="transparent" x="1" y="1" width="34.69200000000001" height="121"></rect><g class="v-axis-label-wrapper"><text x="22.546000000000003" y="6" text-anchor="end" transform="translate(0,6.17221986770266e-16) rotate(-90,22.546000000000003,6)">Donald's Market</text></g></g></g></g></g></g><g class="v-m-valueAxis v-m-yAxis" transform="translate(0, 0)"><rect class="v-bound" width="60" height="317" fill="transparent"></rect><g class="v-axis"><g class="v-m-axisTitle" transform="translate(0,0)"></g><g class="v-m-axisBody" transform="translate(0,0)"><clipPath class="v-clippath-labels" id="clip-path-866b7276-0c1e-4e3b-97d0-ca204fee6eca"><rect x="-1" y="-11.2" width="62" height="339.4"></rect></clipPath><clipPath class="v-clippath-ticks" id="clip-path-86527f18-b504-4122-8b51-6c4be49f7af8"><rect x="-1" y="-1" width="62" height="319"></rect></clipPath><rect class="v-bound" width="60" height="317" fill="transparent"></rect><g class="v-line-group"><line class="v-valueaxisline v-line" stroke="#6c6c6c" stroke-width="1" shape-rendering="crispEdges" x1="60" y1="-0.5" x2="60" y2="317.5"></line></g><g clip-path="url(#clip-path-86527f18-b504-4122-8b51-6c4be49f7af8)"><g class="v-tick-group"><line class="v-valueaxisline v-tick" stroke="#6c6c6c" stroke-width="1" shape-rendering="crispEdges" x1="60" y1="317" x2="55" y2="317"></line><line class="v-valueaxisline v-tick" stroke="#6c6c6c" stroke-width="1" shape-rendering="crispEdges" x1="60" y1="237.75" x2="55" y2="237.75"></line><line class="v-valueaxisline v-tick" stroke="#6c6c6c" stroke-width="1" shape-rendering="crispEdges" x1="60" y1="158.5" x2="55" y2="158.5"></line><line class="v-valueaxisline v-tick" stroke="#6c6c6c" stroke-width="1" shape-rendering="crispEdges" x1="60" y1="79.25" x2="55" y2="79.25"></line><line class="v-valueaxisline v-tick" stroke="#6c6c6c" stroke-width="1" shape-rendering="crispEdges" x1="60" y1="0" x2="55" y2="0"></line></g></g><g clip-path="url(#clip-path-866b7276-0c1e-4e3b-97d0-ca204fee6eca)"><g class="v-label-group"><g class="v-label v-morphable-label viz-axis-label" fill="#333333" font-size="12px" font-weight="normal" font-family="'Open Sans', Arial, Helvetica, sans-serif" font-style="normal"><text text-anchor="end" x="49" y="321.2">0</text></g><g class="v-label v-morphable-label viz-axis-label" fill="#333333" font-size="12px" font-weight="normal" font-family="'Open Sans', Arial, Helvetica, sans-serif" font-style="normal"><text text-anchor="end" x="49" y="241.95">1000000</text></g><g class="v-label v-morphable-label viz-axis-label" fill="#333333" font-size="12px" font-weight="normal" font-family="'Open Sans', Arial, Helvetica, sans-serif" font-style="normal"><text text-anchor="end" x="49" y="162.7">2000000</text></g><g class="v-label v-morphable-label viz-axis-label" fill="#333333" font-size="12px" font-weight="normal" font-family="'Open Sans', Arial, Helvetica, sans-serif" font-style="normal"><text text-anchor="end" x="49" y="83.45">3000000</text></g><g class="v-label v-morphable-label viz-axis-label" fill="#333333" font-size="12px" font-weight="normal" font-family="'Open Sans', Arial, Helvetica, sans-serif" font-style="normal"><text text-anchor="end" x="49" y="4.2">4000000</text></g></g></g></g></g></g><g class="v-m-scrollbar" transform="translate(426.92, 0)"><g><rect class="v-m-scrollbarTrack" visibility="hidden" fill="#f7f7f7" stroke-width="0" stroke="white" width="12" height="317"></rect><rect class="v-m-scrollbarThumb" visibility="hidden" fill="#e5e5e5" width="12" height="317" transform="translate(0, 0)"></rect></g></g></g></svg>