<svg class="v-m-root" viewBox="0 0 600 500" width="600" height="500" xmlns="http://www.w3.org/2000/svg" style="left: 0px; top: 0px; direction: ltr; height: 100%; width: 100%; display: block; cursor: default;"><defs></defs><g class="v-m-action-layer-group"></g><g class="v-m-background"><rect class="v-background-body viz-plot-background v-morphable-background" x="0" y="0" width="600" height="500" style="fill:transparent"></rect></g><g class="v-m-title" transform="translate(111.84, 24)"></g><g class="v-m-legendGroup" transform="translate(488, 24)"><g class="v-m-legend" transform="translate(0,0)"><rect class="v-bound" width="88" height="57" fill="transparent"></rect><text class="v-title viz-legend-title" font-weight="bold" fill="#000000" font-family="'Open Sans', Arial, Helvetica, sans-serif" font-size="14px" font-style="normal" x="0" y="14" visibility="inherit">All Measures</text><g class="v-content" transform="translate(0, 21)" font-size="12px" font-family="'Open Sans', Arial, Helvetica, sans-serif" font-weight="normal" fill="#000000" font-style="normal"><rect class="v-legend-body-bound" x="-5" fill="transparent" width="93" height="36"></rect><g class="v-groups v-label viz-legend-valueLabel" transform="translate(0, 0)"><g class="v-legend-element v-legend-item" transform="translate (-5,0)" legendlabel-id="0"><rect width="93" height="18" fill="transparent"></rect><path class="v-legend-marker" fill="#5cbae6" stroke-width="0" stroke="transparent" opacity="1" stroke-opacity="undefined" d="M-6,0 A6,6 0 1,0 6,0 A6,6 0 1,0 -6,0z" transform="translate(11,9)"></path><text x="23" y="3" dy="0.85em">Revenue</text></g><g class="v-legend-element v-legend-item" transform="translate (-5,18)" legendlabel-id="1"><rect width="93" height="18" fill="transparent"></rect><path class="v-legend-marker" fill="#b6d957" stroke-width="0" stroke="transparent" opacity="1" stroke-opacity="undefined" d="M-6,0 A6,6 0 1,0 6,0 A6,6 0 1,0 -6,0z" transform="translate(11,9)"></path><text x="23" y="3" dy="0.85em">Cost</text></g></g></g></g></g><g class="v-m-main" transform="translate(24, 24)"><g class="v-m-plot" transform="translate(87.84, 0)"><rect class="v-background-body viz-plot-background v-morphable-background" x="0" y="0" width="342.08000000000004" height="316.4" style="fill:transparent"></rect><clipPath id="plot_main_clipPath_0047a028-9fd3-4fed-93fe-940f1106225e"><rect y="-1" width="343.08000000000004" height="317.4"></rect></clipPath><rect class="v-plot-bound v-bound v-zoom-plot" width="342.08000000000004" height="316.4" fill="transparent"></rect><g clip-path="url(#plot_main_clipPath_0047a028-9fd3-4fed-93fe-940f1106225e)"><g class="v-plot-main" transform="translate(0, 0)"><g class="v-gridline-group"><g class="v-gridline" stroke="#d8d8d8" stroke-width="1" shape-rendering="crispEdges"><line class="v-gridline-mainline" x1="0" y1="316.4" x2="342.08" y2="316.4"></line></g><g class="v-gridline" stroke="#d8d8d8" stroke-width="1" shape-rendering="crispEdges"><line class="v-gridline-mainline" x1="0" y1="237.29999999999998" x2="342.08" y2="237.29999999999998"></line></g><g class="v-gridline" stroke="#d8d8d8" stroke-width="1" shape-rendering="crispEdges"><line class="v-gridline-mainline" x1="0" y1="158.2" x2="342.08" y2="158.2"></line></g><g class="v-gridline" stroke="#d8d8d8" stroke-width="1" shape-rendering="crispEdges"><line class="v-gridline-mainline" x1="0" y1="79.1" x2="342.08" y2="79.1"></line></g><g class="v-gridline" stroke="#d8d8d8" stroke-width="1" shape-rendering="crispEdges"><line class="v-gridline-mainline" x1="0" y1="0" x2="342.08" y2="0"></line></g></g><g class="v-datapoint-group"><g><path d="M17.104000000000003,282.528262317L51.312000000000005,180.17806472399997L85.52000000000002,211.10392248547558L119.72800000000004,167.813274538L153.93600000000004,48.54747154600002L188.14400000000003,151.078550273L222.35200000000006,163.50036523099996L256.56000000000006,256.872095844L290.7680000000001,206.128852594L324.97600000000006,54.7107906501296" fill="none" stroke-width="2" stroke="#5cbae6" stroke-linejoin="round" stroke-dasharray="undefined" class="v-lines v-morphable-line"></path><g data-id="0" data-datapoint-id="71" class="v-datapoint v-morphable-datapoint v-datapoint-default" transform="translate(17.104000000000003, 282.528262317)"><path d="M-4,0 A4,4 0 1,0 4,0 A4,4 0 1,0 -4,0z" fill="#5cbae6"></path></g><g data-id="1" data-datapoint-id="72" class="v-datapoint v-morphable-datapoint v-datapoint-default" transform="translate(51.312000000000005, 180.17806472399997)"><path d="M-4,0 A4,4 0 1,0 4,0 A4,4 0 1,0 -4,0z" fill="#5cbae6"></path></g><g data-id="2" data-datapoint-id="73" class="v-datapoint v-morphable-datapoint v-datapoint-default" transform="translate(85.52000000000002, 211.10392248547558)"><path d="M-4,0 A4,4 0 1,0 4,0 A4,4 0 1,0 -4,0z" fill="#5cbae6"></path></g><g data-id="3" data-datapoint-id="74" class="v-datapoint v-morphable-datapoint v-datapoint-default" transform="translate(119.72800000000004, 167.813274538)"><path d="M-4,0 A4,4 0 1,0 4,0 A4,4 0 1,0 -4,0z" fill="#5cbae6"></path></g><g data-id="4" data-datapoint-id="75" class="v-datapoint v-morphable-datapoint v-datapoint-default" transform="translate(153.93600000000004, 48.54747154600002)"><path d="M-4,0 A4,4 0 1,0 4,0 A4,4 0 1,0 -4,0z" fill="#5cbae6"></path></g><g data-id="5" data-datapoint-id="76" class="v-datapoint v-morphable-datapoint v-datapoint-default" transform="translate(188.14400000000003, 151.078550273)"><path d="M-4,0 A4,4 0 1,0 4,0 A4,4 0 1,0 -4,0z" fill="#5cbae6"></path></g><g data-id="6" data-datapoint-id="77" class="v-datapoint v-morphable-datapoint v-datapoint-default" transform="translate(222.35200000000006, 163.50036523099996)"><path d="M-4,0 A4,4 0 1,0 4,0 A4,4 0 1,0 -4,0z" fill="#5cbae6"></path></g><g data-id="7" data-datapoint-id="78" class="v-datapoint v-morphable-datapoint v-datapoint-default" transform="translate(256.56000000000006, 256.872095844)"><path d="M-4,0 A4,4 0 1,0 4,0 A4,4 0 1,0 -4,0z" fill="#5cbae6"></path></g><g data-id="8" data-datapoint-id="79" class="v-datapoint v-morphable-datapoint v-datapoint-default" transform="translate(290.7680000000001, 206.128852594)"><path d="M-4,0 A4,4 0 1,0 4,0 A4,4 0 1,0 -4,0z" fill="#5cbae6"></path></g><g data-id="9" data-datapoint-id="80" class="v-datapoint v-morphable-datapoint v-datapoint-default" transform="translate(324.97600000000006, 54.7107906501296)"><path d="M-4,0 A4,4 0 1,0 4,0 A4,4 0 1,0 -4,0z" fill="#5cbae6"></path></g></g><g><path d="M17.104000000000003,308.93426356799995L51.312000000000005,294.66844805299996L85.52000000000002,297.956998122L119.72800000000004,297.805789771L153.93600000000004,270.320836044L188.14400000000003,284.921935893L222.35200000000006,289.234904525L256.56000000000006,307.236719034L290.7680000000001,295.582393974L324.97600000000006,268.017805531" fill="none" stroke-width="2" stroke="#b6d957" stroke-linejoin="round" stroke-dasharray="undefined" class="v-lines v-morphable-line"></path><g data-id="10" data-datapoint-id="81" class="v-datapoint v-morphable-datapoint v-datapoint-default" transform="translate(17.104000000000003, 308.93426356799995)"><path d="M-4,0 A4,4 0 1,0 4,0 A4,4 0 1,0 -4,0z" fill="#b6d957"></path></g><g data-id="11" data-datapoint-id="82" class="v-datapoint v-morphable-datapoint v-datapoint-default" transform="translate(51.312000000000005, 294.66844805299996)"><path d="M-4,0 A4,4 0 1,0 4,0 A4,4 0 1,0 -4,0z" fill="#b6d957"></path></g><g data-id="12" data-datapoint-id="83" class="v-datapoint v-morphable-datapoint v-datapoint-default" transform="translate(85.52000000000002, 297.956998122)" fill-opacity="1"><path d="M-4,0 A4,4 0 1,0 4,0 A4,4 0 1,0 -4,0z" fill="#b6d957" fill-opacity="1" stroke-opacity="1"></path></g><g data-id="13" data-datapoint-id="84" class="v-datapoint v-morphable-datapoint v-datapoint-default" transform="translate(119.72800000000004, 297.805789771)"><path d="M-4,0 A4,4 0 1,0 4,0 A4,4 0 1,0 -4,0z" fill="#b6d957"></path></g><g data-id="14" data-datapoint-id="85" class="v-datapoint v-morphable-datapoint v-datapoint-default" transform="translate(153.93600000000004, 270.320836044)"><path d="M-4,0 A4,4 0 1,0 4,0 A4,4 0 1,0 -4,0z" fill="#b6d957"></path></g><g data-id="15" data-datapoint-id="86" class="v-datapoint v-morphable-datapoint v-datapoint-default" transform="translate(188.14400000000003, 284.921935893)"><path d="M-4,0 A4,4 0 1,0 4,0 A4,4 0 1,0 -4,0z" fill="#b6d957"></path></g><g data-id="16" data-datapoint-id="87" class="v-datapoint v-morphable-datapoint v-datapoint-default" transform="translate(222.35200000000006, 289.234904525)"><path d="M-4,0 A4,4 0 1,0 4,0 A4,4 0 1,0 -4,0z" fill="#b6d957"></path></g><g data-id="17" data-datapoint-id="88" class="v-datapoint v-morphable-datapoint v-datapoint-default" transform="translate(256.56000000000006, 307.236719034)"><path d="M-4,0 A4,4 0 1,0 4,0 A4,4 0 1,0 -4,0z" fill="#b6d957"></path></g><g data-id="18" data-datapoint-id="89" class="v-datapoint v-morphable-datapoint v-datapoint-default" transform="translate(290.7680000000001, 295.582393974)"><path d="M-4,0 A4,4 0 1,0 4,0 A4,4 0 1,0 -4,0z" fill="#b6d957"></path></g><g data-id="19" data-datapoint-id="90" class="v-datapoint v-morphable-datapoint v-datapoint-default" transform="translate(324.97600000000006, 268.017805531)"><path d="M-4,0 A4,4 0 1,0 4,0 A4,4 0 1,0 -4,0z" fill="#b6d957"></path></g></g></g><g class="v-datalabel-group" fill="#333333" font-family="'Open Sans', Arial, Helvetica, sans-serif" font-size="12px" font-weight="normal" font-style="normal" cssString="fill:#333333;font-family:'Open Sans', Arial, Helvetica, sans-serif;font-size:12px;font-weight:normal;font-style:normal;"><g data-datapoint-id="73" class="v-datalabel v-morphable-label" transform="translate(38.519996643066406,226.1039276123047)" fill="#333333"><text>1331176.706884</text></g><g data-datapoint-id="74" class="v-datalabel v-morphable-label" transform="translate(52.735749654831935,160.8132781982422)" fill="#333333"><text>1878466.82</text></g><g data-datapoint-id="75" class="v-datalabel v-morphable-label" transform="translate(120.93600463867188,41.54747009277344)" fill="#333333"><text>3386251.94</text></g><g data-datapoint-id="77" class="v-datalabel v-morphable-label" transform="translate(206.07494851533912,156.5003662109375)" fill="#333333"><text>1932991.59</text></g><g data-datapoint-id="79" class="v-datalabel v-morphable-label" transform="translate(223.3494246289518,199.12884521484375)" fill="#333333"><text>1394072.66</text></g><g data-datapoint-id="83" class="v-datalabel v-morphable-label" transform="translate(56.019996643066406,312.9570007324219)" fill="#333333"><text>233160.58</text></g><g data-datapoint-id="84" class="v-datalabel v-morphable-label" transform="translate(66.4402622374979,290.8057861328125)" fill="#333333"><text>235072.19</text></g><g data-datapoint-id="85" class="v-datalabel v-morphable-label" transform="translate(124.43600463867188,263.3208312988281)" fill="#333333"><text>582543.16</text></g><g data-datapoint-id="86" class="v-datalabel v-morphable-label" transform="translate(174.74413987894764,277.92193603515625)" fill="#333333"><text>397952.77</text></g><g data-datapoint-id="89" class="v-datalabel v-morphable-label" transform="translate(237.4550834735664,288.5823974609375)" fill="#333333"><text>263180.86</text></g></g></g></g><g class="v-referenceline-group" clip-path="url(#plot_main_clipPath_0047a028-9fd3-4fed-93fe-940f1106225e)"></g></g><g class="v-m-categoryAxis v-m-xAxis" transform="translate(87.84, 316.4)"><rect class="v-bound" width="342.08000000000004" height="135.6" fill="transparent"></rect><g class="v-axis"><g class="v-m-axisScrollbar" transform="translate(0,97.76)"><g><rect class="v-m-scrollbarTrack" visibility="hidden" fill="#f7f7f7" stroke-width="0" stroke="white" width="342.08000000000004" height="12"></rect><rect class="v-m-scrollbarThumb" visibility="hidden" fill="#e5e5e5" width="342.08000000000004" height="12" transform="translate(0, 0)"></rect></g></g><g class="v-m-axisTitle" transform="translate(0,118.80000000000001)"><g class="v-title viz-axis-title" fill="#000000" font-size="14px" font-weight="bold" font-family="'Open Sans', Arial, Helvetica, sans-serif" font-style="normal"><text text-anchor="middle" dominant-baseline="auto" x="171.04000000000002" y="13.8"><tspan class="v-title viz-axis-title" dominant-baseline="auto">Store Name</tspan></text></g></g><g class="v-m-axisBody" transform="translate(0,0)" clip-path="url(#clip-path-f62727b1-ec03-480f-8618-eab83d5b62e5)"><clipPath class="v-clippath" id="clip-path-f62727b1-ec03-480f-8618-eab83d5b62e5"><rect x="-1" y="-1" width="344.08000000000004" height="99.76"></rect></clipPath><g class="v-tick-group"><line class="v-valueaxisline v-tick" stroke="#333333" stroke-width="1" shape-rendering="crispEdges" x1="0" y1="0" x2="0" y2="5"></line><line class="v-valueaxisline v-tick" stroke="#333333" stroke-width="1" shape-rendering="crispEdges" x1="34.208" y1="0" x2="34.208" y2="5"></line><line class="v-valueaxisline v-tick" stroke="#333333" stroke-width="1" shape-rendering="crispEdges" x1="68.416" y1="0" x2="68.416" y2="5"></line><line class="v-valueaxisline v-tick" stroke="#333333" stroke-width="1" shape-rendering="crispEdges" x1="102.624" y1="0" x2="102.624" y2="5"></line><line class="v-valueaxisline v-tick" stroke="#333333" stroke-width="1" shape-rendering="crispEdges" x1="136.832" y1="0" x2="136.832" y2="5"></line><line class="v-valueaxisline v-tick" stroke="#333333" stroke-width="1" shape-rendering="crispEdges" x1="171.04" y1="0" x2="171.04" y2="5"></line><line class="v-valueaxisline v-tick" stroke="#333333" stroke-width="1" shape-rendering="crispEdges" x1="205.248" y1="0" x2="205.248" y2="5"></line><line class="v-valueaxisline v-tick" stroke="#333333" stroke-width="1" shape-rendering="crispEdges" x1="239.456" y1="0" x2="239.456" y2="5"></line><line class="v-valueaxisline v-tick" stroke="#333333" stroke-width="1" shape-rendering="crispEdges" x1="273.664" y1="0" x2="273.664" y2="5"></line><line class="v-valueaxisline v-tick" stroke="#333333" stroke-width="1" shape-rendering="crispEdges" x1="307.872" y1="0" x2="307.872" y2="5"></line><line class="v-valueaxisline v-tick" stroke="#333333" stroke-width="1" shape-rendering="crispEdges" x1="342.08" y1="0" x2="342.08" y2="5"></line></g><g class="v-line-group"><line class="v-valueaxisline v-line" stroke="#333333" stroke-width="1" shape-rendering="crispEdges" x1="-0.5" y1="0" x2="342.58000000000004" y2="0"></line></g><g class="v-label-group"><g class="v-label v-morphable-label viz-axis-label v-axis-item index_0" fill="#333333" font-size="12px" font-weight="normal" font-family="'Open Sans', Arial, Helvetica, sans-serif" font-style="normal" categorylabel-id="0" transform="translate(0,0)"><rect class="viz-axis-label-rect" fill="transparent" x="1" y="1" width="32.208" height="95.76"></rect><g class="v-axis-label-wrapper"><text x="21.304" y="6" text-anchor="end" transform="translate(0,6.17221986770266e-16) rotate(-90,21.304,6)">24-Seven</text></g></g><g class="v-label v-morphable-label viz-axis-label v-axis-item index_0" fill="#333333" font-size="12px" font-weight="normal" font-family="'Open Sans', Arial, Helvetica, sans-serif" font-style="normal" categorylabel-id="1" transform="translate(34.208,0)"><rect class="viz-axis-label-rect" fill="transparent" x="1" y="1" width="32.208" height="95.76"></rect><g class="v-axis-label-wrapper"><text x="21.304" y="6" text-anchor="end" transform="translate(0,6.17221986770266e-16) rotate(-90,21.304,6)">A&amp;A</text></g></g><g class="v-label v-morphable-label viz-axis-label v-axis-item index_0" fill="#333333" font-size="12px" font-weight="normal" font-family="'Open Sans', Arial, Helvetica, sans-serif" font-style="normal" categorylabel-id="2" transform="translate(68.416,0)"><rect class="viz-axis-label-rect" fill="transparent" x="1" y="1" width="32.208" height="95.76"></rect><g class="v-axis-label-wrapper"><text x="21.304" y="6" text-anchor="end" transform="translate(0,6.17221986770266e-16) rotate(-90,21.304,6)">Alexei's Speci...<title>Alexei's Specialities</title></text></g></g><g class="v-label v-morphable-label viz-axis-label v-axis-item index_0" fill="#333333" font-size="12px" font-weight="normal" font-family="'Open Sans', Arial, Helvetica, sans-serif" font-style="normal" categorylabel-id="3" transform="translate(102.624,0)"><rect class="viz-axis-label-rect" fill="transparent" x="1" y="1" width="32.208" height="95.76"></rect><g class="v-axis-label-wrapper"><text x="21.304" y="6" text-anchor="end" transform="translate(0,6.17221986770266e-16) rotate(-90,21.304,6)">BC Market</text></g></g><g class="v-label v-morphable-label viz-axis-label v-axis-item index_0" fill="#333333" font-size="12px" font-weight="normal" font-family="'Open Sans', Arial, Helvetica, sans-serif" font-style="normal" categorylabel-id="4" transform="translate(136.832,0)"><rect class="viz-axis-label-rect" fill="transparent" x="1" y="1" width="32.208" height="95.76"></rect><g class="v-axis-label-wrapper"><text x="21.304" y="6" text-anchor="end" transform="translate(0,6.17221986770266e-16) rotate(-90,21.304,6)">Choices Fran...<title>Choices Franchise 1</title></text></g></g><g class="v-label v-morphable-label viz-axis-label v-axis-item index_0" fill="#333333" font-size="12px" font-weight="normal" font-family="'Open Sans', Arial, Helvetica, sans-serif" font-style="normal" categorylabel-id="5" transform="translate(171.04,0)"><rect class="viz-axis-label-rect" fill="transparent" x="1" y="1" width="32.208" height="95.76"></rect><g class="v-axis-label-wrapper"><text x="21.304" y="6" text-anchor="end" transform="translate(0,6.17221986770266e-16) rotate(-90,21.304,6)">Choices Fran...<title>Choices Franchise 3</title></text></g></g><g class="v-label v-morphable-label viz-axis-label v-axis-item index_0" fill="#333333" font-size="12px" font-weight="normal" font-family="'Open Sans', Arial, Helvetica, sans-serif" font-style="normal" categorylabel-id="6" transform="translate(205.248,0)"><rect class="viz-axis-label-rect" fill="transparent" x="1" y="1" width="32.208" height="95.76"></rect><g class="v-axis-label-wrapper"><text x="21.304" y="6" text-anchor="end" transform="translate(0,6.17221986770266e-16) rotate(-90,21.304,6)">Choices Fran...<title>Choices Franchise 6</title></text></g></g><g class="v-label v-morphable-label viz-axis-label v-axis-item index_0" fill="#333333" font-size="12px" font-weight="normal" font-family="'Open Sans', Arial, Helvetica, sans-serif" font-style="normal" categorylabel-id="7" transform="translate(239.456,0)"><rect class="viz-axis-label-rect" fill="transparent" x="1" y="1" width="32.208" height="95.76"></rect><g class="v-axis-label-wrapper"><text x="21.304" y="6" text-anchor="end" transform="translate(0,6.17221986770266e-16) rotate(-90,21.304,6)">Dairy World</text></g></g><g class="v-label v-morphable-label viz-axis-label v-axis-item index_0" fill="#333333" font-size="12px" font-weight="normal" font-family="'Open Sans', Arial, Helvetica, sans-serif" font-style="normal" categorylabel-id="8" transform="translate(273.664,0)"><rect class="viz-axis-label-rect" fill="transparent" x="1" y="1" width="32.20800000000003" height="95.76"></rect><g class="v-axis-label-wrapper"><text x="21.304000000000013" y="6" text-anchor="end" transform="translate(0,6.17221986770266e-16) rotate(-90,21.304000000000013,6)">Delikatessen</text></g></g><g class="v-label v-morphable-label viz-axis-label v-axis-item index_0" fill="#333333" font-size="12px" font-weight="normal" font-family="'Open Sans', Arial, Helvetica, sans-serif" font-style="normal" categorylabel-id="9" transform="translate(307.872,0)"><rect class="viz-axis-label-rect" fill="transparent" x="1" y="1" width="32.20799999999997" height="95.76"></rect><g class="v-axis-label-wrapper"><text x="21.303999999999984" y="6" text-anchor="end" transform="translate(0,6.17221986770266e-16) rotate(-90,21.303999999999984,6)">Donald's Mark...<title>Donald's Market</title></text></g></g></g></g></g></g><g class="v-m-valueAxis v-m-yAxis" transform="translate(0, 0)"><rect class="v-bound" width="87.84" height="316.4" fill="transparent"></rect><g class="v-axis"><g class="v-m-axisTitle" transform="translate(3.552713678800501e-15,0)"><g class="v-title viz-axis-title" fill="#000000" font-size="14px" font-weight="bold" font-family="'Open Sans', Arial, Helvetica, sans-serif" font-style="normal"><text text-anchor="middle" dominant-baseline="auto" x="13.8" y="158.2" transform="rotate(-90,13.8,158.2)"><tspan class="v-title viz-axis-title" dominant-baseline="auto">Revenue &amp; Cost</tspan></text></g></g><g class="v-m-axisBody" transform="translate(27.840000000000003,0)"><clipPath class="v-clippath-labels" id="clip-path-f3cb2f6c-9a92-4c5e-98b5-19530d8bf96b"><rect x="-1" y="-11.2" width="62" height="338.79999999999995"></rect></clipPath><clipPath class="v-clippath-ticks" id="clip-path-139e4b59-1a72-4052-8ade-d42e6241be47"><rect x="-1" y="-1" width="62" height="318.4"></rect></clipPath><rect class="v-bound" width="60" height="316.4" fill="transparent"></rect><g clip-path="url(#clip-path-139e4b59-1a72-4052-8ade-d42e6241be47)"><g class="v-tick-group"><line class="v-valueaxisline v-tick" stroke="#333333" stroke-width="1" shape-rendering="crispEdges" x1="60" y1="316.4" x2="55" y2="316.4"></line><line class="v-valueaxisline v-tick" stroke="#333333" stroke-width="1" shape-rendering="crispEdges" x1="60" y1="237.29999999999998" x2="55" y2="237.29999999999998"></line><line class="v-valueaxisline v-tick" stroke="#333333" stroke-width="1" shape-rendering="crispEdges" x1="60" y1="158.2" x2="55" y2="158.2"></line><line class="v-valueaxisline v-tick" stroke="#333333" stroke-width="1" shape-rendering="crispEdges" x1="60" y1="79.1" x2="55" y2="79.1"></line><line class="v-valueaxisline v-tick" stroke="#333333" stroke-width="1" shape-rendering="crispEdges" x1="60" y1="0" x2="55" y2="0"></line></g></g><g clip-path="url(#clip-path-f3cb2f6c-9a92-4c5e-98b5-19530d8bf96b)"><g class="v-label-group"><g class="v-label v-morphable-label viz-axis-label" fill="#333333" font-size="12px" font-weight="normal" font-family="'Open Sans', Arial, Helvetica, sans-serif" font-style="normal"><text text-anchor="end" x="49" y="320.59999999999997">0</text></g><g class="v-label v-morphable-label viz-axis-label" fill="#333333" font-size="12px" font-weight="normal" font-family="'Open Sans', Arial, Helvetica, sans-serif" font-style="normal"><text text-anchor="end" x="49" y="241.49999999999997">1000000</text></g><g class="v-label v-morphable-label viz-axis-label" fill="#333333" font-size="12px" font-weight="normal" font-family="'Open Sans', Arial, Helvetica, sans-serif" font-style="normal"><text text-anchor="end" x="49" y="162.39999999999998">2000000</text></g><g class="v-label v-morphable-label viz-axis-label" fill="#333333" font-size="12px" font-weight="normal" font-family="'Open Sans', Arial, Helvetica, sans-serif" font-style="normal"><text text-anchor="end" x="49" y="83.3">3000000</text></g><g class="v-label v-morphable-label viz-axis-label" fill="#333333" font-size="12px" font-weight="normal" font-family="'Open Sans', Arial, Helvetica, sans-serif" font-style="normal"><text text-anchor="end" x="49" y="4.2">4000000</text></g></g></g></g></g></g><g class="v-m-scrollbar" transform="translate(429.9200000000001, 0)"><g><rect class="v-m-scrollbarTrack" visibility="hidden" fill="#f7f7f7" stroke-width="0" stroke="white" width="12" height="316.4"></rect><rect class="v-m-scrollbarThumb" visibility="hidden" fill="#e5e5e5" width="12" height="316.4" transform="translate(0, 0)"></rect></g></g></g></svg>