<svg class="v-m-root" viewBox="0 0 600 500" width="600" height="500" xmlns="http://www.w3.org/2000/svg" style="left: 0px; top: 0px; direction: ltr; height: 100%; width: 100%; display: block; cursor: default;"><defs></defs><g class="v-m-action-layer-group"></g><g class="v-m-background"><rect class="v-background-body viz-plot-background v-morphable-background" x="0" y="0" width="600" height="500" style="fill:transparent"></rect></g><g class="v-m-title" transform="translate(79.4, 25)"></g><g class="v-m-legendGroup" transform="translate(532, 25)"><g class="v-m-legend" transform="translate(0,0)"><rect class="v-bound" width="43" height="52.5" fill="transparent"></rect><g class="v-content" transform="translate(0, 0)" font-size="10px" font-family="'Open Sans', Arial, Helvetica, sans-serif" font-weight="normal" fill="#737373" font-style="normal"><rect class="v-legend-body-bound" x="-5" fill="transparent" width="48" height="52.5"></rect><g class="v-groups v-label viz-legend-valueLabel" transform="translate(0, 0)"><g class="v-legend-element v-legend-item" transform="translate (-5,0)" legendlabel-id="0"><rect height="17.5" fill="transparent" width="48"></rect><path transform="translate(12,8.25)" class="v-legend-marker" fill="#73d2e0" stroke-width="0" stroke="transparent" opacity="1" stroke-opacity="undefined" d="M-7,0 A7,7 0 1,0 7,0 A7,7 0 1,0 -7,0z"></path><text x="24" y="3.25" dy="0.85em">2009</text></g><g class="v-legend-element v-legend-item" transform="translate (-5,17.5)" legendlabel-id="1"><rect height="17.5" fill="transparent" width="48"></rect><path transform="translate(12,8.25)" class="v-legend-marker" fill="#bbd03b" stroke-width="0" stroke="transparent" opacity="1" stroke-opacity="undefined" d="M-7,0 A7,7 0 1,0 7,0 A7,7 0 1,0 -7,0z"></path><text x="24" y="3.25" dy="0.85em">2010</text></g><g class="v-legend-element v-legend-item" transform="translate (-5,35)" legendlabel-id="2"><rect height="17.5" fill="transparent" width="48"></rect><path transform="translate(12,8.25)" class="v-legend-marker" fill="#999d20" stroke-width="0" stroke="transparent" opacity="1" stroke-opacity="undefined" d="M-7,0 A7,7 0 1,0 7,0 A7,7 0 1,0 -7,0z"></path><text x="24" y="3.25" dy="0.85em">2011</text></g></g></g></g></g><g class="v-m-main" transform="translate(25, 25)"><g class="v-m-plot" transform="translate(54.4, 0)"><rect class="v-background-body viz-plot-background v-morphable-background" x="0" y="0" width="430.6" height="390.4" style="fill:transparent"></rect><clipPath id="plot_main_clipPath_168263ae-9cc4-46d6-9073-268bddcbb8f1"><rect y="-1" width="431.6" height="391.4"></rect></clipPath><rect class="v-plot-bound v-bound v-zoom-plot" width="430.6" height="390.4" fill="transparent"></rect><g clip-path="url(#plot_main_clipPath_168263ae-9cc4-46d6-9073-268bddcbb8f1)"><g class="v-plot-main" transform="translate(0, 0)"><g class="v-gridline-group"><g class="v-gridline" stroke="#ececec" stroke-width="1" shape-rendering="crispEdges"><line class="v-gridline-mainline" x1="0" y1="390.4" x2="430.6" y2="390.4"></line></g><g class="v-gridline" stroke="#ececec" stroke-width="1" shape-rendering="crispEdges"><line class="v-gridline-mainline" x1="0" y1="312.32" x2="430.6" y2="312.32"></line></g><g class="v-gridline" stroke="#ececec" stroke-width="1" shape-rendering="crispEdges"><line class="v-gridline-mainline" x1="0" y1="234.23999999999998" x2="430.6" y2="234.23999999999998"></line></g><g class="v-gridline" stroke="#ececec" stroke-width="1" shape-rendering="crispEdges"><line class="v-gridline-mainline" x1="0" y1="156.16" x2="430.6" y2="156.16"></line></g><g class="v-gridline" stroke="#ececec" stroke-width="1" shape-rendering="crispEdges"><line class="v-gridline-mainline" x1="0" y1="78.07999999999998" x2="430.6" y2="78.07999999999998"></line></g><g class="v-gridline" stroke="#ececec" stroke-width="1" shape-rendering="crispEdges"><line class="v-gridline-mainline" x1="0" y1="0" x2="430.6" y2="0"></line></g></g><g class="v-datapoint-group"><g class="v-area-group"><g class="v-area"><path class="v-area-path v-morphable-areabg" fill="#999d20" opacity="0.8" d="M53.825,279.6068055835152L161.475,250.11008949694545L269.125,226.8472710431334L376.77500000000003,324.9115512701287L376.77500000000003,390.4L269.125,390.4L161.475,390.4L53.825,390.4"></path><path stroke="#999d20" stroke-width="1px" opacity="0.8" class="v-area-line-path v-morphable-areabg"></path><path class="v-area-detection-path" opacity="0" d="M43.825,279.6068055835152L53.825,279.6068055835152L53.825,390.4L43.825,390.4M376.77500000000003,324.9115512701287L386.77500000000003,324.9115512701287L386.77500000000003,390.4L376.77500000000003,390.4"></path></g><g class="v-area"><path class="v-area-path v-morphable-areabg" fill="#bbd03b" opacity="0.8" d="M53.825,138.10341634397903L161.475,87.18413431080705L269.125,112.12777907159662L376.77500000000003,133.0856803876462L376.77500000000003,324.9115512701287L269.125,226.8472710431334L161.475,250.11008949694545L53.825,279.6068055835152"></path><path stroke="#bbd03b" stroke-width="1px" opacity="0.8" class="v-area-line-path v-morphable-areabg"></path><path class="v-area-detection-path" opacity="0" d="M43.825,138.10341634397903L53.825,138.10341634397903L53.825,279.6068055835152L43.825,279.6068055835152M376.77500000000003,133.0856803876462L386.77500000000003,133.0856803876462L386.77500000000003,324.9115512701287L376.77500000000003,324.9115512701287"></path></g><g class="v-area"><path class="v-area-path v-morphable-areabg" fill="#73d2e0" opacity="0.8" d="M53.825,0L161.475,0L269.125,4.334310688136611e-14L376.77500000000003,-8.668621376273222e-14L376.77500000000003,133.0856803876462L269.125,112.12777907159662L161.475,87.18413431080705L53.825,138.10341634397903"></path><path stroke="#73d2e0" stroke-width="1px" opacity="0.8" class="v-area-line-path v-morphable-areabg"></path><path class="v-area-detection-path" opacity="0" d="M43.825,0L53.825,0L53.825,138.10341634397903L43.825,138.10341634397903M376.77500000000003,-8.668621376273222e-14L386.77500000000003,-8.668621376273222e-14L386.77500000000003,133.0856803876462L376.77500000000003,133.0856803876462"></path></g></g><g class="v-area-point-group"><g class="v-area-point"><g data-id="0" data-datapoint-id="9" class="v-datapoint v-morphable-datapoint v-datapoint-default" transform="translate(53.825, 279.6068055835152)" opacity="0"><path d="M-4,0 A4,4 0 1,0 4,0 A4,4 0 1,0 -4,0z" fill="#999d20"></path></g><g data-id="1" data-datapoint-id="10" class="v-datapoint v-morphable-datapoint v-datapoint-default" transform="translate(161.475, 250.11008949694545)" opacity="0"><path d="M-4,0 A4,4 0 1,0 4,0 A4,4 0 1,0 -4,0z" fill="#999d20"></path></g><g data-id="2" data-datapoint-id="11" class="v-datapoint v-morphable-datapoint v-datapoint-default" transform="translate(269.125, 226.8472710431334)" opacity="0" fill-opacity="1"><path d="M-4,0 A4,4 0 1,0 4,0 A4,4 0 1,0 -4,0z" fill="#46480f" stroke-opacity="1"></path></g><g data-id="3" data-datapoint-id="12" class="v-datapoint v-morphable-datapoint v-datapoint-default" transform="translate(376.77500000000003, 324.9115512701287)" opacity="0"><path d="M-4,0 A4,4 0 1,0 4,0 A4,4 0 1,0 -4,0z" fill="#999d20"></path></g></g><g class="v-area-point"><g data-id="4" data-datapoint-id="5" class="v-datapoint v-morphable-datapoint v-datapoint-default" transform="translate(53.825, 138.10341634397903)" opacity="0"><path d="M-4,0 A4,4 0 1,0 4,0 A4,4 0 1,0 -4,0z" fill="#bbd03b"></path></g><g data-id="5" data-datapoint-id="6" class="v-datapoint v-morphable-datapoint v-datapoint-default" transform="translate(161.475, 87.18413431080705)" opacity="0"><path d="M-4,0 A4,4 0 1,0 4,0 A4,4 0 1,0 -4,0z" fill="#bbd03b"></path></g><g data-id="6" data-datapoint-id="7" class="v-datapoint v-morphable-datapoint v-datapoint-default" transform="translate(269.125, 112.12777907159662)" opacity="0"><path d="M-4,0 A4,4 0 1,0 4,0 A4,4 0 1,0 -4,0z" fill="#bbd03b"></path></g><g data-id="7" data-datapoint-id="8" class="v-datapoint v-morphable-datapoint v-datapoint-default" transform="translate(376.77500000000003, 133.0856803876462)" opacity="0"><path d="M-4,0 A4,4 0 1,0 4,0 A4,4 0 1,0 -4,0z" fill="#bbd03b"></path></g></g><g class="v-area-point"><g data-id="8" data-datapoint-id="1" class="v-datapoint v-morphable-datapoint v-datapoint-default" transform="translate(53.825, 4)" opacity="0"><path d="M-4,0 A4,4 0 1,0 4,0 A4,4 0 1,0 -4,0z" fill="#73d2e0"></path></g><g data-id="9" data-datapoint-id="2" class="v-datapoint v-morphable-datapoint v-datapoint-default" transform="translate(161.475, 4)" opacity="0"><path d="M-4,0 A4,4 0 1,0 4,0 A4,4 0 1,0 -4,0z" fill="#73d2e0"></path></g><g data-id="10" data-datapoint-id="3" class="v-datapoint v-morphable-datapoint v-datapoint-default" transform="translate(269.125, 4)" opacity="0"><path d="M-4,0 A4,4 0 1,0 4,0 A4,4 0 1,0 -4,0z" fill="#73d2e0"></path></g><g data-id="11" data-datapoint-id="4" class="v-datapoint v-morphable-datapoint v-datapoint-default" transform="translate(376.77500000000003, 4)" opacity="0" fill-opacity="1"><path d="M-4,0 A4,4 0 1,0 4,0 A4,4 0 1,0 -4,0z" fill="#2bafc2" stroke-opacity="1"></path></g></g></g></g><g class="v-datalabel-group"><g data-datapoint-id="9" class="v-datalabel v-morphable-label" fill="#333333" font-family="'Open Sans', Arial, Helvetica, sans-serif" font-size="12px" font-weight="normal" font-style="normal" cssString="fill:#333333;font-family:'Open Sans', Arial, Helvetica, sans-serif;font-size:12px;font-weight:normal;font-style:normal;" transform="translate(53.82500076293945,340.0034087316799)"><text>21569</text></g><g data-datapoint-id="10" class="v-datalabel v-morphable-label" fill="#333333" font-family="'Open Sans', Arial, Helvetica, sans-serif" font-size="12px" font-weight="normal" font-style="normal" cssString="fill:#333333;font-family:'Open Sans', Arial, Helvetica, sans-serif;font-size:12px;font-weight:normal;font-style:normal;" transform="translate(143.97500610351562,325.2550474146132)"><text>33523</text></g><g data-datapoint-id="11" class="v-datalabel v-morphable-label" fill="#333333" font-family="'Open Sans', Arial, Helvetica, sans-serif" font-size="12px" font-weight="normal" font-style="normal" cssString="fill:#333333;font-family:'Open Sans', Arial, Helvetica, sans-serif;font-size:12px;font-weight:normal;font-style:normal;" transform="translate(246.625,313.62363925870676)"><text>47670.3</text></g><g data-datapoint-id="12" class="v-datalabel v-morphable-label" fill="#333333" font-family="'Open Sans', Arial, Helvetica, sans-serif" font-size="12px" font-weight="normal" font-style="normal" cssString="fill:#333333;font-family:'Open Sans', Arial, Helvetica, sans-serif;font-size:12px;font-weight:normal;font-style:normal;" transform="translate(338.7749938964844,362.6557844235294)"><text>8568.1</text></g><g data-datapoint-id="5" class="v-datalabel v-morphable-label" fill="#333333" font-family="'Open Sans', Arial, Helvetica, sans-serif" font-size="12px" font-weight="normal" font-style="normal" cssString="fill:#333333;font-family:'Open Sans', Arial, Helvetica, sans-serif;font-size:12px;font-weight:normal;font-style:normal;" transform="translate(53.82500076293945,213.85510343324466)"><text>27547.6</text></g><g data-datapoint-id="6" class="v-datalabel v-morphable-label" fill="#333333" font-family="'Open Sans', Arial, Helvetica, sans-serif" font-size="12px" font-weight="normal" font-style="normal" cssString="fill:#333333;font-family:'Open Sans', Arial, Helvetica, sans-serif;font-size:12px;font-weight:normal;font-style:normal;" transform="translate(143.97500610351562,173.6471130300809)"><text>38932</text></g><g data-datapoint-id="7" class="v-datalabel v-morphable-label" fill="#333333" font-family="'Open Sans', Arial, Helvetica, sans-serif" font-size="12px" font-weight="normal" font-style="normal" cssString="fill:#333333;font-family:'Open Sans', Arial, Helvetica, sans-serif;font-size:12px;font-weight:normal;font-style:normal;" transform="translate(251.625,174.48752308537775)"><text>33437</text></g><g data-datapoint-id="8" class="v-datalabel v-morphable-label" fill="#333333" font-family="'Open Sans', Arial, Helvetica, sans-serif" font-size="12px" font-weight="normal" font-style="normal" cssString="fill:#333333;font-family:'Open Sans', Arial, Helvetica, sans-serif;font-size:12px;font-weight:normal;font-style:normal;" transform="translate(331.7749938964844,233.99861354182718)"><text>25097.3</text></g><g data-datapoint-id="1" class="v-datalabel v-morphable-label" fill="#333333" font-family="'Open Sans', Arial, Helvetica, sans-serif" font-size="12px" font-weight="normal" font-style="normal" cssString="fill:#333333;font-family:'Open Sans', Arial, Helvetica, sans-serif;font-size:12px;font-weight:normal;font-style:normal;" transform="translate(53.82500076293945,78.05170817198952)"><text>26885.7</text></g><g data-datapoint-id="2" class="v-datalabel v-morphable-label" fill="#333333" font-family="'Open Sans', Arial, Helvetica, sans-serif" font-size="12px" font-weight="normal" font-style="normal" cssString="fill:#333333;font-family:'Open Sans', Arial, Helvetica, sans-serif;font-size:12px;font-weight:normal;font-style:normal;" transform="translate(138.97500610351562,52.59206715540353)"><text>20833.1</text></g><g data-datapoint-id="3" class="v-datalabel v-morphable-label" fill="#333333" font-family="'Open Sans', Arial, Helvetica, sans-serif" font-size="12px" font-weight="normal" font-style="normal" cssString="fill:#333333;font-family:'Open Sans', Arial, Helvetica, sans-serif;font-size:12px;font-weight:normal;font-style:normal;" transform="translate(246.625,65.0638895357983)"><text>32681.6</text></g><g data-datapoint-id="4" class="v-datalabel v-morphable-label" fill="#333333" font-family="'Open Sans', Arial, Helvetica, sans-serif" font-size="12px" font-weight="normal" font-style="normal" cssString="fill:#333333;font-family:'Open Sans', Arial, Helvetica, sans-serif;font-size:12px;font-weight:normal;font-style:normal;" transform="translate(331.7749938964844,75.54284019382314)"><text>17412.1</text></g></g></g></g><g class="v-referenceline-group" clip-path="url(#plot_main_clipPath_168263ae-9cc4-46d6-9073-268bddcbb8f1)"></g></g><g class="v-m-categoryAxis v-m-xAxis" transform="translate(54.4, 390.4)"><rect class="v-bound" width="430.6" height="59.6" fill="transparent"></rect><g class="v-axis"><g class="v-m-axisScrollbar" transform="translate(0,24.2)"><g><rect class="v-m-scrollbarTrack" visibility="hidden" fill="#f7f7f7" stroke-width="0" stroke="white" width="430.6" height="12"></rect><rect class="v-m-scrollbarThumb" visibility="hidden" fill="#e5e5e5" width="430.6" height="12" transform="translate(0, 0)"></rect></g></g><g class="v-m-axisTitle" transform="translate(0,45.2)"><g class="v-title viz-axis-title" fill="#000000" font-size="12px" font-weight="normal" font-family="'Open Sans', Arial, Helvetica, sans-serif" font-style="normal"><text text-anchor="middle" dominant-baseline="auto" x="215.3" y="11.4"><tspan class="v-title viz-axis-title" dominant-baseline="auto">Country</tspan></text></g></g><g class="v-m-axisBody" transform="translate(0,0)" clip-path="url(#clip-path-ff19455a-bc85-41b5-9da0-bb17210f29f6)"><clipPath class="v-clippath" id="clip-path-ff19455a-bc85-41b5-9da0-bb17210f29f6"><rect x="-1" y="-1" width="432.6" height="26.2"></rect></clipPath><g class="v-line-group"><line class="v-valueaxisline v-line" stroke="#babab9" stroke-width="1" shape-rendering="crispEdges" x1="-0.5" y1="0" x2="431.1" y2="0"></line></g><g class="v-label-group"><g class="v-label v-morphable-label viz-axis-label v-axis-item index_0" fill="#737373" font-size="11px" font-weight="normal" font-family="'Open Sans', Arial, Helvetica, sans-serif" font-style="normal" categorylabel-id="0" transform="translate(0,0)"><rect class="viz-axis-label-rect" fill="transparent" x="1" y="1" width="105.65" height="22.2"></rect><g class="v-axis-label-wrapper"><text x="53.825" y="17.2" text-anchor="middle">China</text></g></g><g class="v-label v-morphable-label viz-axis-label v-axis-item index_0" fill="#737373" font-size="11px" font-weight="normal" font-family="'Open Sans', Arial, Helvetica, sans-serif" font-style="normal" categorylabel-id="1" transform="translate(107.65,0)"><rect class="viz-axis-label-rect" fill="transparent" x="1" y="1" width="105.65" height="22.2"></rect><g class="v-axis-label-wrapper"><text x="53.825" y="17.2" text-anchor="middle">Japan</text></g></g><g class="v-label v-morphable-label viz-axis-label v-axis-item index_0" fill="#737373" font-size="11px" font-weight="normal" font-family="'Open Sans', Arial, Helvetica, sans-serif" font-style="normal" categorylabel-id="2" transform="translate(215.3,0)"><rect class="viz-axis-label-rect" fill="transparent" x="1" y="1" width="105.65" height="22.2"></rect><g class="v-axis-label-wrapper"><text x="53.825" y="17.2" text-anchor="middle">France</text></g></g><g class="v-label v-morphable-label viz-axis-label v-axis-item index_0" fill="#737373" font-size="11px" font-weight="normal" font-family="'Open Sans', Arial, Helvetica, sans-serif" font-style="normal" categorylabel-id="3" transform="translate(322.95,0)"><rect class="viz-axis-label-rect" fill="transparent" x="1" y="1" width="105.65" height="22.2"></rect><g class="v-axis-label-wrapper"><text x="53.825" y="17.2" text-anchor="middle">UK</text></g></g></g></g></g></g><g class="v-m-valueAxis v-m-yAxis" transform="translate(0, 0)"><rect class="v-bound" width="54.4" height="390.4" fill="transparent"></rect><g class="v-axis"><g class="v-m-axisTitle" transform="translate(-1.7763568394002505e-15,0)"><g class="v-title viz-axis-title" fill="#000000" font-size="12px" font-weight="normal" font-family="'Open Sans', Arial, Helvetica, sans-serif" font-style="normal"><text text-anchor="middle" dominant-baseline="auto" x="11.4" y="195.2" transform="rotate(-90,11.4,195.2)"><tspan class="v-title viz-axis-title" dominant-baseline="auto">Profit</tspan></text></g></g><g class="v-m-axisBody" transform="translate(25.4,0)"><clipPath class="v-clippath-labels" id="clip-path-a36e3ccd-1a16-425a-9f77-b6413d253e2a"><rect x="-1" y="-10" width="31" height="410.4"></rect></clipPath><clipPath class="v-clippath-ticks" id="clip-path-226faf3d-d8c5-41b5-b6c8-8d415040f248"><rect x="-1" y="-1" width="31" height="392.4"></rect></clipPath><rect class="v-bound" width="29" height="390.4" fill="transparent"></rect><g clip-path="url(#clip-path-226faf3d-d8c5-41b5-b6c8-8d415040f248)"><g class="v-tick-group"><line class="v-valueaxisline v-tick" stroke="#878786" stroke-width="1" shape-rendering="crispEdges" x1="29" y1="390.4" x2="24" y2="390.4"></line><line class="v-valueaxisline v-tick" stroke="#878786" stroke-width="1" shape-rendering="crispEdges" x1="29" y1="312.32" x2="24" y2="312.32"></line><line class="v-valueaxisline v-tick" stroke="#878786" stroke-width="1" shape-rendering="crispEdges" x1="29" y1="234.24" x2="24" y2="234.24"></line><line class="v-valueaxisline v-tick" stroke="#878786" stroke-width="1" shape-rendering="crispEdges" x1="29" y1="156.16" x2="24" y2="156.16"></line><line class="v-valueaxisline v-tick" stroke="#878786" stroke-width="1" shape-rendering="crispEdges" x1="29" y1="78.08" x2="24" y2="78.08"></line><line class="v-valueaxisline v-tick" stroke="#878786" stroke-width="1" shape-rendering="crispEdges" x1="29" y1="0" x2="24" y2="0"></line></g></g><g clip-path="url(#clip-path-a36e3ccd-1a16-425a-9f77-b6413d253e2a)"><g class="v-label-group"><g class="v-label v-morphable-label viz-axis-label" fill="#737373" font-size="10px" font-weight="normal" font-family="'Open Sans', Arial, Helvetica, sans-serif" font-style="normal"><text text-anchor="end" x="18" y="394.4">0</text></g><g class="v-label v-morphable-label viz-axis-label" fill="#737373" font-size="10px" font-weight="normal" font-family="'Open Sans', Arial, Helvetica, sans-serif" font-style="normal"><text text-anchor="end" x="18" y="316.32">20</text></g><g class="v-label v-morphable-label viz-axis-label" fill="#737373" font-size="10px" font-weight="normal" font-family="'Open Sans', Arial, Helvetica, sans-serif" font-style="normal"><text text-anchor="end" x="18" y="238.23999999999998">40</text></g><g class="v-label v-morphable-label viz-axis-label" fill="#737373" font-size="10px" font-weight="normal" font-family="'Open Sans', Arial, Helvetica, sans-serif" font-style="normal"><text text-anchor="end" x="18" y="160.16">60</text></g><g class="v-label v-morphable-label viz-axis-label" fill="#737373" font-size="10px" font-weight="normal" font-family="'Open Sans', Arial, Helvetica, sans-serif" font-style="normal"><text text-anchor="end" x="18" y="82.07999999999998">80</text></g><g class="v-label v-morphable-label viz-axis-label" fill="#737373" font-size="10px" font-weight="normal" font-family="'Open Sans', Arial, Helvetica, sans-serif" font-style="normal"><text text-anchor="end" x="18" y="4">100</text></g></g></g></g></g></g><g class="v-m-scrollbar" transform="translate(485, 0)"></g></g></svg>