<svg class="v-m-root" viewBox="0 0 600 500" width="600" height="500" xmlns="http://www.w3.org/2000/svg" style="left: 0px; top: 0px; direction: ltr; height: 100%; width: 100%; display: block; cursor: default;"><defs></defs><g class="v-m-action-layer-group"></g><g class="v-m-background"><rect class="v-background-body viz-plot-background v-morphable-background" x="0" y="0" width="600" height="500" style="fill:transparent"></rect></g><g class="v-m-title" transform="translate(24, 24)"></g><g class="v-m-legendGroup" transform="translate(446, 24)"><g class="v-m-legend" transform="translate(0,0)"><rect class="v-bound" width="130" height="201" fill="transparent"></rect><text class="v-title viz-legend-title" font-weight="bold" fill="#000000" font-family="'Open Sans', Arial, Helvetica, sans-serif" font-size="14px" font-style="normal" x="0" y="14" visibility="inherit">Store Name</text><g class="v-content" transform="translate(0, 21)" font-size="12px" font-family="'Open Sans', Arial, Helvetica, sans-serif" font-weight="normal" fill="#000000" font-style="normal"><rect class="v-legend-body-bound" x="-5" fill="transparent" width="135" height="180"></rect><g class="v-groups v-label viz-legend-valueLabel" transform="translate(0, 0)"><g class="v-legend-element v-legend-item" transform="translate (-5,0)" legendlabel-id="0"><rect width="135" height="18" fill="transparent"></rect><path class="v-legend-marker" fill="#5cbae6" stroke-width="0" stroke="transparent" opacity="1" stroke-opacity="undefined" d="M0,-6L-3,-6Q-6,-6 -6,-3L-6,3Q-6,6 -3,6L3,6Q6,6 6,3L6,-3Q6,-6 3,-6Z" transform="translate(11,9)"></path><text x="23" y="3" dy="0.85em">24-Seven</text></g><g class="v-legend-element v-legend-item" transform="translate (-5,18)" legendlabel-id="1"><rect width="135" height="18" fill="transparent"></rect><path class="v-legend-marker" fill="#b6d957" stroke-width="0" stroke="transparent" opacity="1" stroke-opacity="undefined" d="M0,-6L-3,-6Q-6,-6 -6,-3L-6,3Q-6,6 -3,6L3,6Q6,6 6,3L6,-3Q6,-6 3,-6Z" transform="translate(11,9)"></path><text x="23" y="3" dy="0.85em">A&amp;A</text></g><g class="v-legend-element v-legend-item" transform="translate (-5,36)" legendlabel-id="2"><rect width="135" height="18" fill="transparent"></rect><path class="v-legend-marker" fill="#fac364" stroke-width="0" stroke="transparent" opacity="1" stroke-opacity="undefined" d="M0,-6L-3,-6Q-6,-6 -6,-3L-6,3Q-6,6 -3,6L3,6Q6,6 6,3L6,-3Q6,-6 3,-6Z" transform="translate(11,9)"></path><text x="23" y="3" dy="0.85em">Alexei's Specialities</text></g><g class="v-legend-element v-legend-item" transform="translate (-5,54)" legendlabel-id="3"><rect width="135" height="18" fill="transparent"></rect><path class="v-legend-marker" fill="#8cd3ff" stroke-width="0" stroke="transparent" opacity="1" stroke-opacity="undefined" d="M0,-6L-3,-6Q-6,-6 -6,-3L-6,3Q-6,6 -3,6L3,6Q6,6 6,3L6,-3Q6,-6 3,-6Z" transform="translate(11,9)"></path><text x="23" y="3" dy="0.85em">BC Market</text></g><g class="v-legend-element v-legend-item" transform="translate (-5,72)" legendlabel-id="4"><rect width="135" height="18" fill="transparent"></rect><path class="v-legend-marker" fill="#d998cb" stroke-width="0" stroke="transparent" opacity="1" stroke-opacity="undefined" d="M0,-6L-3,-6Q-6,-6 -6,-3L-6,3Q-6,6 -3,6L3,6Q6,6 6,3L6,-3Q6,-6 3,-6Z" transform="translate(11,9)"></path><text x="23" y="3" dy="0.85em">Choices Franchise 1</text></g><g class="v-legend-element v-legend-item" transform="translate (-5,90)" legendlabel-id="5"><rect width="135" height="18" fill="transparent"></rect><path class="v-legend-marker" fill="#fade64" stroke-width="0" stroke="transparent" opacity="1" stroke-opacity="undefined" d="M0,-6L-3,-6Q-6,-6 -6,-3L-6,3Q-6,6 -3,6L3,6Q6,6 6,3L6,-3Q6,-6 3,-6Z" transform="translate(11,9)"></path><text x="23" y="3" dy="0.85em">Choices Franchise 3</text></g><g class="v-legend-element v-legend-item" transform="translate (-5,108)" legendlabel-id="6"><rect width="135" height="18" fill="transparent" class=""></rect><path class="v-legend-marker" fill="#93b9c6" stroke-width="0" stroke="transparent" opacity="1" stroke-opacity="undefined" d="M0,-6L-3,-6Q-6,-6 -6,-3L-6,3Q-6,6 -3,6L3,6Q6,6 6,3L6,-3Q6,-6 3,-6Z" transform="translate(11,9)"></path><text x="23" y="3" dy="0.85em">Choices Franchise 6</text></g><g class="v-legend-element v-legend-item" transform="translate (-5,126)" legendlabel-id="7"><rect width="135" height="18" fill="transparent" class=""></rect><path class="v-legend-marker" fill="#d9d6c7" stroke-width="0" stroke="transparent" opacity="1" stroke-opacity="undefined" d="M0,-6L-3,-6Q-6,-6 -6,-3L-6,3Q-6,6 -3,6L3,6Q6,6 6,3L6,-3Q6,-6 3,-6Z" transform="translate(11,9)"></path><text x="23" y="3" dy="0.85em">Dairy World</text></g><g class="v-legend-element v-legend-item" transform="translate (-5,144)" legendlabel-id="8"><rect width="135" height="18" fill="transparent" class=""></rect><path class="v-legend-marker" fill="#52bacc" stroke-width="0" stroke="transparent" opacity="1" stroke-opacity="undefined" d="M0,-6L-3,-6Q-6,-6 -6,-3L-6,3Q-6,6 -3,6L3,6Q6,6 6,3L6,-3Q6,-6 3,-6Z" transform="translate(11,9)"></path><text x="23" y="3" dy="0.85em">Delikatessen</text></g><g class="v-legend-element v-legend-item" transform="translate (-5,162)" legendlabel-id="9"><rect width="135" height="18" fill="transparent" class=""></rect><path class="v-legend-marker" fill="#dce65c" stroke-width="0" stroke="transparent" opacity="1" stroke-opacity="undefined" d="M0,-6L-3,-6Q-6,-6 -6,-3L-6,3Q-6,6 -3,6L3,6Q6,6 6,3L6,-3Q6,-6 3,-6Z" transform="translate(11,9)"></path><text x="23" y="3" dy="0.85em">Donald's Market</text></g></g></g></g></g><g class="v-m-plot" transform="translate(24, 24)"><rect class="v-background-body viz-plot-background v-morphable-background" x="0" y="0" width="399.92" height="452" style="fill:transparent"></rect><clipPath id="plot_main_clipPath_3dcd9f54-eb43-46f3-b1a0-2c074fd161c1"><rect y="-1" width="400.92" height="453"></rect></clipPath><rect class="v-plot-bound v-bound v-zoom-plot" width="399.92" height="452" fill="transparent"></rect><g clip-path="url(#plot_main_clipPath_3dcd9f54-eb43-46f3-b1a0-2c074fd161c1)"><g class="v-plot-main" transform="translate(0, 0)"><g class="v-datapoint-group" transform="translate(199.96, 158.7005609841828)"><g data-id="0" data-datapoint-id="21" class="v-datapoint v-morphable-datapoint v-datapoint-default"><path fill="#5cbae6" d="M8.657604316540957e-15,-141.38940831868777A141.38940831868777,141.38940831868777 0 0,1 20.798365561970936,-139.85132382161865L0,0Z"></path></g><g data-id="1" data-datapoint-id="22" class="v-datapoint v-morphable-datapoint v-datapoint-default"><path fill="#b6d957" d="M20.798365561970936,-139.85132382161865A141.38940831868777,141.38940831868777 0 0,1 95.48133717174106,-104.27981126088075L0,0Z"></path></g><g data-id="2" data-datapoint-id="23" class="v-datapoint v-morphable-datapoint v-datapoint-default"><path fill="#fac364" d="M95.48133717174106,-104.27981126088075A141.38940831868777,141.38940831868777 0 0,1 131.7974651041657,-51.18977414313179L0,0Z"></path></g><g data-id="3" data-datapoint-id="24" class="v-datapoint v-morphable-datapoint v-datapoint-default"><path fill="#8cd3ff" d="M131.7974651041657,-51.18977414313179A141.38940831868777,141.38940831868777 0 0,1 135.99286785905375,38.68985236697807L0,0Z"></path></g><g data-id="4" data-datapoint-id="25" class="v-datapoint v-morphable-datapoint v-datapoint-default"><path fill="#d998cb" d="M135.99286785905375,38.68985236697807A141.38940831868777,141.38940831868777 0 0,1 17.78768010447295,140.26604443417358L0,0Z"></path></g><g data-id="5" data-datapoint-id="26" class="v-datapoint v-morphable-datapoint v-datapoint-default"><path fill="#fade64" d="M17.78768010447295,140.26604443417358A141.38940831868777,141.38940831868777 0 0,1 -79.18448197983442,117.13574432381387L0,0Z"></path></g><g data-id="6" data-datapoint-id="27" class="v-datapoint v-morphable-datapoint v-datapoint-default"><path fill="#93b9c6" d="M-79.18448197983442,117.13574432381387A141.38940831868777,141.38940831868777 0 0,1 -134.65345002381108,43.12091350370065L0,0Z"></path></g><g data-id="7" data-datapoint-id="28" class="v-datapoint v-morphable-datapoint v-datapoint-default"><path fill="#d9d6c7" d="M-134.65345002381108,43.12091350370065A141.38940831868777,141.38940831868777 0 0,1 -141.20947905224915,7.130765071226187L0,0Z"></path></g><g data-id="8" data-datapoint-id="29" class="v-datapoint v-morphable-datapoint v-datapoint-default"><path fill="#52bacc" d="M-141.20947905224915,7.130765071226187A141.38940831868777,141.38940831868777 0 0,1 -128.50750241039808,-58.96428248482424L0,0Z"></path></g><g data-id="9" data-datapoint-id="30" class="v-datapoint v-morphable-datapoint v-datapoint-default"><path fill="#dce65c" d="M-128.50750241039808,-58.96428248482424A141.38940831868777,141.38940831868777 0 0,1 -1.5155183419245071e-13,-141.38940831868777L0,0Z"></path></g></g><g class="v-datalabel-group" fill="#333333" font-family="'Open Sans', Arial, Helvetica, sans-serif" font-size="12px" font-weight="normal" font-style="normal" cssString="fill:#333333;font-family:'Open Sans', Arial, Helvetica, sans-serif;font-size:12px;font-weight:normal;font-style:normal;"><g data-datapoint-id="23" class="v-datalabel v-morphable-label" transform="translate(192.309281562154,122.78686311228753)" fill="#333333"><text>Ale... Specialities   (7.3%)</text></g><g data-datapoint-id="24" class="v-datalabel v-morphable-label" transform="translate(219.07782037043899,159.40426200081288)" fill="#333333"><text>BC Market   (10.3%)</text></g><g data-datapoint-id="26" class="v-datalabel v-morphable-label" transform="translate(111.05768587252419,231.46614206483042)" fill="#333333"><text>Cho... Franchise 3   (11.5%)</text></g><g data-datapoint-id="27" class="v-datalabel v-morphable-label" transform="translate(70.88878150565859,205.09676034620108)" fill="#333333"><text>Cho... Franchise 6   (10.6%)</text></g><g data-datapoint-id="28" class="v-datalabel v-morphable-label" transform="translate(78.90982410150136,175.36994567436284)" fill="#333333"><text>Dairy World   (4.1%)</text></g><g data-datapoint-id="29" class="v-datalabel v-morphable-label" transform="translate(75.53567497385396,149.35877158993364)" fill="#333333"><text>Delikatessen   (7.6%)</text></g><g data-datapoint-id="30" class="v-datalabel v-morphable-label" transform="translate(102.79254712417975,103.19437508331406)" fill="#333333"><text>Don... Market   (18.2%)</text></g></g></g></g></g></svg>