<svg class="v-m-root" viewBox="0 0 600 500" width="600" height="500" xmlns="http://www.w3.org/2000/svg" style="left: 0px; top: 0px; direction: ltr; height: 100%; width: 100%; display: block; cursor: default;"><defs></defs><g class="v-m-action-layer-group"></g><g class="v-m-background"><rect class="v-background-body viz-plot-background v-morphable-background" x="0" y="0" width="600" height="500" style="fill:transparent"></rect></g><g class="v-m-title" transform="translate(24, 24)"></g><g class="v-m-legendGroup" transform="translate(533, 30)"><g class="v-m-legend" transform="translate(0,0)"><rect class="v-bound" width="43" height="52.5" fill="transparent"></rect><g class="v-content" transform="translate(0, 0)" font-size="10px" font-family="'Open Sans', Arial, Helvetica, sans-serif" font-weight="normal" fill="#737373" font-style="normal"><rect class="v-legend-body-bound" x="-5" fill="transparent" width="48" height="52.5"></rect><g class="v-groups v-label viz-legend-valueLabel" transform="translate(0, 0)"><g class="v-legend-element v-legend-item" transform="translate (-5,0)" legendlabel-id="0"><rect height="17.5" fill="transparent" width="48"></rect><path transform="translate(12,8.25)" class="v-legend-marker" fill="#73d2e0" stroke-width="0" stroke="transparent" opacity="1" stroke-opacity="undefined" d="M-7,0 A7,7 0 1,0 7,0 A7,7 0 1,0 -7,0z"></path><text x="24" y="3.25" dy="0.85em">2009</text></g><g class="v-legend-element v-legend-item" transform="translate (-5,17.5)" legendlabel-id="1"><rect height="17.5" fill="transparent" width="48"></rect><path transform="translate(12,8.25)" class="v-legend-marker" fill="#bbd03b" stroke-width="0" stroke="transparent" opacity="1" stroke-opacity="undefined" d="M-7,0 A7,7 0 1,0 7,0 A7,7 0 1,0 -7,0z"></path><text x="24" y="3.25" dy="0.85em">2010</text></g><g class="v-legend-element v-legend-item" transform="translate (-5,35)" legendlabel-id="2"><rect height="17.5" fill="transparent" width="48"></rect><path transform="translate(12,8.25)" class="v-legend-marker" fill="#999d20" stroke-width="0" stroke="transparent" opacity="1" stroke-opacity="undefined" d="M-7,0 A7,7 0 1,0 7,0 A7,7 0 1,0 -7,0z"></path><text x="24" y="3.25" dy="0.85em">2011</text></g></g></g></g></g><g class="v-m-main" transform="translate(24, 24)"><g class="v-m-plot" transform="translate(0, 6)"><rect class="v-background-body viz-plot-background v-morphable-background" x="0" y="0" width="486.92" height="446" style="fill:transparent"></rect><clipPath id="plot_main_clipPath_edc9d0ce-8382-4cfa-bbd2-49d122a592fb"><rect y="-1" width="487.92" height="447"></rect></clipPath><rect class="v-plot-bound v-bound v-zoom-plot" width="486.92" height="446" fill="transparent"></rect><g clip-path="url(#plot_main_clipPath_edc9d0ce-8382-4cfa-bbd2-49d122a592fb)"><g class="v-plot-main" transform="translate(0, 0)"><g class="v-radar-branch-group"><g class="v-radar-branch-axis-group"><line class="v-radar-branch-axis" stroke="#babab9" stroke-width="1" x1="243.46" y1="226.5" x2="243.46" y2="24"></line><line class="v-radar-branch-axis" stroke="#babab9" stroke-width="1" x1="243.46" y1="226.5" x2="40.96000000000001" y2="226.5"></line><line class="v-radar-branch-axis" stroke="#babab9" stroke-width="1" x1="243.46" y1="226.5" x2="243.45999999999998" y2="429"></line><line class="v-radar-branch-axis" stroke="#babab9" stroke-width="1" x1="243.46" y1="226.5" x2="445.96000000000004" y2="226.50000000000003"></line></g><g class="v-axis"><g class="v-axis-item"><rect fill="transparent" x="229.46" y="1" height="12" width="28" class="viz-axis-label-rect"></rect><text class="v-radar-branch-label" x="229.46" y="12" font-size="11px" font-weight="normal" font-family="'Open Sans', Arial, Helvetica, sans-serif" font-style="normal" fill="#737373">China</text></g><g class="v-axis-item"><rect fill="transparent" x="5.960000000000008" y="221.5" height="12" width="30" class="viz-axis-label-rect"></rect><text class="v-radar-branch-label" x="5.960000000000008" y="232.5" font-size="11px" font-weight="normal" font-family="'Open Sans', Arial, Helvetica, sans-serif" font-style="normal" fill="#737373">Japan</text></g><g class="v-axis-item"><rect fill="transparent" x="225.95999999999998" y="429" height="12" width="35" class="viz-axis-label-rect"></rect><text class="v-radar-branch-label" x="225.95999999999998" y="440" font-size="11px" font-weight="normal" font-family="'Open Sans', Arial, Helvetica, sans-serif" font-style="normal" fill="#737373">France</text></g><g class="v-axis-item"><rect fill="transparent" x="450.96000000000004" y="221.50000000000003" height="12" width="15" class="viz-axis-label-rect"></rect><text class="v-radar-branch-label" x="450.96000000000004" y="232.50000000000003" font-size="11px" font-weight="normal" font-family="'Open Sans', Arial, Helvetica, sans-serif" font-style="normal" fill="#737373">UK</text></g></g></g><g class="v-gridline-group"><g><line class="v-gridline-incisedline" stroke="#ececec" stroke-width="1" x1="283.96000000000004" y1="226.5" x2="243.46" y2="186"></line><line class="v-gridline-incisedline" stroke="#ececec" stroke-width="1" x1="243.46" y1="186" x2="202.96" y2="226.5"></line><line class="v-gridline-incisedline" stroke="#ececec" stroke-width="1" x1="202.96" y1="226.5" x2="243.46" y2="267"></line><line class="v-gridline-incisedline" stroke="#ececec" stroke-width="1" x1="243.46" y1="267" x2="283.96000000000004" y2="226.5"></line></g><g><line class="v-gridline-incisedline" stroke="#ececec" stroke-width="1" x1="324.46000000000004" y1="226.50000000000003" x2="243.46" y2="145.5"></line><line class="v-gridline-incisedline" stroke="#ececec" stroke-width="1" x1="243.46" y1="145.5" x2="162.46" y2="226.5"></line><line class="v-gridline-incisedline" stroke="#ececec" stroke-width="1" x1="162.46" y1="226.5" x2="243.46" y2="307.5"></line><line class="v-gridline-incisedline" stroke="#ececec" stroke-width="1" x1="243.46" y1="307.5" x2="324.46000000000004" y2="226.50000000000003"></line></g><g><line class="v-gridline-incisedline" stroke="#ececec" stroke-width="1" x1="364.96000000000004" y1="226.50000000000003" x2="243.46" y2="104.99999999999999"></line><line class="v-gridline-incisedline" stroke="#ececec" stroke-width="1" x1="243.46" y1="104.99999999999999" x2="121.96" y2="226.5"></line><line class="v-gridline-incisedline" stroke="#ececec" stroke-width="1" x1="121.96" y1="226.5" x2="243.45999999999998" y2="348"></line><line class="v-gridline-incisedline" stroke="#ececec" stroke-width="1" x1="243.45999999999998" y1="348" x2="364.96000000000004" y2="226.50000000000003"></line></g><g><line class="v-gridline-incisedline" stroke="#ececec" stroke-width="1" x1="405.46000000000004" y1="226.50000000000003" x2="243.46" y2="64.5"></line><line class="v-gridline-incisedline" stroke="#ececec" stroke-width="1" x1="243.46" y1="64.5" x2="81.46000000000001" y2="226.5"></line><line class="v-gridline-incisedline" stroke="#ececec" stroke-width="1" x1="81.46000000000001" y1="226.5" x2="243.45999999999998" y2="388.5"></line><line class="v-gridline-incisedline" stroke="#ececec" stroke-width="1" x1="243.45999999999998" y1="388.5" x2="405.46000000000004" y2="226.50000000000003"></line></g><g><line class="v-gridline-incisedline" stroke="#ececec" stroke-width="1" x1="445.96000000000004" y1="226.50000000000003" x2="243.46" y2="24"></line><line class="v-gridline-incisedline" stroke="#ececec" stroke-width="1" x1="243.46" y1="24" x2="40.96000000000001" y2="226.5"></line><line class="v-gridline-incisedline" stroke="#ececec" stroke-width="1" x1="40.96000000000001" y1="226.5" x2="243.45999999999998" y2="429"></line><line class="v-gridline-incisedline" stroke="#ececec" stroke-width="1" x1="243.45999999999998" y1="429" x2="445.96000000000004" y2="226.50000000000003"></line></g></g><g class="v-datapoint-group"><g><path d="M243.46,117.612915L159.08594499999998,226.5L243.45999999999998,358.86048L313.97900500000003,226.5L243.46,117.612915" fill-opacity="0" fill="#73d2e0" stroke-width="2" stroke="#73d2e0" stroke-linejoin="round" class="v-radar-net" style="pointer-events: none;"></path><g data-id="0" data-datapoint-id="1" class="v-datapoint v-morphable-datapoint v-datapoint-default" transform="translate(243.46, 117.612915)"><path d="M-4,0 A4,4 0 1,0 4,0 A4,4 0 1,0 -4,0z" fill="#73d2e0"></path></g><g data-id="1" data-datapoint-id="2" class="v-datapoint v-morphable-datapoint v-datapoint-default" transform="translate(159.08594499999998, 226.5)"><path d="M-4,0 A4,4 0 1,0 4,0 A4,4 0 1,0 -4,0z" fill="#73d2e0"></path></g><g data-id="2" data-datapoint-id="3" class="v-datapoint v-morphable-datapoint v-datapoint-default" transform="translate(243.45999999999998, 358.86048)"><path d="M-4,0 A4,4 0 1,0 4,0 A4,4 0 1,0 -4,0z" fill="#73d2e0"></path></g><g data-id="3" data-datapoint-id="4" class="v-datapoint v-morphable-datapoint v-datapoint-default" transform="translate(313.97900500000003, 226.5)"><path d="M-4,0 A4,4 0 1,0 4,0 A4,4 0 1,0 -4,0z" fill="#73d2e0"></path></g></g><g><path d="M243.46,114.93222L85.78539999999998,226.5L243.45999999999998,361.91985L345.104065,226.50000000000003L243.46,114.93222" fill-opacity="0" fill="#bbd03b" stroke-width="2" stroke="#bbd03b" stroke-linejoin="round" class="v-radar-net" style="pointer-events: none;"></path><g data-id="4" data-datapoint-id="5" class="v-datapoint v-morphable-datapoint v-datapoint-default" transform="translate(243.46, 114.93222)"><path d="M-4,0 A4,4 0 1,0 4,0 A4,4 0 1,0 -4,0z" fill="#bbd03b"></path></g><g data-id="5" data-datapoint-id="6" class="v-datapoint v-morphable-datapoint v-datapoint-default" transform="translate(85.78539999999998, 226.5)"><path d="M-4,0 A4,4 0 1,0 4,0 A4,4 0 1,0 -4,0z" fill="#bbd03b"></path></g><g data-id="6" data-datapoint-id="7" class="v-datapoint v-morphable-datapoint v-datapoint-default" transform="translate(243.45999999999998, 361.91985)"><path d="M-4,0 A4,4 0 1,0 4,0 A4,4 0 1,0 -4,0z" fill="#bbd03b"></path></g><g data-id="7" data-datapoint-id="8" class="v-datapoint v-morphable-datapoint v-datapoint-default" transform="translate(345.104065, 226.50000000000003)"><path d="M-4,0 A4,4 0 1,0 4,0 A4,4 0 1,0 -4,0z" fill="#bbd03b"></path></g></g><g><path d="M243.46,139.14555L107.69185000000002,226.5L243.45999999999998,419.564715L278.160805,226.5L243.46,139.14555" fill-opacity="0" fill="#999d20" stroke-width="2" stroke="#999d20" stroke-linejoin="round" class="v-radar-net" style="pointer-events: none;"></path><g data-id="8" data-datapoint-id="9" class="v-datapoint v-morphable-datapoint v-datapoint-default" transform="translate(243.46, 139.14555)"><path d="M-4,0 A4,4 0 1,0 4,0 A4,4 0 1,0 -4,0z" fill="#999d20"></path></g><g data-id="9" data-datapoint-id="10" class="v-datapoint v-morphable-datapoint v-datapoint-default" transform="translate(107.69185000000002, 226.5)"><path d="M-4,0 A4,4 0 1,0 4,0 A4,4 0 1,0 -4,0z" fill="#999d20"></path></g><g data-id="10" data-datapoint-id="11" class="v-datapoint v-morphable-datapoint v-datapoint-default" transform="translate(243.45999999999998, 419.564715)"><path d="M-4,0 A4,4 0 1,0 4,0 A4,4 0 1,0 -4,0z" fill="#999d20"></path></g><g data-id="11" data-datapoint-id="12" class="v-datapoint v-morphable-datapoint v-datapoint-default" transform="translate(278.160805, 226.5)"><path d="M-4,0 A4,4 0 1,0 4,0 A4,4 0 1,0 -4,0z" fill="#999d20"></path></g></g></g><g class="v-datalabel-group"><g data-datapoint-id="1" class="v-datalabel v-morphable-label" fill="#2bafc2" font-family="'Open Sans', Arial, Helvetica, sans-serif" font-size="12px" font-weight="normal" font-style="normal" cssString="fill:#2bafc2;font-family:'Open Sans', Arial, Helvetica, sans-serif;font-size:12px;font-weight:normal;font-style:normal;" transform="translate(247.4600067138672,113.6129150390625)"><text>26885.7</text></g><g data-datapoint-id="2" class="v-datalabel v-morphable-label" fill="#2bafc2" font-family="'Open Sans', Arial, Helvetica, sans-serif" font-size="12px" font-weight="normal" font-style="normal" cssString="fill:#2bafc2;font-family:'Open Sans', Arial, Helvetica, sans-serif;font-size:12px;font-weight:normal;font-style:normal;" transform="translate(110.0859375,222.5)"><text>20833.1</text></g><g data-datapoint-id="3" class="v-datalabel v-morphable-label" fill="#2bafc2" font-family="'Open Sans', Arial, Helvetica, sans-serif" font-size="12px" font-weight="normal" font-style="normal" cssString="fill:#2bafc2;font-family:'Open Sans', Arial, Helvetica, sans-serif;font-size:12px;font-weight:normal;font-style:normal;" transform="translate(247.4600067138672,372.8604736328125)"><text>32681.6</text></g><g data-datapoint-id="4" class="v-datalabel v-morphable-label" fill="#2bafc2" font-family="'Open Sans', Arial, Helvetica, sans-serif" font-size="12px" font-weight="normal" font-style="normal" cssString="fill:#2bafc2;font-family:'Open Sans', Arial, Helvetica, sans-serif;font-size:12px;font-weight:normal;font-style:normal;" transform="translate(317.97900390625,222.5)"><text>17412.1</text></g><g data-datapoint-id="5" class="v-datalabel v-morphable-label" fill="#778520" font-family="'Open Sans', Arial, Helvetica, sans-serif" font-size="12px" font-weight="normal" font-style="normal" cssString="fill:#778520;font-family:'Open Sans', Arial, Helvetica, sans-serif;font-size:12px;font-weight:normal;font-style:normal;" transform="translate(247.4600067138672,128.93222045898438)"><text>27547.6</text></g><g data-datapoint-id="6" class="v-datalabel v-morphable-label" fill="#778520" font-family="'Open Sans', Arial, Helvetica, sans-serif" font-size="12px" font-weight="normal" font-style="normal" cssString="fill:#778520;font-family:'Open Sans', Arial, Helvetica, sans-serif;font-size:12px;font-weight:normal;font-style:normal;" transform="translate(46.785400390625,222.5)"><text>38932</text></g><g data-datapoint-id="7" class="v-datalabel v-morphable-label" fill="#778520" font-family="'Open Sans', Arial, Helvetica, sans-serif" font-size="12px" font-weight="normal" font-style="normal" cssString="fill:#778520;font-family:'Open Sans', Arial, Helvetica, sans-serif;font-size:12px;font-weight:normal;font-style:normal;" transform="translate(247.4600067138672,357.91986083984375)"><text>33437</text></g><g data-datapoint-id="8" class="v-datalabel v-morphable-label" fill="#778520" font-family="'Open Sans', Arial, Helvetica, sans-serif" font-size="12px" font-weight="normal" font-style="normal" cssString="fill:#778520;font-family:'Open Sans', Arial, Helvetica, sans-serif;font-size:12px;font-weight:normal;font-style:normal;" transform="translate(349.10406494140625,240.5)"><text>25097.3</text></g><g data-datapoint-id="9" class="v-datalabel v-morphable-label" fill="#46480f" font-family="'Open Sans', Arial, Helvetica, sans-serif" font-size="12px" font-weight="normal" font-style="normal" cssString="fill:#46480f;font-family:'Open Sans', Arial, Helvetica, sans-serif;font-size:12px;font-weight:normal;font-style:normal;" transform="translate(247.4600067138672,153.1455535888672)"><text>21569</text></g><g data-datapoint-id="10" class="v-datalabel v-morphable-label" fill="#46480f" font-family="'Open Sans', Arial, Helvetica, sans-serif" font-size="12px" font-weight="normal" font-style="normal" cssString="fill:#46480f;font-family:'Open Sans', Arial, Helvetica, sans-serif;font-size:12px;font-weight:normal;font-style:normal;" transform="translate(68.69184875488281,240.5)"><text>33523</text></g><g data-datapoint-id="11" class="v-datalabel v-morphable-label" fill="#46480f" font-family="'Open Sans', Arial, Helvetica, sans-serif" font-size="12px" font-weight="normal" font-style="normal" cssString="fill:#46480f;font-family:'Open Sans', Arial, Helvetica, sans-serif;font-size:12px;font-weight:normal;font-style:normal;" transform="translate(247.4600067138672,415.5647277832031)"><text>47670.3</text></g><g data-datapoint-id="12" class="v-datalabel v-morphable-label" fill="#46480f" font-family="'Open Sans', Arial, Helvetica, sans-serif" font-size="12px" font-weight="normal" font-style="normal" cssString="fill:#46480f;font-family:'Open Sans', Arial, Helvetica, sans-serif;font-size:12px;font-weight:normal;font-style:normal;" transform="translate(282.1607971191406,240.5)"><text>8568.1</text></g></g></g></g></g><g class="v-m-valueAxis v-m-yAxis" transform="translate(202.46, 26.5)" style="pointer-events: none;"><rect class="v-bound" width="41" height="202.5" fill="transparent"></rect><g class="v-axis"><g class="v-m-axisBody" transform="translate(0,0)"><clipPath class="v-clippath-labels" id="clip-path-7a1f46a6-3259-46b7-a23e-2e5957c630e8"><rect x="-1" y="-10" width="43" height="222.5"></rect></clipPath><rect class="v-bound" width="41" height="202.5" fill="transparent"></rect><g clip-path="url(#clip-path-7a1f46a6-3259-46b7-a23e-2e5957c630e8)"><g class="v-label-group"><g class="v-label v-morphable-label viz-axis-label" fill="#737373" font-size="10px" font-weight="normal" font-family="'Open Sans', Arial, Helvetica, sans-serif" font-style="normal"><text text-anchor="end" x="30" y="206.5">0</text></g><g class="v-label v-morphable-label viz-axis-label" fill="#737373" font-size="10px" font-weight="normal" font-family="'Open Sans', Arial, Helvetica, sans-serif" font-style="normal"><text text-anchor="end" x="30" y="166">10000</text></g><g class="v-label v-morphable-label viz-axis-label" fill="#737373" font-size="10px" font-weight="normal" font-family="'Open Sans', Arial, Helvetica, sans-serif" font-style="normal"><text text-anchor="end" x="30" y="125.5">20000</text></g><g class="v-label v-morphable-label viz-axis-label" fill="#737373" font-size="10px" font-weight="normal" font-family="'Open Sans', Arial, Helvetica, sans-serif" font-style="normal"><text text-anchor="end" x="30" y="84.99999999999999">30000</text></g><g class="v-label v-morphable-label viz-axis-label" fill="#737373" font-size="10px" font-weight="normal" font-family="'Open Sans', Arial, Helvetica, sans-serif" font-style="normal"><text text-anchor="end" x="30" y="44.5">40000</text></g><g class="v-label v-morphable-label viz-axis-label" fill="#737373" font-size="10px" font-weight="normal" font-family="'Open Sans', Arial, Helvetica, sans-serif" font-style="normal"><text text-anchor="end" x="30" y="4">50000</text></g></g></g></g></g></g></g></svg>