<svg class="v-m-root" viewBox="0 0 600 500" width="600" height="500" xmlns="http://www.w3.org/2000/svg" style="left: 0px; top: 0px; direction: ltr; height: 100%; width: 100%; display: block; cursor: default;"><defs></defs><g class="v-m-action-layer-group"></g><g class="v-m-background"><rect class="v-background-body viz-plot-background v-morphable-background" x="0" y="0" width="600" height="500" style="fill:transparent"></rect></g><g class="v-m-title" transform="translate(104.84, 24)"></g><g class="v-m-legendGroup" transform="translate(473, 24)"><g class="v-m-legend" transform="translate(0,0)"><rect class="v-bound" width="103" height="57" fill="transparent"></rect><text class="v-title viz-legend-title" font-weight="bold" fill="#000000" font-family="'Open Sans', Arial, Helvetica, sans-serif" font-size="14px" font-style="normal" x="0" y="14" visibility="inherit">Fat Percentage</text><g class="v-content" transform="translate(0, 21)" font-size="12px" font-family="'Open Sans', Arial, Helvetica, sans-serif" font-weight="normal" fill="#000000" font-style="normal"><rect class="v-legend-body-bound" x="-5" fill="transparent" width="108" height="36"></rect><g class="v-groups v-label viz-legend-valueLabel" transform="translate(0, 0)"><g class="v-legend-element v-legend-item" transform="translate (-5,0)" legendlabel-id="0"><rect width="108" height="18" fill="transparent"></rect><path class="v-legend-marker" fill="#5cbae6" stroke-width="0" stroke="transparent" opacity="1" stroke-opacity="undefined" d="M-6,0 A6,6 0 1,0 6,0 A6,6 0 1,0 -6,0z" transform="translate(11,9)"></path><text x="23" y="3" dy="0.85em">1 Percent</text></g><g class="v-legend-element v-legend-item" transform="translate (-5,18)" legendlabel-id="1"><rect width="108" height="18" fill="transparent"></rect><path class="v-legend-marker" fill="#b6d957" stroke-width="0" stroke="transparent" opacity="1" stroke-opacity="undefined" d="M-6,0 A6,6 0 1,0 6,0 A6,6 0 1,0 -6,0z" transform="translate(11,9)"></path><text x="23" y="3" dy="0.85em">2 Percent</text></g></g></g></g></g><g class="v-m-main" transform="translate(24, 24)"><g class="v-m-plot" transform="translate(80.84, 0)"><rect class="v-background-body viz-plot-background v-morphable-background" x="0" y="0" width="334.08000000000004" height="388.76" style="fill:transparent"></rect><clipPath id="plot_main_clipPath_0f93cd70-0f48-4d96-a4fe-27427f7daf19"><rect y="-1" width="335.08000000000004" height="389.76"></rect></clipPath><rect class="v-plot-bound v-bound v-zoom-plot" width="334.08000000000004" height="388.76" fill="transparent"></rect><g clip-path="url(#plot_main_clipPath_0f93cd70-0f48-4d96-a4fe-27427f7daf19)"><g class="v-plot-main" transform="translate(0, 0)"><g class="v-gridline-group"><g class="v-gridline" stroke="#d8d8d8" stroke-width="1" shape-rendering="crispEdges"><line class="v-gridline-mainline" x1="0" y1="388.76" x2="334.08" y2="388.76"></line></g><g class="v-gridline" stroke="#d8d8d8" stroke-width="1" shape-rendering="crispEdges"><line class="v-gridline-mainline" x1="0" y1="291.57" x2="334.08" y2="291.57"></line></g><g class="v-gridline" stroke="#d8d8d8" stroke-width="1" shape-rendering="crispEdges"><line class="v-gridline-mainline" x1="0" y1="194.38" x2="334.08" y2="194.38"></line></g><g class="v-gridline" stroke="#d8d8d8" stroke-width="1" shape-rendering="crispEdges"><line class="v-gridline-mainline" x1="0" y1="97.18999999999994" x2="334.08" y2="97.18999999999994"></line></g><g class="v-gridline" stroke="#d8d8d8" stroke-width="1" shape-rendering="crispEdges"><line class="v-gridline-mainline" x1="0" y1="0" x2="334.08" y2="0"></line></g></g><g class="v-datapoint-group"><g data-id="0" data-datapoint-id="51" class="v-datapoint v-morphable-datapoint v-datapoint-default" transform="translate(35.7644441376, 342.894328456)"><path class="undefined" fill="#5cbae6" stroke-width="1" stroke="#ffffff" opacity="0.8" stroke-opacity="undefined" d="M-5.5,0 A5.5,5.5 0 1,0 5.5,0 A5.5,5.5 0 1,0 -5.5,0z"></path></g><g data-id="1" data-datapoint-id="52" class="v-datapoint v-morphable-datapoint v-datapoint-default" transform="translate(143.83383102720003, 255.2524441385)"><path class="undefined" fill="#5cbae6" stroke-width="1" stroke="#ffffff" opacity="0.8" stroke-opacity="undefined" d="M-5.5,0 A5.5,5.5 0 1,0 5.5,0 A5.5,5.5 0 1,0 -5.5,0z"></path></g><g data-id="2" data-datapoint-id="53" class="v-datapoint v-morphable-datapoint v-datapoint-default" transform="translate(111.17987855895169, 275.455616149)"><path class="undefined" fill="#5cbae6" stroke-width="1" stroke="#ffffff" opacity="0.8" stroke-opacity="undefined" d="M-5.5,0 A5.5,5.5 0 1,0 5.5,0 A5.5,5.5 0 1,0 -5.5,0z"></path></g><g data-id="3" data-datapoint-id="54" class="v-datapoint v-morphable-datapoint v-datapoint-default" transform="translate(156.8895488064, 274.5266692695)"><path class="undefined" fill="#5cbae6" stroke-width="1" stroke="#ffffff" opacity="0.8" stroke-opacity="undefined" d="M-5.5,0 A5.5,5.5 0 1,0 5.5,0 A5.5,5.5 0 1,0 -5.5,0z"></path></g><g data-id="4" data-datapoint-id="55" class="v-datapoint v-morphable-datapoint v-datapoint-default" transform="translate(282.8197620288, 105.67315139799996)"><path class="undefined" fill="#5cbae6" stroke-width="1" stroke="#ffffff" opacity="0.8" stroke-opacity="undefined" d="M-5.5,0 A5.5,5.5 0 1,0 5.5,0 A5.5,5.5 0 1,0 -5.5,0z"></path></g><g data-id="5" data-datapoint-id="56" class="v-datapoint v-morphable-datapoint v-datapoint-default" transform="translate(174.5593866144, 195.3748514185)"><path class="undefined" fill="#5cbae6" stroke-width="1" stroke="#ffffff" opacity="0.8" stroke-opacity="undefined" d="M-5.5,0 A5.5,5.5 0 1,0 5.5,0 A5.5,5.5 0 1,0 -5.5,0z"></path></g><g data-id="6" data-datapoint-id="57" class="v-datapoint v-morphable-datapoint v-datapoint-default" transform="translate(161.44345759680002, 221.87152786249996)"><path class="undefined" fill="#5cbae6" stroke-width="1" stroke="#ffffff" opacity="0.8" stroke-opacity="undefined" d="M-5.5,0 A5.5,5.5 0 1,0 5.5,0 A5.5,5.5 0 1,0 -5.5,0z"></path></g><g data-id="7" data-datapoint-id="58" class="v-datapoint v-morphable-datapoint v-datapoint-default" transform="translate(62.854242163200006, 332.465481853)"><path class="undefined" fill="#5cbae6" stroke-width="1" stroke="#ffffff" opacity="0.8" stroke-opacity="undefined" d="M-5.5,0 A5.5,5.5 0 1,0 5.5,0 A5.5,5.5 0 1,0 -5.5,0z"></path></g><g data-id="8" data-datapoint-id="59" class="v-datapoint v-morphable-datapoint v-datapoint-default" transform="translate(116.43294856320001, 260.86726108299996)"><path class="undefined" fill="#5cbae6" stroke-width="1" stroke="#ffffff" opacity="0.8" stroke-opacity="undefined" d="M-5.5,0 A5.5,5.5 0 1,0 5.5,0 A5.5,5.5 0 1,0 -5.5,0z"></path></g><g data-id="9" data-datapoint-id="60" class="v-datapoint v-morphable-datapoint v-datapoint-default" transform="translate(276.3120450682829, 91.52450818949997)"><path class="undefined" fill="#5cbae6" stroke-width="1" stroke="#ffffff" opacity="0.8" stroke-opacity="undefined" d="M-5.5,0 A5.5,5.5 0 1,0 5.5,0 A5.5,5.5 0 1,0 -5.5,0z"></path></g><g data-id="10" data-datapoint-id="61" class="v-datapoint v-morphable-datapoint v-datapoint-default" transform="translate(28.8387928512, 351.056296061)"><path class="undefined" fill="#b6d957" stroke-width="1" stroke="#ffffff" opacity="0.8" stroke-opacity="undefined" d="M-5.5,0 A5.5,5.5 0 1,0 5.5,0 A5.5,5.5 0 1,0 -5.5,0z"></path></g><g data-id="11" data-datapoint-id="62" class="v-datapoint v-morphable-datapoint v-datapoint-default" transform="translate(130.64493142080002, 269.4936073675)"><path class="undefined" fill="#b6d957" stroke-width="1" stroke="#ffffff" opacity="0.8" stroke-opacity="undefined" d="M-5.5,0 A5.5,5.5 0 1,0 5.5,0 A5.5,5.5 0 1,0 -5.5,0z"></path></g><g data-id="12" data-datapoint-id="63" class="v-datapoint v-morphable-datapoint v-datapoint-default" transform="translate(90.6665742144, 299.900125743)"><path class="undefined" fill="#b6d957" stroke-width="1" stroke="#ffffff" opacity="0.8" stroke-opacity="undefined" d="M-5.5,0 A5.5,5.5 0 1,0 5.5,0 A5.5,5.5 0 1,0 -5.5,0z"></path></g><g data-id="13" data-datapoint-id="64" class="v-datapoint v-morphable-datapoint v-datapoint-default" transform="translate(111.0172795776, 317.327701998)"><path class="undefined" fill="#b6d957" stroke-width="1" stroke="#ffffff" opacity="0.8" stroke-opacity="undefined" d="M-5.5,0 A5.5,5.5 0 1,0 5.5,0 A5.5,5.5 0 1,0 -5.5,0z"></path></g><g data-id="14" data-datapoint-id="65" class="v-datapoint v-morphable-datapoint v-datapoint-default" transform="translate(240.59468007360002, 148.29437290749996)"><path class="undefined" fill="#b6d957" stroke-width="1" stroke="#ffffff" opacity="0.8" stroke-opacity="undefined" d="M-5.5,0 A5.5,5.5 0 1,0 5.5,0 A5.5,5.5 0 1,0 -5.5,0z"></path></g><g data-id="15" data-datapoint-id="66" class="v-datapoint v-morphable-datapoint v-datapoint-default" transform="translate(139.19452220160002, 239.02184534499997)"><path class="undefined" fill="#b6d957" stroke-width="1" stroke="#ffffff" opacity="0.8" stroke-opacity="undefined" d="M-5.5,0 A5.5,5.5 0 1,0 5.5,0 A5.5,5.5 0 1,0 -5.5,0z"></path></g><g data-id="16" data-datapoint-id="67" class="v-datapoint v-morphable-datapoint v-datapoint-default" transform="translate(110.2227070464, 281.0120219035)"><path class="undefined" fill="#b6d957" stroke-width="1" stroke="#ffffff" opacity="0.8" stroke-opacity="undefined" d="M-5.5,0 A5.5,5.5 0 1,0 5.5,0 A5.5,5.5 0 1,0 -5.5,0z"></path></g><g data-id="17" data-datapoint-id="68" class="v-datapoint v-morphable-datapoint v-datapoint-default" transform="translate(60.496154352000005, 335.2679603625)"><path class="undefined" fill="#b6d957" stroke-width="1" stroke="#ffffff" opacity="0.8" stroke-opacity="undefined" d="M-5.5,0 A5.5,5.5 0 1,0 5.5,0 A5.5,5.5 0 1,0 -5.5,0z"></path></g><g data-id="18" data-datapoint-id="69" class="v-datapoint v-morphable-datapoint v-datapoint-default" transform="translate(107.44713282240002, 272.39695451849997)"><path class="undefined" fill="#b6d957" stroke-width="1" stroke="#ffffff" opacity="0.8" stroke-opacity="undefined" d="M-5.5,0 A5.5,5.5 0 1,0 5.5,0 A5.5,5.5 0 1,0 -5.5,0z"></path></g><g data-id="19" data-datapoint-id="70" class="v-datapoint v-morphable-datapoint v-datapoint-default" transform="translate(214.68543474240002, 165.943624974)"><path class="undefined" fill="#b6d957" stroke-width="1" stroke="#ffffff" opacity="0.8" stroke-opacity="undefined" d="M-5.5,0 A5.5,5.5 0 1,0 5.5,0 A5.5,5.5 0 1,0 -5.5,0z"></path></g></g><g class="v-datalabel-group" fill="#333333" font-family="'Open Sans', Arial, Helvetica, sans-serif" font-size="12px" font-weight="normal" font-style="normal" cssString="fill:#333333;font-family:'Open Sans', Arial, Helvetica, sans-serif;font-size:12px;font-weight:normal;font-style:normal;"><g data-datapoint-id="52" class="v-datalabel v-morphable-label" transform="translate(114.33383178710938,246.75244140625)" fill="#333333"><text>274735.17</text></g><g data-datapoint-id="55" class="v-datalabel v-morphable-label" transform="translate(253.31976318359375,97.17314910888672)" fill="#333333"><text>582543.16</text></g><g data-datapoint-id="56" class="v-datalabel v-morphable-label" transform="translate(145.05938720703125,186.87484741210938)" fill="#333333"><text>397952.77</text></g><g data-datapoint-id="57" class="v-datalabel v-morphable-label" transform="translate(131.94345092773438,213.37152099609375)" fill="#333333"><text>343427.25</text></g><g data-datapoint-id="60" class="v-datalabel v-morphable-label" transform="translate(246.81204223632812,83.02450561523438)" fill="#333333"><text>611658.59</text></g><g data-datapoint-id="61" class="v-datalabel v-morphable-label" transform="translate(2.8387928009033203,342.5563049316406)" fill="#333333"><text>77587.62</text></g><g data-datapoint-id="63" class="v-datalabel v-morphable-label" transform="translate(61.16657257080078,291.4001159667969)" fill="#333333"><text>182858.06</text></g><g data-datapoint-id="64" class="v-datalabel v-morphable-label" transform="translate(81.51728057861328,308.82769775390625)" fill="#333333"><text>146995.16</text></g><g data-datapoint-id="65" class="v-datalabel v-morphable-label" transform="translate(211.0946807861328,139.79437255859375)" fill="#333333"><text>494836.15</text></g><g data-datapoint-id="66" class="v-datalabel v-morphable-label" transform="translate(113.19451904296875,230.5218505859375)" fill="#333333"><text>308134.9</text></g><g data-datapoint-id="68" class="v-datalabel v-morphable-label" transform="translate(30.99615478515625,326.7679748535156)" fill="#333333"><text>110077.25</text></g><g data-datapoint-id="69" class="v-datalabel v-morphable-label" transform="translate(77.94713592529297,263.8969421386719)" fill="#333333"><text>239454.77</text></g><g data-datapoint-id="70" class="v-datalabel v-morphable-label" transform="translate(185.18544006347656,157.44361877441406)" fill="#333333"><text>458517.08</text></g></g></g></g><g class="v-referenceline-group" clip-path="url(#plot_main_clipPath_0f93cd70-0f48-4d96-a4fe-27427f7daf19)"></g></g><g class="v-m-valueAxis v-m-xAxis" transform="translate(80.84, 388.76)"><rect class="v-bound" width="334.08000000000004" height="63.24" fill="transparent"></rect><g class="v-axis"><g class="v-m-axisScrollbar" transform="translate(0,25.4)"><g><rect class="v-m-scrollbarTrack" visibility="hidden" fill="#f7f7f7" stroke-width="0" stroke="white" width="334.08000000000004" height="12"></rect><rect class="v-m-scrollbarThumb" visibility="hidden" fill="#e5e5e5" width="334.08000000000004" height="12" transform="translate(0, 0)"></rect></g></g><g class="v-m-axisTitle" transform="translate(0,46.44)"><g class="v-title viz-axis-title" fill="#000000" font-size="14px" font-weight="bold" font-family="'Open Sans', Arial, Helvetica, sans-serif" font-style="normal"><text text-anchor="middle" dominant-baseline="auto" x="167.04000000000002" y="13.8"><tspan class="v-title viz-axis-title" dominant-baseline="auto">Revenue</tspan></text></g></g><g class="v-m-axisBody" transform="translate(0,0)"><clipPath class="v-clippath-labels" id="clip-path-afbcf3a6-3d1c-4d25-af58-0a5c254882e8"><rect x="-7.5" y="-1" width="370.08000000000004" height="27.4"></rect></clipPath><clipPath class="v-clippath-ticks" id="clip-path-34076148-ac00-4312-a964-76a49d1ed7e6"><rect x="-1" y="-1" width="336.08000000000004" height="27.4"></rect></clipPath><rect class="v-bound" width="334.08000000000004" height="25.4" fill="transparent"></rect><g class="v-line-group"><line class="v-valueaxisline v-line" stroke="#333333" stroke-width="1" shape-rendering="crispEdges" x1="-0.5" y1="0" x2="334.58000000000004" y2="0"></line></g><g clip-path="url(#clip-path-34076148-ac00-4312-a964-76a49d1ed7e6)"><g class="v-tick-group"><line class="v-valueaxisline v-tick" stroke="#333333" stroke-width="1" shape-rendering="crispEdges" x1="0" y1="0" x2="0" y2="5"></line><line class="v-valueaxisline v-tick" stroke="#333333" stroke-width="1" shape-rendering="crispEdges" x1="83.52000000000001" y1="0" x2="83.52000000000001" y2="5"></line><line class="v-valueaxisline v-tick" stroke="#333333" stroke-width="1" shape-rendering="crispEdges" x1="167.04000000000002" y1="0" x2="167.04000000000002" y2="5"></line><line class="v-valueaxisline v-tick" stroke="#333333" stroke-width="1" shape-rendering="crispEdges" x1="250.56000000000003" y1="0" x2="250.56000000000003" y2="5"></line><line class="v-valueaxisline v-tick" stroke="#333333" stroke-width="1" shape-rendering="crispEdges" x1="334.08000000000004" y1="0" x2="334.08000000000004" y2="5"></line></g></g><g clip-path="url(#clip-path-afbcf3a6-3d1c-4d25-af58-0a5c254882e8)"><g class="v-label-group"><g class="v-label v-morphable-label viz-axis-label" fill="#333333" font-size="12px" font-weight="normal" font-family="'Open Sans', Arial, Helvetica, sans-serif" font-style="normal"><text text-anchor="middle" x="0" y="22.4">0</text></g><g class="v-label v-morphable-label viz-axis-label" fill="#333333" font-size="12px" font-weight="normal" font-family="'Open Sans', Arial, Helvetica, sans-serif" font-style="normal"><text text-anchor="middle" x="83.52000000000001" y="22.4">1000000</text></g><g class="v-label v-morphable-label viz-axis-label" fill="#333333" font-size="12px" font-weight="normal" font-family="'Open Sans', Arial, Helvetica, sans-serif" font-style="normal"><text text-anchor="middle" x="167.04000000000002" y="22.4">2000000</text></g><g class="v-label v-morphable-label viz-axis-label" fill="#333333" font-size="12px" font-weight="normal" font-family="'Open Sans', Arial, Helvetica, sans-serif" font-style="normal"><text text-anchor="middle" x="250.56000000000003" y="22.4">3000000</text></g><g class="v-label v-morphable-label viz-axis-label" fill="#333333" font-size="12px" font-weight="normal" font-family="'Open Sans', Arial, Helvetica, sans-serif" font-style="normal"><text text-anchor="middle" x="334.08000000000004" y="22.4">4000000</text></g></g></g></g></g></g><g class="v-m-valueAxis2 v-m-yAxis" transform="translate(0, 0)"><rect class="v-bound" width="80.84" height="388.76" fill="transparent"></rect><g class="v-axis"><g class="v-m-axisTitle" transform="translate(3.552713678800501e-15,0)"><g class="v-title viz-axis-title" fill="#000000" font-size="14px" font-weight="bold" font-family="'Open Sans', Arial, Helvetica, sans-serif" font-style="normal"><text text-anchor="middle" dominant-baseline="auto" x="13.8" y="194.38" transform="rotate(-90,13.8,194.38)"><tspan class="v-title viz-axis-title" dominant-baseline="auto">Cost</tspan></text></g></g><g class="v-m-axisBody" transform="translate(27.840000000000003,0)"><clipPath class="v-clippath-labels" id="clip-path-b96404d9-743e-42cd-ae9b-188e4ebd2825"><rect x="-1" y="-11.2" width="55" height="411.15999999999997"></rect></clipPath><clipPath class="v-clippath-ticks" id="clip-path-f8dd6bce-9234-4d9d-aa53-850d38b8601b"><rect x="-1" y="-1" width="55" height="390.76"></rect></clipPath><rect class="v-bound" width="53" height="388.76" fill="transparent"></rect><g clip-path="url(#clip-path-f8dd6bce-9234-4d9d-aa53-850d38b8601b)"><g class="v-tick-group"><line class="v-valueaxisline v-tick" stroke="#333333" stroke-width="1" shape-rendering="crispEdges" x1="53" y1="388.76" x2="48" y2="388.76"></line><line class="v-valueaxisline v-tick" stroke="#333333" stroke-width="1" shape-rendering="crispEdges" x1="53" y1="291.57" x2="48" y2="291.57"></line><line class="v-valueaxisline v-tick" stroke="#333333" stroke-width="1" shape-rendering="crispEdges" x1="53" y1="194.38" x2="48" y2="194.38"></line><line class="v-valueaxisline v-tick" stroke="#333333" stroke-width="1" shape-rendering="crispEdges" x1="53" y1="97.18999999999994" x2="48" y2="97.18999999999994"></line><line class="v-valueaxisline v-tick" stroke="#333333" stroke-width="1" shape-rendering="crispEdges" x1="53" y1="0" x2="48" y2="0"></line></g></g><g clip-path="url(#clip-path-b96404d9-743e-42cd-ae9b-188e4ebd2825)"><g class="v-label-group"><g class="v-label v-morphable-label viz-axis-label" fill="#333333" font-size="12px" font-weight="normal" font-family="'Open Sans', Arial, Helvetica, sans-serif" font-style="normal"><text text-anchor="end" x="42" y="392.96">0</text></g><g class="v-label v-morphable-label viz-axis-label" fill="#333333" font-size="12px" font-weight="normal" font-family="'Open Sans', Arial, Helvetica, sans-serif" font-style="normal"><text text-anchor="end" x="42" y="295.77">200000</text></g><g class="v-label v-morphable-label viz-axis-label" fill="#333333" font-size="12px" font-weight="normal" font-family="'Open Sans', Arial, Helvetica, sans-serif" font-style="normal"><text text-anchor="end" x="42" y="198.57999999999998">400000</text></g><g class="v-label v-morphable-label viz-axis-label" fill="#333333" font-size="12px" font-weight="normal" font-family="'Open Sans', Arial, Helvetica, sans-serif" font-style="normal"><text text-anchor="end" x="42" y="101.38999999999994">600000</text></g><g class="v-label v-morphable-label viz-axis-label" fill="#333333" font-size="12px" font-weight="normal" font-family="'Open Sans', Arial, Helvetica, sans-serif" font-style="normal"><text text-anchor="end" x="42" y="4.2">800000</text></g></g></g></g></g></g><g class="v-m-scrollbar" transform="translate(414.9200000000001, 0)"><g><rect class="v-m-scrollbarTrack" visibility="hidden" fill="#f7f7f7" stroke-width="0" stroke="white" width="12" height="388.76"></rect><rect class="v-m-scrollbarThumb" visibility="hidden" fill="#e5e5e5" width="12" height="388.76" transform="translate(0, 0)"></rect></g></g></g></svg>