<svg class="v-m-root" viewBox="0 0 600 500" width="600" height="500" xmlns="http://www.w3.org/2000/svg" style="left: 0px; top: 0px; direction: ltr; height: 100%; width: 100%; display: block; cursor: default;"><defs></defs><g class="v-m-action-layer-group"></g><g class="v-m-background"><rect class="v-background-body viz-plot-background v-morphable-background" x="0" y="0" width="600" height="500" style="fill:transparent"></rect></g><g class="v-m-title" transform="translate(50.4, 25)"></g><g class="v-m-legendGroup" transform="translate(504, 25)"><g class="v-m-legend" transform="translate(0,0)"><rect class="v-bound" width="71" height="35" fill="transparent"></rect><g class="v-content" transform="translate(0, 0)" font-size="10px" font-family="'Open Sans', Arial, Helvetica, sans-serif" font-weight="normal" fill="#737373" font-style="normal"><rect class="v-legend-body-bound" x="-5" fill="transparent" width="76" height="35"></rect><g class="v-groups v-label viz-legend-valueLabel" transform="translate(0, 0)"><g class="v-legend-element v-legend-item" transform="translate (-5,0)" legendlabel-id="0"><rect width="76" height="17.5" fill="transparent"></rect><path class="v-legend-marker" fill="#73d2e0" stroke-width="0" stroke="transparent" opacity="1" stroke-opacity="undefined" d="M-7,0 A7,7 0 1,0 7,0 A7,7 0 1,0 -7,0z" transform="translate(12,8.25)"></path><text x="24" y="3.25" dy="0.85em">Revenue</text></g><g class="v-legend-element v-legend-item" transform="translate (-5,17.5)" legendlabel-id="1"><rect width="76" height="17.5" fill="transparent"></rect><path class="v-legend-marker" fill="#bbd03b" stroke-width="0" stroke="transparent" opacity="1" stroke-opacity="undefined" d="M-7,0 A7,7 0 1,0 7,0 A7,7 0 1,0 -7,0z" transform="translate(12,8.25)"></path><text x="24" y="3.25" dy="0.85em">Cost</text></g></g></g></g></g><g class="v-m-main" transform="translate(25, 25)"><g class="v-m-plot" transform="translate(25.4, 0)"><rect class="v-background-body viz-plot-background v-morphable-background" x="0" y="0" width="431.6" height="377.2" style="fill:transparent"></rect><clipPath id="plot_main_clipPath_5f3de869-87d7-40b2-9513-5c1836811c1e"><rect y="-1" width="432.6" height="378.2"></rect></clipPath><rect class="v-plot-bound v-bound v-zoom-plot" width="431.6" height="377.2" fill="transparent"></rect><g clip-path="url(#plot_main_clipPath_5f3de869-87d7-40b2-9513-5c1836811c1e)"><g class="v-plot-main" transform="translate(0, 0)"><g class="v-gridline-group"><g class="v-gridline" stroke="#ececec" stroke-width="1" shape-rendering="crispEdges"><line class="v-gridline-mainline" x1="0" y1="377.2" x2="431.6" y2="377.2"></line></g><g class="v-gridline" stroke="#ececec" stroke-width="1" shape-rendering="crispEdges"><line class="v-gridline-mainline" x1="0" y1="301.76" x2="431.6" y2="301.76"></line></g><g class="v-gridline" stroke="#ececec" stroke-width="1" shape-rendering="crispEdges"><line class="v-gridline-mainline" x1="0" y1="226.32" x2="431.6" y2="226.32"></line></g><g class="v-gridline" stroke="#ececec" stroke-width="1" shape-rendering="crispEdges"><line class="v-gridline-mainline" x1="0" y1="150.88" x2="431.6" y2="150.88"></line></g><g class="v-gridline" stroke="#ececec" stroke-width="1" shape-rendering="crispEdges"><line class="v-gridline-mainline" x1="0" y1="75.44" x2="431.6" y2="75.44"></line></g><g class="v-gridline" stroke="#ececec" stroke-width="1" shape-rendering="crispEdges"><line class="v-gridline-mainline" x1="0" y1="0" x2="431.6" y2="0"></line></g></g><g class="v-datapoint-group"><g><path d="M0,261.03138260308L2.8966442953020137,292.19491321312L5.7932885906040275,294.13634021697584L8.68993288590604,248.90199716095998L11.586577181208055,251.5231562402524L14.483221476510067,251.98352475291998L17.37986577181208,248.7594315227099L20.276510067114096,242.63788788671513L23.17315436241611,244.86255225200003L26.069798657718124,252.53961009621963L28.966442953020135,254.17189804239996L31.863087248322152,278.99235405184L34.75973154362416,249.21218079135997L37.656375838926174,231.6375461346157L40.55302013422819,267.3117610162697L43.44966442953021,279.9004592044L46.34630872483222,271.9592502464179L49.24295302013423,223.05342197320002L52.13959731543625,297.5935200908L55.036241610738266,285.4215174988L57.93288590604027,298.36091878L60.82953020134228,240.8764802810633L63.726174496644305,248.2916450128L66.62281879194632,238.14120372025113L69.51946308724833,242.88713957984172L72.41610738255034,272.27559095692L75.31275167785235,244.271649592L78.20939597315436,201.6715521657782L81.10604026845638,260.90103031743996L84.0026845637584,240.4255399764L86.89932885906042,249.51569507311999L89.79597315436243,251.6606464188L92.69261744966444,236.2337093006297L95.58926174496645,250.79112535599998L98.48590604026846,258.83357327839997L101.38255033557047,153.59226759114256L104.2791946308725,140.89587782986573L107.1758389261745,222.27554844L110.07248322147653,168.06114570764697L112.96912751677853,230.2123754588L115.86577181208054,191.28459907807778L118.76241610738255,219.86221190119997L121.65906040268456,233.61043861599998L124.5557046979866,166.8914719788L127.45234899328861,273.1504467216L130.3489932885906,157.5520422252L133.24563758389263,202.76425734633494L136.14228187919463,204.65958949679998L139.03892617449665,213.88568083479996L141.93557046979868,193.27994001439995L144.83221476510067,253.25999516480002L147.7288590604027,168.7413584736L150.6255033557047,242.2584573748L153.52214765100672,230.39115769720001L156.41879194630872,220.2880450516L159.31543624161077,170.5006905644L162.21208053691277,127.17906084119998L165.10872483221476,174.3329195142477L168.0053691275168,243.85340532840002L170.90201342281878,125.90938348806598L173.79865771812084,188.6470421208L176.69530201342283,263.8449872228L179.59194630872486,157.90583759109853L182.48859060402685,237.00249297719995L185.38523489932888,200.92000304719997L188.28187919463087,209.67979257839997L191.1785234899329,128.8802705612L194.07516778523492,217.880293336L196.97181208053692,96.3901153676L199.86845637583895,213.39329564800002L202.76510067114094,200.80051753564697L205.66174496644297,216.62857874429622L208.558389261745,168.0605083244L211.455033557047,133.69561025886492L214.351677852349,150.5815208856L217.24832214765104,213.5797938896L220.14496644295306,118.70379025239998L223.04161073825506,149.33436830600002L225.93825503355706,159.38673585840002L228.83489932885908,225.5915054621788L231.73154362416108,195.9981609008L234.6281879194631,139.523115292L237.5248322147651,155.872909644L240.42147651006712,170.84981858599997L243.31812080536912,234.53575585719997L246.21476510067114,169.17697996400003L249.1114093959732,192.10429581817056L252.0080536912752,133.5305072072L254.90469798657722,148.980398168L257.8013422818792,184.6520282788L260.6979865771812,140.3792242544L263.59463087248326,213.7207022304L266.49127516778526,129.4856037616L269.38791946308726,203.85692713400002L272.28456375838925,217.0846397264L275.18120805369125,267.20545297L278.0778523489933,219.21175200160002L280.97449664429536,203.18018431560006L283.87114093959735,215.1649461728265L286.76778523489935,223.32822693240158L289.66442953020135,127.7698484552L292.5610738255034,74.64802288336L295.4577181208054,103.29889231112L298.3543624161074,72.23883245816174L301.2510067114094,117.49468704384002L304.14765100671144,131.820979982659L307.04429530201344,163.2459788236L309.94093959731543,174.82674267040002L312.83758389261743,120.55221170240002L315.7342281879195,218.44105545280001L318.63087248322154,114.91392530599998L321.52751677852353,175.156314758L324.42416107382553,90.38052121240001L327.3208053691275,237.82099061975632L330.2174496644295,202.4184251436L333.1140939597316,111.34653430827463L336.0107382550336,208.42998941439998L338.90738255033557,146.62811559839997L341.80402684563757,157.4573122172L344.7006711409396,166.331468034L347.5973154362417,196.9419899165003L350.49395973154367,230.89809458201017L353.39060402684566,250.057541138L356.28724832214766,168.99816189160003L359.1838926174497,238.4684856808L362.0805369127517,73.2031459112L364.9771812080537,220.7569831092L367.8738255033557,133.829784739897L370.77046979865776,150.75405593760001L373.66711409395975,227.827672172L376.56375838926175,186.77607618119998L379.4604026845638,147.05365415560001L382.3570469798658,163.71659881600002L385.25369127516785,159.9941617764696L388.15033557046985,136.94643321789675L391.04697986577185,210.67855443160002L393.94362416107384,143.25061851680002L396.84026845637584,140.78768146048L399.7369127516779,81.19308269L402.6335570469799,140.25651292796948L405.5302013422819,69.27111242897152L408.4268456375839,85.36318334199999L411.32348993288593,111.34928512168L414.220134228188,135.09480803800002L417.11677852349,165.7245226808L420.013422818792,143.09642643392195L422.910067114094,124.4410242143608L425.80671140939603,179.54885097077414L428.703355704698,91.48148956443974L431.6,181.32166497760002" fill="none" stroke-width="2" stroke="#73d2e0" stroke-linejoin="round" stroke-dasharray="undefined" class="v-lines v-morphable-line"></path></g><g><path d="M0,357.29082061408L2.8966442953020137,363.74844398964L5.7932885906040275,363.37555738479995L8.68993288590604,354.88660243264L11.586577181208055,355.55900005792L14.483221476510067,355.49225048188L17.37986577181208,356.23366515813336L20.276510067114096,354.60164292064L23.17315436241611,353.61997054093337L26.069798657718124,353.92753427843996L28.966442953020135,354.8237815832L31.863087248322152,359.43926219136L34.75973154362416,367.87066849392L37.656375838926174,349.22849183759996L40.55302013422819,358.1458121592L43.44966442953021,360.2647927568L46.34630872483222,358.9403441646L49.24295302013423,353.11308113399997L52.13959731543625,362.6098711836L55.036241610738266,361.4669755524L57.93288590604027,364.8415327372L60.82953020134228,355.09331618016L63.726174496644305,356.53942463488L66.62281879194632,351.9939611103333L69.51946308724833,355.0599506524L72.41610738255034,358.25829538696L75.31275167785235,353.4678403744L78.20939597315436,349.53067716832L81.10604026845638,356.3909985472L84.0026845637584,355.71846113159995L86.89932885906042,352.54282651516L89.79597315436243,359.3560979652L92.69261744966444,351.6073115588L95.58926174496645,353.9170799164L98.48590604026846,352.5356354612L101.38255033557047,338.97230049319995L104.2791946308725,335.2901225634L107.1758389261745,352.1528049968L110.07248322147653,343.88327927959995L112.96912751677853,352.033859126L115.86577181208054,324.1265330524L118.76241610738255,348.05936986759997L121.65906040268456,352.1098539872L124.5557046979866,348.6760714988L127.45234899328861,359.6609125308L130.3489932885906,345.89295938759994L133.24563758389263,349.6480687488L136.14228187919463,350.4932883244L139.03892617449665,353.1526026412L141.93557046979868,345.44746317839997L144.83221476510067,354.1962818476L147.7288590604027,357.8216200752L150.6255033557047,353.5888053968L153.52214765100672,351.7429877584L156.41879194630872,351.57903362919996L159.31543624161077,341.734718658L162.21208053691277,332.5501660928L165.10872483221476,346.33133028879996L168.0053691275168,354.003380636L170.90201342281878,337.4718181304L173.79865771812084,346.0135913424L176.69530201342283,355.56252137079997L179.59194630872486,354.3974765556L182.48859060402685,352.63745343439996L185.38523489932888,349.6183563276L188.28187919463087,348.8913727324L191.1785234899329,335.39276981079996L194.07516778523492,349.4903953768L196.97181208053692,328.40122372039997L199.86845637583895,351.8983658684L202.76510067114094,346.0547019932L205.66174496644297,346.5539235528L208.558389261745,343.8160746872L211.455033557047,342.6019708628L214.351677852349,339.0288107112L217.24832214765104,343.4031108464L220.14496644295306,348.2407581808L223.04161073825506,336.02147922679995L225.93825503355706,339.823764992L228.83489932885908,351.0612576016L231.73154362416108,342.6740217208L234.6281879194631,348.557689542L237.5248322147651,368.7301497752L240.42147651006712,344.7021333296L243.31812080536912,352.79543158399997L246.21476510067114,344.937022182L249.1114093959732,351.1338603032L252.0080536912752,339.2129718216L254.90469798657722,344.12973761039996L257.8013422818792,351.43373958399997L260.6979865771812,338.0567082224L263.59463087248326,354.75811106320003L266.49127516778526,335.17034402359997L269.38791946308726,354.2641744528L272.28456375838925,350.0907280368L275.18120805369125,360.893760932L278.0778523489933,349.83552620999995L280.97449664429536,348.130976384L283.87114093959735,352.5160889572L286.76778523489935,348.7767386348L289.66442953020135,339.4564857292L292.5610738255034,325.60928912751996L295.4577181208054,328.34050327144L298.3543624161074,336.7795473082L301.2510067114094,334.16060067136L304.14765100671144,336.0882922856L307.04429530201344,343.41619866796003L309.94093959731543,343.89453092928L312.83758389261743,329.6284971056L315.7342281879195,352.4991934148L318.63087248322154,332.5749270096L321.52751677852353,343.08318678039996L324.42416107382553,328.49296787606664L327.3208053691275,352.8460563504L330.2174496644295,353.34662338239997L333.1140939597316,330.6358606276L336.0107382550336,347.8043781412L338.90738255033557,339.1769401688L341.80402684563757,343.52529912840004L344.7006711409396,341.45587280359996L347.5973154362417,348.1362549208L350.49395973154367,352.61230098399994L353.39060402684566,355.6407428436L356.28724832214766,342.1029495964L359.1838926174497,353.74396473080003L362.0805369127517,326.4128418332L364.9771812080537,350.0722275084L367.8738255033557,343.09299662079997L370.77046979865776,338.0769646168L373.66711409395975,352.18551578079996L376.56375838926175,360.27683298079995L379.4604026845638,341.27146877639996L382.3570469798658,340.8141081184L385.25369127516785,344.78070937039996L388.15033557046985,347.0355208196L391.04697986577185,348.869643372L393.94362416107384,339.00098051799995L396.84026845637584,335.69193429759997L399.7369127516779,326.58722667399996L402.6335570469799,339.39487848304L405.5302013422819,323.1529191232L408.4268456375839,331.46767526959997L411.32348993288593,345.39477807016L414.220134228188,339.5113257056L417.11677852349,318.01021581519996L420.013422818792,336.39825955408L422.910067114094,337.6466318476L425.80671140939603,341.926505998L428.703355704698,327.8530929L431.6,340.9349701652" fill="none" stroke-width="2" stroke="#bbd03b" stroke-linejoin="round" stroke-dasharray="undefined" class="v-lines v-morphable-line"></path></g></g><g class="v-datalabel-group"></g></g></g><g class="v-referenceline-group" clip-path="url(#plot_main_clipPath_5f3de869-87d7-40b2-9513-5c1836811c1e)"></g></g><g class="v-m-timeAxis v-m-xAxis" transform="translate(25.4, 377.2)"><rect class="v-bound" width="431.6" height="72.8" fill="transparent"></rect><g class="v-axis"><clipPath class="v-clippath" id="clip-path-069dab54-b38a-4a6b-9877-e06fb276d795"><rect x="-1" y="-1" width="433.6" height="39.4"></rect></clipPath><g class="v-m-axisScrollbar" transform="translate(0,37.4)"><g><rect class="v-m-scrollbarTrack" visibility="hidden" fill="#f7f7f7" stroke-width="0" stroke="white" width="431.6" height="12"></rect><rect class="v-m-scrollbarThumb" visibility="hidden" fill="#e5e5e5" width="431.6" height="12" transform="translate(0, 0)"></rect></g></g><g class="v-m-axisTitle" transform="translate(0,58.4)"><g class="v-title viz-axis-title" fill="#000000" font-size="12px" font-weight="normal" font-family="'Open Sans', Arial, Helvetica, sans-serif" font-style="normal"><text text-anchor="middle" dominant-baseline="auto" x="215.8" y="11.4"><tspan class="v-title viz-axis-title" dominant-baseline="auto">Date</tspan></text></g></g><g class="v-m-axisBody" transform="translate(0,0)" clip-path="url(#clip-path-069dab54-b38a-4a6b-9877-e06fb276d795)"><clipPath class="v-clippath-labels" id="clip-path-122d0409-a6ae-41cb-9ba3-2b6d5f7d91fe"><rect x="-1" y="-1" width="433.6" height="39.4"></rect></clipPath><rect class="v-bound" width="431.6" height="37.4" fill="transparent"></rect><g class="v-line-group"><line class="v-valueaxisline v-line" stroke="#babab9" stroke-width="1" shape-rendering="crispEdges" x1="-0.5" y1="0" x2="432.1" y2="0"></line></g><g clip-path="url(#clip-path-122d0409-a6ae-41cb-9ba3-2b6d5f7d91fe)"><g class="v-label-group"><g class="v-label v-morphable-label viz-axis-label" fill="#737373" font-size="11px" font-weight="normal" font-family="'Open Sans', Arial, Helvetica, sans-serif" font-style="normal"><text class="v-label-baseLevel" x="67.20939597315436" y="21.2">Aug</text><text class="v-label-upperLevel" fill="#a6a6a6" x="64.20939597315436" y="34.4">2012</text></g><g class="v-label v-morphable-label viz-axis-label" fill="#737373" font-size="11px" font-weight="normal" font-family="'Open Sans', Arial, Helvetica, sans-serif" font-style="normal"><text class="v-label-baseLevel" x="157.0053691275168" y="21.2">Sep</text></g><g class="v-label v-morphable-label viz-axis-label" fill="#737373" font-size="11px" font-weight="normal" font-family="'Open Sans', Arial, Helvetica, sans-serif" font-style="normal"><text class="v-label-baseLevel" x="245.90469798657722" y="21.2">Oct</text></g><g class="v-label v-morphable-label viz-axis-label" fill="#737373" font-size="11px" font-weight="normal" font-family="'Open Sans', Arial, Helvetica, sans-serif" font-style="normal"><text class="v-label-baseLevel" x="333.7006711409396" y="21.2">Nov</text></g><g class="v-label v-morphable-label viz-axis-label" fill="#737373" font-size="11px" font-weight="normal" font-family="'Open Sans', Arial, Helvetica, sans-serif" font-style="normal"><text class="v-label-baseLevel" x="409.6" y="21.2">Dec</text></g></g></g></g></g></g><g class="v-m-valueAxis v-m-yAxis" transform="translate(0, 0)"><rect class="v-bound" width="25.4" height="377.2" fill="transparent"></rect><g class="v-axis"><g class="v-m-axisTitle" transform="translate(-1.7763568394002505e-15,0)"><g class="v-title viz-axis-title" fill="#000000" font-size="12px" font-weight="normal" font-family="'Open Sans', Arial, Helvetica, sans-serif" font-style="normal"><text text-anchor="middle" dominant-baseline="auto" x="11.4" y="188.6" transform="rotate(-90,11.4,188.6)"><tspan class="v-title viz-axis-title v-hidden-title" dominant-baseline="auto" fill="#a6a6a6">Revenue &amp; Cost</tspan></text></g></g><g class="v-m-axisBody" transform="translate(25.4,0)"><rect class="v-bound" width="0" height="377.2" fill="transparent"></rect></g></g></g></g></svg>