<svg class="v-m-root" viewBox="0 0 600 500" width="600" height="500" xmlns="http://www.w3.org/2000/svg" style="left: 0px; top: 0px; direction: ltr; height: 100%; width: 100%; display: block; cursor: default;"><defs></defs><g class="v-m-action-layer-group"></g><g class="v-m-background"><rect class="v-background-body viz-plot-background v-morphable-background" x="0" y="0" width="600" height="500" style="fill:transparent"></rect></g><g class="v-m-title" transform="translate(91.4, 25)"></g><g class="v-m-legendGroup" transform="translate(529, 25)"><g class="v-m-legend" transform="translate(0,0)"><rect class="v-bound" width="46" height="35" fill="transparent"></rect><g class="v-content" transform="translate(0, 0)" font-size="10px" font-family="'Open Sans', Arial, Helvetica, sans-serif" font-weight="normal" fill="#737373" font-style="normal"><rect class="v-legend-body-bound" x="-5" fill="transparent" width="51" height="35"></rect><g class="v-groups v-label viz-legend-valueLabel" transform="translate(0, 0)"><g class="v-legend-element v-legend-item" transform="translate (-5,0)" legendlabel-id="0"><rect width="51" height="17.5" fill="transparent"></rect><path class="v-legend-marker" fill="#73d2e0" stroke-width="0" stroke="transparent" opacity="1" stroke-opacity="undefined" d="M-7,-7L7,-7L7,7L-7,7Z" transform="translate(12,8.25)"></path><text x="24" y="3.25" dy="0.85em">Car</text></g><g class="v-legend-element v-legend-item" transform="translate (-5,17.5)" legendlabel-id="1"><rect width="51" height="17.5" fill="transparent"></rect><path class="v-legend-marker" fill="#bbd03b" stroke-width="0" stroke="transparent" opacity="1" stroke-opacity="undefined" d="M-7,-7L7,-7L7,7L-7,7Z" transform="translate(12,8.25)"></path><text x="24" y="3.25" dy="0.85em">Truck</text></g></g></g></g></g><g class="v-m-plot" transform="translate(25, 25)"><g transform="translate(22.4,0)"><g transform="translate(44,0)" class="v-m-plot-bound v-m-trellis-plot" clip-path="url(#clip-path-130cedb6-1e7b-4810-a421-576c7c76d016)"><clipPath class="v-clippath" id="clip-path-130cedb6-1e7b-4810-a421-576c7c76d016"><rect x="0" y="0" width="403.6" height="387.2"></rect></clipPath><rect class="v-trellis-plot-bound" width="403.6" height="387.2" fill="transparent"></rect><rect class="v-background-body viz-plot-background v-morphable-background" x="0" y="0" width="403.6" height="387.2" style="fill:transparent"></rect><g transform="translate(0,0)"><g id="cell_0_0_background" transform="translate(0, 0)"><rect class="v-background-body viz-plot-background v-morphable-background" x="0" y="0" width="200" height="129.06666666666666" style="fill:#f4f4f4"></rect></g><g id="cell_0_0" transform="translate(0, 0)"><rect class="v-background-body viz-plot-background v-morphable-background" x="0" y="0" width="200" height="129.06666666666666" style="fill:transparent"></rect><clipPath id="plot_main_clipPath_79b5051b-46c1-4a00-bb92-fe0869bbe2c4"><rect y="-1" width="201" height="130.06666666666666"></rect></clipPath><rect class="v-plot-bound v-bound v-zoom-plot" width="200" height="129.06666666666666" fill="transparent"></rect><g clip-path="url(#plot_main_clipPath_79b5051b-46c1-4a00-bb92-fe0869bbe2c4)"><g class="v-plot-main"><g class="v-datapoint-group" transform="translate(100, 64.53333333333333)"><g data-id="0" data-datapoint-id="1" class="v-datapoint v-morphable-datapoint v-datapoint-default"><path fill="#73d2e0" d="M0,54.197530864197525A54.197530864197525,54.197530864197525 0 1,1 0,-54.197530864197525A54.197530864197525,54.197530864197525 0 1,1 0,54.197530864197525M0,27.098765432098762A27.098765432098762,27.098765432098762 0 1,0 0,-27.098765432098762A27.098765432098762,27.098765432098762 0 1,0 0,27.098765432098762Z"></path></g></g><g class="v-datalabel-group"><g data-datapoint-id="1" class="v-datalabel v-morphable-label" fill="#333333" font-family="'Open Sans', Arial, Helvetica, sans-serif" font-size="12px" font-weight="normal" font-style="normal" cssString="fill:#333333;font-family:'Open Sans', Arial, Helvetica, sans-serif;font-size:12px;font-weight:normal;font-style:normal;" transform="translate(63.500000000000014,109.18148097285518)"><text>Car   (100.0%)</text></g></g></g></g></g><g id="cell_0_1_background" transform="translate(200, 0)"><rect class="v-background-body viz-plot-background v-morphable-background" x="0" y="0" width="200" height="129.06666666666666" style="fill:#ffffff"></rect></g><g id="cell_0_1" transform="translate(200, 0)"><rect class="v-background-body viz-plot-background v-morphable-background" x="0" y="0" width="200" height="129.06666666666666" style="fill:transparent"></rect><clipPath id="plot_main_clipPath_69a7587c-f94f-4125-9789-d5b26b2fb2e1"><rect y="-1" width="201" height="130.06666666666666"></rect></clipPath><rect class="v-plot-bound v-bound v-zoom-plot" width="200" height="129.06666666666666" fill="transparent"></rect><g clip-path="url(#plot_main_clipPath_69a7587c-f94f-4125-9789-d5b26b2fb2e1)"><g class="v-plot-main"><g class="v-datapoint-group" transform="translate(100, 64.53333333333333)"><g data-id="0" data-datapoint-id="2" class="v-datapoint v-morphable-datapoint v-datapoint-default"><path fill="#bbd03b" d="M0,54.197530864197525A54.197530864197525,54.197530864197525 0 1,1 0,-54.197530864197525A54.197530864197525,54.197530864197525 0 1,1 0,54.197530864197525M0,27.098765432098762A27.098765432098762,27.098765432098762 0 1,0 0,-27.098765432098762A27.098765432098762,27.098765432098762 0 1,0 0,27.098765432098762Z"></path></g></g><g class="v-datalabel-group"><g data-datapoint-id="2" class="v-datalabel v-morphable-label" fill="#333333" font-family="'Open Sans', Arial, Helvetica, sans-serif" font-size="12px" font-weight="normal" font-style="normal" cssString="fill:#333333;font-family:'Open Sans', Arial, Helvetica, sans-serif;font-size:12px;font-weight:normal;font-style:normal;" transform="translate(58.5,109.18148097285518)"><text>Truck   (100.0%)</text></g></g></g></g></g><g id="cell_0_2_background" transform="translate(400, 0)"><rect class="v-background-body viz-plot-background v-morphable-background" x="0" y="0" width="200" height="129.06666666666666" style="fill:#f4f4f4"></rect></g><g id="cell_0_2" transform="translate(400, 0)"><rect class="v-background-body viz-plot-background v-morphable-background" x="0" y="0" width="200" height="129.06666666666666" style="fill:transparent"></rect><clipPath id="plot_main_clipPath_330537e8-608b-4b8b-9229-159399127e5b"><rect y="-1" width="201" height="130.06666666666666"></rect></clipPath><rect class="v-plot-bound v-bound v-zoom-plot" width="200" height="129.06666666666666" fill="transparent"></rect><g clip-path="url(#plot_main_clipPath_330537e8-608b-4b8b-9229-159399127e5b)"><g class="v-plot-main"><g class="v-datapoint-group" transform="translate(100, 64.53333333333333)"><g data-id="0" data-datapoint-id="3" class="v-datapoint v-morphable-datapoint v-datapoint-default"><path fill="#bbd03b" d="M0,54.197530864197525A54.197530864197525,54.197530864197525 0 1,1 0,-54.197530864197525A54.197530864197525,54.197530864197525 0 1,1 0,54.197530864197525M0,27.098765432098762A27.098765432098762,27.098765432098762 0 1,0 0,-27.098765432098762A27.098765432098762,27.098765432098762 0 1,0 0,27.098765432098762Z"></path></g></g><g class="v-datalabel-group"><g data-datapoint-id="3" class="v-datalabel v-morphable-label" fill="#333333" font-family="'Open Sans', Arial, Helvetica, sans-serif" font-size="12px" font-weight="normal" font-style="normal" cssString="fill:#333333;font-family:'Open Sans', Arial, Helvetica, sans-serif;font-size:12px;font-weight:normal;font-style:normal;" transform="translate(58.5,109.18148097285518)"><text>Truck   (100.0%)</text></g></g></g></g></g><g id="cell_1_0_background" transform="translate(0, 129.06666666666666)"><rect class="v-background-body viz-plot-background v-morphable-background" x="0" y="0" width="200" height="129.06666666666666" style="fill:#f4f4f4"></rect></g><g id="cell_1_0" transform="translate(0, 129.06666666666666)"><rect class="v-background-body viz-plot-background v-morphable-background" x="0" y="0" width="200" height="129.06666666666666" style="fill:transparent"></rect><clipPath id="plot_main_clipPath_6f9edd90-d065-488c-a87f-a639b7c2aa55"><rect y="-1" width="201" height="130.06666666666666"></rect></clipPath><rect class="v-plot-bound v-bound v-zoom-plot" width="200" height="129.06666666666666" fill="transparent"></rect><g clip-path="url(#plot_main_clipPath_6f9edd90-d065-488c-a87f-a639b7c2aa55)"><g class="v-plot-main"><g class="v-datapoint-group" transform="translate(100, 64.53333333333333)"><g data-id="0" data-datapoint-id="5" class="v-datapoint v-morphable-datapoint v-datapoint-default"><path fill="#bbd03b" d="M0,54.197530864197525A54.197530864197525,54.197530864197525 0 1,1 0,-54.197530864197525A54.197530864197525,54.197530864197525 0 1,1 0,54.197530864197525M0,27.098765432098762A27.098765432098762,27.098765432098762 0 1,0 0,-27.098765432098762A27.098765432098762,27.098765432098762 0 1,0 0,27.098765432098762Z"></path></g></g><g class="v-datalabel-group"><g data-datapoint-id="5" class="v-datalabel v-morphable-label" fill="#333333" font-family="'Open Sans', Arial, Helvetica, sans-serif" font-size="12px" font-weight="normal" font-style="normal" cssString="fill:#333333;font-family:'Open Sans', Arial, Helvetica, sans-serif;font-size:12px;font-weight:normal;font-style:normal;" transform="translate(58.5,109.18148097285518)"><text>Truck   (100.0%)</text></g></g></g></g></g><g id="cell_1_1_background" transform="translate(200, 129.06666666666666)"><rect class="v-background-body viz-plot-background v-morphable-background" x="0" y="0" width="200" height="129.06666666666666" style="fill:#ffffff"></rect></g><g id="cell_1_1" transform="translate(200, 129.06666666666666)"><rect class="v-background-body viz-plot-background v-morphable-background" x="0" y="0" width="200" height="129.06666666666666" style="fill:transparent"></rect><clipPath id="plot_main_clipPath_ef772c29-c222-4cda-83b2-0b0feddbc1f5"><rect y="-1" width="201" height="130.06666666666666"></rect></clipPath><rect class="v-plot-bound v-bound v-zoom-plot" width="200" height="129.06666666666666" fill="transparent"></rect><g clip-path="url(#plot_main_clipPath_ef772c29-c222-4cda-83b2-0b0feddbc1f5)"><g class="v-plot-main"><g class="v-datapoint-group" transform="translate(100, 64.53333333333333)"><g data-id="0" data-datapoint-id="6" class="v-datapoint v-morphable-datapoint v-datapoint-default"><path fill="#bbd03b" d="M0,54.197530864197525A54.197530864197525,54.197530864197525 0 1,1 0,-54.197530864197525A54.197530864197525,54.197530864197525 0 1,1 0,54.197530864197525M0,27.098765432098762A27.098765432098762,27.098765432098762 0 1,0 0,-27.098765432098762A27.098765432098762,27.098765432098762 0 1,0 0,27.098765432098762Z"></path></g></g><g class="v-datalabel-group"><g data-datapoint-id="6" class="v-datalabel v-morphable-label" fill="#333333" font-family="'Open Sans', Arial, Helvetica, sans-serif" font-size="12px" font-weight="normal" font-style="normal" cssString="fill:#333333;font-family:'Open Sans', Arial, Helvetica, sans-serif;font-size:12px;font-weight:normal;font-style:normal;" transform="translate(58.5,109.18148097285518)"><text>Truck   (100.0%)</text></g></g></g></g></g><g id="cell_1_2_background" transform="translate(400, 129.06666666666666)"><rect class="v-background-body viz-plot-background v-morphable-background" x="0" y="0" width="200" height="129.06666666666666" style="fill:#f4f4f4"></rect></g><g id="cell_1_2" transform="translate(400, 129.06666666666666)"><rect class="v-background-body viz-plot-background v-morphable-background" x="0" y="0" width="200" height="129.06666666666666" style="fill:transparent"></rect><clipPath id="plot_main_clipPath_b3988b5a-b645-449d-ab09-26abe89710b7"><rect y="-1" width="201" height="130.06666666666666"></rect></clipPath><rect class="v-plot-bound v-bound v-zoom-plot" width="200" height="129.06666666666666" fill="transparent"></rect><g clip-path="url(#plot_main_clipPath_b3988b5a-b645-449d-ab09-26abe89710b7)"><g class="v-plot-main"><g class="v-datapoint-group" transform="translate(100, 64.53333333333333)"><g data-id="0" data-datapoint-id="7" class="v-datapoint v-morphable-datapoint v-datapoint-default"><path fill="#73d2e0" d="M0,54.197530864197525A54.197530864197525,54.197530864197525 0 1,1 0,-54.197530864197525A54.197530864197525,54.197530864197525 0 1,1 0,54.197530864197525M0,27.098765432098762A27.098765432098762,27.098765432098762 0 1,0 0,-27.098765432098762A27.098765432098762,27.098765432098762 0 1,0 0,27.098765432098762Z"></path></g></g><g class="v-datalabel-group"><g data-datapoint-id="7" class="v-datalabel v-morphable-label" fill="#333333" font-family="'Open Sans', Arial, Helvetica, sans-serif" font-size="12px" font-weight="normal" font-style="normal" cssString="fill:#333333;font-family:'Open Sans', Arial, Helvetica, sans-serif;font-size:12px;font-weight:normal;font-style:normal;" transform="translate(63.5,109.18148097285518)"><text>Car   (100.0%)</text></g></g></g></g></g><g id="cell_2_0_background" transform="translate(0, 258.1333333333333)"><rect class="v-background-body viz-plot-background v-morphable-background" x="0" y="0" width="200" height="129.06666666666666" style="fill:#f4f4f4"></rect></g><g id="cell_2_0" transform="translate(0, 258.1333333333333)"><rect class="v-background-body viz-plot-background v-morphable-background" x="0" y="0" width="200" height="129.06666666666666" style="fill:transparent"></rect><clipPath id="plot_main_clipPath_3afce8a6-f4da-4dee-8752-0efd66f01554"><rect y="-1" width="201" height="130.06666666666666"></rect></clipPath><rect class="v-plot-bound v-bound v-zoom-plot" width="200" height="129.06666666666666" fill="transparent"></rect><g clip-path="url(#plot_main_clipPath_3afce8a6-f4da-4dee-8752-0efd66f01554)"><g class="v-plot-main"><g class="v-datapoint-group" transform="translate(100, 64.53333333333333)"><g data-id="0" data-datapoint-id="9" class="v-datapoint v-morphable-datapoint v-datapoint-default"><path fill="#73d2e0" d="M0,54.197530864197525A54.197530864197525,54.197530864197525 0 1,1 0,-54.197530864197525A54.197530864197525,54.197530864197525 0 1,1 0,54.197530864197525M0,27.098765432098762A27.098765432098762,27.098765432098762 0 1,0 0,-27.098765432098762A27.098765432098762,27.098765432098762 0 1,0 0,27.098765432098762Z"></path></g></g><g class="v-datalabel-group"><g data-datapoint-id="9" class="v-datalabel v-morphable-label" fill="#333333" font-family="'Open Sans', Arial, Helvetica, sans-serif" font-size="12px" font-weight="normal" font-style="normal" cssString="fill:#333333;font-family:'Open Sans', Arial, Helvetica, sans-serif;font-size:12px;font-weight:normal;font-style:normal;" transform="translate(63.5,109.18148097285518)"><text>Car   (100.0%)</text></g></g></g></g></g><g id="cell_2_1_background" transform="translate(200, 258.1333333333333)"><rect class="v-background-body viz-plot-background v-morphable-background" x="0" y="0" width="200" height="129.06666666666666" style="fill:#ffffff"></rect></g><g id="cell_2_1" transform="translate(200, 258.1333333333333)"><rect class="v-background-body viz-plot-background v-morphable-background" x="0" y="0" width="200" height="129.06666666666666" style="fill:transparent"></rect><clipPath id="plot_main_clipPath_c90b1005-d9d2-4e64-b7e5-bdab84028336"><rect y="-1" width="201" height="130.06666666666666"></rect></clipPath><rect class="v-plot-bound v-bound v-zoom-plot" width="200" height="129.06666666666666" fill="transparent"></rect><g clip-path="url(#plot_main_clipPath_c90b1005-d9d2-4e64-b7e5-bdab84028336)"><g class="v-plot-main"><g class="v-datapoint-group" transform="translate(100, 64.53333333333333)"><g data-id="0" data-datapoint-id="10" class="v-datapoint v-morphable-datapoint v-datapoint-default"><path fill="#73d2e0" d="M0,54.197530864197525A54.197530864197525,54.197530864197525 0 1,1 0,-54.197530864197525A54.197530864197525,54.197530864197525 0 1,1 0,54.197530864197525M0,27.098765432098762A27.098765432098762,27.098765432098762 0 1,0 0,-27.098765432098762A27.098765432098762,27.098765432098762 0 1,0 0,27.098765432098762Z"></path></g></g><g class="v-datalabel-group"><g data-datapoint-id="10" class="v-datalabel v-morphable-label" fill="#333333" font-family="'Open Sans', Arial, Helvetica, sans-serif" font-size="12px" font-weight="normal" font-style="normal" cssString="fill:#333333;font-family:'Open Sans', Arial, Helvetica, sans-serif;font-size:12px;font-weight:normal;font-style:normal;" transform="translate(63.5,109.18148097285518)"><text>Car   (100.0%)</text></g></g></g></g></g><g id="cell_2_2_background" transform="translate(400, 258.1333333333333)"><rect class="v-background-body viz-plot-background v-morphable-background" x="0" y="0" width="200" height="129.06666666666666" style="fill:#f4f4f4"></rect></g><g id="cell_2_2" transform="translate(400, 258.1333333333333)"><rect class="v-background-body viz-plot-background v-morphable-background" x="0" y="0" width="200" height="129.06666666666666" style="fill:transparent"></rect><clipPath id="plot_main_clipPath_86b3da36-26b1-49b4-8714-b366525d0578"><rect y="-1" width="201" height="130.06666666666666"></rect></clipPath><rect class="v-plot-bound v-bound v-zoom-plot" width="200" height="129.06666666666666" fill="transparent"></rect><g clip-path="url(#plot_main_clipPath_86b3da36-26b1-49b4-8714-b366525d0578)"><g class="v-plot-main"><g class="v-datapoint-group" transform="translate(100, 64.53333333333333)"></g><g class="v-datalabel-group"></g></g></g></g></g></g><g class="gridcontainer_gridline" stroke="#d8d8d8" stroke-width="1"><g clip-path="url(#clip-path-39183f9f-bd63-4f6b-9fda-cce4b2259511)"><clipPath class="v-clippath" id="clip-path-39183f9f-bd63-4f6b-9fda-cce4b2259511"><rect x="43" y="-1" width="405.6" height="417.59999999999997"></rect></clipPath><g><line x1="244" y1="0" x2="244" y2="402.20000000000005"></line><line x1="444" y1="0" x2="444" y2="402.20000000000005"></line><line x1="644" y1="0" x2="644" y2="402.20000000000005"></line></g><line x1="44" y1="0" x2="44" y2="427.6"></line><line x1="447.6" y1="0" x2="447.6" y2="427.6"></line></g><g clip-path="url(#clip-path-b2869a57-2b19-4eae-aed4-b8fc68f341b7)"><clipPath class="v-clippath" id="clip-path-b2869a57-2b19-4eae-aed4-b8fc68f341b7"><rect x="-1" y="-1" width="449.6" height="389.2"></rect></clipPath><g><line x1="39" y1="129.06666666666666" x2="459.6" y2="129.06666666666666"></line><line x1="39" y1="258.1333333333333" x2="459.6" y2="258.1333333333333"></line></g><line x1="0" y1="0" x2="459.6" y2="0"></line><line x1="0" y1="387.2" x2="459.6" y2="387.2"></line></g></g><g transform="translate(0,0)" class="v-m-axis-position-bound v-gridcontainer-left" clip-path="url(#clip-path-945653e8-942d-495a-ae03-68a494ff8e79)"><clipPath class="v-clippath" id="clip-path-945653e8-942d-495a-ae03-68a494ff8e79"><rect x="1" y="0" width="45" height="387.2"></rect></clipPath><g><g transform="translate(5, 0 )"><g transform="translate(0 , 0)" class="v-m-trellis-axis v-axis" clip-path="url(#clip-path-05042401-d287-4c9a-bf54-5e93ffbc1f51)"><clipPath class="v-clippath" id="clip-path-05042401-d287-4c9a-bf54-5e93ffbc1f51"><rect x="-1" y="-1" width="41" height="389.2"></rect></clipPath><g class="v-label-group"><g class="v-label v-morphable-label viz-axis-label v-axis-item index_0" fill="#333333" font-size="12px" font-weight="normal" font-family="'Open Sans', Arial, Helvetica, sans-serif" font-style="normal" categorylabel-id="0" transform="translate(0,0)"><rect class="viz-axis-label-rect" fill="transparent" x="1" y="1" width="37" height="127.06666666999999"></rect><g class="v-axis-label-wrapper"><text x="33" y="13.4" text-anchor="end">2009</text></g></g><g class="v-label v-morphable-label viz-axis-label v-axis-item index_0" fill="#333333" font-size="12px" font-weight="normal" font-family="'Open Sans', Arial, Helvetica, sans-serif" font-style="normal" categorylabel-id="1" transform="translate(0,129.06666667)"><rect class="viz-axis-label-rect" fill="transparent" x="1" y="1" width="37" height="127.06666666000004"></rect><g class="v-axis-label-wrapper"><text x="33" y="13.399999999999999" text-anchor="end">2010</text></g></g><g class="v-label v-morphable-label viz-axis-label v-axis-item index_0" fill="#333333" font-size="12px" font-weight="normal" font-family="'Open Sans', Arial, Helvetica, sans-serif" font-style="normal" categorylabel-id="2" transform="translate(0,258.13333333)"><rect class="viz-axis-label-rect" fill="transparent" x="1" y="1" width="37" height="127.06666666999996"></rect><g class="v-axis-label-wrapper"><text x="33" y="13.399999999999999" text-anchor="end">2011</text></g></g></g><g class="v-tick-group"><line class="v-valueaxisline v-tick" stroke="#d8d8d8" stroke-width="1" shape-rendering="crispEdges" x1="39" y1="0" x2="0" y2="0"></line><line class="v-valueaxisline v-tick" stroke="#d8d8d8" stroke-width="1" shape-rendering="crispEdges" x1="39" y1="129.06666667" x2="0" y2="129.06666667"></line><line class="v-valueaxisline v-tick" stroke="#d8d8d8" stroke-width="1" shape-rendering="crispEdges" x1="39" y1="258.13333333" x2="0" y2="258.13333333"></line><line class="v-valueaxisline v-tick" stroke="#d8d8d8" stroke-width="1" shape-rendering="crispEdges" x1="39" y1="387.2" x2="0" y2="387.2"></line></g></g></g></g></g><g transform="translate(44,0)" class="v-m-axis-position-bound v-gridcontainer-top" clip-path="url(#clip-path-cdd29ee1-e511-4938-a51d-ef20422c1ae9)"><clipPath class="v-clippath" id="clip-path-cdd29ee1-e511-4938-a51d-ef20422c1ae9"><rect x="0" y="1" width="403.6" height="1"></rect></clipPath><g></g></g><g transform="translate(447.6,0)" class="v-m-axis-position-bound v-gridcontainer-right" clip-path="url(#clip-path-0031e392-90a6-48ca-b842-11ef910baab5)"><clipPath class="v-clippath" id="clip-path-0031e392-90a6-48ca-b842-11ef910baab5"><rect x="-1" y="0" width="1" height="387.2"></rect></clipPath><g></g></g><g transform="translate(44,387.2)" class="v-m-axis-position-bound v-gridcontainer-bottom" clip-path="url(#clip-path-3b0b47c0-e5ad-4ac8-9cbc-035bb4ff4663)"><clipPath class="v-clippath" id="clip-path-3b0b47c0-e5ad-4ac8-9cbc-035bb4ff4663"><rect x="0" y="-1" width="403.6" height="29.4"></rect></clipPath><g><g transform="translate(0 , 0)"><g transform="translate(0, 0 )" class="v-m-trellis-axis v-axis" clip-path="url(#clip-path-b83af6aa-e693-41ea-aaac-79cb4f083b5a)"><clipPath class="v-clippath" id="clip-path-b83af6aa-e693-41ea-aaac-79cb4f083b5a"><rect x="-1" y="-1" width="802" height="27.4"></rect></clipPath><g class="v-label-group"><g class="v-label v-morphable-label viz-axis-label v-axis-item index_0" fill="#333333" font-size="12px" font-weight="normal" font-family="'Open Sans', Arial, Helvetica, sans-serif" font-style="normal" categorylabel-id="0" transform="translate(0,0)"><rect class="viz-axis-label-rect" fill="transparent" x="1" y="1" width="198" height="23.4"></rect><g class="v-axis-label-wrapper"><text x="100" y="17.4" text-anchor="middle">China</text></g></g><g class="v-label v-morphable-label viz-axis-label v-axis-item index_0" fill="#333333" font-size="12px" font-weight="normal" font-family="'Open Sans', Arial, Helvetica, sans-serif" font-style="normal" categorylabel-id="1" transform="translate(200,0)"><rect class="viz-axis-label-rect" fill="transparent" x="1" y="1" width="198" height="23.4"></rect><g class="v-axis-label-wrapper"><text x="100" y="17.4" text-anchor="middle">Japan</text></g></g><g class="v-label v-morphable-label viz-axis-label v-axis-item index_0" fill="#333333" font-size="12px" font-weight="normal" font-family="'Open Sans', Arial, Helvetica, sans-serif" font-style="normal" categorylabel-id="2" transform="translate(400,0)"><rect class="viz-axis-label-rect" fill="transparent" x="1" y="1" width="198" height="23.4"></rect><g class="v-axis-label-wrapper"><text x="100" y="17.4" text-anchor="middle">France</text></g></g></g><g class="v-tick-group"><line class="v-valueaxisline v-tick" stroke="#d8d8d8" stroke-width="1" shape-rendering="crispEdges" x1="0" y1="0" x2="0" y2="25.4"></line><line class="v-valueaxisline v-tick" stroke="#d8d8d8" stroke-width="1" shape-rendering="crispEdges" x1="200" y1="0" x2="200" y2="25.4"></line><line class="v-valueaxisline v-tick" stroke="#d8d8d8" stroke-width="1" shape-rendering="crispEdges" x1="400" y1="0" x2="400" y2="25.4"></line><line class="v-valueaxisline v-tick" stroke="#d8d8d8" stroke-width="1" shape-rendering="crispEdges" x1="600" y1="0" x2="600" y2="25.4"></line><line class="v-valueaxisline v-tick" stroke="#d8d8d8" stroke-width="1" shape-rendering="crispEdges" x1="800" y1="0" x2="800" y2="25.4"></line></g></g></g></g></g><g transform="translate(447.6,0)"><g><rect class="v-m-scrollbarTrack" visibility="hidden" fill="#f7f7f7" stroke-width="0" stroke="white" width="12" height="387.2"></rect><rect class="v-m-scrollbarThumb" visibility="hidden" fill="#e5e5e5" width="12" height="387.2" transform="translate(0, 0)"></rect></g></g><g transform="translate(44,415.6)"><g><rect class="v-m-scrollbarTrack" visibility="visible" fill="#f7f7f7" stroke-width="0" stroke="white" width="403.6" height="12"></rect><rect class="v-m-scrollbarThumb" visibility="visible" fill="#e5e5e5" width="203.61620000000002" height="12" transform="translate(0, 0)"></rect></g></g></g><g transform="translate(0,0)"><g class="v-title viz-axis-title v-trellistitle-left"><text text-anchor="middle" dominant-baseline="auto" x="11.399999999999999" y="193.6" transform="rotate(-90,11.399999999999999,193.6)"><tspan fill="#000000" font-size="12" font-weight="bold" font-family="'Open Sans', Arial, Helvetica, sans-serif" font-style="normal" dominant-baseline="auto">Year</tspan></text></g></g><g transform="translate(66.4,427.6)"><g class="v-title viz-axis-title v-trellistitle-bottom"><text text-anchor="middle" dominant-baseline="auto" x="201.8" y="19.4"><tspan fill="#000000" font-size="12" font-weight="bold" font-family="'Open Sans', Arial, Helvetica, sans-serif" font-style="normal" dominant-baseline="auto">Country</tspan></text></g></g></g></svg>