<svg class="v-m-root" viewBox="0 0 600 500" width="600" height="500" xmlns="http://www.w3.org/2000/svg" style="left: 0px; top: 0px; direction: ltr; height: 100%; width: 100%; display: block; cursor: default;"><defs></defs><g class="v-m-action-layer-group"></g><g class="v-m-background"><rect class="v-background-body viz-plot-background v-morphable-background" x="0" y="0" width="600" height="500" style="fill:transparent"></rect></g><g class="v-m-title" transform="translate(123.4, 25)"></g><g class="v-m-legendGroup" transform="translate(531, 25)"><g class="v-m-legend" transform="translate(0,0)"><rect class="v-bound" width="44" height="52.5" fill="transparent"></rect><g class="v-content" transform="translate(0, 0)" font-size="10px" font-family="'Open Sans', Arial, Helvetica, sans-serif" font-weight="normal" fill="#737373" font-style="normal"><rect class="v-legend-body-bound" x="-5" fill="transparent" width="49" height="52.5"></rect><g class="v-groups v-label viz-legend-valueLabel" transform="translate(0, 0)"><g class="v-legend-element v-legend-item" transform="translate (-5,0)" legendlabel-id="0"><rect width="49" height="17.5" fill="transparent"></rect><path class="v-legend-marker" fill="#73d2e0" stroke-width="0" stroke="transparent" opacity="1" stroke-opacity="undefined" d="M-7,0 A7,7 0 1,0 7,0 A7,7 0 1,0 -7,0z" transform="translate(12,8.25)"></path><text x="24" y="3.25" dy="0.85em">Jan</text></g><g class="v-legend-element v-legend-item" transform="translate (-5,17.5)" legendlabel-id="1"><rect width="49" height="17.5" fill="transparent"></rect><path class="v-legend-marker" fill="#bbd03b" stroke-width="0" stroke="transparent" opacity="1" stroke-opacity="undefined" d="M-7,0 A7,7 0 1,0 7,0 A7,7 0 1,0 -7,0z" transform="translate(12,8.25)"></path><text x="24" y="3.25" dy="0.85em">May</text></g><g class="v-legend-element v-legend-item" transform="translate (-5,35)" legendlabel-id="2"><rect width="49" height="17.5" fill="transparent"></rect><path class="v-legend-marker" fill="#999d20" stroke-width="0" stroke="transparent" opacity="1" stroke-opacity="undefined" d="M-7,0 A7,7 0 1,0 7,0 A7,7 0 1,0 -7,0z" transform="translate(12,8.25)"></path><text x="24" y="3.25" dy="0.85em">Jun</text></g></g></g></g></g><g class="v-m-main" transform="translate(25, 25)"><g transform="translate(22.4,0)"><g transform="translate(76,0)" class="v-m-plot-bound v-m-trellis-plot" clip-path="url(#clip-path-c469e294-d099-40e1-a09a-8f11f10cf104)"><clipPath class="v-clippath" id="clip-path-c469e294-d099-40e1-a09a-8f11f10cf104"><rect x="0" y="0" width="373.6" height="363"></rect></clipPath><rect class="v-trellis-plot-bound" width="373.6" height="363" fill="transparent"></rect><rect class="v-background-body viz-plot-background v-morphable-background" x="0" y="0" width="373.6" height="363" style="fill:transparent"></rect><g transform="translate(0,0)"><g id="cell_0_0_background" transform="translate(0, 0)"><rect class="v-background-body viz-plot-background v-morphable-background" x="0" y="0" width="200" height="121" style="fill:#f4f4f4"></rect></g><g id="cell_0_0" transform="translate(0, 9)"><rect class="v-background-body viz-plot-background v-morphable-background" x="0" y="0" width="200" height="112" style="fill:transparent"></rect><clipPath id="plot_main_clipPath_7f55e885-dafe-43f7-a487-d7e357b5c968"><rect y="-1" width="201" height="113"></rect></clipPath><rect class="v-plot-bound v-bound v-zoom-plot" width="200" height="112" fill="transparent"></rect><g clip-path="url(#plot_main_clipPath_7f55e885-dafe-43f7-a487-d7e357b5c968)"><g class="v-plot-main"><g class="v-datapoint-group"><g class="v-area-group"><g class="v-area"><path class="v-area-path v-morphable-areabg" fill="#73d2e0" opacity="0.8" d="M50,89.03999999999999L150,70.37333333333333L150,112L50,112"></path><path stroke="#73d2e0" stroke-width="1px" opacity="0.8" class="v-area-line-path v-morphable-areabg"></path><path class="v-area-detection-path" opacity="0" d="M40,89.03999999999999L50,89.03999999999999L50,112L40,112M150,70.37333333333333L160,70.37333333333333L160,112L150,112"></path></g></g><g class="v-area-point-group"><g class="v-area-point"><g data-id="0" data-datapoint-id="131" class="v-datapoint v-morphable-datapoint v-datapoint-default" transform="translate(50, 89.03999999999999)" opacity="0"><path d="M-4,0 A4,4 0 1,0 4,0 A4,4 0 1,0 -4,0z" fill="#73d2e0"></path></g><g data-id="1" data-datapoint-id="132" class="v-datapoint v-morphable-datapoint v-datapoint-default" transform="translate(150, 70.37333333333333)" opacity="0"><path d="M-4,0 A4,4 0 1,0 4,0 A4,4 0 1,0 -4,0z" fill="#73d2e0"></path></g></g></g></g><g class="v-datalabel-group"><g data-datapoint-id="131" class="v-datalabel v-morphable-label" fill="#333333" font-family="'Open Sans', Arial, Helvetica, sans-serif" font-size="12px" font-weight="normal" font-style="normal" cssString="fill:#333333;font-family:'Open Sans', Arial, Helvetica, sans-serif;font-size:12px;font-weight:normal;font-style:normal;" transform="translate(50,105.52000091552735)"><text>123</text></g><g data-datapoint-id="132" class="v-datalabel v-morphable-label" fill="#333333" font-family="'Open Sans', Arial, Helvetica, sans-serif" font-size="12px" font-weight="normal" font-style="normal" cssString="fill:#333333;font-family:'Open Sans', Arial, Helvetica, sans-serif;font-size:12px;font-weight:normal;font-style:normal;" transform="translate(129,96.18667012532552)"><text>223</text></g></g></g></g><g class="v-referenceline-group" clip-path="url(#plot_main_clipPath_7f55e885-dafe-43f7-a487-d7e357b5c968)"></g></g><g id="cell_0_1_background" transform="translate(200, 0)"><rect class="v-background-body viz-plot-background v-morphable-background" x="0" y="0" width="200" height="121" style="fill:#ffffff"></rect></g><g id="cell_0_1" transform="translate(200, 9)"><rect class="v-background-body viz-plot-background v-morphable-background" x="0" y="0" width="200" height="112" style="fill:transparent"></rect><clipPath id="plot_main_clipPath_6c452e3a-c47e-42b3-942d-9d491d12dcc7"><rect y="-1" width="201" height="113"></rect></clipPath><rect class="v-plot-bound v-bound v-zoom-plot" width="200" height="112" fill="transparent"></rect><g clip-path="url(#plot_main_clipPath_6c452e3a-c47e-42b3-942d-9d491d12dcc7)"><g class="v-plot-main"><g class="v-datapoint-group"><g class="v-area-group"><g class="v-area"><path class="v-area-path v-morphable-areabg" fill="#bbd03b" opacity="0.8" d="M50,68.32L150,71.54933333333334L150,112L50,112"></path><path stroke="#bbd03b" stroke-width="1px" opacity="0.8" class="v-area-line-path v-morphable-areabg"></path><path class="v-area-detection-path" opacity="0" d="M40,68.32L50,68.32L50,112L40,112M150,71.54933333333334L160,71.54933333333334L160,112L150,112"></path></g></g><g class="v-area-point-group"><g class="v-area-point"><g data-id="0" data-datapoint-id="133" class="v-datapoint v-morphable-datapoint v-datapoint-default" transform="translate(50, 68.32)" opacity="0"><path d="M-4,0 A4,4 0 1,0 4,0 A4,4 0 1,0 -4,0z" fill="#bbd03b"></path></g><g data-id="1" data-datapoint-id="134" class="v-datapoint v-morphable-datapoint v-datapoint-default" transform="translate(150, 71.54933333333334)" opacity="0"><path d="M-4,0 A4,4 0 1,0 4,0 A4,4 0 1,0 -4,0z" fill="#bbd03b"></path></g></g></g></g><g class="v-datalabel-group"><g data-datapoint-id="133" class="v-datalabel v-morphable-label" fill="#333333" font-family="'Open Sans', Arial, Helvetica, sans-serif" font-size="12px" font-weight="normal" font-style="normal" cssString="fill:#333333;font-family:'Open Sans', Arial, Helvetica, sans-serif;font-size:12px;font-weight:normal;font-style:normal;" transform="translate(50,95.15999969482422)"><text>234</text></g><g data-datapoint-id="134" class="v-datalabel v-morphable-label" fill="#333333" font-family="'Open Sans', Arial, Helvetica, sans-serif" font-size="12px" font-weight="normal" font-style="normal" cssString="fill:#333333;font-family:'Open Sans', Arial, Helvetica, sans-serif;font-size:12px;font-weight:normal;font-style:normal;" transform="translate(119,96.7746649983724)"><text>216.7</text></g></g></g></g><g class="v-referenceline-group" clip-path="url(#plot_main_clipPath_6c452e3a-c47e-42b3-942d-9d491d12dcc7)"></g></g><g id="cell_1_0_background" transform="translate(0, 121)"><rect class="v-background-body viz-plot-background v-morphable-background" x="0" y="0" width="200" height="121" style="fill:#f4f4f4"></rect></g><g id="cell_1_0" transform="translate(0, 130)"><rect class="v-background-body viz-plot-background v-morphable-background" x="0" y="0" width="200" height="112" style="fill:transparent"></rect><clipPath id="plot_main_clipPath_b5af3eab-1e11-48ee-a9e0-98ed5a0f6b1d"><rect y="-1" width="201" height="113"></rect></clipPath><rect class="v-plot-bound v-bound v-zoom-plot" width="200" height="112" fill="transparent"></rect><g clip-path="url(#plot_main_clipPath_b5af3eab-1e11-48ee-a9e0-98ed5a0f6b1d)"><g class="v-plot-main"><g class="v-datapoint-group"><g class="v-area-group"><g class="v-area"><path class="v-area-path v-morphable-areabg" fill="#73d2e0" opacity="0.8" d="M50,51.70666666666666L150,89.03999999999999L150,112L50,112"></path><path stroke="#73d2e0" stroke-width="1px" opacity="0.8" class="v-area-line-path v-morphable-areabg"></path><path class="v-area-detection-path" opacity="0" d="M40,51.70666666666666L50,51.70666666666666L50,112L40,112M150,89.03999999999999L160,89.03999999999999L160,112L150,112"></path></g></g><g class="v-area-point-group"><g class="v-area-point"><g data-id="0" data-datapoint-id="135" class="v-datapoint v-morphable-datapoint v-datapoint-default" transform="translate(50, 51.70666666666666)" opacity="0"><path d="M-4,0 A4,4 0 1,0 4,0 A4,4 0 1,0 -4,0z" fill="#73d2e0"></path></g><g data-id="1" data-datapoint-id="136" class="v-datapoint v-morphable-datapoint v-datapoint-default" transform="translate(150, 89.03999999999999)" opacity="0"><path d="M-4,0 A4,4 0 1,0 4,0 A4,4 0 1,0 -4,0z" fill="#73d2e0"></path></g></g></g></g><g class="v-datalabel-group"><g data-datapoint-id="135" class="v-datalabel v-morphable-label" fill="#333333" font-family="'Open Sans', Arial, Helvetica, sans-serif" font-size="12px" font-weight="normal" font-style="normal" cssString="fill:#333333;font-family:'Open Sans', Arial, Helvetica, sans-serif;font-size:12px;font-weight:normal;font-style:normal;" transform="translate(50,86.85333170572918)"><text>323</text></g><g data-datapoint-id="136" class="v-datalabel v-morphable-label" fill="#333333" font-family="'Open Sans', Arial, Helvetica, sans-serif" font-size="12px" font-weight="normal" font-style="normal" cssString="fill:#333333;font-family:'Open Sans', Arial, Helvetica, sans-serif;font-size:12px;font-weight:normal;font-style:normal;" transform="translate(129,105.52000091552735)"><text>123</text></g></g></g></g><g class="v-referenceline-group" clip-path="url(#plot_main_clipPath_b5af3eab-1e11-48ee-a9e0-98ed5a0f6b1d)"></g></g><g id="cell_1_1_background" transform="translate(200, 121)"><rect class="v-background-body viz-plot-background v-morphable-background" x="0" y="0" width="200" height="121" style="fill:#ffffff"></rect></g><g id="cell_1_1" transform="translate(200, 130)"><rect class="v-background-body viz-plot-background v-morphable-background" x="0" y="0" width="200" height="112" style="fill:transparent"></rect><clipPath id="plot_main_clipPath_3fa893c6-d998-4735-aa84-bbed17e09316"><rect y="-1" width="201" height="113"></rect></clipPath><rect class="v-plot-bound v-bound v-zoom-plot" width="200" height="112" fill="transparent"></rect><g clip-path="url(#plot_main_clipPath_3fa893c6-d998-4735-aa84-bbed17e09316)"><g class="v-plot-main"><g class="v-datapoint-group"><g class="v-area-group"><g class="v-area"><path class="v-area-path v-morphable-areabg" fill="#999d20" opacity="0.8" d="M50,61.61866666666667L150,41.44L150,112L50,112"></path><path stroke="#999d20" stroke-width="1px" opacity="0.8" class="v-area-line-path v-morphable-areabg"></path><path class="v-area-detection-path" opacity="0" d="M40,61.61866666666667L50,61.61866666666667L50,112L40,112M150,41.44L160,41.44L160,112L150,112"></path></g></g><g class="v-area-point-group"><g class="v-area-point"><g data-id="0" data-datapoint-id="137" class="v-datapoint v-morphable-datapoint v-datapoint-default" transform="translate(50, 61.61866666666667)" opacity="0"><path d="M-4,0 A4,4 0 1,0 4,0 A4,4 0 1,0 -4,0z" fill="#999d20"></path></g><g data-id="1" data-datapoint-id="138" class="v-datapoint v-morphable-datapoint v-datapoint-default" transform="translate(150, 41.44)" opacity="0"><path d="M-4,0 A4,4 0 1,0 4,0 A4,4 0 1,0 -4,0z" fill="#999d20"></path></g></g></g></g><g class="v-datalabel-group"><g data-datapoint-id="137" class="v-datalabel v-morphable-label" fill="#333333" font-family="'Open Sans', Arial, Helvetica, sans-serif" font-size="12px" font-weight="normal" font-style="normal" cssString="fill:#333333;font-family:'Open Sans', Arial, Helvetica, sans-serif;font-size:12px;font-weight:normal;font-style:normal;" transform="translate(50,91.80933426920572)"><text>269.9</text></g><g data-datapoint-id="138" class="v-datalabel v-morphable-label" fill="#333333" font-family="'Open Sans', Arial, Helvetica, sans-serif" font-size="12px" font-weight="normal" font-style="normal" cssString="fill:#333333;font-family:'Open Sans', Arial, Helvetica, sans-serif;font-size:12px;font-weight:normal;font-style:normal;" transform="translate(129,81.71999862670899)"><text>378</text></g></g></g></g><g class="v-referenceline-group" clip-path="url(#plot_main_clipPath_3fa893c6-d998-4735-aa84-bbed17e09316)"></g></g><g id="cell_2_0_background" transform="translate(0, 242)"><rect class="v-background-body viz-plot-background v-morphable-background" x="0" y="0" width="200" height="121" style="fill:#f4f4f4"></rect></g><g id="cell_2_0" transform="translate(0, 251)"><rect class="v-background-body viz-plot-background v-morphable-background" x="0" y="0" width="200" height="112" style="fill:transparent"></rect><clipPath id="plot_main_clipPath_f1330dc0-408b-4979-965c-a96d4791c467"><rect y="-1" width="201" height="113"></rect></clipPath><rect class="v-plot-bound v-bound v-zoom-plot" width="200" height="112" fill="transparent"></rect><g clip-path="url(#plot_main_clipPath_f1330dc0-408b-4979-965c-a96d4791c467)"><g class="v-plot-main"><g class="v-datapoint-group"><g class="v-area-group"><g class="v-area"><path class="v-area-path v-morphable-areabg" fill="#73d2e0" opacity="0.8" d="M50,14.37333333333333L150,89.03999999999999L150,112L50,112"></path><path stroke="#73d2e0" stroke-width="1px" opacity="0.8" class="v-area-line-path v-morphable-areabg"></path><path class="v-area-detection-path" opacity="0" d="M40,14.37333333333333L50,14.37333333333333L50,112L40,112M150,89.03999999999999L160,89.03999999999999L160,112L150,112"></path></g></g><g class="v-area-point-group"><g class="v-area-point"><g data-id="0" data-datapoint-id="139" class="v-datapoint v-morphable-datapoint v-datapoint-default" transform="translate(50, 14.37333333333333)" opacity="0"><path d="M-4,0 A4,4 0 1,0 4,0 A4,4 0 1,0 -4,0z" fill="#73d2e0"></path></g><g data-id="1" data-datapoint-id="140" class="v-datapoint v-morphable-datapoint v-datapoint-default" transform="translate(150, 89.03999999999999)" opacity="0"><path d="M-4,0 A4,4 0 1,0 4,0 A4,4 0 1,0 -4,0z" fill="#73d2e0"></path></g></g></g></g><g class="v-datalabel-group"><g data-datapoint-id="139" class="v-datalabel v-morphable-label" fill="#333333" font-family="'Open Sans', Arial, Helvetica, sans-serif" font-size="12px" font-weight="normal" font-style="normal" cssString="fill:#333333;font-family:'Open Sans', Arial, Helvetica, sans-serif;font-size:12px;font-weight:normal;font-style:normal;" transform="translate(50,68.18666631062825)"><text>523</text></g><g data-datapoint-id="140" class="v-datalabel v-morphable-label" fill="#333333" font-family="'Open Sans', Arial, Helvetica, sans-serif" font-size="12px" font-weight="normal" font-style="normal" cssString="fill:#333333;font-family:'Open Sans', Arial, Helvetica, sans-serif;font-size:12px;font-weight:normal;font-style:normal;" transform="translate(129,105.52000091552735)"><text>123</text></g></g></g></g><g class="v-referenceline-group" clip-path="url(#plot_main_clipPath_f1330dc0-408b-4979-965c-a96d4791c467)"></g></g><g id="cell_2_1_background" transform="translate(200, 242)"><rect class="v-background-body viz-plot-background v-morphable-background" x="0" y="0" width="200" height="121" style="fill:#ffffff"></rect></g><g id="cell_2_1" transform="translate(200, 251)"><rect class="v-background-body viz-plot-background v-morphable-background" x="0" y="0" width="200" height="112" style="fill:transparent"></rect><clipPath id="plot_main_clipPath_8df2da73-dd62-4477-af31-aeb0f2f45aa1"><rect y="-1" width="201" height="113"></rect></clipPath><rect class="v-plot-bound v-bound v-zoom-plot" width="200" height="112" fill="transparent"></rect><g clip-path="url(#plot_main_clipPath_8df2da73-dd62-4477-af31-aeb0f2f45aa1)"><g class="v-plot-main"><g class="v-datapoint-group"><g class="v-area-group"></g><g class="v-area-point-group"></g></g><g class="v-datalabel-group"></g></g></g><g class="v-referenceline-group" clip-path="url(#plot_main_clipPath_8df2da73-dd62-4477-af31-aeb0f2f45aa1)"></g></g></g></g><g class="gridcontainer_gridline" stroke="#d8d8d8" stroke-width="1"><g clip-path="url(#clip-path-38473a4c-56ae-4da2-ae03-42e23a04dca8)"><clipPath class="v-clippath" id="clip-path-38473a4c-56ae-4da2-ae03-42e23a04dca8"><rect x="75" y="-1" width="375.6" height="417.6"></rect></clipPath><g><line x1="276" y1="0" x2="276" y2="402.20000000000005"></line></g><line x1="76" y1="0" x2="76" y2="427.6"></line><line x1="449.6" y1="0" x2="449.6" y2="427.6"></line></g><g clip-path="url(#clip-path-af8e7a76-bf50-4416-ac9b-273793e447c2)"><clipPath class="v-clippath" id="clip-path-af8e7a76-bf50-4416-ac9b-273793e447c2"><rect x="-1" y="-1" width="451.6" height="365"></rect></clipPath><g><line x1="39" y1="121" x2="461.6" y2="121"></line><line x1="39" y1="242" x2="461.6" y2="242"></line></g><line x1="0" y1="0" x2="461.6" y2="0"></line><line x1="0" y1="363" x2="461.6" y2="363"></line></g></g><g transform="translate(0,0)" class="v-m-axis-position-bound v-gridcontainer-left" clip-path="url(#clip-path-9738fb2d-4e0d-44f3-ab97-0ddcfb6e36a9)"><clipPath class="v-clippath" id="clip-path-9738fb2d-4e0d-44f3-ab97-0ddcfb6e36a9"><rect x="1" y="0" width="77" height="363"></rect></clipPath><g><g transform="translate(44, 0 )"><g transform="translate(0 , 9)" class="v-m-valueAxis v-m-yAxis"><rect class="v-bound" width="32" height="112" fill="transparent"></rect><g class="v-axis"><g class="v-m-axisBody" transform="translate(0,0)"><clipPath class="v-clippath-labels" id="clip-path-08a74e54-c6c2-4c70-8868-15d15090e979"><rect x="-1" y="-10" width="34" height="132"></rect></clipPath><clipPath class="v-clippath-ticks" id="clip-path-734fd32b-6d03-4d7a-ae77-2cab678e71e9"><rect x="-1" y="-1" width="34" height="114"></rect></clipPath><rect class="v-bound" width="32" height="112" fill="transparent"></rect><g clip-path="url(#clip-path-734fd32b-6d03-4d7a-ae77-2cab678e71e9)"><g class="v-tick-group"><line class="v-valueaxisline v-tick" stroke="#878786" stroke-width="1" shape-rendering="crispEdges" x1="32" y1="112" x2="27" y2="112"></line><line class="v-valueaxisline v-tick" stroke="#878786" stroke-width="1" shape-rendering="crispEdges" x1="32" y1="74.66666666666666" x2="27" y2="74.66666666666666"></line><line class="v-valueaxisline v-tick" stroke="#878786" stroke-width="1" shape-rendering="crispEdges" x1="32" y1="37.33333333333333" x2="27" y2="37.33333333333333"></line><line class="v-valueaxisline v-tick" stroke="#878786" stroke-width="1" shape-rendering="crispEdges" x1="32" y1="0" x2="27" y2="0"></line></g></g><g clip-path="url(#clip-path-08a74e54-c6c2-4c70-8868-15d15090e979)"><g class="v-label-group"><g class="v-label v-morphable-label viz-axis-label" fill="#737373" font-size="10px" font-weight="normal" font-family="'Open Sans', Arial, Helvetica, sans-serif" font-style="normal"><text text-anchor="end" x="21" y="106">0</text></g><g class="v-label v-morphable-label viz-axis-label" fill="#737373" font-size="10px" font-weight="normal" font-family="'Open Sans', Arial, Helvetica, sans-serif" font-style="normal"><text text-anchor="end" x="21" y="77.66666666666666">200</text></g><g class="v-label v-morphable-label viz-axis-label" fill="#737373" font-size="10px" font-weight="normal" font-family="'Open Sans', Arial, Helvetica, sans-serif" font-style="normal"><text text-anchor="end" x="21" y="40.33333333333333">400</text></g><g class="v-label v-morphable-label viz-axis-label" fill="#737373" font-size="10px" font-weight="normal" font-family="'Open Sans', Arial, Helvetica, sans-serif" font-style="normal"><text text-anchor="end" x="21" y="3">600</text></g></g></g></g></g></g><g transform="translate(0 , 130)" class="v-m-valueAxis v-m-yAxis"><rect class="v-bound" width="32" height="112" fill="transparent"></rect><g class="v-axis"><g class="v-m-axisBody" transform="translate(0,0)"><clipPath class="v-clippath-labels" id="clip-path-3af83730-27f1-4115-b55a-d5477cfa3756"><rect x="-1" y="-10" width="34" height="132"></rect></clipPath><clipPath class="v-clippath-ticks" id="clip-path-b3e3c7db-3bca-487a-b580-6845ddbb5037"><rect x="-1" y="-1" width="34" height="114"></rect></clipPath><rect class="v-bound" width="32" height="112" fill="transparent"></rect><g clip-path="url(#clip-path-b3e3c7db-3bca-487a-b580-6845ddbb5037)"><g class="v-tick-group"><line class="v-valueaxisline v-tick" stroke="#878786" stroke-width="1" shape-rendering="crispEdges" x1="32" y1="112" x2="27" y2="112"></line><line class="v-valueaxisline v-tick" stroke="#878786" stroke-width="1" shape-rendering="crispEdges" x1="32" y1="74.66666666666666" x2="27" y2="74.66666666666666"></line><line class="v-valueaxisline v-tick" stroke="#878786" stroke-width="1" shape-rendering="crispEdges" x1="32" y1="37.33333333333333" x2="27" y2="37.33333333333333"></line><line class="v-valueaxisline v-tick" stroke="#878786" stroke-width="1" shape-rendering="crispEdges" x1="32" y1="0" x2="27" y2="0"></line></g></g><g clip-path="url(#clip-path-3af83730-27f1-4115-b55a-d5477cfa3756)"><g class="v-label-group"><g class="v-label v-morphable-label viz-axis-label" fill="#737373" font-size="10px" font-weight="normal" font-family="'Open Sans', Arial, Helvetica, sans-serif" font-style="normal"><text text-anchor="end" x="21" y="106">0</text></g><g class="v-label v-morphable-label viz-axis-label" fill="#737373" font-size="10px" font-weight="normal" font-family="'Open Sans', Arial, Helvetica, sans-serif" font-style="normal"><text text-anchor="end" x="21" y="77.66666666666666">200</text></g><g class="v-label v-morphable-label viz-axis-label" fill="#737373" font-size="10px" font-weight="normal" font-family="'Open Sans', Arial, Helvetica, sans-serif" font-style="normal"><text text-anchor="end" x="21" y="40.33333333333333">400</text></g><g class="v-label v-morphable-label viz-axis-label" fill="#737373" font-size="10px" font-weight="normal" font-family="'Open Sans', Arial, Helvetica, sans-serif" font-style="normal"><text text-anchor="end" x="21" y="3">600</text></g></g></g></g></g></g><g transform="translate(0 , 251)" class="v-m-valueAxis v-m-yAxis"><rect class="v-bound" width="32" height="112" fill="transparent"></rect><g class="v-axis"><g class="v-m-axisBody" transform="translate(0,0)"><clipPath class="v-clippath-labels" id="clip-path-7358bb32-e604-4f85-b43b-737e73583a74"><rect x="-1" y="-10" width="34" height="132"></rect></clipPath><clipPath class="v-clippath-ticks" id="clip-path-be6aaa42-c3fd-403b-b402-33f4d89d9bac"><rect x="-1" y="-1" width="34" height="114"></rect></clipPath><rect class="v-bound" width="32" height="112" fill="transparent"></rect><g clip-path="url(#clip-path-be6aaa42-c3fd-403b-b402-33f4d89d9bac)"><g class="v-tick-group"><line class="v-valueaxisline v-tick" stroke="#878786" stroke-width="1" shape-rendering="crispEdges" x1="32" y1="112" x2="27" y2="112"></line><line class="v-valueaxisline v-tick" stroke="#878786" stroke-width="1" shape-rendering="crispEdges" x1="32" y1="74.66666666666666" x2="27" y2="74.66666666666666"></line><line class="v-valueaxisline v-tick" stroke="#878786" stroke-width="1" shape-rendering="crispEdges" x1="32" y1="37.33333333333333" x2="27" y2="37.33333333333333"></line><line class="v-valueaxisline v-tick" stroke="#878786" stroke-width="1" shape-rendering="crispEdges" x1="32" y1="0" x2="27" y2="0"></line></g></g><g clip-path="url(#clip-path-7358bb32-e604-4f85-b43b-737e73583a74)"><g class="v-label-group"><g class="v-label v-morphable-label viz-axis-label" fill="#737373" font-size="10px" font-weight="normal" font-family="'Open Sans', Arial, Helvetica, sans-serif" font-style="normal"><text text-anchor="end" x="21" y="106">0</text></g><g class="v-label v-morphable-label viz-axis-label" fill="#737373" font-size="10px" font-weight="normal" font-family="'Open Sans', Arial, Helvetica, sans-serif" font-style="normal"><text text-anchor="end" x="21" y="77.66666666666666">200</text></g><g class="v-label v-morphable-label viz-axis-label" fill="#737373" font-size="10px" font-weight="normal" font-family="'Open Sans', Arial, Helvetica, sans-serif" font-style="normal"><text text-anchor="end" x="21" y="40.33333333333333">400</text></g><g class="v-label v-morphable-label viz-axis-label" fill="#737373" font-size="10px" font-weight="normal" font-family="'Open Sans', Arial, Helvetica, sans-serif" font-style="normal"><text text-anchor="end" x="21" y="3">600</text></g></g></g></g></g></g></g><g transform="translate(5, 0 )"><g transform="translate(0 , 0)" class="v-m-trellis-axis v-axis" clip-path="url(#clip-path-54f63367-0bed-450f-be03-22e9dec42d8c)"><clipPath class="v-clippath" id="clip-path-54f63367-0bed-450f-be03-22e9dec42d8c"><rect x="-1" y="-1" width="41" height="365"></rect></clipPath><g class="v-label-group"><g class="v-label v-morphable-label viz-axis-label v-axis-item index_0" fill="#333333" font-size="12px" font-weight="normal" font-family="'Open Sans', Arial, Helvetica, sans-serif" font-style="normal" categorylabel-id="0" transform="translate(0,0)"><rect class="viz-axis-label-rect" fill="transparent" x="1" y="1" width="37" height="119"></rect><g class="v-axis-label-wrapper"><text x="33" y="13.4" text-anchor="end">2009</text></g></g><g class="v-label v-morphable-label viz-axis-label v-axis-item index_0" fill="#333333" font-size="12px" font-weight="normal" font-family="'Open Sans', Arial, Helvetica, sans-serif" font-style="normal" categorylabel-id="1" transform="translate(0,121)"><rect class="viz-axis-label-rect" fill="transparent" x="1" y="1" width="37" height="119"></rect><g class="v-axis-label-wrapper"><text x="33" y="13.399999999999999" text-anchor="end">2010</text></g></g><g class="v-label v-morphable-label viz-axis-label v-axis-item index_0" fill="#333333" font-size="12px" font-weight="normal" font-family="'Open Sans', Arial, Helvetica, sans-serif" font-style="normal" categorylabel-id="2" transform="translate(0,242)"><rect class="viz-axis-label-rect" fill="transparent" x="1" y="1" width="37" height="119"></rect><g class="v-axis-label-wrapper"><text x="33" y="13.399999999999999" text-anchor="end">2011</text></g></g></g><g class="v-tick-group"><line class="v-valueaxisline v-tick" stroke="#d8d8d8" stroke-width="1" shape-rendering="crispEdges" x1="39" y1="0" x2="0" y2="0"></line><line class="v-valueaxisline v-tick" stroke="#d8d8d8" stroke-width="1" shape-rendering="crispEdges" x1="39" y1="121" x2="0" y2="121"></line><line class="v-valueaxisline v-tick" stroke="#d8d8d8" stroke-width="1" shape-rendering="crispEdges" x1="39" y1="242" x2="0" y2="242"></line><line class="v-valueaxisline v-tick" stroke="#d8d8d8" stroke-width="1" shape-rendering="crispEdges" x1="39" y1="363" x2="0" y2="363"></line></g></g></g></g></g><g transform="translate(76,0)" class="v-m-axis-position-bound v-gridcontainer-top" clip-path="url(#clip-path-2c8d2706-fa30-4932-aa4f-8fe06a285ae6)"><clipPath class="v-clippath" id="clip-path-2c8d2706-fa30-4932-aa4f-8fe06a285ae6"><rect x="0" y="1" width="373.6" height="1"></rect></clipPath><g></g></g><g transform="translate(449.6,0)" class="v-m-axis-position-bound v-gridcontainer-right" clip-path="url(#clip-path-5cbc2fcf-256b-436f-b480-46ecb10a35bc)"><clipPath class="v-clippath" id="clip-path-5cbc2fcf-256b-436f-b480-46ecb10a35bc"><rect x="-1" y="0" width="1" height="363"></rect></clipPath><g></g></g><g transform="translate(76,363)" class="v-m-axis-position-bound v-gridcontainer-bottom" clip-path="url(#clip-path-aac27476-23fc-4561-8a6b-f9ec20e5076b)"><clipPath class="v-clippath" id="clip-path-aac27476-23fc-4561-8a6b-f9ec20e5076b"><rect x="0" y="-1" width="373.6" height="53.599999999999994"></rect></clipPath><g><g transform="translate(0 , 24.199999999999996)"><g transform="translate(0, 0 )" class="v-m-trellis-axis v-axis" clip-path="url(#clip-path-30d0f358-f21c-48d5-ae07-386f18ba5a52)"><clipPath class="v-clippath" id="clip-path-30d0f358-f21c-48d5-ae07-386f18ba5a52"><rect x="-1" y="-1" width="402" height="27.4"></rect></clipPath><g class="v-label-group"><g class="v-label v-morphable-label viz-axis-label v-axis-item index_0" fill="#333333" font-size="12px" font-weight="normal" font-family="'Open Sans', Arial, Helvetica, sans-serif" font-style="normal" categorylabel-id="0" transform="translate(0,0)"><rect class="viz-axis-label-rect" fill="transparent" x="1" y="1" width="198" height="23.4"></rect><g class="v-axis-label-wrapper"><text x="100" y="17.4" text-anchor="middle">China</text></g></g><g class="v-label v-morphable-label viz-axis-label v-axis-item index_0" fill="#333333" font-size="12px" font-weight="normal" font-family="'Open Sans', Arial, Helvetica, sans-serif" font-style="normal" categorylabel-id="1" transform="translate(200,0)"><rect class="viz-axis-label-rect" fill="transparent" x="1" y="1" width="198" height="23.4"></rect><g class="v-axis-label-wrapper"><text x="100" y="17.4" text-anchor="middle">Japan</text></g></g></g><g class="v-tick-group"><line class="v-valueaxisline v-tick" stroke="#d8d8d8" stroke-width="1" shape-rendering="crispEdges" x1="0" y1="0" x2="0" y2="25.4"></line><line class="v-valueaxisline v-tick" stroke="#d8d8d8" stroke-width="1" shape-rendering="crispEdges" x1="200" y1="0" x2="200" y2="25.4"></line><line class="v-valueaxisline v-tick" stroke="#d8d8d8" stroke-width="1" shape-rendering="crispEdges" x1="400" y1="0" x2="400" y2="25.4"></line></g></g></g><g transform="translate(0 , -3.552713678800501e-15)"><g transform="translate(0, 0 )" class="v-m-categoryAxis v-m-xAxis"><rect class="v-bound" width="200" height="24.2" fill="transparent"></rect><g class="v-axis"><g class="v-m-axisBody" transform="translate(0,0)" clip-path="url(#clip-path-e83e35bf-7c44-4fc7-b578-19e230740f0a)"><clipPath class="v-clippath" id="clip-path-e83e35bf-7c44-4fc7-b578-19e230740f0a"><rect x="-1" y="-1" width="202" height="26.2"></rect></clipPath><g class="v-line-group"><line class="v-valueaxisline v-line" stroke="#babab9" stroke-width="1" shape-rendering="crispEdges" x1="-0.5" y1="0" x2="200.5" y2="0"></line></g><g class="v-label-group"><g class="v-label v-morphable-label viz-axis-label v-axis-item index_0" fill="#737373" font-size="11px" font-weight="normal" font-family="'Open Sans', Arial, Helvetica, sans-serif" font-style="normal" categorylabel-id="0" transform="translate(0,0)"><rect class="viz-axis-label-rect" fill="transparent" x="1" y="1" width="98" height="22.2"></rect><g class="v-axis-label-wrapper"><text x="50" y="16.2" text-anchor="middle">Car</text></g></g><g class="v-label v-morphable-label viz-axis-label v-axis-item index_0" fill="#737373" font-size="11px" font-weight="normal" font-family="'Open Sans', Arial, Helvetica, sans-serif" font-style="normal" categorylabel-id="1" transform="translate(100,0)"><rect class="viz-axis-label-rect" fill="transparent" x="1" y="1" width="98" height="22.2"></rect><g class="v-axis-label-wrapper"><text x="50" y="16.2" text-anchor="middle">Truck</text></g></g></g></g></g></g><g transform="translate(200, 0 )" class="v-m-categoryAxis v-m-xAxis"><rect class="v-bound" width="200" height="24.2" fill="transparent"></rect><g class="v-axis"><g class="v-m-axisBody" transform="translate(0,0)" clip-path="url(#clip-path-eb963c57-b232-41ed-a8a7-7204774ab5f2)"><clipPath class="v-clippath" id="clip-path-eb963c57-b232-41ed-a8a7-7204774ab5f2"><rect x="-1" y="-1" width="202" height="26.2"></rect></clipPath><g class="v-line-group"><line class="v-valueaxisline v-line" stroke="#babab9" stroke-width="1" shape-rendering="crispEdges" x1="-0.5" y1="0" x2="200.5" y2="0"></line></g><g class="v-label-group"><g class="v-label v-morphable-label viz-axis-label v-axis-item index_0" fill="#737373" font-size="11px" font-weight="normal" font-family="'Open Sans', Arial, Helvetica, sans-serif" font-style="normal" categorylabel-id="0" transform="translate(0,0)"><rect class="viz-axis-label-rect" fill="transparent" x="1" y="1" width="98" height="22.2"></rect><g class="v-axis-label-wrapper"><text x="50" y="16.2" text-anchor="middle">Car</text></g></g><g class="v-label v-morphable-label viz-axis-label v-axis-item index_0" fill="#737373" font-size="11px" font-weight="normal" font-family="'Open Sans', Arial, Helvetica, sans-serif" font-style="normal" categorylabel-id="1" transform="translate(100,0)"><rect class="viz-axis-label-rect" fill="transparent" x="1" y="1" width="98" height="22.2"></rect><g class="v-axis-label-wrapper"><text x="50" y="16.2" text-anchor="middle">Truck</text></g></g></g></g></g></g></g></g></g><g transform="translate(449.6,0)"><g><rect class="v-m-scrollbarTrack" visibility="hidden" fill="#f7f7f7" stroke-width="0" stroke="white" width="12" height="363"></rect><rect class="v-m-scrollbarThumb" visibility="hidden" fill="#e5e5e5" width="12" height="363" transform="translate(0, 0)"></rect></g></g><g transform="translate(76,415.6)"><g><rect class="v-m-scrollbarTrack" visibility="visible" fill="#f7f7f7" stroke-width="0" stroke="white" width="373.6" height="12"></rect><rect class="v-m-scrollbarThumb" visibility="visible" fill="#e5e5e5" width="348.9424000000001" height="12" transform="translate(0, 0)"></rect></g></g></g><g transform="translate(0,0)"><g class="v-title viz-axis-title v-trellistitle-left"><text text-anchor="middle" dominant-baseline="auto" x="11.399999999999999" y="181.5" transform="rotate(-90,11.399999999999999,181.5)"><tspan fill="#000000" font-size="12" font-weight="bold" font-family="'Open Sans', Arial, Helvetica, sans-serif" font-style="normal" dominant-baseline="auto">Year</tspan><tspan fill="#000000" font-size="12px" font-weight="normal" font-family="'Open Sans', Arial, Helvetica, sans-serif" font-style="normal" dominant-baseline="auto"> / Profit</tspan></text></g></g><g transform="translate(98.4,427.6)"><g class="v-title viz-axis-title v-trellistitle-bottom"><text text-anchor="middle" dominant-baseline="auto" x="186.8" y="19.4"><tspan fill="#000000" font-size="12" font-weight="bold" font-family="'Open Sans', Arial, Helvetica, sans-serif" font-style="normal" dominant-baseline="auto">Country</tspan><tspan fill="#000000" font-size="12px" font-weight="normal" font-family="'Open Sans', Arial, Helvetica, sans-serif" font-style="normal" dominant-baseline="auto"> / Product</tspan></text></g></g></g></svg>