<svg class="v-m-root" viewBox="0 0 600 500" width="600" height="500" xmlns="http://www.w3.org/2000/svg" style="left: 0px; top: 0px; direction: ltr; height: 100%; width: 100%; display: block; cursor: default;"><defs></defs><g class="v-m-action-layer-group"></g><g class="v-m-background"><rect class="v-background-body viz-plot-background v-morphable-background" x="0" y="0" width="600" height="500" style="fill:transparent"></rect></g><g class="v-m-title" transform="translate(91.4, 25)"></g><g class="v-m-legendGroup" transform="translate(524, 25)"><g class="v-m-legend" transform="translate(0,0)"><rect class="v-bound" width="51" height="35" fill="transparent"></rect><g class="v-content" transform="translate(0, 0)" font-size="10px" font-family="'Open Sans', Arial, Helvetica, sans-serif" font-weight="normal" fill="#737373" font-style="normal"><rect class="v-legend-body-bound" x="-5" fill="transparent" width="56" height="35"></rect><g class="v-groups v-label viz-legend-valueLabel" transform="translate(0, 0)"><g class="v-legend-element v-legend-item" transform="translate (-5,0)" legendlabel-id="0"><rect width="56" height="17.5" fill="transparent"></rect><path class="v-legend-marker" fill="#73d2e0" stroke-width="0" stroke="transparent" opacity="1" stroke-opacity="undefined" d="M-7,-7L7,-7L7,7L-7,7Z" transform="translate(12,8.25)"></path><text x="24" y="3.25" dy="0.85em">Car</text></g><g class="v-legend-element v-legend-item" transform="translate (-5,17.5)" legendlabel-id="1"><rect width="56" height="17.5" fill="transparent"></rect><path class="v-legend-marker" fill="#bbd03b" stroke-width="0" stroke="transparent" opacity="1" stroke-opacity="undefined" d="M-7,-7L7,-7L7,7L-7,7Z" transform="translate(12,8.25)"></path><text x="24" y="3.25" dy="0.85em">Truck</text></g></g></g></g></g><g class="v-m-plot" transform="translate(25, 25)"><g transform="translate(22.4,0)"><g transform="translate(44,0)" class="v-m-plot-bound v-m-trellis-plot" clip-path="url(#clip-path-9897e1b6-4131-4544-a1b7-24fc231e7850)"><clipPath class="v-clippath" id="clip-path-9897e1b6-4131-4544-a1b7-24fc231e7850"><rect x="0" y="0" width="398.6" height="387.2"></rect></clipPath><rect class="v-trellis-plot-bound" width="398.6" height="387.2" fill="transparent"></rect><rect class="v-background-body viz-plot-background v-morphable-background" x="0" y="0" width="398.6" height="387.2" style="fill:transparent"></rect><g transform="translate(0,0)"><g id="cell_0_0_background" transform="translate(0, 0)"><rect class="v-background-body viz-plot-background v-morphable-background" x="0" y="0" width="200" height="129.06666666666666" style="fill:#f4f4f4"></rect></g><g id="cell_0_0" transform="translate(0, 0)"><rect class="v-background-body viz-plot-background v-morphable-background" x="0" y="0" width="200" height="129.06666666666666" style="fill:transparent"></rect><clipPath id="plot_main_clipPath_0349fdd3-639b-4be0-ae32-b7af27500b68"><rect y="-1" width="201" height="130.06666666666666"></rect></clipPath><rect class="v-plot-bound v-bound v-zoom-plot" width="200" height="129.06666666666666" fill="transparent"></rect><g clip-path="url(#plot_main_clipPath_0349fdd3-639b-4be0-ae32-b7af27500b68)"><g class="v-plot-main"><g class="v-datapoint-group" transform="translate(100, 64.53333333333333)"><g data-id="0" data-datapoint-id="1" class="v-datapoint v-morphable-datapoint v-datapoint-default"><path fill="#73d2e0" d="M0,54.197530864197525A54.197530864197525,54.197530864197525 0 1,1 0,-54.197530864197525A54.197530864197525,54.197530864197525 0 1,1 0,54.197530864197525M0,27.098765432098762A27.098765432098762,27.098765432098762 0 1,0 0,-27.098765432098762A27.098765432098762,27.098765432098762 0 1,0 0,27.098765432098762Z"></path></g></g><g class="v-datalabel-group"><g data-datapoint-id="1" class="v-datalabel v-morphable-label" fill="#333333" font-family="'Open Sans', Arial, Helvetica, sans-serif" font-size="12px" font-weight="normal" font-style="normal" cssString="fill:#333333;font-family:'Open Sans', Arial, Helvetica, sans-serif;font-size:12px;font-weight:normal;font-style:normal;" transform="translate(63.500000000000014,109.18148097285518)"><text>Car   (100.0%)</text></g></g></g></g></g><g id="cell_0_1_background" transform="translate(200, 0)"><rect class="v-background-body viz-plot-background v-morphable-background" x="0" y="0" width="200" height="129.06666666666666" style="fill:#ffffff"></rect></g><g id="cell_0_1" transform="translate(200, 0)"><rect class="v-background-body viz-plot-background v-morphable-background" x="0" y="0" width="200" height="129.06666666666666" style="fill:transparent"></rect><clipPath id="plot_main_clipPath_6514df6e-d74b-428a-86f1-c6f8347962e6"><rect y="-1" width="201" height="130.06666666666666"></rect></clipPath><rect class="v-plot-bound v-bound v-zoom-plot" width="200" height="129.06666666666666" fill="transparent"></rect><g clip-path="url(#plot_main_clipPath_6514df6e-d74b-428a-86f1-c6f8347962e6)"><g class="v-plot-main"><g class="v-datapoint-group" transform="translate(100, 64.53333333333333)"><g data-id="0" data-datapoint-id="2" class="v-datapoint v-morphable-datapoint v-datapoint-default"><path fill="#bbd03b" d="M0,54.197530864197525A54.197530864197525,54.197530864197525 0 1,1 0,-54.197530864197525A54.197530864197525,54.197530864197525 0 1,1 0,54.197530864197525M0,27.098765432098762A27.098765432098762,27.098765432098762 0 1,0 0,-27.098765432098762A27.098765432098762,27.098765432098762 0 1,0 0,27.098765432098762Z"></path></g></g><g class="v-datalabel-group"><g data-datapoint-id="2" class="v-datalabel v-morphable-label" fill="#333333" font-family="'Open Sans', Arial, Helvetica, sans-serif" font-size="12px" font-weight="normal" font-style="normal" cssString="fill:#333333;font-family:'Open Sans', Arial, Helvetica, sans-serif;font-size:12px;font-weight:normal;font-style:normal;" transform="translate(58.5,109.18148097285518)"><text>Truck   (100.0%)</text></g></g></g></g></g><g id="cell_1_0_background" transform="translate(0, 129.06666666666666)"><rect class="v-background-body viz-plot-background v-morphable-background" x="0" y="0" width="200" height="129.06666666666666" style="fill:#f4f4f4"></rect></g><g id="cell_1_0" transform="translate(0, 129.06666666666666)"><rect class="v-background-body viz-plot-background v-morphable-background" x="0" y="0" width="200" height="129.06666666666666" style="fill:transparent"></rect><clipPath id="plot_main_clipPath_b28f3257-452b-44d6-98b8-f675132219bf"><rect y="-1" width="201" height="130.06666666666666"></rect></clipPath><rect class="v-plot-bound v-bound v-zoom-plot" width="200" height="129.06666666666666" fill="transparent"></rect><g clip-path="url(#plot_main_clipPath_b28f3257-452b-44d6-98b8-f675132219bf)"><g class="v-plot-main"><g class="v-datapoint-group" transform="translate(100, 64.53333333333333)"><g data-id="0" data-datapoint-id="5" class="v-datapoint v-morphable-datapoint v-datapoint-default"><path fill="#bbd03b" d="M0,54.197530864197525A54.197530864197525,54.197530864197525 0 1,1 0,-54.197530864197525A54.197530864197525,54.197530864197525 0 1,1 0,54.197530864197525M0,27.098765432098762A27.098765432098762,27.098765432098762 0 1,0 0,-27.098765432098762A27.098765432098762,27.098765432098762 0 1,0 0,27.098765432098762Z"></path></g></g><g class="v-datalabel-group"><g data-datapoint-id="5" class="v-datalabel v-morphable-label" fill="#333333" font-family="'Open Sans', Arial, Helvetica, sans-serif" font-size="12px" font-weight="normal" font-style="normal" cssString="fill:#333333;font-family:'Open Sans', Arial, Helvetica, sans-serif;font-size:12px;font-weight:normal;font-style:normal;" transform="translate(58.5,109.18148097285518)"><text>Truck   (100.0%)</text></g></g></g></g></g><g id="cell_1_1_background" transform="translate(200, 129.06666666666666)"><rect class="v-background-body viz-plot-background v-morphable-background" x="0" y="0" width="200" height="129.06666666666666" style="fill:#ffffff"></rect></g><g id="cell_1_1" transform="translate(200, 129.06666666666666)"><rect class="v-background-body viz-plot-background v-morphable-background" x="0" y="0" width="200" height="129.06666666666666" style="fill:transparent"></rect><clipPath id="plot_main_clipPath_05ac0d82-4552-4be7-8982-4739182353b3"><rect y="-1" width="201" height="130.06666666666666"></rect></clipPath><rect class="v-plot-bound v-bound v-zoom-plot" width="200" height="129.06666666666666" fill="transparent"></rect><g clip-path="url(#plot_main_clipPath_05ac0d82-4552-4be7-8982-4739182353b3)"><g class="v-plot-main"><g class="v-datapoint-group" transform="translate(100, 64.53333333333333)"><g data-id="0" data-datapoint-id="6" class="v-datapoint v-morphable-datapoint v-datapoint-default"><path fill="#bbd03b" d="M0,54.197530864197525A54.197530864197525,54.197530864197525 0 1,1 0,-54.197530864197525A54.197530864197525,54.197530864197525 0 1,1 0,54.197530864197525M0,27.098765432098762A27.098765432098762,27.098765432098762 0 1,0 0,-27.098765432098762A27.098765432098762,27.098765432098762 0 1,0 0,27.098765432098762Z"></path></g></g><g class="v-datalabel-group"><g data-datapoint-id="6" class="v-datalabel v-morphable-label" fill="#333333" font-family="'Open Sans', Arial, Helvetica, sans-serif" font-size="12px" font-weight="normal" font-style="normal" cssString="fill:#333333;font-family:'Open Sans', Arial, Helvetica, sans-serif;font-size:12px;font-weight:normal;font-style:normal;" transform="translate(58.5,109.18148097285518)"><text>Truck   (100.0%)</text></g></g></g></g></g><g id="cell_2_0_background" transform="translate(0, 258.1333333333333)"><rect class="v-background-body viz-plot-background v-morphable-background" x="0" y="0" width="200" height="129.06666666666666" style="fill:#f4f4f4"></rect></g><g id="cell_2_0" transform="translate(0, 258.1333333333333)"><rect class="v-background-body viz-plot-background v-morphable-background" x="0" y="0" width="200" height="129.06666666666666" style="fill:transparent"></rect><clipPath id="plot_main_clipPath_b83978a6-8df3-410c-b4b4-c5d710c9e341"><rect y="-1" width="201" height="130.06666666666666"></rect></clipPath><rect class="v-plot-bound v-bound v-zoom-plot" width="200" height="129.06666666666666" fill="transparent"></rect><g clip-path="url(#plot_main_clipPath_b83978a6-8df3-410c-b4b4-c5d710c9e341)"><g class="v-plot-main"><g class="v-datapoint-group" transform="translate(100, 64.53333333333333)"><g data-id="0" data-datapoint-id="9" class="v-datapoint v-morphable-datapoint v-datapoint-default"><path fill="#73d2e0" d="M0,54.197530864197525A54.197530864197525,54.197530864197525 0 1,1 0,-54.197530864197525A54.197530864197525,54.197530864197525 0 1,1 0,54.197530864197525M0,27.098765432098762A27.098765432098762,27.098765432098762 0 1,0 0,-27.098765432098762A27.098765432098762,27.098765432098762 0 1,0 0,27.098765432098762Z"></path></g></g><g class="v-datalabel-group"><g data-datapoint-id="9" class="v-datalabel v-morphable-label" fill="#333333" font-family="'Open Sans', Arial, Helvetica, sans-serif" font-size="12px" font-weight="normal" font-style="normal" cssString="fill:#333333;font-family:'Open Sans', Arial, Helvetica, sans-serif;font-size:12px;font-weight:normal;font-style:normal;" transform="translate(63.5,109.18148097285518)"><text>Car   (100.0%)</text></g></g></g></g></g><g id="cell_2_1_background" transform="translate(200, 258.1333333333333)"><rect class="v-background-body viz-plot-background v-morphable-background" x="0" y="0" width="200" height="129.06666666666666" style="fill:#ffffff"></rect></g><g id="cell_2_1" transform="translate(200, 258.1333333333333)"><rect class="v-background-body viz-plot-background v-morphable-background" x="0" y="0" width="200" height="129.06666666666666" style="fill:transparent"></rect><clipPath id="plot_main_clipPath_43fa1045-7447-43c5-8fb4-914f3fef9aeb"><rect y="-1" width="201" height="130.06666666666666"></rect></clipPath><rect class="v-plot-bound v-bound v-zoom-plot" width="200" height="129.06666666666666" fill="transparent"></rect><g clip-path="url(#plot_main_clipPath_43fa1045-7447-43c5-8fb4-914f3fef9aeb)"><g class="v-plot-main"><g class="v-datapoint-group" transform="translate(100, 64.53333333333333)"><g data-id="0" data-datapoint-id="10" class="v-datapoint v-morphable-datapoint v-datapoint-default"><path fill="#73d2e0" d="M0,54.197530864197525A54.197530864197525,54.197530864197525 0 1,1 0,-54.197530864197525A54.197530864197525,54.197530864197525 0 1,1 0,54.197530864197525M0,27.098765432098762A27.098765432098762,27.098765432098762 0 1,0 0,-27.098765432098762A27.098765432098762,27.098765432098762 0 1,0 0,27.098765432098762Z"></path></g></g><g class="v-datalabel-group"><g data-datapoint-id="10" class="v-datalabel v-morphable-label" fill="#333333" font-family="'Open Sans', Arial, Helvetica, sans-serif" font-size="12px" font-weight="normal" font-style="normal" cssString="fill:#333333;font-family:'Open Sans', Arial, Helvetica, sans-serif;font-size:12px;font-weight:normal;font-style:normal;" transform="translate(63.5,109.18148097285518)"><text>Car   (100.0%)</text></g></g></g></g></g></g></g><g class="gridcontainer_gridline" stroke="#d8d8d8" stroke-width="1"><g clip-path="url(#clip-path-5891d187-92dd-4cc8-be54-e2fe4f1387ae)"><clipPath class="v-clippath" id="clip-path-5891d187-92dd-4cc8-be54-e2fe4f1387ae"><rect x="43" y="-1" width="400.6" height="417.59999999999997"></rect></clipPath><g><line x1="244" y1="0" x2="244" y2="402.20000000000005"></line><line x1="444" y1="0" x2="444" y2="402.20000000000005"></line><line x1="644" y1="0" x2="644" y2="402.20000000000005"></line></g><line x1="44" y1="0" x2="44" y2="427.6"></line><line x1="442.6" y1="0" x2="442.6" y2="427.6"></line></g><g clip-path="url(#clip-path-9509c36a-cba0-41bf-907c-9da49451b827)"><clipPath class="v-clippath" id="clip-path-9509c36a-cba0-41bf-907c-9da49451b827"><rect x="-1" y="-1" width="444.6" height="389.2"></rect></clipPath><g><line x1="39" y1="129.06666666666666" x2="454.6" y2="129.06666666666666"></line><line x1="39" y1="258.1333333333333" x2="454.6" y2="258.1333333333333"></line></g><line x1="0" y1="0" x2="454.6" y2="0"></line><line x1="0" y1="387.2" x2="454.6" y2="387.2"></line></g></g><g transform="translate(0,0)" class="v-m-axis-position-bound v-gridcontainer-left" clip-path="url(#clip-path-4b0eb9c4-85f2-4995-8080-52871fa42641)"><clipPath class="v-clippath" id="clip-path-4b0eb9c4-85f2-4995-8080-52871fa42641"><rect x="1" y="0" width="45" height="387.2"></rect></clipPath><g><g transform="translate(5, 0 )"><g transform="translate(0 , 0)" class="v-m-trellis-axis v-axis" clip-path="url(#clip-path-11fad5d4-6bee-4946-bfe1-2fca854a2b99)"><clipPath class="v-clippath" id="clip-path-11fad5d4-6bee-4946-bfe1-2fca854a2b99"><rect x="-1" y="-1" width="41" height="389.2"></rect></clipPath><g class="v-label-group"><g class="v-label v-morphable-label viz-axis-label v-axis-item index_0" fill="#333333" font-size="12px" font-weight="normal" font-family="'Open Sans', Arial, Helvetica, sans-serif" font-style="normal" categorylabel-id="0" transform="translate(0,0)"><rect class="viz-axis-label-rect" fill="transparent" x="1" y="1" width="37" height="127.06666666999999"></rect><g class="v-axis-label-wrapper"><text x="33" y="13.4" text-anchor="end">2009</text></g></g><g class="v-label v-morphable-label viz-axis-label v-axis-item index_0" fill="#333333" font-size="12px" font-weight="normal" font-family="'Open Sans', Arial, Helvetica, sans-serif" font-style="normal" categorylabel-id="1" transform="translate(0,129.06666667)"><rect class="viz-axis-label-rect" fill="transparent" x="1" y="1" width="37" height="127.06666666000004"></rect><g class="v-axis-label-wrapper"><text x="33" y="13.399999999999999" text-anchor="end">2010</text></g></g><g class="v-label v-morphable-label viz-axis-label v-axis-item index_0" fill="#333333" font-size="12px" font-weight="normal" font-family="'Open Sans', Arial, Helvetica, sans-serif" font-style="normal" categorylabel-id="2" transform="translate(0,258.13333333)"><rect class="viz-axis-label-rect" fill="transparent" x="1" y="1" width="37" height="127.06666666999996"></rect><g class="v-axis-label-wrapper"><text x="33" y="13.399999999999999" text-anchor="end">2011</text></g></g></g><g class="v-tick-group"><line class="v-valueaxisline v-tick" stroke="#d8d8d8" stroke-width="1" shape-rendering="crispEdges" x1="39" y1="0" x2="0" y2="0"></line><line class="v-valueaxisline v-tick" stroke="#d8d8d8" stroke-width="1" shape-rendering="crispEdges" x1="39" y1="129.06666667" x2="0" y2="129.06666667"></line><line class="v-valueaxisline v-tick" stroke="#d8d8d8" stroke-width="1" shape-rendering="crispEdges" x1="39" y1="258.13333333" x2="0" y2="258.13333333"></line><line class="v-valueaxisline v-tick" stroke="#d8d8d8" stroke-width="1" shape-rendering="crispEdges" x1="39" y1="387.2" x2="0" y2="387.2"></line></g></g></g></g></g><g transform="translate(44,0)" class="v-m-axis-position-bound v-gridcontainer-top" clip-path="url(#clip-path-7dff8029-3b2b-4d24-bad2-04e496093593)"><clipPath class="v-clippath" id="clip-path-7dff8029-3b2b-4d24-bad2-04e496093593"><rect x="0" y="1" width="398.6" height="1"></rect></clipPath><g></g></g><g transform="translate(442.6,0)" class="v-m-axis-position-bound v-gridcontainer-right" clip-path="url(#clip-path-9681ed3c-c84b-44ad-9c03-4883fb86e11a)"><clipPath class="v-clippath" id="clip-path-9681ed3c-c84b-44ad-9c03-4883fb86e11a"><rect x="-1" y="0" width="1" height="387.2"></rect></clipPath><g></g></g><g transform="translate(44,387.2)" class="v-m-axis-position-bound v-gridcontainer-bottom" clip-path="url(#clip-path-a3a94767-64e2-4ae0-a990-3d57a55bd474)"><clipPath class="v-clippath" id="clip-path-a3a94767-64e2-4ae0-a990-3d57a55bd474"><rect x="0" y="-1" width="398.6" height="29.4"></rect></clipPath><g><g transform="translate(0 , 0)"><g transform="translate(0, 0 )" class="v-m-trellis-axis v-axis" clip-path="url(#clip-path-c645f2e4-602a-4290-b21d-c64e8fb98e29)"><clipPath class="v-clippath" id="clip-path-c645f2e4-602a-4290-b21d-c64e8fb98e29"><rect x="-1" y="-1" width="802" height="27.4"></rect></clipPath><g class="v-label-group"><g class="v-label v-morphable-label viz-axis-label v-axis-item index_0" fill="#333333" font-size="12px" font-weight="normal" font-family="'Open Sans', Arial, Helvetica, sans-serif" font-style="normal" categorylabel-id="0" transform="translate(0,0)"><rect class="viz-axis-label-rect" fill="transparent" x="1" y="1" width="198" height="23.4"></rect><g class="v-axis-label-wrapper"><text x="100" y="17.4" text-anchor="middle">China</text></g></g><g class="v-label v-morphable-label viz-axis-label v-axis-item index_0" fill="#333333" font-size="12px" font-weight="normal" font-family="'Open Sans', Arial, Helvetica, sans-serif" font-style="normal" categorylabel-id="1" transform="translate(200,0)"><rect class="viz-axis-label-rect" fill="transparent" x="1" y="1" width="198" height="23.4"></rect><g class="v-axis-label-wrapper"><text x="100" y="17.4" text-anchor="middle">Japan</text></g></g></g><g class="v-tick-group"><line class="v-valueaxisline v-tick" stroke="#d8d8d8" stroke-width="1" shape-rendering="crispEdges" x1="0" y1="0" x2="0" y2="25.4"></line><line class="v-valueaxisline v-tick" stroke="#d8d8d8" stroke-width="1" shape-rendering="crispEdges" x1="200" y1="0" x2="200" y2="25.4"></line><line class="v-valueaxisline v-tick" stroke="#d8d8d8" stroke-width="1" shape-rendering="crispEdges" x1="400" y1="0" x2="400" y2="25.4"></line><line class="v-valueaxisline v-tick" stroke="#d8d8d8" stroke-width="1" shape-rendering="crispEdges" x1="600" y1="0" x2="600" y2="25.4"></line><line class="v-valueaxisline v-tick" stroke="#d8d8d8" stroke-width="1" shape-rendering="crispEdges" x1="800" y1="0" x2="800" y2="25.4"></line></g></g></g></g></g><g transform="translate(442.6,0)"><g><rect class="v-m-scrollbarTrack" visibility="hidden" fill="#f7f7f7" stroke-width="0" stroke="white" width="12" height="387.2"></rect><rect class="v-m-scrollbarThumb" visibility="hidden" fill="#e5e5e5" width="12" height="387.2" transform="translate(0, 0)"></rect></g></g><g transform="translate(44,415.6)"><g><rect class="v-m-scrollbarTrack" visibility="visible" fill="#f7f7f7" stroke-width="0" stroke="white" width="398.6" height="12"></rect><rect class="v-m-scrollbarThumb" visibility="visible" fill="#e5e5e5" width="198.60245000000003" height="12" transform="translate(0, 0)"></rect></g></g></g><g transform="translate(0,0)"><g class="v-title viz-axis-title v-trellistitle-left"><text text-anchor="middle" dominant-baseline="auto" x="11.399999999999999" y="193.6" transform="rotate(-90,11.399999999999999,193.6)"><tspan fill="#000000" font-size="12" font-weight="bold" font-family="'Open Sans', Arial, Helvetica, sans-serif" font-style="normal" dominant-baseline="auto">Year</tspan></text></g></g><g transform="translate(66.4,427.6)"><g class="v-title viz-axis-title v-trellistitle-bottom"><text text-anchor="middle" dominant-baseline="auto" x="199.3" y="19.4"><tspan fill="#000000" font-size="12" font-weight="bold" font-family="'Open Sans', Arial, Helvetica, sans-serif" font-style="normal" dominant-baseline="auto">Country</tspan></text></g></g></g></svg>