<svg class="v-m-root" viewBox="0 0 600 500" width="600" height="500" xmlns="http://www.w3.org/2000/svg" style="left: 0px; top: 0px; direction: ltr; position: absolute; box-sizing: border-box;" xmlns:xlink="http://www.w3.org/1999/xlink"><rect class="v-eventLayer" x="0" y="0" fill-opacity="0" width="600" height="500"></rect><g class="v-backgroundutil"><rect class="v-background-body viz-plot-background v-morphable-background" id="background-rect-231214d9-9787-4db5-a7e2-866fa666af29" x="0" y="0" width="600" height="500" style="fill:transparent"></rect></g><defs></defs><g class="v-m-main" transform="translate(24, 49)"><g class="v-backgroundutil"><rect class="v-background-body viz-plot-background v-morphable-background" id="background-rect-601d0592-c8af-4ac1-9afa-4d9920ba0634" x="0" y="0" width="406" height="427" style="fill:transparent"></rect></g><defs></defs><g class="v-m-plot" transform="translate(24, 24)"><svg width="358" height="379"><g class="vis" width="358" height="379" transform="translate(40,20)"><rect width="358" height="379" fill-opacity="0"></rect><g class="x axis" transform="translate(0,299)"><g transform="translate(9.5,0)" style="opacity: 1;"><line class="tick" y2="6" x2="0" style="fill: none; stroke: rgb(0, 0, 0); shape-rendering: crispedges;"></line><text y="9" x="0" dy=".71em" text-anchor="middle" style="font-size: 12px;">Austin/2009</text></g><g transform="translate(23.5,0)" style="opacity: 1;"><line class="tick" y2="6" x2="0" style="fill: none; stroke: rgb(0, 0, 0); shape-rendering: crispedges;"></line><text y="9" x="0" dy=".71em" text-anchor="middle" style="font-size: 12px;">Austin/2011</text></g><g transform="translate(37.5,0)" style="opacity: 1;"><line class="tick" y2="6" x2="0" style="fill: none; stroke: rgb(0, 0, 0); shape-rendering: crispedges;"></line><text y="9" x="0" dy=".71em" text-anchor="middle" style="font-size: 12px;">Austin/2010</text></g><g transform="translate(51.5,0)" style="opacity: 1;"><line class="tick" y2="6" x2="0" style="fill: none; stroke: rgb(0, 0, 0); shape-rendering: crispedges;"></line><text y="9" x="0" dy=".71em" text-anchor="middle" style="font-size: 12px;">Boston/2009</text></g><g transform="translate(65.5,0)" style="opacity: 1;"><line class="tick" y2="6" x2="0" style="fill: none; stroke: rgb(0, 0, 0); shape-rendering: crispedges;"></line><text y="9" x="0" dy=".71em" text-anchor="middle" style="font-size: 12px;">Boston/2011</text></g><g transform="translate(79.5,0)" style="opacity: 1;"><line class="tick" y2="6" x2="0" style="fill: none; stroke: rgb(0, 0, 0); shape-rendering: crispedges;"></line><text y="9" x="0" dy=".71em" text-anchor="middle" style="font-size: 12px;">Boston/2010</text></g><g transform="translate(93.5,0)" style="opacity: 1;"><line class="tick" y2="6" x2="0" style="fill: none; stroke: rgb(0, 0, 0); shape-rendering: crispedges;"></line><text y="9" x="0" dy=".71em" text-anchor="middle" style="font-size: 12px;">ColoradoSprings/2009</text></g><g transform="translate(107.5,0)" style="opacity: 1;"><line class="tick" y2="6" x2="0" style="fill: none; stroke: rgb(0, 0, 0); shape-rendering: crispedges;"></line><text y="9" x="0" dy=".71em" text-anchor="middle" style="font-size: 12px;">ColoradoSprings/2011</text></g><g transform="translate(121.5,0)" style="opacity: 1;"><line class="tick" y2="6" x2="0" style="fill: none; stroke: rgb(0, 0, 0); shape-rendering: crispedges;"></line><text y="9" x="0" dy=".71em" text-anchor="middle" style="font-size: 12px;">ColoradoSprings/2010</text></g><g transform="translate(135.5,0)" style="opacity: 1;"><line class="tick" y2="6" x2="0" style="fill: none; stroke: rgb(0, 0, 0); shape-rendering: crispedges;"></line><text y="9" x="0" dy=".71em" text-anchor="middle" style="font-size: 12px;">Chicago/2010</text></g><g transform="translate(149.5,0)" style="opacity: 1;"><line class="tick" y2="6" x2="0" style="fill: none; stroke: rgb(0, 0, 0); shape-rendering: crispedges;"></line><text y="9" x="0" dy=".71em" text-anchor="middle" style="font-size: 12px;">Chicago/2009</text></g><g transform="translate(163.5,0)" style="opacity: 1;"><line class="tick" y2="6" x2="0" style="fill: none; stroke: rgb(0, 0, 0); shape-rendering: crispedges;"></line><text y="9" x="0" dy=".71em" text-anchor="middle" style="font-size: 12px;">Chicago/2011</text></g><g transform="translate(177.5,0)" style="opacity: 1;"><line class="tick" y2="6" x2="0" style="fill: none; stroke: rgb(0, 0, 0); shape-rendering: crispedges;"></line><text y="9" x="0" dy=".71em" text-anchor="middle" style="font-size: 12px;">Dallas/2009</text></g><g transform="translate(191.5,0)" style="opacity: 1;"><line class="tick" y2="6" x2="0" style="fill: none; stroke: rgb(0, 0, 0); shape-rendering: crispedges;"></line><text y="9" x="0" dy=".71em" text-anchor="middle" style="font-size: 12px;">Dallas/2011</text></g><g transform="translate(205.5,0)" style="opacity: 1;"><line class="tick" y2="6" x2="0" style="fill: none; stroke: rgb(0, 0, 0); shape-rendering: crispedges;"></line><text y="9" x="0" dy=".71em" text-anchor="middle" style="font-size: 12px;">Dallas/2010</text></g><g transform="translate(219.5,0)" style="opacity: 1;"><line class="tick" y2="6" x2="0" style="fill: none; stroke: rgb(0, 0, 0); shape-rendering: crispedges;"></line><text y="9" x="0" dy=".71em" text-anchor="middle" style="font-size: 12px;">Houston/2009</text></g><g transform="translate(233.5,0)" style="opacity: 1;"><line class="tick" y2="6" x2="0" style="fill: none; stroke: rgb(0, 0, 0); shape-rendering: crispedges;"></line><text y="9" x="0" dy=".71em" text-anchor="middle" style="font-size: 12px;">Houston/2011</text></g><g transform="translate(247.5,0)" style="opacity: 1;"><line class="tick" y2="6" x2="0" style="fill: none; stroke: rgb(0, 0, 0); shape-rendering: crispedges;"></line><text y="9" x="0" dy=".71em" text-anchor="middle" style="font-size: 12px;">Houston/2010</text></g><g transform="translate(261.5,0)" style="opacity: 1;"><line class="tick" y2="6" x2="0" style="fill: none; stroke: rgb(0, 0, 0); shape-rendering: crispedges;"></line><text y="9" x="0" dy=".71em" text-anchor="middle" style="font-size: 12px;">LosAngeles/2009</text></g><g transform="translate(275.5,0)" style="opacity: 1;"><line class="tick" y2="6" x2="0" style="fill: none; stroke: rgb(0, 0, 0); shape-rendering: crispedges;"></line><text y="9" x="0" dy=".71em" text-anchor="middle" style="font-size: 12px;">LosAngeles/2011</text></g><g transform="translate(289.5,0)" style="opacity: 1;"><line class="tick" y2="6" x2="0" style="fill: none; stroke: rgb(0, 0, 0); shape-rendering: crispedges;"></line><text y="9" x="0" dy=".71em" text-anchor="middle" style="font-size: 12px;">LosAngeles/2010</text></g><path class="domain" d="M0,6V0H298V6" style="fill: none; stroke: rgb(0, 0, 0); shape-rendering: crispedges;"></path><text x="298" dy="2.5em" style="text-anchor: end; font-size: 16px; font-weight: bold;">City/Year</text></g><g class="y axis"><g transform="translate(0,299)" style="opacity: 1;"><line class="tick" x2="-6" y2="0" style="fill: none; stroke: rgb(0, 0, 0); shape-rendering: crispedges;"></line><text x="-9" y="0" dy=".32em" text-anchor="end" style="font-size: 12px;">0</text></g><g transform="translate(0,268.33207516205795)" style="opacity: 1;"><line class="tick" x2="-6" y2="0" style="fill: none; stroke: rgb(0, 0, 0); shape-rendering: crispedges;"></line><text x="-9" y="0" dy=".32em" text-anchor="end" style="font-size: 12px;">1,000</text></g><g transform="translate(0,237.66415032411587)" style="opacity: 1;"><line class="tick" x2="-6" y2="0" style="fill: none; stroke: rgb(0, 0, 0); shape-rendering: crispedges;"></line><text x="-9" y="0" dy=".32em" text-anchor="end" style="font-size: 12px;">2,000</text></g><g transform="translate(0,206.99622548617378)" style="opacity: 1;"><line class="tick" x2="-6" y2="0" style="fill: none; stroke: rgb(0, 0, 0); shape-rendering: crispedges;"></line><text x="-9" y="0" dy=".32em" text-anchor="end" style="font-size: 12px;">3,000</text></g><g transform="translate(0,176.32830064823173)" style="opacity: 1;"><line class="tick" x2="-6" y2="0" style="fill: none; stroke: rgb(0, 0, 0); shape-rendering: crispedges;"></line><text x="-9" y="0" dy=".32em" text-anchor="end" style="font-size: 12px;">4,000</text></g><g transform="translate(0,145.66037581028965)" style="opacity: 1;"><line class="tick" x2="-6" y2="0" style="fill: none; stroke: rgb(0, 0, 0); shape-rendering: crispedges;"></line><text x="-9" y="0" dy=".32em" text-anchor="end" style="font-size: 12px;">5,000</text></g><g transform="translate(0,114.99245097234757)" style="opacity: 1;"><line class="tick" x2="-6" y2="0" style="fill: none; stroke: rgb(0, 0, 0); shape-rendering: crispedges;"></line><text x="-9" y="0" dy=".32em" text-anchor="end" style="font-size: 12px;">6,000</text></g><g transform="translate(0,84.32452613440549)" style="opacity: 1;"><line class="tick" x2="-6" y2="0" style="fill: none; stroke: rgb(0, 0, 0); shape-rendering: crispedges;"></line><text x="-9" y="0" dy=".32em" text-anchor="end" style="font-size: 12px;">7,000</text></g><g transform="translate(0,53.656601296463435)" style="opacity: 1;"><line class="tick" x2="-6" y2="0" style="fill: none; stroke: rgb(0, 0, 0); shape-rendering: crispedges;"></line><text x="-9" y="0" dy=".32em" text-anchor="end" style="font-size: 12px;">8,000</text></g><g transform="translate(0,22.98867645852141)" style="opacity: 1;"><line class="tick" x2="-6" y2="0" style="fill: none; stroke: rgb(0, 0, 0); shape-rendering: crispedges;"></line><text x="-9" y="0" dy=".32em" text-anchor="end" style="font-size: 12px;">9,000</text></g><path class="domain" d="M-6,0H0V299H-6" style="fill: none; stroke: rgb(0, 0, 0); shape-rendering: crispedges;"></path><text transform="rotate(-90)" y="6" dy=".71em" style="text-anchor: end; font-size: 16px; font-weight: bold;">Margin</text></g><rect class="bar" x="3" width="13" y="247.57909042422253" height="51.42090957577747" fill="#1f77b4"></rect><rect class="bar" x="17" width="13" y="203.99383564453927" height="95.00616435546073" fill="#aec7e8"></rect><rect class="bar" x="31" width="13" y="291.921842947403" height="7.078157052597021" fill="#ff7f0e"></rect><rect class="bar" x="45" width="13" y="294.2894067448921" height="4.710593255107881" fill="#ffbb78"></rect><rect class="bar" x="59" width="13" y="173.50378477065726" height="125.49621522934274" fill="#2ca02c"></rect><rect class="bar" x="73" width="13" y="281.967034545007" height="17.03296545499302" fill="#98df8a"></rect><rect class="bar" x="87" width="13" y="294.37834372692214" height="4.6216562730778605" fill="#d62728"></rect><rect class="bar" x="101" width="13" y="245.60100927217528" height="53.398990727824724" fill="#ff9896"></rect><rect class="bar" x="115" width="13" y="258.26686223024535" height="40.73313776975465" fill="#9467bd"></rect><rect class="bar" x="129" width="13" y="234.0913370804956" height="64.9086629195044" fill="#c5b0d5"></rect><rect class="bar" x="143" width="13" y="263.2473332239271" height="35.752666776072886" fill="#8c564b"></rect><rect class="bar" x="157" width="13" y="86.03272954787886" height="212.96727045212114" fill="#c49c94"></rect><rect class="bar" x="171" width="13" y="273.7480306884385" height="25.25196931156148" fill="#e377c2"></rect><rect class="bar" x="185" width="13" y="180.98062484614752" height="118.01937515385248" fill="#f7b6d2"></rect><rect class="bar" x="199" width="13" y="228.34723475834903" height="70.65276524165097" fill="#7f7f7f"></rect><rect class="bar" x="213" width="13" y="122.38342085829163" height="176.61657914170837" fill="#c7c7c7"></rect><rect class="bar" x="227" width="13" y="0" height="299" fill="#bcbd22"></rect><rect class="bar" x="241" width="13" y="298.40810905062773" height="0.5918909493722708" fill="#dbdb8d"></rect><rect class="bar" x="255" width="13" y="213.43035611717403" height="85.56964388282597" fill="#17becf"></rect><rect class="bar" x="269" width="13" y="97.45959834249612" height="201.54040165750388" fill="#9edae5"></rect><rect class="bar" x="283" width="13" y="293.61471239845736" height="5.385287601542643" fill="#393b79"></rect></g></svg></g></g><g class="v-m-Title" transform="translate(24, 24)"><rect class="v-bound" width="552" height="17" fill="transparent"></rect><text class="v-title viz-title-label" text-rendering="geometricPrecision" font-family="'Open Sans', Arial, Helvetica, sans-serif" font-size="16px" font-weight="bold" fill="#333333" font-style="normal" text-anchor="middle" x="276" y="8.5" dominant-baseline="central">Chart Title</text></g><g class="v-m-ColorLegend" transform="translate(438, 49)"><rect class="v-bound" width="138" height="427" fill="transparent"></rect><g class="v-content" transform="translate(0,0)"><text class="v-title viz-legend-title" dx="0" dy="14" visibility="visible" font-weight="bold" fill="#000000" font-family="'Open Sans', Arial, Helvetica, sans-serif" font-size="14px" font-style="normal">City / Year</text><g class="v-groups v-label viz-legend-valueLabel" transform="translate(0,22)" font-family="'Open Sans', Arial, Helvetica, sans-serif" font-size="12px" font-weight="normal" fill="#000000" font-style="normal"><g class="v-legend-content"><rect class="v-indicatedRect v-legend-item v-hovershadow" visibility="hidden" width="148" x="-5" y="-3" height="18"></rect><g class="v-row ID_0" transform="translate(0,0)"><path class="" fill="#1f77b4" stroke-width="0" stroke="transparent" opacity="1" stroke-opacity="undefined" d="M0,-6L-3,-6Q-6,-6 -6,-3L-6,3Q-6,6 -3,6L3,6Q6,6 6,3L6,-3Q6,-6 3,-6Z" transform="translate(6,6)"></path><text x="18" y="12">Austin / 2009</text><rect class="v-eventRect v-legend-item ID_20" height="18" fill="rgba(255, 255, 255, 0)" transform="translate(0,-3)" width="128"></rect></g><g class="v-row ID_1" transform="translate(0,18)"><path class="" fill="#aec7e8" stroke-width="0" stroke="transparent" opacity="1" stroke-opacity="undefined" d="M0,-6L-3,-6Q-6,-6 -6,-3L-6,3Q-6,6 -3,6L3,6Q6,6 6,3L6,-3Q6,-6 3,-6Z" transform="translate(6,6)"></path><text x="18" y="12">Austin / 2011</text><rect class="v-eventRect v-legend-item ID_20" height="18" fill="rgba(255, 255, 255, 0)" transform="translate(0,-3)" width="128"></rect></g><g class="v-row ID_2" transform="translate(0,36)"><path class="" fill="#ff7f0e" stroke-width="0" stroke="transparent" opacity="1" stroke-opacity="undefined" d="M0,-6L-3,-6Q-6,-6 -6,-3L-6,3Q-6,6 -3,6L3,6Q6,6 6,3L6,-3Q6,-6 3,-6Z" transform="translate(6,6)"></path><text x="18" y="12">Austin / 2010</text><rect class="v-eventRect v-legend-item ID_20" height="18" fill="rgba(255, 255, 255, 0)" transform="translate(0,-3)" width="128"></rect></g><g class="v-row ID_3" transform="translate(0,54)"><path class="" fill="#ffbb78" stroke-width="0" stroke="transparent" opacity="1" stroke-opacity="undefined" d="M0,-6L-3,-6Q-6,-6 -6,-3L-6,3Q-6,6 -3,6L3,6Q6,6 6,3L6,-3Q6,-6 3,-6Z" transform="translate(6,6)"></path><text x="18" y="12">Boston / 2009</text><rect class="v-eventRect v-legend-item ID_20" height="18" fill="rgba(255, 255, 255, 0)" transform="translate(0,-3)" width="128"></rect></g><g class="v-row ID_4" transform="translate(0,72)"><path class="" fill="#2ca02c" stroke-width="0" stroke="transparent" opacity="1" stroke-opacity="undefined" d="M0,-6L-3,-6Q-6,-6 -6,-3L-6,3Q-6,6 -3,6L3,6Q6,6 6,3L6,-3Q6,-6 3,-6Z" transform="translate(6,6)"></path><text x="18" y="12">Boston / 2011</text><rect class="v-eventRect v-legend-item ID_20" height="18" fill="rgba(255, 255, 255, 0)" transform="translate(0,-3)" width="128"></rect></g><g class="v-row ID_5" transform="translate(0,90)"><path class="" fill="#98df8a" stroke-width="0" stroke="transparent" opacity="1" stroke-opacity="undefined" d="M0,-6L-3,-6Q-6,-6 -6,-3L-6,3Q-6,6 -3,6L3,6Q6,6 6,3L6,-3Q6,-6 3,-6Z" transform="translate(6,6)"></path><text x="18" y="12">Boston / 2010</text><rect class="v-eventRect v-legend-item ID_20" height="18" fill="rgba(255, 255, 255, 0)" transform="translate(0,-3)" width="128"></rect></g><g class="v-row ID_6" transform="translate(0,108)"><path class="" fill="#d62728" stroke-width="0" stroke="transparent" opacity="1" stroke-opacity="undefined" d="M0,-6L-3,-6Q-6,-6 -6,-3L-6,3Q-6,6 -3,6L3,6Q6,6 6,3L6,-3Q6,-6 3,-6Z" transform="translate(6,6)"></path><text x="18" y="12">ColoradoSprings / ...</text><rect class="v-eventRect v-legend-item ID_20" height="18" fill="rgba(255, 255, 255, 0)" transform="translate(0,-3)" width="128"><title>ColoradoSprings / 2009</title></rect></g><g class="v-row ID_7" transform="translate(0,126)"><path class="" fill="#ff9896" stroke-width="0" stroke="transparent" opacity="1" stroke-opacity="undefined" d="M0,-6L-3,-6Q-6,-6 -6,-3L-6,3Q-6,6 -3,6L3,6Q6,6 6,3L6,-3Q6,-6 3,-6Z" transform="translate(6,6)"></path><text x="18" y="12">ColoradoSprings / ...</text><rect class="v-eventRect v-legend-item ID_20" height="18" fill="rgba(255, 255, 255, 0)" transform="translate(0,-3)" width="128"><title>ColoradoSprings / 2011</title></rect></g><g class="v-row ID_8" transform="translate(0,144)"><path class="" fill="#9467bd" stroke-width="0" stroke="transparent" opacity="1" stroke-opacity="undefined" d="M0,-6L-3,-6Q-6,-6 -6,-3L-6,3Q-6,6 -3,6L3,6Q6,6 6,3L6,-3Q6,-6 3,-6Z" transform="translate(6,6)"></path><text x="18" y="12">ColoradoSprings / ...</text><rect class="v-eventRect v-legend-item ID_20" height="18" fill="rgba(255, 255, 255, 0)" transform="translate(0,-3)" width="128"><title>ColoradoSprings / 2010</title></rect></g><g class="v-row ID_9" transform="translate(0,162)"><path class="" fill="#c5b0d5" stroke-width="0" stroke="transparent" opacity="1" stroke-opacity="undefined" d="M0,-6L-3,-6Q-6,-6 -6,-3L-6,3Q-6,6 -3,6L3,6Q6,6 6,3L6,-3Q6,-6 3,-6Z" transform="translate(6,6)"></path><text x="18" y="12">Chicago / 2010</text><rect class="v-eventRect v-legend-item ID_20" height="18" fill="rgba(255, 255, 255, 0)" transform="translate(0,-3)" width="128"></rect></g><g class="v-row ID_10" transform="translate(0,180)"><path class="" fill="#8c564b" stroke-width="0" stroke="transparent" opacity="1" stroke-opacity="undefined" d="M0,-6L-3,-6Q-6,-6 -6,-3L-6,3Q-6,6 -3,6L3,6Q6,6 6,3L6,-3Q6,-6 3,-6Z" transform="translate(6,6)"></path><text x="18" y="12">Chicago / 2009</text><rect class="v-eventRect v-legend-item ID_20" height="18" fill="rgba(255, 255, 255, 0)" transform="translate(0,-3)" width="128"></rect></g><g class="v-row ID_11" transform="translate(0,198)"><path class="" fill="#c49c94" stroke-width="0" stroke="transparent" opacity="1" stroke-opacity="undefined" d="M0,-6L-3,-6Q-6,-6 -6,-3L-6,3Q-6,6 -3,6L3,6Q6,6 6,3L6,-3Q6,-6 3,-6Z" transform="translate(6,6)"></path><text x="18" y="12">Chicago / 2011</text><rect class="v-eventRect v-legend-item ID_20" height="18" fill="rgba(255, 255, 255, 0)" transform="translate(0,-3)" width="128"></rect></g><g class="v-row ID_12" transform="translate(0,216)"><path class="" fill="#e377c2" stroke-width="0" stroke="transparent" opacity="1" stroke-opacity="undefined" d="M0,-6L-3,-6Q-6,-6 -6,-3L-6,3Q-6,6 -3,6L3,6Q6,6 6,3L6,-3Q6,-6 3,-6Z" transform="translate(6,6)"></path><text x="18" y="12">Dallas / 2009</text><rect class="v-eventRect v-legend-item ID_20" height="18" fill="rgba(255, 255, 255, 0)" transform="translate(0,-3)" width="128"></rect></g><g class="v-row ID_13" transform="translate(0,234)"><path class="" fill="#f7b6d2" stroke-width="0" stroke="transparent" opacity="1" stroke-opacity="undefined" d="M0,-6L-3,-6Q-6,-6 -6,-3L-6,3Q-6,6 -3,6L3,6Q6,6 6,3L6,-3Q6,-6 3,-6Z" transform="translate(6,6)"></path><text x="18" y="12">Dallas / 2011</text><rect class="v-eventRect v-legend-item ID_20" height="18" fill="rgba(255, 255, 255, 0)" transform="translate(0,-3)" width="128"></rect></g><g class="v-row ID_14" transform="translate(0,252)"><path class="" fill="#7f7f7f" stroke-width="0" stroke="transparent" opacity="1" stroke-opacity="undefined" d="M0,-6L-3,-6Q-6,-6 -6,-3L-6,3Q-6,6 -3,6L3,6Q6,6 6,3L6,-3Q6,-6 3,-6Z" transform="translate(6,6)"></path><text x="18" y="12">Dallas / 2010</text><rect class="v-eventRect v-legend-item ID_20" height="18" fill="rgba(255, 255, 255, 0)" transform="translate(0,-3)" width="128"></rect></g><g class="v-row ID_15" transform="translate(0,270)"><path class="" fill="#c7c7c7" stroke-width="0" stroke="transparent" opacity="1" stroke-opacity="undefined" d="M0,-6L-3,-6Q-6,-6 -6,-3L-6,3Q-6,6 -3,6L3,6Q6,6 6,3L6,-3Q6,-6 3,-6Z" transform="translate(6,6)"></path><text x="18" y="12">Houston / 2009</text><rect class="v-eventRect v-legend-item ID_20" height="18" fill="rgba(255, 255, 255, 0)" transform="translate(0,-3)" width="128"></rect></g><g class="v-row ID_16" transform="translate(0,288)"><path class="" fill="#bcbd22" stroke-width="0" stroke="transparent" opacity="1" stroke-opacity="undefined" d="M0,-6L-3,-6Q-6,-6 -6,-3L-6,3Q-6,6 -3,6L3,6Q6,6 6,3L6,-3Q6,-6 3,-6Z" transform="translate(6,6)"></path><text x="18" y="12">Houston / 2011</text><rect class="v-eventRect v-legend-item ID_20" height="18" fill="rgba(255, 255, 255, 0)" transform="translate(0,-3)" width="128"></rect></g><g class="v-row ID_17" transform="translate(0,306)"><path class="" fill="#dbdb8d" stroke-width="0" stroke="transparent" opacity="1" stroke-opacity="undefined" d="M0,-6L-3,-6Q-6,-6 -6,-3L-6,3Q-6,6 -3,6L3,6Q6,6 6,3L6,-3Q6,-6 3,-6Z" transform="translate(6,6)"></path><text x="18" y="12">Houston / 2010</text><rect class="v-eventRect v-legend-item ID_20" height="18" fill="rgba(255, 255, 255, 0)" transform="translate(0,-3)" width="128"></rect></g><g class="v-row ID_18" transform="translate(0,324)"><path class="" fill="#17becf" stroke-width="0" stroke="transparent" opacity="1" stroke-opacity="undefined" d="M0,-6L-3,-6Q-6,-6 -6,-3L-6,3Q-6,6 -3,6L3,6Q6,6 6,3L6,-3Q6,-6 3,-6Z" transform="translate(6,6)"></path><text x="18" y="12">LosAngeles / 2009</text><rect class="v-eventRect v-legend-item ID_20" height="18" fill="rgba(255, 255, 255, 0)" transform="translate(0,-3)" width="128"></rect></g><g class="v-row ID_19" transform="translate(0,342)"><path class="" fill="#9edae5" stroke-width="0" stroke="transparent" opacity="1" stroke-opacity="undefined" d="M0,-6L-3,-6Q-6,-6 -6,-3L-6,3Q-6,6 -3,6L3,6Q6,6 6,3L6,-3Q6,-6 3,-6Z" transform="translate(6,6)"></path><text x="18" y="12">LosAngeles / 2011</text><rect class="v-eventRect v-legend-item ID_20" height="18" fill="rgba(255, 255, 255, 0)" transform="translate(0,-3)" width="128"></rect></g><g class="v-row ID_20" transform="translate(0,360)"><path class="" fill="#393b79" stroke-width="0" stroke="transparent" opacity="1" stroke-opacity="undefined" d="M0,-6L-3,-6Q-6,-6 -6,-3L-6,3Q-6,6 -3,6L3,6Q6,6 6,3L6,-3Q6,-6 3,-6Z" transform="translate(6,6)"></path><text x="18" y="12">LosAngeles / 2010</text><rect class="v-eventRect v-legend-item ID_20" height="18" fill="rgba(255, 255, 255, 0)" transform="translate(0,-3)" width="128"></rect></g></g></g></g></g><g class="v-m-dataFilter"></g></svg>