<?xml version="1.0" encoding="utf-8"?>
<!-- Generator: Adobe Illustrator 15.1.0, SVG Export Plug-In . SVG Version: 6.00 Build 0)  -->
<!DOCTYPE svg PUBLIC "-//W3C//DTD SVG 1.1//EN" "http://www.w3.org/Graphics/SVG/1.1/DTD/svg11.dtd">
<svg version="1.1" id="Layer_1" xmlns="http://www.w3.org/2000/svg" xmlns:xlink="http://www.w3.org/1999/xlink" x="0px" y="0px"
	 width="1258px" height="640px" viewBox="0 0 1258 640" enable-background="new 0 0 1258 640" xml:space="preserve"><g class="v-m-action-layer-group"/><g class="v-m-background"><rect class="v-background-body viz-plot-background v-morphable-background" x="0" y="0" width="1194" height="556" style="fill:transparent"/></g><g class="v-m-title" transform="translate(84.52304688000001, 27)"><rect class="v-bound" width="953.64882812" height="23.5" fill="transparent"/><text class="v-title viz-title-label" fill="#000000" font-family="'Open Sans', Arial, Helvetica, sans-serif" font-size="20px" font-weight="normal" font-style="normal" text-anchor="middle" x="476.82441406" y="11.75" dominant-baseline="central">Area Chart</text></g><g class="v-m-legendGroup" transform="translate(1038.171875, 90.5)"><g class="v-m-legend" transform="translate(0,0)"><rect class="v-bound" width="88.828125" height="70" fill="transparent"/><g class="v-content" transform="translate(0, 0)" font-size="12px" font-family="'Open Sans', Arial, Helvetica, sans-serif" font-weight="normal" fill="#737373" font-style="normal"><rect class="v-legend-body-bound" x="-5" fill="transparent" width="93.828125" height="70"/><g class="v-groups v-label viz-legend-valueLabel" transform="translate(0, 0)"><g class="v-legend-element v-legend-item" transform="translate (-5,0)" legendlabel-id="0"><rect width="93.828125" height="17.5" fill="transparent"/><path class="v-legend-marker" fill="#999d20" stroke-width="0" stroke="transparent" opacity="1" stroke-opacity="undefined" d="M-7,0 A7,7 0 1,0 7,0 A7,7 0 1,0 -7,0z" transform="translate(12,8.25)"/><text x="24" y="3.25" dy="0.85em">Gross Profit</text></g><g class="v-legend-element v-legend-item" transform="translate (-5,17.5)" legendlabel-id="1"><rect width="93.828125" height="17.5" fill="transparent"/><path class="v-legend-marker" fill="#bbd03b" stroke-width="0" stroke="transparent" opacity="1" stroke-opacity="undefined" d="M-7,0 A7,7 0 1,0 7,0 A7,7 0 1,0 -7,0z" transform="translate(12,8.25)"/><text x="24" y="3.25" dy="0.85em">Sales Revenue</text></g><g class="v-legend-element v-legend-item" transform="translate (-5,35)" legendlabel-id="2"><rect width="93.828125" height="17.5" fill="transparent"/><path class="v-legend-marker" fill="#f2910f" stroke-width="0" stroke="transparent" opacity="1" stroke-opacity="undefined" d="M-7,0 A7,7 0 1,0 7,0 A7,7 0 1,0 -7,0z" transform="translate(12,8.25)"/><text x="24" y="3.25" dy="0.85em">Cost</text></g><g class="v-legend-element v-legend-item" transform="translate (-5,52.5)" legendlabel-id="3"><rect width="93.828125" height="17.5" fill="transparent"/><path class="v-legend-marker" fill="#73d2e0" stroke-width="0" stroke="transparent" opacity="1" stroke-opacity="undefined" d="M-7,0 A7,7 0 1,0 7,0 A7,7 0 1,0 -7,0z" transform="translate(12,8.25)"/><text x="24" y="3.25" dy="0.85em">Sales Quantity</text></g></g></g></g></g><g class="v-m-main" transform="translate(27, 90.5)"><g class="v-m-plot" transform="translate(57.52304688, 0)"><rect class="v-background-body viz-plot-background v-morphable-background" x="0" y="0" width="953.64882812" height="377.86" style="fill:transparent"/><clipPath id="clipPath-7e877256-ce15-4d06-92b4-5ac27ae551f9"><rect y="-1" width="954.64882812" height="378.86"/></clipPath><rect class="v-plot-bound v-bound v-zoom-plot" width="953.64882812" height="377.86" fill="transparent"/><g clip-path="url(#clipPath-7e877256-ce15-4d06-92b4-5ac27ae551f9)"><g class="v-plot-main" transform="translate(0, 0)"><g class="v-datapoint-group"><g class="v-area-group"><g class="v-area"><path class="v-area-path v-morphable-areabg" fill="#73d2e0" opacity="0.8" d="M39.73536783833333,344.192674L119.20610351499998,324.20388L198.67683919166666,307.20018L278.1475748683333,338.713704L357.61831054499993,346.913266L437.0890462216666,330.81642999999997L516.5597818983334,333.196948L596.030517575,327.680192L675.5012532516666,341.169794L754.9719889283333,314.11501799999996L834.442724605,334.59503L913.9134602816666,327.642406L913.9134602816666,377.86L834.442724605,377.86L754.9719889283333,377.85999999999996L675.5012532516666,377.86L596.030517575,377.85999999999996L516.5597818983334,377.86L437.0890462216666,377.85999999999996L357.61831054499993,377.86L278.1475748683333,377.86L198.67683919166666,377.86L119.20610351499998,377.86L39.73536783833333,377.86"/><path stroke="#73d2e0" stroke-width="1px" opacity="0.8" class="v-area-line-path v-morphable-areabg"/><path class="v-area-detection-path" opacity="0" d="M29.73536783833333,344.192674L39.73536783833333,344.192674L39.73536783833333,377.86L29.73536783833333,377.86M913.9134602816666,327.642406L923.9134602816666,327.642406L923.9134602816666,377.86L913.9134602816666,377.86"/></g><g class="v-area"><path class="v-area-path v-morphable-areabg" fill="#f2910f" opacity="0.8" d="M39.73536783833333,316.13241253999996L119.20610351499998,278.23532170000004L198.67683919166666,247.66191338L278.1475748683333,305.3505553L357.61831054499993,321.99377686L437.0890462216666,292.31400744L516.5597818983334,295.93919628000003L596.030517575,285.87716234000004L675.5012532516666,310.87637994000005L754.9719889283333,259.82069246L834.442724605,298.24187512000003L913.9134602816666,284.55200732000003L913.9134602816666,327.64240600000005L834.442724605,334.59503000000007L754.9719889283333,314.11501799999996L675.5012532516666,341.169794L596.030517575,327.68019200000003L516.5597818983334,333.196948L437.0890462216666,330.81643L357.61831054499993,346.913266L278.1475748683333,338.713704L198.67683919166666,307.20018L119.20610351499998,324.20388L39.73536783833333,344.19267399999995"/><path stroke="#f2910f" stroke-width="1px" opacity="0.8" class="v-area-line-path v-morphable-areabg"/><path class="v-area-detection-path" opacity="0" d="M29.73536783833333,316.13241253999996L39.73536783833333,316.13241253999996L39.73536783833333,344.19267399999995L29.73536783833333,344.19267399999995M913.9134602816666,284.55200732000003L923.9134602816666,284.55200732000003L923.9134602816666,327.64240600000005L913.9134602816666,327.64240600000005"/></g><g class="v-area"><path class="v-area-path v-morphable-areabg" fill="#bbd03b" opacity="0.8" d="M39.73536783833333,245.45898957999998L119.20610351499998,163.32431710000003L198.67683919166666,98.32408418000001L278.1475748683333,223.73317316L357.61831054499993,259.12996438000005L437.0890462216666,195.40387538L516.5597818983334,202.34100712L596.030517575,181.56437501999997L675.5012532516666,235.10184698L754.9719889283333,124.37715331999999L834.442724605,207.18026014L913.9134602816666,176.60760753999998L913.9134602816666,284.55200732000003L834.442724605,298.24187512000003L754.9719889283333,259.82069246000003L675.5012532516666,310.87637994L596.030517575,285.87716234000004L516.5597818983334,295.93919628000003L437.0890462216666,292.31400744L357.61831054499993,321.99377686L278.1475748683333,305.3505553L198.67683919166666,247.66191338L119.20610351499998,278.2353217L39.73536783833333,316.13241254"/><path stroke="#bbd03b" stroke-width="1px" opacity="0.8" class="v-area-line-path v-morphable-areabg"/><path class="v-area-detection-path" opacity="0" d="M29.73536783833333,245.45898957999998L39.73536783833333,245.45898957999998L39.73536783833333,316.13241254L29.73536783833333,316.13241254M913.9134602816666,176.60760753999998L923.9134602816666,176.60760753999998L923.9134602816666,284.55200732000003L913.9134602816666,284.55200732000003"/></g><g class="v-area"><path class="v-area-path v-morphable-areabg" fill="#999d20" opacity="0.8" d="M39.73536783833333,202.84582808L119.20610351499998,94.3818708L198.67683919166666,8.524521600000009L278.1475748683333,175.47893972L357.61831054499993,221.18564104L437.0890462216666,136.99616587999998L516.5597818983334,146.00056967999998L596.030517575,119.05461736000001L675.5012532516666,189.62072808000002L754.9719889283333,43.22793972L834.442724605,152.47180003999998L913.9134602816666,111.75360643999994L913.9134602816666,176.60760753999998L834.442724605,207.18026014L754.9719889283333,124.37715331999999L675.5012532516666,235.10184698L596.030517575,181.56437501999997L516.5597818983334,202.34100712L437.0890462216666,195.40387538L357.61831054499993,259.12996438000005L278.1475748683333,223.73317316L198.67683919166666,98.32408418000001L119.20610351499998,163.32431710000003L39.73536783833333,245.45898957999998"/><path stroke="#999d20" stroke-width="1px" opacity="0.8" class="v-area-line-path v-morphable-areabg"/><path class="v-area-detection-path" opacity="0" d="M29.73536783833333,202.84582808L39.73536783833333,202.84582808L39.73536783833333,245.45898957999998L29.73536783833333,245.45898957999998M913.9134602816666,111.75360643999994L923.9134602816666,111.75360643999994L923.9134602816666,176.60760753999998L913.9134602816666,176.60760753999998"/></g></g><g class="v-area-point-group"><g class="v-area-point"><g data-id="0" data-datapoint-id="18650" class="v-datapoint v-morphable-datapoint v-datapoint-default" transform="translate(39.73536783833333, 344.192674)" opacity="0"><path d="M-4,0 A4,4 0 1,0 4,0 A4,4 0 1,0 -4,0z" fill="#73d2e0"/></g><g data-id="1" data-datapoint-id="18651" class="v-datapoint v-morphable-datapoint v-datapoint-default" transform="translate(119.20610351499998, 324.20388)" opacity="0"><path d="M-4,0 A4,4 0 1,0 4,0 A4,4 0 1,0 -4,0z" fill="#73d2e0"/></g><g data-id="2" data-datapoint-id="18652" class="v-datapoint v-morphable-datapoint v-datapoint-default" transform="translate(198.67683919166666, 307.20018)" opacity="0"><path d="M-4,0 A4,4 0 1,0 4,0 A4,4 0 1,0 -4,0z" fill="#73d2e0"/></g><g data-id="3" data-datapoint-id="18653" class="v-datapoint v-morphable-datapoint v-datapoint-default" transform="translate(278.1475748683333, 338.713704)" opacity="0"><path d="M-4,0 A4,4 0 1,0 4,0 A4,4 0 1,0 -4,0z" fill="#73d2e0"/></g><g data-id="4" data-datapoint-id="18654" class="v-datapoint v-morphable-datapoint v-datapoint-default" transform="translate(357.61831054499993, 346.913266)" opacity="0"><path d="M-4,0 A4,4 0 1,0 4,0 A4,4 0 1,0 -4,0z" fill="#73d2e0"/></g><g data-id="5" data-datapoint-id="18655" class="v-datapoint v-morphable-datapoint v-datapoint-default" transform="translate(437.0890462216666, 330.81642999999997)" opacity="0"><path d="M-4,0 A4,4 0 1,0 4,0 A4,4 0 1,0 -4,0z" fill="#73d2e0"/></g><g data-id="6" data-datapoint-id="18656" class="v-datapoint v-morphable-datapoint v-datapoint-default" transform="translate(516.5597818983334, 333.196948)" opacity="0"><path d="M-4,0 A4,4 0 1,0 4,0 A4,4 0 1,0 -4,0z" fill="#73d2e0"/></g><g data-id="7" data-datapoint-id="18657" class="v-datapoint v-morphable-datapoint v-datapoint-default" transform="translate(596.030517575, 327.680192)" opacity="0"><path d="M-4,0 A4,4 0 1,0 4,0 A4,4 0 1,0 -4,0z" fill="#73d2e0"/></g><g data-id="8" data-datapoint-id="18658" class="v-datapoint v-morphable-datapoint v-datapoint-default" transform="translate(675.5012532516666, 341.169794)" opacity="0"><path d="M-4,0 A4,4 0 1,0 4,0 A4,4 0 1,0 -4,0z" fill="#73d2e0"/></g><g data-id="9" data-datapoint-id="18659" class="v-datapoint v-morphable-datapoint v-datapoint-default" transform="translate(754.9719889283333, 314.11501799999996)" opacity="0"><path d="M-4,0 A4,4 0 1,0 4,0 A4,4 0 1,0 -4,0z" fill="#73d2e0"/></g><g data-id="10" data-datapoint-id="18660" class="v-datapoint v-morphable-datapoint v-datapoint-default" transform="translate(834.442724605, 334.59503)" opacity="0"><path d="M-4,0 A4,4 0 1,0 4,0 A4,4 0 1,0 -4,0z" fill="#73d2e0"/></g><g data-id="11" data-datapoint-id="18661" class="v-datapoint v-morphable-datapoint v-datapoint-default" transform="translate(913.9134602816666, 327.642406)" opacity="0"><path d="M-4,0 A4,4 0 1,0 4,0 A4,4 0 1,0 -4,0z" fill="#73d2e0"/></g></g><g class="v-area-point"><g data-id="12" data-datapoint-id="18638" class="v-datapoint v-morphable-datapoint v-datapoint-default" transform="translate(39.73536783833333, 316.13241253999996)" opacity="0"><path d="M-4,0 A4,4 0 1,0 4,0 A4,4 0 1,0 -4,0z" fill="#f2910f"/></g><g data-id="13" data-datapoint-id="18639" class="v-datapoint v-morphable-datapoint v-datapoint-default" transform="translate(119.20610351499998, 278.23532170000004)" opacity="0"><path d="M-4,0 A4,4 0 1,0 4,0 A4,4 0 1,0 -4,0z" fill="#f2910f"/></g><g data-id="14" data-datapoint-id="18640" class="v-datapoint v-morphable-datapoint v-datapoint-default" transform="translate(198.67683919166666, 247.66191338)" opacity="0"><path d="M-4,0 A4,4 0 1,0 4,0 A4,4 0 1,0 -4,0z" fill="#f2910f"/></g><g data-id="15" data-datapoint-id="18641" class="v-datapoint v-morphable-datapoint v-datapoint-default" transform="translate(278.1475748683333, 305.3505553)" opacity="0"><path d="M-4,0 A4,4 0 1,0 4,0 A4,4 0 1,0 -4,0z" fill="#f2910f"/></g><g data-id="16" data-datapoint-id="18642" class="v-datapoint v-morphable-datapoint v-datapoint-default" transform="translate(357.61831054499993, 321.99377686)" opacity="0"><path d="M-4,0 A4,4 0 1,0 4,0 A4,4 0 1,0 -4,0z" fill="#f2910f"/></g><g data-id="17" data-datapoint-id="18643" class="v-datapoint v-morphable-datapoint v-datapoint-default" transform="translate(437.0890462216666, 292.31400744)" opacity="0"><path d="M-4,0 A4,4 0 1,0 4,0 A4,4 0 1,0 -4,0z" fill="#f2910f"/></g><g data-id="18" data-datapoint-id="18644" class="v-datapoint v-morphable-datapoint v-datapoint-default" transform="translate(516.5597818983334, 295.93919628000003)" opacity="0"><path d="M-4,0 A4,4 0 1,0 4,0 A4,4 0 1,0 -4,0z" fill="#f2910f"/></g><g data-id="19" data-datapoint-id="18645" class="v-datapoint v-morphable-datapoint v-datapoint-default" transform="translate(596.030517575, 285.87716234000004)" opacity="0"><path d="M-4,0 A4,4 0 1,0 4,0 A4,4 0 1,0 -4,0z" fill="#f2910f"/></g><g data-id="20" data-datapoint-id="18646" class="v-datapoint v-morphable-datapoint v-datapoint-default" transform="translate(675.5012532516666, 310.87637994000005)" opacity="0"><path d="M-4,0 A4,4 0 1,0 4,0 A4,4 0 1,0 -4,0z" fill="#f2910f"/></g><g data-id="21" data-datapoint-id="18647" class="v-datapoint v-morphable-datapoint v-datapoint-default" transform="translate(754.9719889283333, 259.82069246)" opacity="0"><path d="M-4,0 A4,4 0 1,0 4,0 A4,4 0 1,0 -4,0z" fill="#f2910f"/></g><g data-id="22" data-datapoint-id="18648" class="v-datapoint v-morphable-datapoint v-datapoint-default" transform="translate(834.442724605, 298.24187512000003)" opacity="0"><path d="M-4,0 A4,4 0 1,0 4,0 A4,4 0 1,0 -4,0z" fill="#f2910f"/></g><g data-id="23" data-datapoint-id="18649" class="v-datapoint v-morphable-datapoint v-datapoint-default" transform="translate(913.9134602816666, 284.55200732000003)" opacity="0"><path d="M-4,0 A4,4 0 1,0 4,0 A4,4 0 1,0 -4,0z" fill="#f2910f"/></g></g><g class="v-area-point"><g data-id="24" data-datapoint-id="18626" class="v-datapoint v-morphable-datapoint v-datapoint-default" transform="translate(39.73536783833333, 245.45898957999998)" opacity="0"><path d="M-4,0 A4,4 0 1,0 4,0 A4,4 0 1,0 -4,0z" fill="#bbd03b"/></g><g data-id="25" data-datapoint-id="18627" class="v-datapoint v-morphable-datapoint v-datapoint-default" transform="translate(119.20610351499998, 163.32431710000003)" opacity="0"><path d="M-4,0 A4,4 0 1,0 4,0 A4,4 0 1,0 -4,0z" fill="#bbd03b"/></g><g data-id="26" data-datapoint-id="18628" class="v-datapoint v-morphable-datapoint v-datapoint-default" transform="translate(198.67683919166666, 98.32408418000001)" opacity="0"><path d="M-4,0 A4,4 0 1,0 4,0 A4,4 0 1,0 -4,0z" fill="#bbd03b"/></g><g data-id="27" data-datapoint-id="18629" class="v-datapoint v-morphable-datapoint v-datapoint-default" transform="translate(278.1475748683333, 223.73317316)" opacity="0"><path d="M-4,0 A4,4 0 1,0 4,0 A4,4 0 1,0 -4,0z" fill="#bbd03b"/></g><g data-id="28" data-datapoint-id="18630" class="v-datapoint v-morphable-datapoint v-datapoint-default" transform="translate(357.61831054499993, 259.12996438000005)" opacity="0"><path d="M-4,0 A4,4 0 1,0 4,0 A4,4 0 1,0 -4,0z" fill="#bbd03b"/></g><g data-id="29" data-datapoint-id="18631" class="v-datapoint v-morphable-datapoint v-datapoint-default" transform="translate(437.0890462216666, 195.40387538)" opacity="0"><path d="M-4,0 A4,4 0 1,0 4,0 A4,4 0 1,0 -4,0z" fill="#bbd03b"/></g><g data-id="30" data-datapoint-id="18632" class="v-datapoint v-morphable-datapoint v-datapoint-default" transform="translate(516.5597818983334, 202.34100712)" opacity="0"><path d="M-4,0 A4,4 0 1,0 4,0 A4,4 0 1,0 -4,0z" fill="#bbd03b"/></g><g data-id="31" data-datapoint-id="18633" class="v-datapoint v-morphable-datapoint v-datapoint-default" transform="translate(596.030517575, 181.56437501999997)" opacity="0"><path d="M-4,0 A4,4 0 1,0 4,0 A4,4 0 1,0 -4,0z" fill="#bbd03b"/></g><g data-id="32" data-datapoint-id="18634" class="v-datapoint v-morphable-datapoint v-datapoint-default" transform="translate(675.5012532516666, 235.10184698)" opacity="0"><path d="M-4,0 A4,4 0 1,0 4,0 A4,4 0 1,0 -4,0z" fill="#bbd03b"/></g><g data-id="33" data-datapoint-id="18635" class="v-datapoint v-morphable-datapoint v-datapoint-default" transform="translate(754.9719889283333, 124.37715331999999)" opacity="0"><path d="M-4,0 A4,4 0 1,0 4,0 A4,4 0 1,0 -4,0z" fill="#bbd03b"/></g><g data-id="34" data-datapoint-id="18636" class="v-datapoint v-morphable-datapoint v-datapoint-default" transform="translate(834.442724605, 207.18026014)" opacity="0"><path d="M-4,0 A4,4 0 1,0 4,0 A4,4 0 1,0 -4,0z" fill="#bbd03b"/></g><g data-id="35" data-datapoint-id="18637" class="v-datapoint v-morphable-datapoint v-datapoint-default" transform="translate(913.9134602816666, 176.60760753999998)" opacity="0"><path d="M-4,0 A4,4 0 1,0 4,0 A4,4 0 1,0 -4,0z" fill="#bbd03b"/></g></g><g class="v-area-point"><g data-id="36" data-datapoint-id="18614" class="v-datapoint v-morphable-datapoint v-datapoint-default" transform="translate(39.73536783833333, 202.84582808)" opacity="0"><path d="M-4,0 A4,4 0 1,0 4,0 A4,4 0 1,0 -4,0z" fill="#999d20"/></g><g data-id="37" data-datapoint-id="18615" class="v-datapoint v-morphable-datapoint v-datapoint-default" transform="translate(119.20610351499998, 94.3818708)" opacity="0"><path d="M-4,0 A4,4 0 1,0 4,0 A4,4 0 1,0 -4,0z" fill="#999d20"/></g><g data-id="38" data-datapoint-id="18616" class="v-datapoint v-morphable-datapoint v-datapoint-default" transform="translate(198.67683919166666, 8.524521600000009)" opacity="0"><path d="M-4,0 A4,4 0 1,0 4,0 A4,4 0 1,0 -4,0z" fill="#999d20"/></g><g data-id="39" data-datapoint-id="18617" class="v-datapoint v-morphable-datapoint v-datapoint-default" transform="translate(278.1475748683333, 175.47893972)" opacity="0"><path d="M-4,0 A4,4 0 1,0 4,0 A4,4 0 1,0 -4,0z" fill="#999d20"/></g><g data-id="40" data-datapoint-id="18618" class="v-datapoint v-morphable-datapoint v-datapoint-default" transform="translate(357.61831054499993, 221.18564104)" opacity="0"><path d="M-4,0 A4,4 0 1,0 4,0 A4,4 0 1,0 -4,0z" fill="#999d20"/></g><g data-id="41" data-datapoint-id="18619" class="v-datapoint v-morphable-datapoint v-datapoint-default" transform="translate(437.0890462216666, 136.99616587999998)" opacity="0"><path d="M-4,0 A4,4 0 1,0 4,0 A4,4 0 1,0 -4,0z" fill="#999d20"/></g><g data-id="42" data-datapoint-id="18620" class="v-datapoint v-morphable-datapoint v-datapoint-default" transform="translate(516.5597818983334, 146.00056967999998)" opacity="0"><path d="M-4,0 A4,4 0 1,0 4,0 A4,4 0 1,0 -4,0z" fill="#999d20"/></g><g data-id="43" data-datapoint-id="18621" class="v-datapoint v-morphable-datapoint v-datapoint-default" transform="translate(596.030517575, 119.05461736000001)" opacity="0"><path d="M-4,0 A4,4 0 1,0 4,0 A4,4 0 1,0 -4,0z" fill="#999d20"/></g><g data-id="44" data-datapoint-id="18622" class="v-datapoint v-morphable-datapoint v-datapoint-default" transform="translate(675.5012532516666, 189.62072808000002)" opacity="0"><path d="M-4,0 A4,4 0 1,0 4,0 A4,4 0 1,0 -4,0z" fill="#999d20"/></g><g data-id="45" data-datapoint-id="18623" class="v-datapoint v-morphable-datapoint v-datapoint-default" transform="translate(754.9719889283333, 43.22793972)" opacity="0"><path d="M-4,0 A4,4 0 1,0 4,0 A4,4 0 1,0 -4,0z" fill="#999d20"/></g><g data-id="46" data-datapoint-id="18624" class="v-datapoint v-morphable-datapoint v-datapoint-default" transform="translate(834.442724605, 152.47180003999998)" opacity="0"><path d="M-4,0 A4,4 0 1,0 4,0 A4,4 0 1,0 -4,0z" fill="#999d20"/></g><g data-id="47" data-datapoint-id="18625" class="v-datapoint v-morphable-datapoint v-datapoint-default" transform="translate(913.9134602mo816666, 111.75360643999994)" opacity="0"><path d="M-4,0 A4,4 0 1,0 4,0 A4,4 0 1,0 -4,0z" fill="#999d20"/></g></g></g></g></g></g><g class="v-referenceline-group" clip-path="url(#clipPath-7e877256-ce15-4d06-92b4-5ac27ae551f9)"/></g><g class="v-m-categoryAxis v-m-xAxis" transform="translate(57.52304688, 377.86)"><rect class="v-bound" width="953.64882812" height="60.64" fill="transparent"/><g class="v-axis"><g class="v-m-axisScrollbar" transform="translate(0,24.2)"><g><rect class="v-m-scrollbarTrack" visibility="hidden" fill="#f7f7f7" stroke-width="0" stroke="white" width="953.64882812" height="12"/><rect class="v-m-scrollbarThumb" visibility="hidden" fill="#e5e5e5" width="953.64882812" height="12" transform="translate(0, 0)"/></g></g><g class="v-m-axisTitle" transform="translate(0,46.24)"><g class="v-title viz-axis-title" fill="#000000" font-size="12px" font-weight="normal" font-family="'Open Sans', Arial, Helvetica, sans-serif" font-style="normal"><text text-anchor="middle" dominant-baseline="auto" x="476.82441406" y="11.9"><tspan class="v-title viz-axis-title" dominant-baseline="auto">Sales_Month</tspan></text></g></g><g class="v-m-axisBody" transform="translate(0,0)" clip-path="url(#clipPath-3c246e6a-22b0-427b-9dd8-aa2dfaefbd80)"><clipPath class="v-clippath" id="clipPath-3c246e6a-22b0-427b-9dd8-aa2dfaefbd80"><rect x="-1" y="-1" width="955.64882812" height="26.2"/></clipPath><g class="v-line-group"><line class="v-valueaxisline v-line" stroke="#babab9" stroke-width="1" shape-rendering="crispEdges" x1="-0.5" y1="0" x2="954.14882812" y2="0"/></g><g class="v-label-group"><g class="v-label v-morphable-label viz-axis-label v-axis-item index_0" fill="#737373" font-size="11px" font-weight="normal" font-family="'Open Sans', Arial, Helvetica, sans-serif" font-style="normal" categorylabel-id="0" transform="translate(0,0)"><rect class="viz-axis-label-rect" fill="transparent" x="1" y="1" width="77.47073568" height="22.2"/><g class="v-axis-label-wrapper"><text x="39.73536784" y="16.7" text-anchor="middle">January</text></g></g><g class="v-label v-morphable-label viz-axis-label v-axis-item index_0" fill="#737373" font-size="11px" font-weight="normal" font-family="'Open Sans', Arial, Helvetica, sans-serif" font-style="normal" categorylabel-id="1" transform="translate(79.47073568,0)"><rect class="viz-axis-label-rect" fill="transparent" x="1" y="1" width="77.47073567" height="22.2"/><g class="v-axis-label-wrapper"><text x="39.735367835" y="16.7" text-anchor="middle">February</text></g></g><g class="v-label v-morphable-label viz-axis-label v-axis-item index_0" fill="#737373" font-size="11px" font-weight="normal" font-family="'Open Sans', Arial, Helvetica, sans-serif" font-style="normal" categorylabel-id="2" transform="translate(158.94147135,0)"><rect class="viz-axis-label-rect" fill="transparent" x="1" y="1" width="77.47073567999999" height="22.2"/><g class="v-axis-label-wrapper"><text x="39.735367839999995" y="16.7" text-anchor="middle">March</text></g></g><g class="v-label v-morphable-label viz-axis-label v-axis-item index_0" fill="#737373" font-size="11px" font-weight="normal" font-family="'Open Sans', Arial, Helvetica, sans-serif" font-style="normal" categorylabel-id="3" transform="translate(238.41220703,0)"><rect class="viz-axis-label-rect" fill="transparent" x="1" y="1" width="77.47073568000002" height="22.2"/><g class="v-axis-label-wrapper"><text x="39.73536784000001" y="16.7" text-anchor="middle">April</text></g></g><g class="v-label v-morphable-label viz-axis-label v-axis-item index_0" fill="#737373" font-size="11px" font-weight="normal" font-family="'Open Sans', Arial, Helvetica, sans-serif" font-style="normal" categorylabel-id="4" transform="translate(317.88294271,0)"><rect class="viz-axis-label-rect" fill="transparent" x="1" y="1" width="77.47073567000001" height="22.2"/><g class="v-axis-label-wrapper"><text x="39.735367835000005" y="16.7" text-anchor="middle">May</text></g></g><g class="v-label v-morphable-label viz-axis-label v-axis-item index_0" fill="#737373" font-size="11px" font-weight="normal" font-family="'Open Sans', Arial, Helvetica, sans-serif" font-style="normal" categorylabel-id="5" transform="translate(397.35367838,0)"><rect class="viz-axis-label-rect" fill="transparent" x="1" y="1" width="77.47073567999996" height="22.2"/><g class="v-axis-label-wrapper"><text x="39.73536783999998" y="16.7" text-anchor="middle">June</text></g></g><g class="v-label v-morphable-label viz-axis-label v-axis-item index_0" fill="#737373" font-size="11px" font-weight="normal" font-family="'Open Sans', Arial, Helvetica, sans-serif" font-style="normal" categorylabel-id="6" transform="translate(476.82441406,0)"><rect class="viz-axis-label-rect" fill="transparent" x="1" y="1" width="77.47073568000008" height="22.2"/><g class="v-axis-label-wrapper"><text x="39.73536784000004" y="16.7" text-anchor="middle">July</text></g></g><g class="v-label v-morphable-label viz-axis-label v-axis-item index_0" fill="#737373" font-size="11px" font-weight="normal" font-family="'Open Sans', Arial, Helvetica, sans-serif" font-style="normal" categorylabel-id="7" transform="translate(556.29514974,0)"><rect class="viz-axis-label-rect" fill="transparent" x="1" y="1" width="77.47073566999995" height="22.2"/><g class="v-axis-label-wrapper"><text x="39.73536783499998" y="16.7" text-anchor="middle">August</text></g></g><g class="v-label v-morphable-label viz-axis-label v-axis-item index_0" fill="#737373" font-size="11px" font-weight="normal" font-family="'Open Sans', Arial, Helvetica, sans-serif" font-style="normal" categorylabel-id="8" transform="translate(635.76588541,0)"><rect class="viz-axis-label-rect" fill="transparent" x="1" y="1" width="77.47073567999996" height="22.2"/><g class="v-axis-label-wrapper"><text x="39.73536783999998" y="16.7" text-anchor="middle">Septmber</text></g></g><g class="v-label v-morphable-label viz-axis-label v-axis-item index_0" fill="#737373" font-size="11px" font-weight="normal" font-family="'Open Sans', Arial, Helvetica, sans-serif" font-style="normal" categorylabel-id="9" transform="translate(715.23662109,0)"><rect class="viz-axis-label-rect" fill="transparent" x="1" y="1" width="77.47073568000008" height="22.2"/><g class="v-axis-label-wrapper"><text x="39.73536784000004" y="16.7" text-anchor="middle">October</text></g></g><g class="v-label v-morphable-label viz-axis-label v-axis-item index_0" fill="#737373" font-size="11px" font-weight="normal" font-family="'Open Sans', Arial, Helvetica, sans-serif" font-style="normal" categorylabel-id="10" transform="translate(794.70735677,0)"><rect class="viz-axis-label-rect" fill="transparent" x="1" y="1" width="77.47073566999995" height="22.2"/><g class="v-axis-label-wrapper"><text x="39.73536783499998" y="16.7" text-anchor="middle">November</text></g></g><g class="v-label v-morphable-label viz-axis-label v-axis-item index_0" fill="#737373" font-size="11px" font-weight="normal" font-family="'Open Sans', Arial, Helvetica, sans-serif" font-style="normal" categorylabel-id="11" transform="translate(874.17809244,0)"><rect class="viz-axis-label-rect" fill="transparent" x="1" y="1" width="77.47073567999996" height="22.2"/><g class="v-axis-label-wrapper"><text x="39.73536783999998" y="16.7" text-anchor="middle">December</text></g></g></g></g></g></g><g class="v-m-valueAxis v-m-yAxis" transform="translate(0, 0)"><rect class="v-bound" width="57.52304688" height="377.86" fill="transparent"/><g class="v-axis"><g class="v-m-axisTitle" transform="translate(1.7763568394002505e-15,0)"><g class="v-title viz-axis-title" fill="#000000" font-size="12px" font-weight="normal" font-family="'Open Sans', Arial, Helvetica, sans-serif" font-style="normal"><text text-anchor="middle" dominant-baseline="auto" x="11.9" y="188.93" transform="rotate(-90,11.9,188.93)"><tspan class="v-title viz-axis-title" dominant-baseline="auto">Gross Profit &amp; Sales Revenue &amp; Cost &amp; Sales Quantity</tspan></text></g></g><g class="v-m-axisBody" transform="translate(30.400000000000002,0)"><clipPath class="v-clippath-labels" id="clipPath-d2ea1e95-47c5-47d4-ba5d-f0f6d4e3403b"><rect x="-1" y="-10" width="29.12304688" height="397.86"/></clipPath><clipPath class="v-clippath-ticks" id="clipPath-cf7b91bc-c781-432f-9aab-19c55de8a9cd"><rect x="-1" y="-1" width="29.12304688" height="379.86"/></clipPath><rect class="v-bound" width="27.12304688" height="377.86" fill="transparent"/><g clip-path="url(#clipPath-cf7b91bc-c781-432f-9aab-19c55de8a9cd)"><g class="v-tick-group"><line class="v-valueaxisline v-tick" stroke="#878786" stroke-width="1" shape-rendering="crispEdges" x1="27.12304688" y1="377.86" x2="22.12304688" y2="377.86"/><line class="v-valueaxisline v-tick" stroke="#878786" stroke-width="1" shape-rendering="crispEdges" x1="27.12304688" y1="302.288" x2="22.12304688" y2="302.288"/><line class="v-valueaxisline v-tick" stroke="#878786" stroke-width="1" shape-rendering="crispEdges" x1="27.12304688" y1="226.716" x2="22.12304688" y2="226.716"/><line class="v-valueaxisline v-tick" stroke="#878786" stroke-width="1" shape-rendering="crispEdges" x1="27.12304688" y1="151.144" x2="22.12304688" y2="151.144"/><line class="v-valueaxisline v-tick" stroke="#878786" stroke-width="1" shape-rendering="crispEdges" x1="27.12304688" y1="75.572" x2="22.12304688" y2="75.572"/><line class="v-valueaxisline v-tick" stroke="#878786" stroke-width="1" shape-rendering="crispEdges" x1="27.12304688" y1="0" x2="22.12304688" y2="0"/></g></g><g clip-path="url(#clipPath-d2ea1e95-47c5-47d4-ba5d-f0f6d4e3403b)"><g class="v-label-group"><g class="v-label v-morphable-label viz-axis-label" fill="#737373" font-size="12px" font-weight="normal" font-family="'Open Sans', Arial, Helvetica, sans-serif" font-style="normal"><text text-anchor="end" x="16.12304688" y="381.86">0</text></g><g class="v-label v-morphable-label viz-axis-label" fill="#737373" font-size="12px" font-weight="normal" font-family="'Open Sans', Arial, Helvetica, sans-serif" font-style="normal"><text text-anchor="end" x="16.12304688" y="306.288">2k</text></g><g class="v-label v-morphable-label viz-axis-label" fill="#737373" font-size="12px" font-weight="normal" font-family="'Open Sans', Arial, Helvetica, sans-serif" font-style="normal"><text text-anchor="end" x="16.12304688" y="230.716">4k</text></g><g class="v-label v-morphable-label viz-axis-label" fill="#737373" font-size="12px" font-weight="normal" font-family="'Open Sans', Arial, Helvetica, sans-serif" font-style="normal"><text text-anchor="end" x="16.12304688" y="155.144">6k</text></g><g class="v-label v-morphable-label viz-axis-label" fill="#737373" font-size="12px" font-weight="normal" font-family="'Open Sans', Arial, Helvetica, sans-serif" font-style="normal"><text text-anchor="end" x="16.12304688" y="79.572">8k</text></g><g class="v-label v-morphable-label viz-axis-label" fill="#737373" font-size="12px" font-weight="normal" font-family="'Open Sans', Arial, Helvetica, sans-serif" font-style="normal"><text text-anchor="end" x="16.12304688" y="4">10k</text></g></g></g></g></g></g><g class="v-m-scrollbar" transform="translate(1011.171875, 0)"/></g></svg>