<?xml version="1.0" encoding="utf-8"?>
<!-- Generator: Adobe Illustrator 15.1.0, SVG Export Plug-In . SVG Version: 6.00 Build 0)  -->
<!DOCTYPE svg PUBLIC "-//W3C//DTD SVG 1.1//EN" "http://www.w3.org/Graphics/SVG/1.1/DTD/svg11.dtd">
<svg version="1.1" id="Layer_1" xmlns="http://www.w3.org/2000/svg" xmlns:xlink="http://www.w3.org/1999/xlink" x="0px" y="0px"
	 width="100%" height="auto" viewBox="0 0 412.319 318.84" enable-background="new 0 0 412.319 318.84"
	 xml:space="preserve">
<rect x="39.333" y="66.42" fill="#F38D00" width="139" height="14"/>
<rect x="39.333" y="84.42" fill="#6FD2E1" width="171" height="14"/>
<rect x="39.333" y="116.42" fill="#F38D00" width="139" height="14"/>
<rect x="39.333" y="134.42" fill="#6FD2E1" width="171" height="14"/>
<rect x="39.333" y="165.42" fill="#F38D00" width="171" height="14"/>
<rect x="39.333" y="182.42" fill="#6FD2E1" width="218" height="14"/>
<rect x="39.333" y="215.42" fill="#F38D00" width="205.5" height="14"/>
<rect x="39.333" y="232.42" fill="#6FD2E1" width="257" height="14"/>
<line fill="none" stroke="#6C6C6C" stroke-miterlimit="10" x1="39.333" y1="55.92" x2="39.333" y2="258.42"/>
<text transform="matrix(1 0 0 1 18.3257 87.4204)"><tspan x="0" y="0" font-family="'Helvetica'" font-size="12">Q1</tspan><tspan x="0" y="50" font-family="'Helvetica'" font-size="12">Q2</tspan><tspan x="0" y="100" font-family="'Helvetica'" font-size="12">Q3</tspan><tspan x="0" y="150" font-family="'Helvetica'" font-size="12">Q4</tspan></text>
<text transform="matrix(1 0 0 1 41.2192 31.4204)" font-family="'Helvetica'" font-size="18">Sales Quantity and Gross Profit</text>
<text transform="matrix(1 0 0 1 88.7749 274.4204)" fill="#A9A9A9" font-family="'Helvetica'" font-size="12">Sales Quantity &amp; Gross Profit</text>
<text transform="matrix(1 0 0 1 317.9761 70.4204)" font-family="'Helvetica'" font-size="12">All Measures</text>
<rect x="317.333" y="79.92" fill="#F38D00" width="14" height="14"/>
<rect x="317.333" y="96.92" fill="#6FD2E1" width="14" height="14"/>
<text transform="matrix(1 0 0 1 337.3335 89.4204)"><tspan x="0" y="0" fill="#808080" font-family="'Helvetica'" font-size="11">Sales Qua...</tspan><tspan x="0" y="18" fill="#808080" font-family="'Helvetica'" font-size="11">Gross Profit</tspan></text>
</svg>
