<?xml version="1.0" encoding="utf-8"?>
<!-- Generator: Adobe Illustrator 15.1.0, SVG Export Plug-In . SVG Version: 6.00 Build 0)  -->
<!DOCTYPE svg PUBLIC "-//W3C//DTD SVG 1.1//EN" "http://www.w3.org/Graphics/SVG/1.1/DTD/svg11.dtd">
<svg   version="1.1" id="Layer_1" xmlns="http://www.w3.org/2000/svg" xmlns:xlink="http://www.w3.org/1999/xlink" x="0px" y="0px"
	 width="46px" height="46px" viewBox="0 0 78 78" enable-background="new 0 0 78 78" xml:space="preserve">
<path fill="#FFFFFF" d="M14.538,38.698h14.438v4.813H14.538V38.698z M14.538,48.323h14.438v4.812H14.538V48.323z M14.538,57.948
	h14.438v4.813H14.538V57.948z M68.036,15.194L57.29,4.453c-2.339-2.34-6.961-4.254-10.271-4.254H10.926
	c-3.309,0-6.016,2.707-6.016,6.016v64.968c0,3.309,2.707,6.017,6.016,6.017H66.27c3.309,0,6.016-2.708,6.016-6.017V25.465
	c0-3.31-1.915-7.931-4.255-10.271H68.036z M64.632,18.597c0.236,0.236,0.47,0.525,0.697,0.853H53.038V7.158
	c0.327,0.228,0.616,0.462,0.852,0.698L64.632,18.597L64.632,18.597z M67.476,71.183c0,0.652-0.551,1.204-1.203,1.204H10.928
	c-0.653,0-1.202-0.552-1.202-1.204V6.214c0-0.652,0.549-1.203,1.202-1.203h36.094c0.361,0,0.771,0.046,1.203,0.126v19.123H67.35
	c0.079,0.434,0.126,0.841,0.126,1.204V71.183z M43.412,53.136H57.61c-1.113,5.491-5.971,9.626-11.791,9.626
	c-6.644,0-12.031-5.389-12.031-12.032c0-5.82,4.134-10.673,9.624-11.79V53.136z M50.631,33.886c6.645,0,12.032,5.388,12.032,12.031
	c0,0.822-0.086,1.628-0.24,2.406H48.226V34.127C49.004,33.968,49.809,33.886,50.631,33.886z"/>
</svg>
