<?xml version="1.0" encoding="utf-8"?>
<!-- Generator: Adobe Illustrator 15.1.0, SVG Export Plug-In . SVG Version: 6.00 Build 0)  -->
<!DOCTYPE svg PUBLIC "-//W3C//DTD SVG 1.1//EN" "http://www.w3.org/Graphics/SVG/1.1/DTD/svg11.dtd">
<svg   version="1.1" id="Layer_1" xmlns="http://www.w3.org/2000/svg" xmlns:xlink="http://www.w3.org/1999/xlink" x="0px" y="0px"
	 width="46px" height="46px" viewBox="0 0 78 78" enable-background="new 0 0 78 78" xml:space="preserve">
<g>
	<path opacity="0.9" fill="#FFFFFF" d="M62.896,40.963c0,0.522-0.058,0.945-0.729,0.945H49.087c-0.67,0-0.729-0.423-0.729-0.945
		c0-0.521,0.06-0.945,0.729-0.945H62.17C62.839,40.018,62.896,40.441,62.896,40.963z"/>
	<g>
		<path opacity="0.9" fill="#FFFFFF" d="M62.896,25.375c0,0.522-0.198,0.944-2.493,0.944H15.657c-2.291,0-2.494-0.422-2.494-0.944
			c0-0.522,0.203-0.945,2.494-0.945h44.754C62.698,24.431,62.896,24.853,62.896,25.375z"/>
		<path opacity="0.9" fill="#FFFFFF" d="M27.703,40.963c0,0.522-0.059,0.945-0.729,0.945H13.893c-0.67,0-0.729-0.423-0.729-0.945
			c0-0.521,0.059-0.945,0.729-0.945h13.083C27.644,40.018,27.703,40.441,27.703,40.963z"/>
		<path opacity="0.9" fill="#FFFFFF" d="M62.896,56.55c0,0.522-0.198,0.945-2.493,0.945H15.657c-2.291,0-2.494-0.423-2.494-0.945
			c0-0.521,0.203-0.944,2.494-0.944h44.754C62.698,55.605,62.896,56.028,62.896,56.55z"/>
		<path fill="#FFFFFF" d="M72.662,3.705c-4.369-4.372-8.258-3.083-8.258-3.083L30.138,34.863l-5.764,17.13l17.122-5.768
			l34.251-34.263C75.746,11.963,77.031,8.074,72.662,3.705z M42.642,42.496l-1.87,1.862l-5.843,1.983
			c-0.415-0.953-0.93-1.895-1.975-2.937c-1.05-1.041-1.983-1.561-2.937-1.975l1.984-5.842l1.871-1.865c0,0,3.076-0.353,6.097,2.669
			C42.99,39.412,42.642,42.496,42.642,42.496z M68.212,70.566H7.444V9.798h23.808l8.767-6.879H9.333
			c-4.821,0-8.768,3.946-8.768,8.769v56.989c0,4.82,3.947,8.768,8.768,8.768h56.988c4.822,0,8.769-3.947,8.769-8.768V37.991
			l-6.878,8.767V70.566z"/>
	</g>
</g>
</svg>
