<?xml version="1.0" encoding="utf-8"?>
<!-- Generator: Adobe Illustrator 15.1.0, SVG Export Plug-In . SVG Version: 6.00 Build 0)  -->
<!DOCTYPE svg PUBLIC "-//W3C//DTD SVG 1.1//EN" "http://www.w3.org/Graphics/SVG/1.1/DTD/svg11.dtd">
<svg version="1.1" id="Layer_1" xmlns="http://www.w3.org/2000/svg" xmlns:xlink="http://www.w3.org/1999/xlink" x="0px" y="0px"
	 width="248" height="138" viewBox="0 0 437.984 244.186" enable-background="new 0 0 437.984 244.186"
	 xml:space="preserve">
<path fill="#A9DBF7" d="M408.257,83.295c-6.932-1.486-13.791,2.801-15.309,9.581c-0.615,2.751-0.217,5.47,0.896,7.858
	l-64.865,41.269c-1.742-1.921-4.066-3.349-6.822-3.934c-2.896-0.628-5.742-0.19-8.217,0.948l-44.5-64.659
	c1.895-1.688,3.287-3.923,3.88-6.557c1.519-6.765-2.874-13.469-9.802-14.956c-6.935-1.48-13.787,2.811-15.305,9.582
	c-0.938,4.176,0.383,8.319,3.15,11.245l-85.727,105.505c-1.108-0.622-2.289-1.138-3.606-1.419c-2.802-0.602-5.576-0.224-7.998,0.841
	l-42.18-64.028c1.981-1.707,3.465-3.991,4.081-6.705c1.514-6.78-2.869-13.474-9.802-14.957c-6.938-1.491-13.801,2.804-15.316,9.575
	c-1.097,4.877,0.904,9.68,4.666,12.557l-51.196,88.947l3.349,1.84l51.214-88.958c0.576,0.227,1.15,0.438,1.78,0.575
	c2.802,0.601,5.565,0.218,7.987-0.843l42.195,64.025c-1.989,1.703-3.48,3.987-4.088,6.701c-1.519,6.779,2.874,13.478,9.805,14.957
	c6.939,1.484,13.787-2.803,15.309-9.574c0.938-4.177-0.383-8.316-3.162-11.234L254.409,75.96c1.104,0.612,2.293,1.138,3.602,1.42
	c2.896,0.62,5.74,0.193,8.223-0.953l44.498,64.659c-1.883,1.699-3.293,3.939-3.883,6.564c-1.518,6.768,2.87,13.462,9.805,14.949
	c6.932,1.484,13.787-2.807,15.306-9.572c0.618-2.766,0.22-5.492-0.892-7.881l64.856-41.25c1.745,1.915,4.069,3.345,6.829,3.94
	c6.935,1.479,13.786-2.815,15.305-9.588C419.583,91.477,415.195,84.776,408.257,83.295z"/>
<path fill="#A9DBF7" d="M424.191,13.292c-6.935-1.483-13.786,2.804-15.308,9.572c-0.619,2.748-0.225,5.455,0.864,7.821
	l-65.351,41.24c-1.742-1.939-4.072-3.39-6.852-3.979c-6.932-1.488-13.786,2.811-15.305,9.583c-0.926,4.127,0.365,8.21,3.066,11.121
	l-87.545,105.258c-1.145-0.656-2.379-1.197-3.745-1.495c-2.757-0.586-5.478-0.241-7.878,0.794l-41.329-64.218
	c2.042-1.714,3.58-4.024,4.194-6.784c1.519-6.782-2.866-13.474-9.809-14.96c-6.931-1.479-13.783,2.808-15.305,9.58
	c-0.615,2.763-0.217,5.488,0.896,7.877L54.482,194.995c-1.75-1.906-4.066-3.338-6.825-3.934c-6.927-1.484-13.783,2.811-15.301,9.586
	c-1.523,6.771,2.866,13.466,9.8,14.945c6.943,1.495,13.794-2.797,15.309-9.564c0.624-2.762,0.217-5.492-0.896-7.88l110.309-70.294
	c1.735,1.91,4.066,3.35,6.811,3.942c2.751,0.586,5.488,0.228,7.879-0.801l41.334,64.21c-2.042,1.71-3.576,4.024-4.198,6.795
	c-1.518,6.768,2.873,13.463,9.809,14.949c6.936,1.494,13.783-2.797,15.305-9.579c0.926-4.128-0.356-8.208-3.062-11.115
	l87.557-105.271c1.139,0.664,2.371,1.198,3.738,1.488c6.928,1.486,13.791-2.8,15.31-9.565c0.606-2.737,0.22-5.452-0.874-7.829
	l65.351-41.232c1.734,1.93,4.073,3.383,6.852,3.979c6.935,1.483,13.782-2.815,15.306-9.582
	C435.507,21.47,431.119,14.775,424.191,13.292z"/>
<polyline fill="none" stroke="#A9DBF7" stroke-width="4" stroke-miterlimit="10" points="7.124,6.946 7.124,235.946 
	428.124,235.946 "/>
</svg>
