<?xml version="1.0" encoding="utf-8"?>
<!-- Generator: Adobe Illustrator 15.1.0, SVG Export Plug-In . SVG Version: 6.00 Build 0)  -->
<!DOCTYPE svg PUBLIC "-//W3C//DTD SVG 1.1//EN" "http://www.w3.org/Graphics/SVG/1.1/DTD/svg11.dtd">
<svg  version="1.1" id="Layer_1" xmlns="http://www.w3.org/2000/svg" xmlns:xlink="http://www.w3.org/1999/xlink" x="0px" y="0px"
	 width="54px" height="54px" viewBox="0 0 78 78" enable-background="new 0 0 78 78" xml:space="preserve">
<g>
	<path opacity="0.8" fill="#FFFFFF" d="M43.004,7.675c0.686-1.799,2.707-2.729,4.5-2.031c1.814,0.667,2.726,2.699,2.058,4.497
		c-0.683,1.801-2.703,2.729-4.516,2.044C43.234,11.508,42.336,9.479,43.004,7.675z"/>
	<path opacity="0.5" fill="#FFFFFF" d="M55.169,3.398c0.837-2.226,3.315-3.365,5.536-2.506c2.228,0.81,3.356,3.295,2.517,5.522
		c-0.83,2.211-3.304,3.362-5.54,2.507C55.455,8.098,54.336,5.621,55.169,3.398z"/>
	<path fill="#FFFFFF" d="M52.758,14.538c0.674-1.804,2.664-2.719,4.447-2.033c1.8,0.655,2.707,2.657,2.03,4.444
		c-0.665,1.81-2.673,2.704-4.451,2.022C52.977,18.312,52.09,16.307,52.758,14.538z"/>
	<path fill="#FFFFFF" d="M63.634,10.953c0.535-1.412,2.089-2.111,3.491-1.598c1.375,0.531,2.088,2.086,1.56,3.476
		c-0.508,1.394-2.076,2.102-3.47,1.583C63.827,13.883,63.117,12.329,63.634,10.953z"/>
	<path fill="#FFFFFF" d="M54.093,60.872c2.122-3.715,3.403-8.041,3.403-12.611c0-13.958-11.306-25.222-25.239-25.222
		c-13.998,0-25.205,11.264-25.205,25.222c0,13.957,11.207,25.222,25.205,25.222c4.531,0,8.751-1.183,12.488-3.265l13.607,7.388
		L54.093,60.872z M48.066,60.015h-30.69v-4.082h30.69V60.015z M48.066,49.934h-30.69v-4.121h30.69V49.934z M48.066,41.893h-30.69
		v-4.202h30.69V41.893z"/>
</g>
</svg>
