<svg xmlns="http://www.w3.org/2000/svg" xmlns:xlink="http://www.w3.org/1999/xlink" version="1.1" id="Layer_1" x="0px" y="0px" width="1258px" height="640px" viewBox="0 0 1258 640" enable-background="new 0 0 1258 640" xml:space="preserve"><g class="v-m-background"><rect class="v-background-body viz-plot-background v-morphable-background" x="0" y="0" width="1010" height="558" style="fill:transparent"/></g><g class="v-m-title" transform="translate(197.853125, 27)"><rect class="v-bound" width="777.86" height="23.5" fill="transparent"/><text class="v-title viz-title-label" fill="#000000" font-family="'Open Sans', Arial, Helvetica, sans-serif" font-size="21px" font-weight="normal" font-style="normal" text-anchor="start" x="0" y="11.75" dominant-baseline="central">Time Axis Line Chart</text></g><g class="v-m-legendGroup" transform="translate(1013.953125, 90.5)"><g class="v-m-legend" transform="translate(0,0)"><rect class="v-bound" width="79.046875" height="35" fill="transparent"/><g class="v-content" transform="translate(0, 0)" font-size="10px" font-family="'Open Sans', Arial, Helvetica, sans-serif" font-weight="normal" fill="#737373" font-style="normal"><rect class="v-legend-body-bound" x="-5" fill="transparent" width="84.046875" height="35"/><g class="v-groups v-label viz-legend-valueLabel" transform="translate(0, 0)"><g class="v-legend-element v-legend-item" transform="translate (-5,0)" legendlabel-id="0"><rect height="17.5" fill="transparent" width="84.046875" class=""/><path transform="translate(12,8.25)" class="v-legend-marker" fill="#00adc6" stroke-width="0" stroke="transparent" opacity="1" stroke-opacity="undefined" d="M-7,0 A7,7 0 1,0 7,0 A7,7 0 1,0 -7,0z"/><text x="24" y="3.25" dy="0.85em">United States</text></g><g class="v-legend-element v-legend-item" transform="translate (-5,17.5)" legendlabel-id="1"><rect height="17.5" fill="transparent" width="84.046875" class=""/><path transform="translate(12,8.25)" class="v-legend-marker" fill="#fccd8c" stroke-width="0" stroke="transparent" opacity="1" stroke-opacity="undefined" d="M-7,0 A7,7 0 1,0 7,0 A7,7 0 1,0 -7,0z"/><text x="24" y="3.25" dy="0.85em">Canada</text></g></g></g></g></g><g class="v-m-main" transform="translate(137, 90.5)"><g class="v-m-plot" transform="translate(60.853125, 0)"><rect class="v-background-body viz-plot-background v-morphable-background" x="0" y="0" width="777.86" height="366.62" style="fill:transparent"/><clipPath id="plot_main_clipPath_d833ba9e-d86b-4688-8305-d02420dd1232"><rect y="-1" width="778.86" height="367.62"/></clipPath><rect class="v-plot-bound v-bound v-zoom-plot" width="777.86" height="366.62" fill="transparent"/><g clip-path="url(#plot_main_clipPath_d833ba9e-d86b-4688-8305-d02420dd1232)"><g class="v-plot-main" transform="translate(-396, 0)"><g class="v-datapoint-group"><g><path d="M375.85993111366247,350.9077142857143L397.13088404133185,327.3392857142857L402.1745120551091,320.7925L408.75315729047077,346.32496428571426L424.7611940298508,324.06589285714284L431.77841561423656,344.3609285714286L433.9712973593571,235.68428571428572L443.1814006888634,301.15214285714285L452.6107921928818,307.69892857142855L464.6716417910448,350.9077142857143L466.2066590126292,222.5907142857143L473.0045924225029,274.96500000000003L481.5568312284731,345.01560714285716L481.77611940298505,335.1954285714286L485.5040183696901,323.41121428571427L486.8197474167624,309.0082857142857L503.7049368541906,244.84978571428573L506.99425947187143,248.77785714285716L510.94144661308843,352.21707142857144L515.7657864523537,298.5334285714286L516.862227324914,235.68428571428572L517.0815154994259,235.68428571428572L531.1159586681974,332.5767142857143L531.9931113662457,192.03903889000003L534.6245694603905,247.4685L535.9402985074627,301.15214285714285L539.4489092996556,275.61967857142855L551.2904707233066,144.02928571428572L551.9483352468427,327.3392857142857L553.7026406429392,261.87142857142857L563.7898966704937,345.67028571428574L566.2020665901264,347.6343214285714L572.1228473019519,183.31L576.0700344431689,288.05857142857144L577.3857634902411,288.05857142857144L580.4557979334099,301.15214285714285L583.3065442020666,340.43285714285713L588.569460390356,352.87175L589.2273249138921,259.2527142857143L604.358208955224,288.05857142857144L610.9368541905856,256.634L613.7876004592423,301.15214285714285L616.419058553387,274.96500000000003L624.313432835821,273.6556428571429L624.532721010333,274.96500000000003L626.5063145809415,332.5767142857143L632.2078071182549,288.05857142857144L633.5235361653272,343.05157142857144L635.4971297359357,341.7422142857143L643.8300803673939,307.69892857142855L644.48794489093,314.2457142857143L645.5843857634902,343.05157142857144L651.5051664753157,345.67028571428574L659.6188289322619,351.3005214285714L666.6360505166476,216.04392857142858L669.0482204362802,191.16614285714286L672.9954075774972,188.54742857142858L674.3111366245695,346.32496428571426L674.5304247990815,281.51178571428574L694.4856486796787,352.87175L704.353616532721,352.87175L710.0551090700345,242.23107142857145L711.3708381171068,329.958L712.028702640643,268.4182142857143L712.9058553386913,159.74157142857143L715.0987370838118,340.43285714285713L734.1768082663606,281.51178571428574L736.3696900114811,317.51910714285714L738.7818599311137,343.70625L739.4397244546499,268.4182142857143L739.878300803674,185.92871428571428L749.5269804822044,307.69892857142855L749.7462686567166,179.56898333285716L751.0619977037887,261.87142857142857L762.4649827784157,345.67028571428574L770.7979334098737,229.1375L774.0872560275545,115.22342857142861L774.5258323765787,288.05857142857144L777.3765786452354,157.12285714285716L779.3501722158439,352.87175L783.955223880597,340.43285714285713L785.9288174512055,246.15914285714288L788.7795637198623,327.3392857142857L791.849598163031,352.87175L792.0688863375431,352.87175L799.0861079219289,352.87175L803.9104477611941,350.9077142857143L805.0068886337543,345.67028571428574L810.9276693455798,288.05857142857144L812.9012629161883,327.3392857142857L813.3398392652124,274.96500000000003L814.4362801377727,327.3392857142857L817.5063145809415,352.87175L821.4535017221584,319.48314285714287L821.6727898966706,352.87175L823.4270952927669,314.2457142857143L823.8656716417911,163.6696428571429L826.0585533869117,268.4182142857143L828.4707233065443,104.74857142857147L833.0757749712974,311.627L839.6544202066591,271.0369285714286L842.0665901262917,261.87142857142857L842.2858783008037,344.3609285714286L844.9173363949484,261.87142857142857L845.7944890929966,350.9077142857143L846.2330654420207,350.9077142857143L851.0574052812859,340.43285714285713L852.8117106773823,340.43285714285713L853.4695752009186,322.10185714285717L853.9081515499427,248.77785714285716L855.0045924225029,284.1305L856.5396096440874,52.37428571428573L860.0482204362802,248.77785714285716L860.2675086107922,301.15214285714285L865.3111366245696,288.05857142857144L865.9690011481057,335.1954285714286L867.5040183696901,235.68428571428572L872.3283582089554,222.5907142857143L872.7669345579794,352.87175L873.8633754305397,157.12285714285716L876.4948335246843,352.87175L876.9334098737085,352.87175L883.51205510907,350.9077142857143L890.748564867968,347.6343214285714L892.7221584385765,264.49014285714287L892.9414466130885,261.87142857142857L897.7657864523537,288.05857142857144L901.0551090700345,352.87175L903.6865671641792,352.87175L905.0022962112515,320.7925L912.2388059701493,319.48314285714287L913.7738231917338,352.87175L921.0103329506314,328.6486428571429L921.2296211251436,352.87175L923.6417910447763,274.96500000000003L933.2904707233066,281.51178571428574L934.606199770379,256.634L936.1412169919633,352.87175L938.7726750861079,351.56239285714287L940.0884041331803,335.1954285714286L940.5269804822045,209.49714285714285L947.3249138920781,235.68428571428572L948.8599311136625,268.4182142857143L954.1228473019519,269.7275714285714L956.0964408725604,333.8860714285714L956.3157290470725,261.87142857142857L958.5086107921929,301.15214285714285L959.3857634902412,104.74857142857147L959.6050516647531,301.15214285714285L963.9908151549944,261.87142857142857L966.1836969001149,248.77785714285716L973.6394948335249,255.32464285714286L978.683122847302,280.2024285714286L980.8760045924225,222.5907142857143L986.577497129736,170.21642857142857L992.7175660160735,329.958L996.0068886337543,274.96500000000003L996.2261768082665,348.289L996.6647531572905,352.87175L997.1033295063147,352.21707142857144L997.7611940298509,277.5837142857143L1004.9977037887487,352.87175L1005.4362801377728,350.9077142857143L1005.6555683122849,327.3392857142857L1007.6291618828933,255.32464285714286L1008.5063145809415,284.1305L1009.3834672789898,352.87175L1015.7428243398393,352.87175L1022.9793340987372,268.4182142857143L1026.707233065442,349.59835714285714L1028.4615384615386,288.71325L1031.5315729047074,157.12285714285716L1032.1894374282435,209.49714285714285L1036.5752009184846,288.05857142857144L1037.890929965557,104.74857142857147L1039.2066590126292,342.39689285714286L1040.9609644087257,274.96500000000003L1044.4695752009186,332.5767142857143L1045.3467278989667,248.77785714285716L1049.0746268656717,352.87175L1053.0218140068887,248.77785714285716L1053.460390355913,350.9077142857143L1053.8989667049368,352.21707142857144L1057.6268656716418,352.21707142857144L1058.7233065442022,337.8141428571429L1064.2055109070036,352.87175L1067.9334098737083,345.67028571428574L1072.5384615384614,338.46882142857146L1073.1963260619978,329.958L1073.4156142365098,322.10185714285717L1074.5120551090702,352.87175L1076.2663605051666,333.8860714285714L1079.5556831228473,235.68428571428572L1081.5292766934558,335.1954285714286L1082.1871412169921,288.05857142857144L1083.0642939150403,346.97964285714284L1084.1607347876006,251.39657142857143L1087.2307692307695,329.958L1089.4236509758898,248.77785714285716L1090.9586681974743,332.5767142857143L1091.3972445464983,301.15214285714285L1091.8358208955226,324.7205714285714L1092.9322617680828,274.96500000000003L1093.8094144661309,209.49714285714285L1094.6865671641792,175.71572857142857L1095.7830080367396,352.87175L1096.8794489092998,327.3392857142857L1097.5373134328358,352.87175L1097.7566016073479,352.87175L1099.9494833524684,261.87142857142857L1101.0459242250288,352.87175L1106.5281285878302,350.2530357142857L1106.9667049368543,301.15214285714285L1107.1859931113663,349.59835714285714L1110.6946039035593,241.5763928571429L1111.5717566016076,281.51178571428574L1114.4225028702642,314.2457142857143L1114.6417910447763,331.2673571428571L1115.0803673938003,324.7205714285714L1116.1768082663607,341.7422142857143L1119.2468427095293,274.96500000000003L1121.6590126291621,352.87175L1124.0711825487947,351.56239285714287L1124.7290470723308,348.289L1125.1676234213548,273.2191817471429L1125.825487944891,225.2094285714286L1126.044776119403,301.15214285714285L1126.2640642939152,348.289L1127.1412169919633,170.21642857142857L1127.7990815154994,352.87175L1129.1148105625718,345.67028571428574L1131.9655568312287,350.9077142857143L1134.1584385763492,335.1954285714286L1136.7898966704936,288.05857142857144L1138.9827784156143,349.9846175L1139.4213547646384,261.87142857142857L1139.6406429391504,352.21707142857144L1141.614236509759,348.289L1143.8071182548795,324.7205714285714L1144.2456946039038,346.97964285714284L1144.4649827784158,137.48250000000002L1145.561423650976,352.87175L1147.3157290470724,350.2530357142857L1148.8507462686568,163.6696428571429L1150.166475315729,332.5767142857143L1152.5786452353616,301.15214285714285L1153.45579793341,352.87175L1155.6486796785305,316.86442857142856L1157.402985074627,352.87175L1157.622273249139,348.289L1159.8151549942595,167.5977142857143L1160.4730195177956,352.87175L1161.569460390356,345.67028571428574L1162.4466130884043,183.31L1164.2009184845006,314.2457142857143L1164.6394948335249,352.87175L1166.3938002296213,352.87175L1168.1481056257176,248.77785714285716L1175.1653272101034,340.43285714285713" fill="none" stroke-width="2" stroke="#00adc6" stroke-linejoin="round" stroke-dasharray="undefined" class="v-lines v-morphable-line"/></g><g><path d="M360.29047072330656,222.5907142857143L438.35706084959816,307.69892857142855L490.3283582089553,269.7275714285714L497.12629161882893,248.77785714285716L544.2732491389208,348.289L563.7898966704937,314.2457142857143L569.4913892078072,352.87175L576.5086107921929,297.22407142857145L602.8231917336395,183.31L637.0321469575201,294.60535714285714L656.7680826636051,280.2024285714286L660.276693455798,196.40357142857147L674.3111366245695,216.04392857142858L682.6440872560277,288.05857142857144L688.7841561423652,209.49714285714285L696.239954075775,261.87142857142857L724.089552238806,337.8141428571429L747.9919632606201,170.21642857142857L758.9563719862227,352.87175L763.3421354764639,314.2457142857143L769.9207807118255,274.96500000000003L778.2537313432837,235.68428571428572L786.8059701492538,340.43285714285713L795.1389207807119,345.01560714285716L803.9104477611941,206.87842857142857L805.2261768082665,206.87842857142857L851.276693455798,301.15214285714285L856.3203214695753,335.1277348071429L860.7060849598163,255.32464285714286L861.1446613088405,247.4685L871.012629161883,348.289L884.6084959816303,261.87142857142857L885.2663605051666,235.68428571428572L890.748564867968,352.21707142857144L906.97588978186,183.31L910.2652123995408,352.87175L914.4316877152698,314.2457142857143L918.598163030999,334.54075L924.9575200918484,352.87175L931.5361653272103,222.5907142857143L939.2112514351321,336.50478571428573L945.3513203214696,348.289L945.7898966704937,332.5767142857143L952.3685419058554,222.5907142857143L956.9735935706086,352.87175L958.2893226176809,274.96500000000003L969.4730195177957,352.87175L976.7095292766936,288.05857142857144L994.0332950631459,272.3462857142857L996.8840413318027,295.9147142857143L997.3226176808266,235.68428571428572L1001.9276693455797,337.8141428571429L1010.4799081515501,337.8141428571429L1010.6991963260621,327.3392857142857L1015.7428243398393,256.634L1017.7164179104477,235.68428571428572L1018.8128587830081,209.49714285714285L1031.5315729047074,352.87175L1034.601607347876,352.87175L1035.4787600459244,157.12285714285716L1036.7944890929966,255.32464285714286L1044.4695752009186,346.97964285714284L1049.7324913892078,316.86442857142856L1051.9253731343285,235.68428571428572L1055.2146957520092,348.289L1057.8461538461538,346.97964285714284L1071.2227324913893,246.15914285714288L1079.5556831228473,235.68428571428572L1081.5292766934558,248.77785714285716L1085.9150401836969,306.38957142857146L1090.3008036739382,345.67028571428574L1094.0287026406431,346.97964285714284L1104.9931113662458,193.78485714285713L1110.036739380023,344.3609285714286L1127.5797933409874,352.87175L1133.719862227325,352.87175L1134.377726750861,261.87142857142857L1139.2020665901264,248.77785714285716L1145.561423650976,348.289L1147.9735935706085,301.15214285714285L1154.5522388059703,337.1594642857143L1157.402985074627,324.7205714285714L1158.7187141216991,285.43985714285714L1161.788748564868,320.7925L1164.6394948335249,327.3392857142857L1167.7095292766935,352.87175L1170.3409873708383,340.43285714285713L1174.0688863375433,340.43285714285713" fill="none" stroke-width="2" stroke="#fccd8c" stroke-linejoin="round" stroke-dasharray="undefined" class="v-lines v-morphable-line"/></g></g></g></g><g class="v-referenceline-group" clip-path="url(#plot_main_clipPath_d833ba9e-d86b-4688-8305-d02420dd1232)"/></g><g class="v-m-timeAxis v-m-xAxis" transform="translate(60.853125, 366.62)"><rect class="v-bound" width="777.86" height="73.88" fill="transparent"/><g class="v-axis"><clipPath class="v-clippath" id="clip-path-47324dfa-66fa-488c-8bb7-6a9c3d0f4536"><rect x="-1" y="-1" width="779.86" height="39.4"/></clipPath><g class="v-m-axisScrollbar" transform="translate(0,37.4)"><g><rect class="v-m-scrollbarTrack" visibility="visible" fill="#f7f7f7" stroke-width="0" stroke="white" width="777.86" height="12"/><rect class="v-m-scrollbarThumb" visibility="visible" fill="#e5e5e5" width="316.7885757068063" height="12" transform="translate(161, 0)"/></g></g><g class="v-m-axisTitle" transform="translate(0,59.48)"><g class="v-title viz-axis-title" fill="#000000" font-size="12px" font-weight="normal" font-family="'Open Sans', Arial, Helvetica, sans-serif" font-style="normal"><text text-anchor="middle" dominant-baseline="auto" x="388.93" y="11.9"><tspan class="v-title viz-axis-title" dominant-baseline="auto">Birth Date</tspan></text></g></g><g class="v-m-axisBody" transform="translate(0,0)" clip-path="url(#clip-path-47324dfa-66fa-488c-8bb7-6a9c3d0f4536)"><clipPath class="v-clippath-labels" id="clip-path-c902c3c6-2257-487b-bf85-95d39a555be1"><rect x="-1" y="-1" width="779.86" height="39.4"/></clipPath><rect class="v-bound" width="777.86" height="37.4" fill="transparent"/><g class="v-line-group"><line class="v-valueaxisline v-line" stroke="#babab9" stroke-width="1" shape-rendering="crispEdges" x1="-0.5" y1="0" x2="778.36" y2="0"/></g><g clip-path="url(#clip-path-c902c3c6-2257-487b-bf85-95d39a555be1)"><g class="v-label-group"><g class="v-label v-morphable-label viz-axis-label" fill="#737373" font-size="11px" font-weight="normal" font-family="'Open Sans', Arial, Helvetica, sans-serif" font-style="normal"><text class="v-label-baseLevel" x="-17.53692064268847" y="21.7">1975</text></g><g class="v-label v-morphable-label viz-axis-label" fill="#737373" font-size="11px" font-weight="normal" font-family="'Open Sans', Arial, Helvetica, sans-serif" font-style="normal"><text class="v-label-baseLevel" x="62.503263054211686" y="21.7">1976</text></g><g class="v-label v-morphable-label viz-axis-label" fill="#737373" font-size="11px" font-weight="normal" font-family="'Open Sans', Arial, Helvetica, sans-serif" font-style="normal"><text class="v-label-baseLevel" x="142.76273492562382" y="21.7">1977</text></g><g class="v-label v-morphable-label viz-axis-label" fill="#737373" font-size="11px" font-weight="normal" font-family="'Open Sans', Arial, Helvetica, sans-serif" font-style="normal"><text class="v-label-baseLevel" x="222.80291862252398" y="21.7">1978</text></g><g class="v-label v-morphable-label viz-axis-label" fill="#737373" font-size="11px" font-weight="normal" font-family="'Open Sans', Arial, Helvetica, sans-serif" font-style="normal"><text class="v-label-baseLevel" x="302.84310231942413" y="21.7">1979</text></g><g class="v-label v-morphable-label viz-axis-label" fill="#737373" font-size="11px" font-weight="normal" font-family="'Open Sans', Arial, Helvetica, sans-serif" font-style="normal"><text class="v-label-baseLevel" x="382.8832860163242" y="21.7">1980</text></g><g class="v-label v-morphable-label viz-axis-label" fill="#737373" font-size="11px" font-weight="normal" font-family="'Open Sans', Arial, Helvetica, sans-serif" font-style="normal"><text class="v-label-baseLevel" x="463.14275788773637" y="21.7">1981</text></g><g class="v-label v-morphable-label viz-axis-label" fill="#737373" font-size="11px" font-weight="normal" font-family="'Open Sans', Arial, Helvetica, sans-serif" font-style="normal"><text class="v-label-baseLevel" x="543.1829415846365" y="21.7">1982</text></g><g class="v-label v-morphable-label viz-axis-label" fill="#737373" font-size="11px" font-weight="normal" font-family="'Open Sans', Arial, Helvetica, sans-serif" font-style="normal"><text class="v-label-baseLevel" x="623.2231252815366" y="21.7">1983</text></g><g class="v-label v-morphable-label viz-axis-label" fill="#737373" font-size="11px" font-weight="normal" font-family="'Open Sans', Arial, Helvetica, sans-serif" font-style="normal"><text class="v-label-baseLevel" x="703.2633089784367" y="21.7">1984</text></g><g class="v-label v-morphable-label viz-axis-label" fill="#737373" font-size="11px" font-weight="normal" font-family="'Open Sans', Arial, Helvetica, sans-serif" font-style="normal"><text class="v-label-baseLevel" x="783.5227808498489" y="21.7">1985</text></g><g class="v-label v-morphable-label viz-axis-label" fill="#737373" font-size="11px" font-weight="normal" font-family="'Open Sans', Arial, Helvetica, sans-serif" font-style="normal"><text class="v-label-baseLevel" x="863.5629645467491" y="21.7">1986</text></g></g></g></g></g></g><g class="v-m-valueAxis v-m-yAxis" transform="translate(0, 0)"><rect class="v-bound" width="60.853125" height="366.62" fill="transparent"/><g class="v-axis"><g class="v-m-axisTitle" transform="translate(-1.7763568394002505e-15,0)"><g class="v-title viz-axis-title" fill="#000000" font-size="12px" font-weight="normal" font-family="'Open Sans', Arial, Helvetica, sans-serif" font-style="normal"><text text-anchor="middle" dominant-baseline="auto" x="11.9" y="183.31" transform="rotate(-90,11.9,183.31)"><tspan class="v-title viz-axis-title" dominant-baseline="auto">Salary</tspan></text></g></g><g class="v-m-axisBody" transform="translate(30.4,0)"><clipPath class="v-clippath-labels" id="clip-path-86c9f4f1-2824-4b30-8857-fc0438e21be0"><rect x="-1" y="-10" width="32.453125" height="386.62"/></clipPath><clipPath class="v-clippath-ticks" id="clip-path-3d019ca0-0f20-4d9c-8c24-c336ffe8b1ee"><rect x="-1" y="-1" width="32.453125" height="368.62"/></clipPath><rect class="v-bound" width="30.453125" height="366.62" fill="transparent"/><g clip-path="url(#clip-path-3d019ca0-0f20-4d9c-8c24-c336ffe8b1ee)"><g class="v-tick-group"><line class="v-valueaxisline v-tick" stroke="#878786" stroke-width="1" shape-rendering="crispEdges" x1="30.453125" y1="366.62" x2="25.453125" y2="366.62"/><line class="v-valueaxisline v-tick" stroke="#878786" stroke-width="1" shape-rendering="crispEdges" x1="30.453125" y1="314.24571429" x2="25.453125" y2="314.24571429"/><line class="v-valueaxisline v-tick" stroke="#878786" stroke-width="1" shape-rendering="crispEdges" x1="30.453125" y1="261.87142857" x2="25.453125" y2="261.87142857"/><line class="v-valueaxisline v-tick" stroke="#878786" stroke-width="1" shape-rendering="crispEdges" x1="30.453125" y1="209.49714286" x2="25.453125" y2="209.49714286"/><line class="v-valueaxisline v-tick" stroke="#878786" stroke-width="1" shape-rendering="crispEdges" x1="30.453125" y1="157.12285714" x2="25.453125" y2="157.12285714"/><line class="v-valueaxisline v-tick" stroke="#878786" stroke-width="1" shape-rendering="crispEdges" x1="30.453125" y1="104.74857143" x2="25.453125" y2="104.74857143"/><line class="v-valueaxisline v-tick" stroke="#878786" stroke-width="1" shape-rendering="crispEdges" x1="30.453125" y1="52.37428571" x2="25.453125" y2="52.37428571"/><line class="v-valueaxisline v-tick" stroke="#878786" stroke-width="1" shape-rendering="crispEdges" x1="30.453125" y1="0" x2="25.453125" y2="0"/></g></g><g clip-path="url(#clip-path-86c9f4f1-2824-4b30-8857-fc0438e21be0)"><g class="v-label-group"><g class="v-label v-morphable-label viz-axis-label" fill="#737373" font-size="10px" font-weight="normal" font-family="'Open Sans', Arial, Helvetica, sans-serif" font-style="normal"><text text-anchor="end" x="19.453125" y="370.62">0</text></g><g class="v-label v-morphable-label viz-axis-label" fill="#737373" font-size="10px" font-weight="normal" font-family="'Open Sans', Arial, Helvetica, sans-serif" font-style="normal"><text text-anchor="end" x="19.453125" y="318.2457142857143">2M</text></g><g class="v-label v-morphable-label viz-axis-label" fill="#737373" font-size="10px" font-weight="normal" font-family="'Open Sans', Arial, Helvetica, sans-serif" font-style="normal"><text text-anchor="end" x="19.453125" y="265.87142857142857">4M</text></g><g class="v-label v-morphable-label viz-axis-label" fill="#737373" font-size="10px" font-weight="normal" font-family="'Open Sans', Arial, Helvetica, sans-serif" font-style="normal"><text text-anchor="end" x="19.453125" y="213.49714285714288">6M</text></g><g class="v-label v-morphable-label viz-axis-label" fill="#737373" font-size="10px" font-weight="normal" font-family="'Open Sans', Arial, Helvetica, sans-serif" font-style="normal"><text text-anchor="end" x="19.453125" y="161.12285714285716">8M</text></g><g class="v-label v-morphable-label viz-axis-label" fill="#737373" font-size="10px" font-weight="normal" font-family="'Open Sans', Arial, Helvetica, sans-serif" font-style="normal"><text text-anchor="end" x="19.453125" y="108.74857142857144">10M</text></g><g class="v-label v-morphable-label viz-axis-label" fill="#737373" font-size="10px" font-weight="normal" font-family="'Open Sans', Arial, Helvetica, sans-serif" font-style="normal"><text text-anchor="end" x="19.453125" y="56.37428571428575">12M</text></g><g class="v-label v-morphable-label viz-axis-label" fill="#737373" font-size="10px" font-weight="normal" font-family="'Open Sans', Arial, Helvetica, sans-serif" font-style="normal"><text text-anchor="end" x="19.453125" y="4.000000000000057">14M</text></g></g></g></g></g></g></g><g class="v-m-action-layer-group"/></svg>