<?xml version="1.0" encoding="utf-8"?>
<!-- Generator: Adobe Illustrator 15.1.0, SVG Export Plug-In . SVG Version: 6.00 Build 0)  -->
<!DOCTYPE svg PUBLIC "-//W3C//DTD SVG 1.1//EN" "http://www.w3.org/Graphics/SVG/1.1/DTD/svg11.dtd">
<svg version="1.1" id="Layer_1" xmlns="http://www.w3.org/2000/svg" xmlns:xlink="http://www.w3.org/1999/xlink" x="0px" y="0px"
	 width="1141.304px" height="578.261px" viewBox="0 0 1141.304 578.261" enable-background="new 0 0 1141.304 578.261"
	 xml:space="preserve">

<g>
	<defs>
		<rect id="SVGID_359_" x="86.148" y="95.652" width="882.489" height="397.64"/>
	</defs>
	<clipPath id="SVGID_360_">
		<use xlink:href="#SVGID_359_"  overflow="visible"/>
	</clipPath>
</g>
<g>
	<defs>
		<rect id="SVGID_361_" x="86.148" y="95.652" width="882.489" height="397.64"/>
	</defs>
	<clipPath id="SVGID_362_">
		<use xlink:href="#SVGID_361_"  overflow="visible"/>
	</clipPath>
</g>
<g>
	<defs>
		<rect id="SVGID_363_" x="86.148" y="94.652" width="883.489" height="398.64"/>
	</defs>
	<clipPath id="SVGID_364_">
		<use xlink:href="#SVGID_363_"  overflow="visible"/>
	</clipPath>
	<g opacity="0.2" clip-path="url(#SVGID_364_)" enable-background="new    ">
		<g>
			<defs>
				<rect id="SVGID_365_" x="85.653" y="104.652" width="883" height="379"/>
			</defs>
			<clipPath id="SVGID_366_">
				<use xlink:href="#SVGID_365_"  overflow="visible"/>
			</clipPath>
			<g clip-path="url(#SVGID_366_)">
				<defs>
					<rect id="SVGID_367_" x="86.148" y="105.594" width="352.996" height="19.882"/>
				</defs>
				<clipPath id="SVGID_368_">
					<use xlink:href="#SVGID_367_"  overflow="visible"/>
				</clipPath>
				<g clip-path="url(#SVGID_368_)">
					<defs>
						<rect id="SVGID_369_" x="85.653" y="94.652" width="884" height="399"/>
					</defs>
					<clipPath id="SVGID_370_">
						<use xlink:href="#SVGID_369_"  overflow="visible"/>
					</clipPath>
					<rect x="81.148" y="100.594" clip-path="url(#SVGID_370_)" fill="#8A8A8A" width="362.996" height="29.882"/>
				</g>
			</g>
			<g clip-path="url(#SVGID_366_)">
				<defs>
					<rect id="SVGID_371_" x="86.148" y="145.357" width="529.493" height="19.882"/>
				</defs>
				<clipPath id="SVGID_372_">
					<use xlink:href="#SVGID_371_"  overflow="visible"/>
				</clipPath>
				<g clip-path="url(#SVGID_372_)">
					<defs>
						<rect id="SVGID_373_" x="85.653" y="94.652" width="884" height="399"/>
					</defs>
					<clipPath id="SVGID_374_">
						<use xlink:href="#SVGID_373_"  overflow="visible"/>
					</clipPath>
					<rect x="81.148" y="140.357" clip-path="url(#SVGID_374_)" fill="#8A8A8A" width="539.493" height="29.882"/>
				</g>
			</g>
			<g clip-path="url(#SVGID_366_)">
				<defs>
					<rect id="SVGID_375_" x="86.148" y="185.121" width="441.245" height="19.882"/>
				</defs>
				<clipPath id="SVGID_376_">
					<use xlink:href="#SVGID_375_"  overflow="visible"/>
				</clipPath>
				<g clip-path="url(#SVGID_376_)">
					<defs>
						<rect id="SVGID_377_" x="85.653" y="94.652" width="884" height="399"/>
					</defs>
					<clipPath id="SVGID_378_">
						<use xlink:href="#SVGID_377_"  overflow="visible"/>
					</clipPath>
					<rect x="81.148" y="180.121" clip-path="url(#SVGID_378_)" fill="#8A8A8A" width="451.245" height="29.882"/>
				</g>
			</g>
			<g clip-path="url(#SVGID_366_)">
				<defs>
					<rect id="SVGID_379_" x="86.148" y="224.886" width="564.793" height="19.882"/>
				</defs>
				<clipPath id="SVGID_380_">
					<use xlink:href="#SVGID_379_"  overflow="visible"/>
				</clipPath>
				<g clip-path="url(#SVGID_380_)">
					<defs>
						<rect id="SVGID_381_" x="85.653" y="94.652" width="884" height="399"/>
					</defs>
					<clipPath id="SVGID_382_">
						<use xlink:href="#SVGID_381_"  overflow="visible"/>
					</clipPath>
					<rect x="81.148" y="219.886" clip-path="url(#SVGID_382_)" fill="#8A8A8A" width="574.793" height="29.882"/>
				</g>
			</g>
			<g clip-path="url(#SVGID_366_)">
				<defs>
					<rect id="SVGID_383_" x="86.148" y="264.649" width="617.742" height="19.882"/>
				</defs>
				<clipPath id="SVGID_384_">
					<use xlink:href="#SVGID_383_"  overflow="visible"/>
				</clipPath>
				<g clip-path="url(#SVGID_384_)">
					<defs>
						<rect id="SVGID_385_" x="85.653" y="94.652" width="884" height="399"/>
					</defs>
					<clipPath id="SVGID_386_">
						<use xlink:href="#SVGID_385_"  overflow="visible"/>
					</clipPath>
					<rect x="81.148" y="259.649" clip-path="url(#SVGID_386_)" fill="#8A8A8A" width="627.742" height="29.882"/>
				</g>
			</g>
			<g clip-path="url(#SVGID_366_)">
				<defs>
					<rect id="SVGID_387_" x="86.148" y="304.413" width="705.991" height="19.882"/>
				</defs>
				<clipPath id="SVGID_388_">
					<use xlink:href="#SVGID_387_"  overflow="visible"/>
				</clipPath>
				<g clip-path="url(#SVGID_388_)">
					<defs>
						<rect id="SVGID_389_" x="85.653" y="94.652" width="884" height="399"/>
					</defs>
					<clipPath id="SVGID_390_">
						<use xlink:href="#SVGID_389_"  overflow="visible"/>
					</clipPath>
					<rect x="81.148" y="299.413" clip-path="url(#SVGID_390_)" fill="#8A8A8A" width="715.991" height="29.882"/>
				</g>
			</g>
			<g clip-path="url(#SVGID_366_)">
				<defs>
					<rect id="SVGID_391_" x="86.148" y="344.178" width="617.742" height="19.882"/>
				</defs>
				<clipPath id="SVGID_392_">
					<use xlink:href="#SVGID_391_"  overflow="visible"/>
				</clipPath>
				<g clip-path="url(#SVGID_392_)">
					<defs>
						<rect id="SVGID_393_" x="85.653" y="94.652" width="884" height="399"/>
					</defs>
					<clipPath id="SVGID_394_">
						<use xlink:href="#SVGID_393_"  overflow="visible"/>
					</clipPath>
					<rect x="81.148" y="339.178" clip-path="url(#SVGID_394_)" fill="#8A8A8A" width="627.742" height="29.882"/>
				</g>
			</g>
			<g clip-path="url(#SVGID_366_)">
				<defs>
					<rect id="SVGID_395_" x="86.148" y="383.941" width="882.489" height="19.882"/>
				</defs>
				<clipPath id="SVGID_396_">
					<use xlink:href="#SVGID_395_"  overflow="visible"/>
				</clipPath>
				<g clip-path="url(#SVGID_396_)">
					<defs>
						<rect id="SVGID_397_" x="85.653" y="94.652" width="884" height="399"/>
					</defs>
					<clipPath id="SVGID_398_">
						<use xlink:href="#SVGID_397_"  overflow="visible"/>
					</clipPath>
					<rect x="81.148" y="378.941" clip-path="url(#SVGID_398_)" fill="#8A8A8A" width="892.489" height="29.882"/>
				</g>
			</g>
			<g clip-path="url(#SVGID_366_)">
				<defs>
					<rect id="SVGID_399_" x="86.148" y="423.705" width="617.742" height="19.882"/>
				</defs>
				<clipPath id="SVGID_400_">
					<use xlink:href="#SVGID_399_"  overflow="visible"/>
				</clipPath>
				<g clip-path="url(#SVGID_400_)">
					<defs>
						<rect id="SVGID_401_" x="85.653" y="94.652" width="884" height="399"/>
					</defs>
					<clipPath id="SVGID_402_">
						<use xlink:href="#SVGID_401_"  overflow="visible"/>
					</clipPath>
					<rect x="81.148" y="418.705" clip-path="url(#SVGID_402_)" fill="#8A8A8A" width="627.742" height="29.882"/>
				</g>
			</g>
			<g clip-path="url(#SVGID_366_)">
				<defs>
					<rect id="SVGID_403_" x="86.148" y="463.47" width="529.493" height="19.882"/>
				</defs>
				<clipPath id="SVGID_404_">
					<use xlink:href="#SVGID_403_"  overflow="visible"/>
				</clipPath>
				<g clip-path="url(#SVGID_404_)">
					<defs>
						<rect id="SVGID_405_" x="85.653" y="94.652" width="884" height="399"/>
					</defs>
					<clipPath id="SVGID_406_">
						<use xlink:href="#SVGID_405_"  overflow="visible"/>
					</clipPath>
					<rect x="81.148" y="458.47" clip-path="url(#SVGID_406_)" fill="#8A8A8A" width="539.493" height="29.882"/>
				</g>
			</g>
		</g>
	</g>
</g>
<rect x="9.653" y="95.652" fill-rule="evenodd" clip-rule="evenodd" fill="none" width="76.495" height="397.64"/>
<text transform="matrix(0 -1 1 0 26.6411 306.9883)" opacity="0.4" fill="#8A8A8A" font-family="'Helvetica'" font-size="14">Dimension</text>
<g>
	<defs>
		<line id="SVGID_407_" x1="86.148" y1="95.652" x2="81.148" y2="95.652"/>
	</defs>
	<clipPath id="SVGID_408_">
		<use xlink:href="#SVGID_407_"  overflow="visible"/>
	</clipPath>
	<rect x="76.148" y="90.652" clip-path="url(#SVGID_408_)" width="15" height="10"/>
</g>
<line fill="none" stroke="#ADADAD" stroke-miterlimit="10" x1="86.148" y1="95.652" x2="81.148" y2="95.652"/>
<g>
	<defs>
		<line id="SVGID_409_" x1="86.148" y1="135.416" x2="81.148" y2="135.416"/>
	</defs>
	<clipPath id="SVGID_410_">
		<use xlink:href="#SVGID_409_"  overflow="visible"/>
	</clipPath>
	<rect x="76.148" y="130.416" clip-path="url(#SVGID_410_)" width="15" height="10"/>
</g>
<line fill="none" stroke="#ADADAD" stroke-miterlimit="10" x1="86.148" y1="135.416" x2="81.148" y2="135.416"/>
<g>
	<defs>
		<line id="SVGID_411_" x1="86.148" y1="175.181" x2="81.148" y2="175.181"/>
	</defs>
	<clipPath id="SVGID_412_">
		<use xlink:href="#SVGID_411_"  overflow="visible"/>
	</clipPath>
	<rect x="76.148" y="170.181" clip-path="url(#SVGID_412_)" width="15" height="10"/>
</g>
<line fill="none" stroke="#ADADAD" stroke-miterlimit="10" x1="86.148" y1="175.181" x2="81.148" y2="175.181"/>
<g>
	<defs>
		<line id="SVGID_413_" x1="86.148" y1="214.944" x2="81.148" y2="214.944"/>
	</defs>
	<clipPath id="SVGID_414_">
		<use xlink:href="#SVGID_413_"  overflow="visible"/>
	</clipPath>
	<rect x="76.148" y="209.944" clip-path="url(#SVGID_414_)" width="15" height="10"/>
</g>
<line fill="none" stroke="#ADADAD" stroke-miterlimit="10" x1="86.148" y1="214.944" x2="81.148" y2="214.944"/>
<g>
	<defs>
		<line id="SVGID_415_" x1="86.148" y1="254.708" x2="81.148" y2="254.708"/>
	</defs>
	<clipPath id="SVGID_416_">
		<use xlink:href="#SVGID_415_"  overflow="visible"/>
	</clipPath>
	<rect x="76.148" y="249.708" clip-path="url(#SVGID_416_)" width="15" height="10"/>
</g>
<line fill="none" stroke="#ADADAD" stroke-miterlimit="10" x1="86.148" y1="254.708" x2="81.148" y2="254.708"/>
<g>
	<defs>
		<line id="SVGID_417_" x1="86.148" y1="294.473" x2="81.148" y2="294.473"/>
	</defs>
	<clipPath id="SVGID_418_">
		<use xlink:href="#SVGID_417_"  overflow="visible"/>
	</clipPath>
	<rect x="76.148" y="289.473" clip-path="url(#SVGID_418_)" width="15" height="10"/>
</g>
<line fill="none" stroke="#ADADAD" stroke-miterlimit="10" x1="86.148" y1="294.473" x2="81.148" y2="294.473"/>
<g>
	<defs>
		<line id="SVGID_419_" x1="86.148" y1="334.236" x2="81.148" y2="334.236"/>
	</defs>
	<clipPath id="SVGID_420_">
		<use xlink:href="#SVGID_419_"  overflow="visible"/>
	</clipPath>
	<rect x="76.148" y="329.236" clip-path="url(#SVGID_420_)" width="15" height="10"/>
</g>
<line fill="none" stroke="#ADADAD" stroke-miterlimit="10" x1="86.148" y1="334.236" x2="81.148" y2="334.236"/>
<g>
	<defs>
		<line id="SVGID_421_" x1="86.148" y1="374" x2="81.148" y2="374"/>
	</defs>
	<clipPath id="SVGID_422_">
		<use xlink:href="#SVGID_421_"  overflow="visible"/>
	</clipPath>
	<rect x="76.148" y="369" clip-path="url(#SVGID_422_)" width="15" height="10"/>
</g>
<line fill="none" stroke="#ADADAD" stroke-miterlimit="10" x1="86.148" y1="374" x2="81.148" y2="374"/>
<g>
	<defs>
		<line id="SVGID_423_" x1="86.148" y1="413.765" x2="81.148" y2="413.765"/>
	</defs>
	<clipPath id="SVGID_424_">
		<use xlink:href="#SVGID_423_"  overflow="visible"/>
	</clipPath>
	<rect x="76.148" y="408.765" clip-path="url(#SVGID_424_)" width="15" height="10"/>
</g>
<line fill="none" stroke="#ADADAD" stroke-miterlimit="10" x1="86.148" y1="413.765" x2="81.148" y2="413.765"/>
<g>
	<defs>
		<line id="SVGID_425_" x1="86.148" y1="453.528" x2="81.148" y2="453.528"/>
	</defs>
	<clipPath id="SVGID_426_">
		<use xlink:href="#SVGID_425_"  overflow="visible"/>
	</clipPath>
	<rect x="76.148" y="448.528" clip-path="url(#SVGID_426_)" width="15" height="10"/>
</g>
<line fill="none" stroke="#ADADAD" stroke-miterlimit="10" x1="86.148" y1="453.528" x2="81.148" y2="453.528"/>
<g>
	<defs>
		<line id="SVGID_427_" x1="86.148" y1="493.292" x2="81.148" y2="493.292"/>
	</defs>
	<clipPath id="SVGID_428_">
		<use xlink:href="#SVGID_427_"  overflow="visible"/>
	</clipPath>
	<rect x="76.148" y="488.292" clip-path="url(#SVGID_428_)" width="15" height="10"/>
</g>
<line fill="none" stroke="#ADADAD" stroke-miterlimit="10" x1="86.148" y1="493.292" x2="81.148" y2="493.292"/>
<g>
	<defs>
		<line id="SVGID_429_" x1="86.148" y1="95.152" x2="86.148" y2="493.792"/>
	</defs>
	<clipPath id="SVGID_430_">
		<use xlink:href="#SVGID_429_"  overflow="visible"/>
	</clipPath>
	<rect x="81.148" y="90.152" clip-path="url(#SVGID_430_)" width="10" height="408.64"/>
</g>
<line opacity="0.3" fill="none" stroke="#ADADAD" stroke-miterlimit="10" x1="86.148" y1="95.152" x2="86.148" y2="493.792"/>
<g>
	<defs>
		<rect id="SVGID_431_" x="43.453" y="96.652" width="41.695" height="37.764"/>
	</defs>
	<clipPath id="SVGID_432_">
		<use xlink:href="#SVGID_431_"  overflow="visible"/>
	</clipPath>
</g>
<text transform="matrix(1 0 0 1 53.1484 120.2344)" opacity="0.4" fill="#8A8A8A" font-family="'Helvetica'" font-size="12">abc1</text>
<g>
	<defs>
		<rect id="SVGID_433_" x="43.453" y="136.416" width="41.695" height="37.765"/>
	</defs>
	<clipPath id="SVGID_434_">
		<use xlink:href="#SVGID_433_"  overflow="visible"/>
	</clipPath>
</g>
<text transform="matrix(1 0 0 1 53.1484 159.998)" opacity="0.4" fill="#8A8A8A" font-family="'Helvetica'" font-size="12">abc2</text>
<g>
	<defs>
		<rect id="SVGID_435_" x="43.453" y="176.181" width="41.695" height="37.764"/>
	</defs>
	<clipPath id="SVGID_436_">
		<use xlink:href="#SVGID_435_"  overflow="visible"/>
	</clipPath>
</g>
<text transform="matrix(1 0 0 1 53.1484 199.7627)" opacity="0.4" fill="#8A8A8A" font-family="'Helvetica'" font-size="12">abc3</text>
<g>
	<defs>
		<rect id="SVGID_437_" x="43.453" y="215.944" width="41.695" height="37.764"/>
	</defs>
	<clipPath id="SVGID_438_">
		<use xlink:href="#SVGID_437_"  overflow="visible"/>
	</clipPath>
</g>
<text transform="matrix(1 0 0 1 53.1484 239.5264)" opacity="0.4" fill="#8A8A8A" font-family="'Helvetica'" font-size="12">abc4</text>
<g>
	<defs>
		<rect id="SVGID_439_" x="43.453" y="255.708" width="41.695" height="37.765"/>
	</defs>
	<clipPath id="SVGID_440_">
		<use xlink:href="#SVGID_439_"  overflow="visible"/>
	</clipPath>
</g>
<text transform="matrix(1 0 0 1 53.1484 279.29)" opacity="0.4" fill="#8A8A8A" font-family="'Helvetica'" font-size="12">abc5</text>
<g>
	<defs>
		<rect id="SVGID_441_" x="43.453" y="295.473" width="41.695" height="37.764"/>
	</defs>
	<clipPath id="SVGID_442_">
		<use xlink:href="#SVGID_441_"  overflow="visible"/>
	</clipPath>
</g>
<text transform="matrix(1 0 0 1 53.1484 319.0547)" opacity="0.4" fill="#8A8A8A" font-family="'Helvetica'" font-size="12">abc6</text>
<g>
	<defs>
		<rect id="SVGID_443_" x="43.453" y="335.236" width="41.695" height="37.764"/>
	</defs>
	<clipPath id="SVGID_444_">
		<use xlink:href="#SVGID_443_"  overflow="visible"/>
	</clipPath>
</g>
<text transform="matrix(1 0 0 1 53.1484 358.8184)" opacity="0.4" fill="#8A8A8A" font-family="'Helvetica'" font-size="12">abc7</text>
<g>
	<defs>
		<rect id="SVGID_445_" x="43.453" y="375" width="41.695" height="37.765"/>
	</defs>
	<clipPath id="SVGID_446_">
		<use xlink:href="#SVGID_445_"  overflow="visible"/>
	</clipPath>
</g>
<text transform="matrix(1 0 0 1 53.1484 398.582)" opacity="0.4" fill="#8A8A8A" font-family="'Helvetica'" font-size="12">abc8</text>
<g>
	<defs>
		<rect id="SVGID_447_" x="43.453" y="414.765" width="41.695" height="37.764"/>
	</defs>
	<clipPath id="SVGID_448_">
		<use xlink:href="#SVGID_447_"  overflow="visible"/>
	</clipPath>
</g>
<text transform="matrix(1 0 0 1 53.1484 438.3467)" opacity="0.4" fill="#8A8A8A" font-family="'Helvetica'" font-size="12">abc9</text>
<g>
	<defs>
		<rect id="SVGID_449_" x="43.453" y="454.528" width="41.695" height="37.764"/>
	</defs>
	<clipPath id="SVGID_450_">
		<use xlink:href="#SVGID_449_"  overflow="visible"/>
	</clipPath>
</g>
<text transform="matrix(1 0 0 1 47.1484 478.1104)" opacity="0.4" fill="#8A8A8A" font-family="'Helvetica'" font-size="12">abc10</text>
<g>
	<defs>
		<rect id="SVGID_451_" x="78.812" y="493.292" width="889.826" height="52.36"/>
	</defs>
	<clipPath id="SVGID_452_">
		<use xlink:href="#SVGID_451_"  overflow="visible"/>
	</clipPath>
</g>
<text transform="matrix(1 0 0 1 499.8931 542.6523)" opacity="0.4" fill="#8A8A8A" font-family="'Helvetica'" font-size="14">Measure</text>
<g>
	<defs>
		<rect id="SVGID_453_" x="86.148" y="493.292" width="882.489" height="25.4"/>
	</defs>
	<clipPath id="SVGID_454_">
		<use xlink:href="#SVGID_453_"  overflow="visible"/>
	</clipPath>
</g>
<g>
	<defs>
		<line id="SVGID_455_" x1="85.648" y1="493.292" x2="969.138" y2="493.292"/>
	</defs>
	<clipPath id="SVGID_456_">
		<use xlink:href="#SVGID_455_"  overflow="visible"/>
	</clipPath>
	<rect x="80.648" y="488.292" clip-path="url(#SVGID_456_)" width="893.489" height="10"/>
</g>
<line fill="none" stroke="#ADADAD" stroke-miterlimit="10" x1="85.648" y1="493.292" x2="969.138" y2="493.292"/>
<g>
	<defs>
		<rect id="SVGID_457_" x="85.148" y="492.292" width="884.489" height="27.4"/>
	</defs>
	<clipPath id="SVGID_458_">
		<use xlink:href="#SVGID_457_"  overflow="visible"/>
	</clipPath>
	<g clip-path="url(#SVGID_458_)" enable-background="new    ">
		<g>
			<defs>
				<rect id="SVGID_459_" x="84.653" y="491.652" width="885" height="12"/>
			</defs>
			<clipPath id="SVGID_460_">
				<use xlink:href="#SVGID_459_"  overflow="visible"/>
			</clipPath>
			<g clip-path="url(#SVGID_460_)">
				<defs>
					<line id="SVGID_461_" x1="86.148" y1="493.292" x2="86.148" y2="498.292"/>
				</defs>
				<clipPath id="SVGID_462_">
					<use xlink:href="#SVGID_461_"  overflow="visible"/>
				</clipPath>
				<g clip-path="url(#SVGID_462_)">
					<defs>
						<rect id="SVGID_463_" x="84.653" y="491.652" width="885" height="29"/>
					</defs>
					<clipPath id="SVGID_464_">
						<use xlink:href="#SVGID_463_"  overflow="visible"/>
					</clipPath>
					<rect x="81.148" y="488.292" clip-path="url(#SVGID_464_)" width="10" height="15"/>
				</g>
			</g>
			<g clip-path="url(#SVGID_460_)">
				<defs>
					<rect id="SVGID_465_" x="84.653" y="491.652" width="885" height="29"/>
				</defs>
				<clipPath id="SVGID_466_">
					<use xlink:href="#SVGID_465_"  overflow="visible"/>
				</clipPath>
				
					<line clip-path="url(#SVGID_466_)" fill="none" stroke="#ADADAD" stroke-miterlimit="10" x1="86.148" y1="493.292" x2="86.148" y2="498.292"/>
			</g>
			<g clip-path="url(#SVGID_460_)">
				<defs>
					<line id="SVGID_467_" x1="174.397" y1="493.292" x2="174.397" y2="498.292"/>
				</defs>
				<clipPath id="SVGID_468_">
					<use xlink:href="#SVGID_467_"  overflow="visible"/>
				</clipPath>
				<g clip-path="url(#SVGID_468_)">
					<defs>
						<rect id="SVGID_469_" x="84.653" y="491.652" width="885" height="29"/>
					</defs>
					<clipPath id="SVGID_470_">
						<use xlink:href="#SVGID_469_"  overflow="visible"/>
					</clipPath>
					<rect x="169.397" y="488.292" clip-path="url(#SVGID_470_)" width="10" height="15"/>
				</g>
			</g>
			<g clip-path="url(#SVGID_460_)">
				<defs>
					<rect id="SVGID_471_" x="84.653" y="491.652" width="885" height="29"/>
				</defs>
				<clipPath id="SVGID_472_">
					<use xlink:href="#SVGID_471_"  overflow="visible"/>
				</clipPath>
				
					<line clip-path="url(#SVGID_472_)" fill="none" stroke="#ADADAD" stroke-miterlimit="10" x1="174.397" y1="493.292" x2="174.397" y2="498.292"/>
			</g>
			<g clip-path="url(#SVGID_460_)">
				<defs>
					<line id="SVGID_473_" x1="262.646" y1="493.292" x2="262.646" y2="498.292"/>
				</defs>
				<clipPath id="SVGID_474_">
					<use xlink:href="#SVGID_473_"  overflow="visible"/>
				</clipPath>
				<g clip-path="url(#SVGID_474_)">
					<defs>
						<rect id="SVGID_475_" x="84.653" y="491.652" width="885" height="29"/>
					</defs>
					<clipPath id="SVGID_476_">
						<use xlink:href="#SVGID_475_"  overflow="visible"/>
					</clipPath>
					<rect x="257.646" y="488.292" clip-path="url(#SVGID_476_)" width="10" height="15"/>
				</g>
			</g>
			<g clip-path="url(#SVGID_460_)">
				<defs>
					<rect id="SVGID_477_" x="84.653" y="491.652" width="885" height="29"/>
				</defs>
				<clipPath id="SVGID_478_">
					<use xlink:href="#SVGID_477_"  overflow="visible"/>
				</clipPath>
				
					<line clip-path="url(#SVGID_478_)" fill="none" stroke="#ADADAD" stroke-miterlimit="10" x1="262.646" y1="493.292" x2="262.646" y2="498.292"/>
			</g>
			<g clip-path="url(#SVGID_460_)">
				<defs>
					<line id="SVGID_479_" x1="350.896" y1="493.292" x2="350.896" y2="498.292"/>
				</defs>
				<clipPath id="SVGID_480_">
					<use xlink:href="#SVGID_479_"  overflow="visible"/>
				</clipPath>
				<g clip-path="url(#SVGID_480_)">
					<defs>
						<rect id="SVGID_481_" x="84.653" y="491.652" width="885" height="29"/>
					</defs>
					<clipPath id="SVGID_482_">
						<use xlink:href="#SVGID_481_"  overflow="visible"/>
					</clipPath>
					<rect x="345.896" y="488.292" clip-path="url(#SVGID_482_)" width="10" height="15"/>
				</g>
			</g>
			<g clip-path="url(#SVGID_460_)">
				<defs>
					<rect id="SVGID_483_" x="84.653" y="491.652" width="885" height="29"/>
				</defs>
				<clipPath id="SVGID_484_">
					<use xlink:href="#SVGID_483_"  overflow="visible"/>
				</clipPath>
				
					<line clip-path="url(#SVGID_484_)" fill="none" stroke="#ADADAD" stroke-miterlimit="10" x1="350.896" y1="493.292" x2="350.896" y2="498.292"/>
			</g>
			<g clip-path="url(#SVGID_460_)">
				<defs>
					<line id="SVGID_485_" x1="439.145" y1="493.292" x2="439.145" y2="498.292"/>
				</defs>
				<clipPath id="SVGID_486_">
					<use xlink:href="#SVGID_485_"  overflow="visible"/>
				</clipPath>
				<g clip-path="url(#SVGID_486_)">
					<defs>
						<rect id="SVGID_487_" x="84.653" y="491.652" width="885" height="29"/>
					</defs>
					<clipPath id="SVGID_488_">
						<use xlink:href="#SVGID_487_"  overflow="visible"/>
					</clipPath>
					<rect x="434.145" y="488.292" clip-path="url(#SVGID_488_)" width="10" height="15"/>
				</g>
			</g>
			<g clip-path="url(#SVGID_460_)">
				<defs>
					<rect id="SVGID_489_" x="84.653" y="491.652" width="885" height="29"/>
				</defs>
				<clipPath id="SVGID_490_">
					<use xlink:href="#SVGID_489_"  overflow="visible"/>
				</clipPath>
				
					<line clip-path="url(#SVGID_490_)" fill="none" stroke="#ADADAD" stroke-miterlimit="10" x1="439.145" y1="493.292" x2="439.145" y2="498.292"/>
			</g>
			<g clip-path="url(#SVGID_460_)">
				<defs>
					<line id="SVGID_491_" x1="527.394" y1="493.292" x2="527.394" y2="498.292"/>
				</defs>
				<clipPath id="SVGID_492_">
					<use xlink:href="#SVGID_491_"  overflow="visible"/>
				</clipPath>
				<g clip-path="url(#SVGID_492_)">
					<defs>
						<rect id="SVGID_493_" x="84.653" y="491.652" width="885" height="29"/>
					</defs>
					<clipPath id="SVGID_494_">
						<use xlink:href="#SVGID_493_"  overflow="visible"/>
					</clipPath>
					<rect x="522.394" y="488.292" clip-path="url(#SVGID_494_)" width="10" height="15"/>
				</g>
			</g>
			<g clip-path="url(#SVGID_460_)">
				<defs>
					<rect id="SVGID_495_" x="84.653" y="491.652" width="885" height="29"/>
				</defs>
				<clipPath id="SVGID_496_">
					<use xlink:href="#SVGID_495_"  overflow="visible"/>
				</clipPath>
				
					<line clip-path="url(#SVGID_496_)" fill="none" stroke="#ADADAD" stroke-miterlimit="10" x1="527.394" y1="493.292" x2="527.394" y2="498.292"/>
			</g>
			<g clip-path="url(#SVGID_460_)">
				<defs>
					<line id="SVGID_497_" x1="615.642" y1="493.292" x2="615.642" y2="498.292"/>
				</defs>
				<clipPath id="SVGID_498_">
					<use xlink:href="#SVGID_497_"  overflow="visible"/>
				</clipPath>
				<g clip-path="url(#SVGID_498_)">
					<defs>
						<rect id="SVGID_499_" x="84.653" y="491.652" width="885" height="29"/>
					</defs>
					<clipPath id="SVGID_500_">
						<use xlink:href="#SVGID_499_"  overflow="visible"/>
					</clipPath>
					<rect x="610.642" y="488.292" clip-path="url(#SVGID_500_)" width="10" height="15"/>
				</g>
			</g>
			<g clip-path="url(#SVGID_460_)">
				<defs>
					<rect id="SVGID_501_" x="84.653" y="491.652" width="885" height="29"/>
				</defs>
				<clipPath id="SVGID_502_">
					<use xlink:href="#SVGID_501_"  overflow="visible"/>
				</clipPath>
				
					<line clip-path="url(#SVGID_502_)" fill="none" stroke="#ADADAD" stroke-miterlimit="10" x1="615.642" y1="493.292" x2="615.642" y2="498.292"/>
			</g>
			<g clip-path="url(#SVGID_460_)">
				<defs>
					<line id="SVGID_503_" x1="703.891" y1="493.292" x2="703.891" y2="498.292"/>
				</defs>
				<clipPath id="SVGID_504_">
					<use xlink:href="#SVGID_503_"  overflow="visible"/>
				</clipPath>
				<g clip-path="url(#SVGID_504_)">
					<defs>
						<rect id="SVGID_505_" x="84.653" y="491.652" width="885" height="29"/>
					</defs>
					<clipPath id="SVGID_506_">
						<use xlink:href="#SVGID_505_"  overflow="visible"/>
					</clipPath>
					<rect x="698.891" y="488.292" clip-path="url(#SVGID_506_)" width="10" height="15"/>
				</g>
			</g>
			<g clip-path="url(#SVGID_460_)">
				<defs>
					<rect id="SVGID_507_" x="84.653" y="491.652" width="885" height="29"/>
				</defs>
				<clipPath id="SVGID_508_">
					<use xlink:href="#SVGID_507_"  overflow="visible"/>
				</clipPath>
				
					<line clip-path="url(#SVGID_508_)" fill="none" stroke="#ADADAD" stroke-miterlimit="10" x1="703.891" y1="493.292" x2="703.891" y2="498.292"/>
			</g>
			<g clip-path="url(#SVGID_460_)">
				<defs>
					<line id="SVGID_509_" x1="792.14" y1="493.292" x2="792.14" y2="498.292"/>
				</defs>
				<clipPath id="SVGID_510_">
					<use xlink:href="#SVGID_509_"  overflow="visible"/>
				</clipPath>
				<g clip-path="url(#SVGID_510_)">
					<defs>
						<rect id="SVGID_511_" x="84.653" y="491.652" width="885" height="29"/>
					</defs>
					<clipPath id="SVGID_512_">
						<use xlink:href="#SVGID_511_"  overflow="visible"/>
					</clipPath>
					<rect x="787.14" y="488.292" clip-path="url(#SVGID_512_)" width="10" height="15"/>
				</g>
			</g>
			<g clip-path="url(#SVGID_460_)">
				<defs>
					<rect id="SVGID_513_" x="84.653" y="491.652" width="885" height="29"/>
				</defs>
				<clipPath id="SVGID_514_">
					<use xlink:href="#SVGID_513_"  overflow="visible"/>
				</clipPath>
				
					<line clip-path="url(#SVGID_514_)" fill="none" stroke="#ADADAD" stroke-miterlimit="10" x1="792.14" y1="493.292" x2="792.14" y2="498.292"/>
			</g>
			<g clip-path="url(#SVGID_460_)">
				<defs>
					<line id="SVGID_515_" x1="880.389" y1="493.292" x2="880.389" y2="498.292"/>
				</defs>
				<clipPath id="SVGID_516_">
					<use xlink:href="#SVGID_515_"  overflow="visible"/>
				</clipPath>
				<g clip-path="url(#SVGID_516_)">
					<defs>
						<rect id="SVGID_517_" x="84.653" y="491.652" width="885" height="29"/>
					</defs>
					<clipPath id="SVGID_518_">
						<use xlink:href="#SVGID_517_"  overflow="visible"/>
					</clipPath>
					<rect x="875.389" y="488.292" clip-path="url(#SVGID_518_)" width="10" height="15"/>
				</g>
			</g>
			<g clip-path="url(#SVGID_460_)">
				<defs>
					<rect id="SVGID_519_" x="84.653" y="491.652" width="885" height="29"/>
				</defs>
				<clipPath id="SVGID_520_">
					<use xlink:href="#SVGID_519_"  overflow="visible"/>
				</clipPath>
				
					<line clip-path="url(#SVGID_520_)" fill="none" stroke="#ADADAD" stroke-miterlimit="10" x1="880.389" y1="493.292" x2="880.389" y2="498.292"/>
			</g>
			<g clip-path="url(#SVGID_460_)">
				<defs>
					<line id="SVGID_521_" x1="968.638" y1="493.292" x2="968.638" y2="498.292"/>
				</defs>
				<clipPath id="SVGID_522_">
					<use xlink:href="#SVGID_521_"  overflow="visible"/>
				</clipPath>
				<g clip-path="url(#SVGID_522_)">
					<defs>
						<rect id="SVGID_523_" x="84.653" y="491.652" width="885" height="29"/>
					</defs>
					<clipPath id="SVGID_524_">
						<use xlink:href="#SVGID_523_"  overflow="visible"/>
					</clipPath>
					<rect x="963.638" y="488.292" clip-path="url(#SVGID_524_)" width="10" height="15"/>
				</g>
			</g>
			<g clip-path="url(#SVGID_460_)">
				<defs>
					<rect id="SVGID_525_" x="84.653" y="491.652" width="885" height="29"/>
				</defs>
				<clipPath id="SVGID_526_">
					<use xlink:href="#SVGID_525_"  overflow="visible"/>
				</clipPath>
				
					<line clip-path="url(#SVGID_526_)" fill="none" stroke="#ADADAD" stroke-miterlimit="10" x1="968.638" y1="493.292" x2="968.638" y2="498.292"/>
			</g>
		</g>
	</g>
</g>
<g opacity="0.4">
	<defs>
		<rect id="SVGID_527_" x="78.812" y="492.292" opacity="0.4" width="900.5" height="27.4"/>
	</defs>
	<clipPath id="SVGID_528_">
		<use xlink:href="#SVGID_527_"  overflow="visible"/>
	</clipPath>
	<g clip-path="url(#SVGID_528_)" enable-background="new    ">
		<g>
			<defs>
				<rect id="SVGID_529_" x="78.653" y="502.652" width="901" height="18"/>
			</defs>
			<clipPath id="SVGID_530_">
				<use xlink:href="#SVGID_529_"  overflow="visible"/>
			</clipPath>
			<g clip-path="url(#SVGID_530_)">
				<defs>
					<rect id="SVGID_531_" x="78.653" y="491.652" width="901" height="29"/>
				</defs>
				<clipPath id="SVGID_532_">
					<use xlink:href="#SVGID_531_"  overflow="visible"/>
				</clipPath>
				<g clip-path="url(#SVGID_532_)">
					<text transform="matrix(1 0 0 1 82.6484 516.1924)" fill="#8A8A8A" font-family="'Helvetica'" font-size="12">0</text>
				</g>
				<g clip-path="url(#SVGID_532_)">
					<text transform="matrix(1 0 0 1 170.8975 516.1924)" fill="#8A8A8A" font-family="'Helvetica'" font-size="12">5</text>
				</g>
				<g clip-path="url(#SVGID_532_)">
					<text transform="matrix(1 0 0 1 255.6465 516.1924)" fill="#8A8A8A" font-family="'Helvetica'" font-size="12">10</text>
				</g>
				<g clip-path="url(#SVGID_532_)">
					<text transform="matrix(1 0 0 1 343.8955 516.1924)" fill="#8A8A8A" font-family="'Helvetica'" font-size="12">15</text>
				</g>
				<g clip-path="url(#SVGID_532_)">
					<text transform="matrix(1 0 0 1 432.144 516.1924)" fill="#8A8A8A" font-family="'Helvetica'" font-size="12">20</text>
				</g>
				<g clip-path="url(#SVGID_532_)">
					<text transform="matrix(1 0 0 1 520.3931 516.1924)" fill="#8A8A8A" font-family="'Helvetica'" font-size="12">25</text>
				</g>
				<g clip-path="url(#SVGID_532_)">
					<text transform="matrix(1 0 0 1 608.6421 516.1924)" fill="#8A8A8A" font-family="'Helvetica'" font-size="12">30</text>
				</g>
				<g clip-path="url(#SVGID_532_)">
					<text transform="matrix(1 0 0 1 696.8911 516.1924)" fill="#8A8A8A" font-family="'Helvetica'" font-size="12">35</text>
				</g>
				<g clip-path="url(#SVGID_532_)">
					<text transform="matrix(1 0 0 1 785.1396 516.1924)" fill="#8A8A8A" font-family="'Helvetica'" font-size="12">40</text>
				</g>
				<g clip-path="url(#SVGID_532_)">
					<text transform="matrix(1 0 0 1 873.3887 516.1924)" fill="#8A8A8A" font-family="'Helvetica'" font-size="12">45</text>
				</g>
				<g clip-path="url(#SVGID_532_)">
					<text transform="matrix(1 0 0 1 961.6377 516.1924)" fill="#8A8A8A" font-family="'Helvetica'" font-size="12">50</text>
				</g>
			</g>
		</g>
	</g>
</g>
<rect x="1008.5" y="99.239" fill="none" stroke="#007CC0" stroke-miterlimit="10" width="48" height="68"/>
<g>
	<path fill="none" stroke="#000000" stroke-miterlimit="10" d="M1130.5,139.239c0,1.657-1.343,3-3,3h-202c-1.657,0-3-1.343-3-3v-24
		c0-1.657,1.343-3,3-3h202c1.657,0,3,1.343,3,3V139.239z"/>
	<g>
		<path opacity="0.4" d="M1131,138.739c0,1.657-1.343,3-3,3H926c-1.657,0-3-1.343-3-3v-24c0-1.657,1.343-3,3-3h202
			c1.657,0,3,1.343,3,3V138.739z"/>
		<text transform="matrix(1 0 0 1 932.6533 133.6523)" fill="#FFFFFF" font-family="'Helvetica-Bold'" font-size="18">Color feeding </text>
		<g>
			<path fill="#FFFFFF" d="M1107.681,129.754l10.195-10.336l2.531,2.602l-12.727,12.867l-7.734-7.734l2.531-2.602L1107.681,129.754z
				"/>
		</g>
	</g>
</g>
<g opacity="0.4">
	<defs>
		<rect id="SVGID_533_" x="2207.245" y="87.392" opacity="0.4" width="53.016" height="18"/>
	</defs>
	<clipPath id="SVGID_534_">
		<use xlink:href="#SVGID_533_"  overflow="visible"/>
	</clipPath>
</g>
<g opacity="0.4">
	<defs>
		<path id="SVGID_535_" opacity="0.4" d="M2218.245,90.392h-3c-2,0-3,1-3,3v6c0,2,1,3,3,3h6c2,0,3-1,3-3v-6c0-2-1-3-3-3H2218.245z"
			/>
	</defs>
	<clipPath id="SVGID_536_">
		<use xlink:href="#SVGID_535_"  overflow="visible"/>
	</clipPath>
	<rect x="2207.245" y="85.392" clip-path="url(#SVGID_536_)" fill="#8A8A8A" width="22" height="22"/>
</g>
<g opacity="0.4">
	<text transform="matrix(1 0 0 1 2230.2441 100.3916)" fill="#8A8A8A" font-family="'Helvetica'" font-size="12">Item1</text>
</g>
<g>
	<defs>
		<rect id="SVGID_537_" x="1289.756" y="87.392" width="882.489" height="397.64"/>
	</defs>
	<clipPath id="SVGID_538_">
		<use xlink:href="#SVGID_537_"  overflow="visible"/>
	</clipPath>
</g>
<g>
	<defs>
		<rect id="SVGID_539_" x="1289.756" y="87.392" width="882.489" height="397.64"/>
	</defs>
	<clipPath id="SVGID_540_">
		<use xlink:href="#SVGID_539_"  overflow="visible"/>
	</clipPath>
</g>


</svg>
